<svg width="801" height="800" viewBox="0 0 801 800" fill="none" xmlns="http://www.w3.org/2000/svg">
<path d="M553.989 329.893L606.186 239.473C609.132 234.404 607.351 227.965 602.35 225.019C597.35 222.074 590.842 223.786 587.965 228.855L535.083 320.44C494.737 302.013 449.321 291.738 400.48 291.738C351.64 291.738 306.224 302.013 265.878 320.44L212.996 228.855C210.05 223.786 203.611 222.074 198.542 225.019C193.473 227.965 191.76 234.404 194.706 239.473L246.903 329.893C156.894 378.665 95.9287 469.77 85.8594 576.424H715.102C705.033 469.769 644.067 378.664 553.989 329.893ZM256.014 488.059C241.423 488.059 229.641 476.209 229.641 461.687C229.641 447.096 241.492 435.314 256.014 435.314C270.604 435.314 282.386 447.165 282.386 461.687C282.455 476.209 270.604 488.059 256.014 488.059ZM544.879 488.059C530.289 488.059 518.507 476.209 518.507 461.687C518.507 447.096 530.357 435.314 544.879 435.314C559.47 435.314 571.252 447.165 571.252 461.687C571.32 476.209 559.47 488.059 544.879 488.059Z" fill="#32DE84"/>
</svg>
