<svg width="801" height="800" viewBox="0 0 801 800" fill="none" xmlns="http://www.w3.org/2000/svg">
<g clip-path="url(#clip0_81_285)">
<path d="M590.912 320.45C588.012 322.7 536.812 351.55 536.812 415.7C536.812 489.9 601.962 516.15 603.912 516.8C603.612 518.4 593.562 552.75 569.562 587.75C548.162 618.55 525.812 649.3 491.812 649.3C457.812 649.3 449.062 629.55 409.812 629.55C371.562 629.55 357.962 649.95 326.862 649.95C295.762 649.95 274.062 621.45 249.112 586.45C220.212 545.35 196.862 481.5 196.862 420.9C196.862 323.7 260.062 272.15 322.262 272.15C355.312 272.15 382.862 293.85 403.612 293.85C423.362 293.85 454.162 270.85 491.762 270.85C506.012 270.85 557.212 272.15 590.912 320.45ZM473.912 229.7C489.462 211.25 500.462 185.65 500.462 160.05C500.462 156.5 500.162 152.9 499.512 150C474.212 150.95 444.112 166.85 425.962 187.9C411.712 204.1 398.412 229.7 398.412 255.65C398.412 259.55 399.062 263.45 399.362 264.7C400.962 265 403.562 265.35 406.162 265.35C428.862 265.35 457.412 250.15 473.912 229.7Z" fill="black"/>
</g>
<defs>
<clipPath id="clip0_81_285">
<rect width="407" height="500" fill="white" transform="translate(196.862 150)"/>
</clipPath>
</defs>
</svg>
