<svg width="800" height="800" viewBox="0 0 800 800" fill="none" xmlns="http://www.w3.org/2000/svg">
<path d="M400.004 524.945C469.602 524.945 526.023 468.981 526.023 399.945C526.023 330.91 469.602 274.945 400.004 274.945C330.406 274.945 273.986 330.91 273.986 399.945C273.986 468.981 330.406 524.945 400.004 524.945Z" fill="white"/>
<path d="M400.004 275H618.239C596.124 236.994 564.312 205.433 526 183.49C487.688 161.547 444.227 149.997 399.987 150C355.748 150.003 312.288 161.56 273.98 183.507C235.671 205.455 203.863 237.021 181.754 275.031L290.871 462.5L290.969 462.475C279.869 443.488 274.011 421.934 273.986 399.986C273.961 378.038 279.77 356.471 290.827 337.46C301.884 318.448 317.799 302.664 336.966 291.698C356.134 280.733 377.877 274.973 400.004 275Z" fill="url(#paint0_linear_81_288)"/>
<path d="M400.004 498.959C455.103 498.959 499.769 454.654 499.769 400.001C499.769 345.348 455.103 301.043 400.004 301.043C344.906 301.043 300.24 345.348 300.24 400.001C300.24 454.654 344.906 498.959 400.004 498.959Z" fill="#1A73E8"/>
<path d="M509.129 462.529L400.011 649.999C444.251 650.005 487.713 638.457 526.026 616.517C564.339 594.577 596.154 563.019 618.271 525.014C640.388 487.009 652.028 443.899 652.02 400.017C652.012 356.135 640.357 313.028 618.226 275.031H399.993L399.966 275.128C422.093 275.086 443.841 280.831 463.016 291.783C482.191 302.736 498.117 318.509 509.187 337.513C520.257 356.517 526.08 378.08 526.07 400.029C526.06 421.977 520.216 443.535 509.129 462.529Z" fill="url(#paint1_linear_81_288)"/>
<path d="M290.878 462.532L181.761 275.062C159.636 313.062 147.987 356.171 147.985 400.053C147.983 443.935 159.629 487.045 181.752 525.046C203.874 563.048 235.694 594.602 274.01 616.536C312.327 638.471 355.791 650.012 400.03 650L509.148 462.53L509.077 462.459C498.05 481.488 482.161 497.297 463.011 508.292C443.86 519.288 422.126 525.081 399.999 525.089C377.872 525.096 356.134 519.317 336.976 508.334C317.818 497.352 301.918 481.553 290.878 462.532Z" fill="url(#paint2_linear_81_288)"/>
<defs>
<linearGradient id="paint0_linear_81_288" x1="181.754" y1="306.25" x2="618.239" y2="306.25" gradientUnits="userSpaceOnUse">
<stop stop-color="#D93025"/>
<stop offset="1" stop-color="#EA4335"/>
</linearGradient>
<linearGradient id="paint1_linear_81_288" x1="365.579" y1="646.656" x2="581.176" y2="270.189" gradientUnits="userSpaceOnUse">
<stop stop-color="#FCC934"/>
<stop offset="1" stop-color="#FBBC04"/>
</linearGradient>
<linearGradient id="paint2_linear_81_288" x1="427.288" y1="634.39" x2="211.691" y2="257.922" gradientUnits="userSpaceOnUse">
<stop stop-color="#1E8E3E"/>
<stop offset="1" stop-color="#34A853"/>
</linearGradient>
</defs>
</svg>
