<svg width="801" height="800" viewBox="0 0 801 800" fill="none" xmlns="http://www.w3.org/2000/svg">
<path d="M134.783 471.703C134.783 497.55 140.456 517.394 147.871 529.399C157.593 545.124 172.093 551.786 186.876 551.786C205.944 551.786 223.387 547.054 257.002 500.563C283.931 463.299 315.663 410.994 337.013 378.203L373.171 322.649C398.288 284.067 427.359 241.177 460.692 212.106C487.904 188.378 517.258 175.195 546.801 175.195C596.399 175.195 643.643 203.937 679.801 257.844C719.371 316.882 738.58 391.244 738.58 467.984C738.58 513.604 729.587 547.125 714.287 573.607C699.503 599.219 670.691 624.806 622.222 624.806V551.786C663.723 551.786 674.08 513.651 674.08 470.008C674.08 407.816 659.58 338.797 627.636 289.481C604.967 254.501 575.59 233.127 543.27 233.127C508.313 233.127 480.183 259.491 448.569 306.501C431.761 331.476 414.507 361.913 395.133 396.258L373.806 434.039C330.964 510.003 320.112 527.304 298.691 555.858C261.145 605.857 229.083 624.806 186.876 624.806C136.807 624.806 105.146 603.126 85.5374 570.453C69.5303 543.829 61.668 508.896 61.668 469.09L134.783 471.703Z" fill="#0081FB"/>
<path d="M119.317 262.999C152.838 211.329 201.212 175.195 256.695 175.195C288.827 175.195 320.771 184.705 354.127 211.941C390.614 241.719 429.501 290.752 478.017 371.565L495.413 400.566C537.408 470.526 561.301 506.519 575.284 523.491C593.268 545.289 605.862 551.786 622.222 551.786C663.723 551.786 674.08 513.651 674.08 470.008L738.58 467.984C738.58 513.604 729.587 547.125 714.286 573.607C699.503 599.219 670.691 624.806 622.222 624.806C592.091 624.806 565.397 618.262 535.878 590.415C513.185 569.04 486.656 531.071 466.247 496.938L405.538 395.528C375.077 344.635 347.135 306.689 330.964 289.505C313.568 271.026 291.205 248.71 255.518 248.71C226.635 248.71 202.107 268.978 181.58 299.98L119.317 262.999Z" fill="url(#paint0_linear_81_287)"/>
<path d="M255.519 248.71C226.635 248.71 202.107 268.978 181.58 299.98C152.555 343.788 134.783 409.04 134.783 471.703C134.783 497.55 140.456 517.394 147.871 529.399L85.5374 570.453C69.5303 543.829 61.668 508.896 61.668 469.09C61.668 396.705 81.5356 321.26 119.317 262.999C152.838 211.329 201.212 175.195 256.696 175.195L255.519 248.71Z" fill="url(#paint1_linear_81_287)"/>
<defs>
<linearGradient id="paint0_linear_81_287" x1="205.261" y1="450.611" x2="671.35" y2="474.151" gradientUnits="userSpaceOnUse">
<stop stop-color="#0064E1"/>
<stop offset="0.4" stop-color="#0064E1"/>
<stop offset="0.83" stop-color="#0073EE"/>
<stop offset="1" stop-color="#0082FB"/>
</linearGradient>
<linearGradient id="paint1_linear_81_287" x1="167.597" y1="502.399" x2="167.597" y2="330.558" gradientUnits="userSpaceOnUse">
<stop stop-color="#0082FB"/>
<stop offset="1" stop-color="#0064E0"/>
</linearGradient>
</defs>
</svg>
