<svg width="801" height="800" viewBox="0 0 801 800" fill="none" xmlns="http://www.w3.org/2000/svg">
<path d="M400.886 650C366.719 650 334.427 643.437 304.011 630.312C273.594 617.187 247.032 599.271 224.323 576.562C201.615 553.854 183.698 527.292 170.573 496.875C157.448 466.458 150.886 434.167 150.886 400C150.886 365.417 157.448 333.021 170.573 302.812C183.698 272.604 201.615 246.146 224.323 223.437C247.032 200.729 273.594 182.812 304.011 169.687C334.427 156.562 366.719 150 400.886 150C435.469 150 467.865 156.562 498.073 169.687C528.282 182.812 554.74 200.729 577.448 223.437C600.157 246.146 618.073 272.604 631.198 302.812C644.323 333.021 650.886 365.417 650.886 400C650.886 434.167 644.323 466.458 631.198 496.875C618.073 527.292 600.157 553.854 577.448 576.562C554.74 599.271 528.282 617.187 498.073 630.312C467.865 643.437 435.469 650 400.886 650ZM400.886 598.75C411.719 583.75 421.094 568.125 429.011 551.875C436.927 535.625 443.386 518.333 448.386 500H353.386C358.386 518.333 364.844 535.625 372.761 551.875C380.677 568.125 390.052 583.75 400.886 598.75ZM335.886 588.75C328.386 575 321.823 560.729 316.198 545.937C310.573 531.146 305.886 515.833 302.136 500H228.386C240.469 520.833 255.573 538.958 273.698 554.375C291.823 569.792 312.552 581.25 335.886 588.75ZM465.886 588.75C489.219 581.25 509.948 569.792 528.073 554.375C546.198 538.958 561.302 520.833 573.386 500H499.636C495.886 515.833 491.198 531.146 485.573 545.937C479.948 560.729 473.386 575 465.886 588.75ZM207.136 450H292.136C290.886 441.667 289.948 433.437 289.323 425.312C288.698 417.187 288.386 408.75 288.386 400C288.386 391.25 288.698 382.812 289.323 374.687C289.948 366.562 290.886 358.333 292.136 350H207.136C205.052 358.333 203.49 366.562 202.448 374.687C201.407 382.812 200.886 391.25 200.886 400C200.886 408.75 201.407 417.187 202.448 425.312C203.49 433.437 205.052 441.667 207.136 450ZM342.136 450H459.636C460.886 441.667 461.823 433.437 462.448 425.312C463.073 417.187 463.386 408.75 463.386 400C463.386 391.25 463.073 382.812 462.448 374.687C461.823 366.562 460.886 358.333 459.636 350H342.136C340.886 358.333 339.948 366.562 339.323 374.687C338.698 382.812 338.386 391.25 338.386 400C338.386 408.75 338.698 417.187 339.323 425.312C339.948 433.437 340.886 441.667 342.136 450ZM509.636 450H594.636C596.719 441.667 598.282 433.437 599.323 425.312C600.365 417.187 600.886 408.75 600.886 400C600.886 391.25 600.365 382.812 599.323 374.687C598.282 366.562 596.719 358.333 594.636 350H509.636C510.886 358.333 511.823 366.562 512.448 374.687C513.073 382.812 513.386 391.25 513.386 400C513.386 408.75 513.073 417.187 512.448 425.312C511.823 433.437 510.886 441.667 509.636 450ZM499.636 300H573.386C561.302 279.167 546.198 261.042 528.073 245.625C509.948 230.208 489.219 218.75 465.886 211.25C473.386 225 479.948 239.271 485.573 254.062C491.198 268.854 495.886 284.167 499.636 300ZM353.386 300H448.386C443.386 281.667 436.927 264.375 429.011 248.125C421.094 231.875 411.719 216.25 400.886 201.25C390.052 216.25 380.677 231.875 372.761 248.125C364.844 264.375 358.386 281.667 353.386 300ZM228.386 300H302.136C305.886 284.167 310.573 268.854 316.198 254.062C321.823 239.271 328.386 225 335.886 211.25C312.552 218.75 291.823 230.208 273.698 245.625C255.573 261.042 240.469 279.167 228.386 300Z" fill="#181818"/>
</svg>
