<svg width="1001" height="1000" viewBox="0 0 1001 1000" fill="none" xmlns="http://www.w3.org/2000/svg">
<g clip-path="url(#clip0_64_1373)">
<path d="M63.9502 250.592V749.999H437.594H453.676H938.625V361.536H453.676V250.592H63.9502Z" fill="black"/>
<path fill-rule="evenodd" clip-rule="evenodd" d="M136.305 326.911H380.702V400.634C316.99 477.061 276.725 565.174 272.974 671.484H189.365C192.655 579.884 202.173 489.835 272.974 415.058H136.305V326.911Z" fill="white"/>
<mask id="mask0_64_1373" style="mask-type:luminance" maskUnits="userSpaceOnUse" x="136" y="326" width="245" height="346">
<path d="M136.305 326.911H380.702V400.634C316.99 477.061 276.725 565.174 272.974 671.484H189.365C192.655 579.884 202.173 489.835 272.974 415.058H136.305V326.911Z" fill="white"/>
</mask>
<g mask="url(#mask0_64_1373)">
<g filter="url(#filter0_f_64_1373)">
<path d="M136.305 326.911H380.702V400.634C316.99 477.061 276.725 565.174 272.974 671.484" stroke="white" stroke-width="4.68921"/>
</g>
</g>
<mask id="mask1_64_1373" style="mask-type:luminance" maskUnits="userSpaceOnUse" x="63" y="250" width="876" height="500">
<path d="M63.9502 250.592V749.999H437.594H453.676H938.625V361.536H453.676V250.592H63.9502Z" fill="white"/>
</mask>
<g mask="url(#mask1_64_1373)">
<g filter="url(#filter1_f_64_1373)">
<path d="M938.625 749.999V361.536H453.676V250.592H63.9502" stroke="white" stroke-width="4.68921"/>
</g>
</g>
<path d="M928.622 372.721V744.425H444.806V372.721H928.622Z" fill="white"/>
<path fill-rule="evenodd" clip-rule="evenodd" d="M665.629 418.367V667.841H718.371V418.367H665.629ZM477.001 419.924V476.776H558.523L473.803 614.147V669.398H628.876V614.147H529.743L632.074 470.46V419.924H477.001ZM766.293 420.013V670.866H823.855V582.518H862.184C923.567 582.311 925.196 418.107 858.941 420.013H766.293ZM820.657 473.707H843.132C868.135 472.861 868.662 529.135 843.132 525.666L822.368 527.401L820.657 473.707Z" fill="black"/>
<mask id="mask2_64_1373" style="mask-type:luminance" maskUnits="userSpaceOnUse" x="473" y="418" width="436" height="253">
<path d="M665.629 418.367V667.841H718.371V418.367H665.629ZM477.001 419.924V476.776H558.523L473.803 614.147V669.398H628.876V614.147H529.743L632.074 470.46V419.924H477.001ZM766.293 420.013V670.866H823.855V582.518H862.184C923.567 582.311 925.196 418.107 858.941 420.013H766.293ZM820.657 473.707H843.132C868.135 472.861 868.662 529.135 843.132 525.666L822.368 527.401L820.657 473.707Z" fill="white"/>
</mask>
<g mask="url(#mask2_64_1373)">
<g filter="url(#filter2_f_64_1373)">
<path d="M718.371 667.841V418.367H665.629M628.876 669.398V614.147H529.743L632.074 470.46V419.924H477.001M823.855 670.866V582.518M862.184 582.518C923.568 582.311 925.197 418.107 858.941 420.013H766.294M843.132 525.666L822.369 527.401L820.657 473.707" stroke="white" stroke-width="4.64091"/>
</g>
</g>
<mask id="mask3_64_1373" style="mask-type:luminance" maskUnits="userSpaceOnUse" x="444" y="372" width="485" height="373">
<path d="M928.622 372.721V744.425H444.806V372.721H928.622Z" fill="white"/>
</mask>
<g mask="url(#mask3_64_1373)">
<g filter="url(#filter3_f_64_1373)">
<path d="M928.622 744.425V372.721H444.806" stroke="white" stroke-width="4.64091"/>
</g>
</g>
</g>
<defs>
<filter id="filter0_f_64_1373" x="132.553" y="320.815" width="254.245" height="354.504" filterUnits="userSpaceOnUse" color-interpolation-filters="sRGB">
<feFlood flood-opacity="0" result="BackgroundImageFix"/>
<feBlend mode="normal" in="SourceGraphic" in2="BackgroundImageFix" result="shape"/>
<feGaussianBlur stdDeviation="1.87568" result="effect1_foregroundBlur_64_1373"/>
</filter>
<filter id="filter1_f_64_1373" x="60.1988" y="244.496" width="884.522" height="509.254" filterUnits="userSpaceOnUse" color-interpolation-filters="sRGB">
<feFlood flood-opacity="0" result="BackgroundImageFix"/>
<feBlend mode="normal" in="SourceGraphic" in2="BackgroundImageFix" result="shape"/>
<feGaussianBlur stdDeviation="1.87568" result="effect1_foregroundBlur_64_1373"/>
</filter>
<filter id="filter2_f_64_1373" x="473.288" y="412.334" width="441.174" height="262.245" filterUnits="userSpaceOnUse" color-interpolation-filters="sRGB">
<feFlood flood-opacity="0" result="BackgroundImageFix"/>
<feBlend mode="normal" in="SourceGraphic" in2="BackgroundImageFix" result="shape"/>
<feGaussianBlur stdDeviation="1.85636" result="effect1_foregroundBlur_64_1373"/>
</filter>
<filter id="filter3_f_64_1373" x="441.093" y="366.688" width="493.562" height="381.45" filterUnits="userSpaceOnUse" color-interpolation-filters="sRGB">
<feFlood flood-opacity="0" result="BackgroundImageFix"/>
<feBlend mode="normal" in="SourceGraphic" in2="BackgroundImageFix" result="shape"/>
<feGaussianBlur stdDeviation="1.85636" result="effect1_foregroundBlur_64_1373"/>
</filter>
<clipPath id="clip0_64_1373">
<rect width="873.457" height="500" fill="white" transform="translate(63.8711 250)"/>
</clipPath>
</defs>
</svg>
