<svg width="1001" height="1000" viewBox="0 0 1001 1000" fill="none" xmlns="http://www.w3.org/2000/svg">
<g clip-path="url(#clip0_61_655)">
<path d="M328.895 250H672.694C715.79 250 750.79 285 750.79 328.096V671.895C750.79 714.99 715.79 749.99 672.694 749.99H328.895C285.8 749.99 250.8 714.99 250.8 671.895V328.096C250.8 285 285.8 250 328.895 250Z" fill="#000B1D"/>
<path d="M524.101 462.598C513.603 497.695 504.501 533.398 494.101 566.602C489.599 583.506 482.597 599.6 473.397 614.404C462.694 629.6 445.497 638.809 427.001 639.307C412.597 639.307 398.397 632.51 398.397 617.51C399.101 608.105 406.298 600.508 415.702 599.414C419.003 599.316 422.001 601.016 423.602 603.916C430.702 616.611 437.499 624.014 440.604 624.014C443.7 624.014 446.308 619.814 451.405 601.318L488.905 462.52H462.206C460.302 457.217 462.011 451.318 466.405 447.822H493.007C497.704 431.826 504.11 416.318 512.206 401.719C523.31 377.617 546.903 361.816 573.31 360.615C594.511 360.615 603.31 370.811 603.31 383.818C603.212 394.316 595.507 403.115 585.214 404.814C580.712 404.814 578.417 401.416 577.011 396.611C572.314 378.516 565.907 373.115 562.313 373.115C558.71 373.115 553.017 379.912 546.718 394.111C539.12 411.514 533.017 429.414 528.417 447.812H560.722C562.724 453.213 560.819 459.209 556.22 462.51L524.101 462.598Z" fill="white"/>
</g>
<defs>
<clipPath id="clip0_61_655">
<rect width="500" height="500" fill="white" transform="translate(250.8 250)"/>
</clipPath>
</defs>
</svg>
