<svg width="1000" height="1000" viewBox="0 0 1000 1000" fill="none" xmlns="http://www.w3.org/2000/svg">
<g clip-path="url(#clip0_61_744)">
<path d="M334.402 250H665.598C677.527 249.989 689.341 252.33 700.364 256.89C711.387 261.45 721.402 268.138 729.837 276.573C738.272 285.008 744.961 295.024 749.521 306.046C754.08 317.069 756.422 328.883 756.41 340.812V659.188C756.422 671.117 754.08 682.931 749.521 693.954C744.961 704.976 738.272 714.992 729.837 723.427C721.402 731.862 711.387 738.551 700.364 743.11C689.341 747.67 677.527 750.011 665.598 750H334.402C322.473 750.011 310.659 747.67 299.636 743.11C288.613 738.551 278.598 731.862 270.163 723.427C261.728 714.992 255.039 704.976 250.48 693.954C245.92 682.931 243.579 671.117 243.59 659.188V340.812C243.579 328.883 245.92 317.069 250.48 306.046C255.039 295.024 261.728 285.008 270.163 276.573C278.598 268.138 288.613 261.45 299.636 256.89C310.659 252.33 322.473 249.989 334.402 250Z" fill="#000B1D"/>
<path d="M361.325 600.854L361.111 382.478C361.111 380.342 361.752 379.273 363.248 379.06C367.094 378.846 373.077 378.632 381.197 378.632C389.316 378.632 397.009 378.419 406.41 378.205C415.812 377.991 424.359 377.991 432.265 377.991C451.069 377.991 466.453 379.273 477.564 383.547C487.177 386.749 495.942 392.081 503.205 399.145C508.926 404.674 513.247 411.486 515.812 419.017C517.775 425.166 518.783 431.579 518.804 438.034C518.736 444.926 517.358 451.742 514.744 458.119C512.863 463.424 510.04 468.347 506.41 472.649C503.833 475.979 500.729 478.866 497.222 481.196C502.119 483.808 506.706 486.962 510.898 490.598C516.289 495.365 520.652 501.181 523.718 507.692C527.806 515.765 529.859 524.713 529.701 533.76C529.77 547.045 525.576 560.002 517.735 570.726C509.266 581.909 497.774 590.435 484.616 595.299C468.232 601.754 450.725 604.877 433.12 604.487H410.47C403.205 604.487 397.222 604.487 391.026 604.273C384.829 604.06 379.701 604.06 375.214 603.846C370.727 603.632 366.881 603.632 363.675 603.632C361.966 603.632 361.325 602.564 361.325 600.854ZM407.693 418.59L407.906 466.239H430.342C436.539 466.239 442.522 466.453 448.504 466.666C452.81 466.67 457.104 467.099 461.325 467.948C464.33 465.341 466.86 462.232 468.804 458.76C471.102 454.728 472.283 450.154 472.222 445.513C472.228 439.832 470.433 434.296 467.094 429.701C463.74 425.621 459.293 422.582 454.274 420.94C447.208 418.837 439.846 417.899 432.479 418.162H422.436C419.445 418.162 417.522 418.162 415.171 418.376C412.821 418.59 410.47 418.59 407.693 418.59ZM407.906 506.196V563.461C411.752 563.675 414.744 563.889 418.804 563.889C422.863 563.889 427.351 564.102 432.906 564.102C441.339 564.281 449.754 563.274 457.906 561.111C464.152 559.585 469.804 556.238 474.146 551.495C478.194 547.029 480.539 541.28 480.769 535.256C480.579 529.375 478.563 523.7 475 519.017C472.009 514.53 466.453 510.684 458.547 508.547C455.454 507.771 452.314 507.2 449.146 506.837C444.957 506.411 440.749 506.197 436.539 506.196H407.906ZM560.257 431.624H597.65C598.663 431.648 599.642 431.992 600.448 432.606C601.253 433.22 601.845 434.073 602.137 435.042C603.02 436.554 603.601 438.223 603.846 439.957C604.274 442.094 604.701 444.444 604.915 446.581C605.128 448.718 605.342 452.35 605.342 455.128C611.728 447.379 619.477 440.861 628.205 435.897C637.393 430.769 647.222 429.487 659.188 429.487C659.54 429.439 659.897 429.463 660.24 429.556C660.582 429.649 660.902 429.81 661.181 430.029C661.46 430.248 661.693 430.521 661.864 430.832C662.036 431.143 662.143 431.484 662.18 431.837V473.718C662.18 475.427 661.111 476.068 658.761 476.068C651.462 475.608 644.134 476.111 636.966 477.564C630.794 478.838 624.776 480.772 619.017 483.333C614.364 485.169 610.09 487.85 606.41 491.239V599.572C606.41 601.709 605.556 602.564 603.633 602.564H563.034C562.64 602.63 562.237 602.616 561.848 602.522C561.46 602.427 561.095 602.255 560.775 602.015C560.455 601.775 560.188 601.473 559.988 601.127C559.789 600.78 559.662 600.397 559.616 600V481.624C559.616 476.495 559.616 471.154 559.402 465.598C559.188 460.042 559.188 454.487 558.975 448.931C558.761 444.017 558.334 438.889 557.693 433.974C557.636 433.722 557.63 433.46 557.674 433.205C557.719 432.95 557.813 432.707 557.952 432.488C558.091 432.27 558.272 432.081 558.484 431.933C558.696 431.784 558.935 431.679 559.188 431.624H560.257Z" fill="white"/>
</g>
<defs>
<clipPath id="clip0_61_744">
<rect width="512.82" height="500" fill="white" transform="translate(243.59 250)"/>
</clipPath>
</defs>
</svg>
