<svg width="1001" height="1000" viewBox="0 0 1001 1000" fill="none" xmlns="http://www.w3.org/2000/svg">
<g clip-path="url(#clip0_119_269)">
<path d="M312.296 261.43H688.504C722.705 261.43 750.4 289.125 750.4 323.326V676.671C750.4 710.872 722.705 738.567 688.504 738.567H312.296C278.096 738.567 250.4 710.872 250.4 676.671V323.326C250.4 289.125 278.096 261.43 312.296 261.43Z" fill="black"/>
<path d="M491.292 381.316C557.649 381.316 611.553 435.034 611.553 501.391V501.577C611.553 567.934 557.835 621.837 491.478 621.837H491.292C424.936 621.837 371.032 568.119 371.032 501.763V501.577C371.032 435.22 424.75 381.316 491.107 381.316H491.292ZM491.292 599.16C545.196 599.16 588.876 555.48 588.876 501.577C588.876 447.673 545.196 403.993 491.292 403.993C437.389 403.993 393.709 447.673 393.709 501.577C393.709 555.48 437.389 599.16 491.292 599.16Z" fill="white"/>
<path d="M613.783 629.085L478.653 501.39L613.783 377.227L625.307 389.68L503.56 501.576L625.307 616.632L613.783 629.085Z" fill="white"/>
<path d="M631.441 400.834C647.661 400.834 660.809 387.685 660.809 371.466C660.809 355.246 647.661 342.098 631.441 342.098C615.222 342.098 602.073 355.246 602.073 371.466C602.073 387.685 615.222 400.834 631.441 400.834Z" fill="white"/>
<path d="M491.292 532.619C507.512 532.619 520.66 519.47 520.66 503.251C520.66 487.031 507.512 473.883 491.292 473.883C475.073 473.883 461.924 487.031 461.924 503.251C461.924 519.47 475.073 532.619 491.292 532.619Z" fill="white"/>
<path d="M629.582 657.896C645.802 657.896 658.95 644.748 658.95 628.528C658.95 612.309 645.802 599.16 629.582 599.16C613.363 599.16 600.214 612.309 600.214 628.528C600.214 644.748 613.363 657.896 629.582 657.896Z" fill="white"/>
</g>
<defs>
<clipPath id="clip0_119_269">
<rect width="500" height="477.138" fill="white" transform="translate(250.4 261.43)"/>
</clipPath>
</defs>
</svg>
