<svg width="1001" height="1000" viewBox="0 0 1001 1000" fill="none" xmlns="http://www.w3.org/2000/svg">
<g clip-path="url(#clip0_119_183)">
<path d="M662.117 258.928H339.082C290.214 258.928 250.6 298.543 250.6 347.41V652.588C250.6 701.456 290.214 741.071 339.082 741.071H662.117C710.985 741.071 750.6 701.456 750.6 652.588V347.41C750.6 298.543 710.985 258.928 662.117 258.928Z" fill="#EB1000"/>
<path d="M443.189 594.374C443.189 596.338 442.296 597.231 440.332 597.231H399.528C397.921 597.231 397.296 596.071 397.296 594.374V383.392C397.296 381.517 397.921 380.803 399.796 380.803H530.6C532.832 380.803 533.368 381.428 533.725 383.571L537.385 419.196C537.743 421.16 536.76 422.053 534.618 422.053H443.189V472.231H525.6C527.475 472.231 528.368 472.856 528.368 474.821V510.892C528.368 512.856 527.385 513.481 525.778 513.481H443.189V594.374Z" fill="white"/>
<path d="M561.85 435.803C561.85 433.928 562.742 433.035 564.617 433.035H605.242C607.385 433.035 608.01 433.571 608.01 435.714V594.107C608.01 596.249 607.385 597.142 604.975 597.142H565.153C562.921 597.142 561.85 596.16 561.85 594.017V435.714V435.803Z" fill="white"/>
<path d="M594.885 397.321L615.064 401.875C623.01 403.661 628.546 394.196 623.01 388.214L608.992 373.036C607.117 371.071 606.403 368.304 607.028 365.625L611.582 345.446C613.367 337.5 603.814 332.054 597.832 337.589L582.653 351.607C580.689 353.482 577.832 354.197 575.242 353.572L555.064 349.018C547.117 347.232 541.582 356.696 547.117 362.679L561.135 377.857C563.01 379.821 563.725 382.589 563.1 385.268L558.546 405.446C556.76 413.393 566.314 418.839 572.296 413.304L587.475 399.286C589.439 397.411 592.296 396.696 594.885 397.321Z" fill="white"/>
</g>
<defs>
<clipPath id="clip0_119_183">
<rect width="500" height="482.143" fill="white" transform="translate(250.6 258.928)"/>
</clipPath>
</defs>
</svg>
