<svg width="1001" height="1000" viewBox="0 0 1001 1000" fill="none" xmlns="http://www.w3.org/2000/svg">
<g clip-path="url(#clip0_61_648)">
<path d="M633.213 250H367.588C302.867 250 250.4 302.467 250.4 367.188V632.812C250.4 697.533 302.867 750 367.588 750H633.213C697.934 750 750.4 697.533 750.4 632.812V367.188C750.4 302.467 697.934 250 633.213 250Z" fill="#001E36"/>
<path d="M362.9 597.734V383.359C362.9 381.901 363.525 381.068 364.984 381.068C368.525 381.068 371.859 381.068 376.65 380.859C381.65 380.651 386.859 380.651 392.484 380.443C398.109 380.234 404.15 380.234 410.609 380.026C417.067 379.818 423.317 379.818 429.567 379.818C446.65 379.818 460.816 381.901 472.484 386.276C482.9 389.818 492.484 395.651 500.4 403.359C507.066 410.026 512.275 418.151 515.609 427.109C518.734 435.859 520.4 444.818 520.4 454.193C520.4 472.109 516.234 486.9 507.9 498.568C499.566 510.234 487.9 518.984 474.359 523.984C460.191 529.193 444.567 531.068 427.484 531.068C422.484 531.068 419.15 531.068 417.067 530.859C414.984 530.65 412.067 530.65 408.109 530.65V597.525C408.317 598.984 407.275 600.234 405.817 600.443C405.609 600.443 405.4 600.443 404.984 600.443H365.4C363.734 600.443 362.9 599.609 362.9 597.734ZM408.317 421.276V491.275C411.234 491.484 413.942 491.693 416.442 491.693H427.484C435.609 491.693 443.734 490.443 451.441 487.943C458.109 486.068 463.941 482.109 468.525 476.9C472.9 471.693 474.984 464.609 474.984 455.443C475.191 448.984 473.525 442.526 470.191 436.901C466.65 431.484 461.65 427.318 455.609 425.026C447.9 421.901 439.567 420.651 431.025 420.859C425.609 420.859 420.817 420.859 416.859 421.068C412.692 420.859 409.775 421.068 408.317 421.276Z" fill="#31A8FF"/>
<path d="M650.4 478.568C644.15 475.234 637.484 472.943 630.4 471.484C622.691 469.818 614.984 468.775 607.066 468.775C602.9 468.568 598.525 469.193 594.566 470.234C591.859 470.859 589.566 472.318 588.109 474.4C587.066 476.068 586.441 478.15 586.441 480.025C586.441 481.9 587.275 483.775 588.525 485.443C590.4 487.734 592.9 489.609 595.609 491.068C600.4 493.568 605.4 495.859 610.4 497.943C621.65 501.693 632.484 506.9 642.484 513.15C649.359 517.525 654.984 523.359 658.941 530.443C662.275 537.109 663.941 544.4 663.734 551.9C663.941 561.693 661.025 571.484 655.609 579.609C649.775 587.943 641.65 594.4 632.275 598.15C622.066 602.525 609.566 604.818 594.566 604.818C584.984 604.818 575.609 603.984 566.234 602.109C558.941 600.859 551.65 598.568 544.984 595.443C543.525 594.609 542.484 593.15 542.691 591.484V555.234C542.691 554.609 542.9 553.775 543.525 553.359C544.15 552.943 544.775 553.15 545.4 553.568C553.525 558.359 562.066 561.693 571.234 563.775C579.15 565.859 587.484 566.9 595.816 566.9C603.734 566.9 609.359 565.859 613.109 563.984C616.441 562.525 618.734 558.984 618.734 555.234C618.734 552.318 617.066 549.609 613.734 546.9C610.4 544.193 603.525 541.068 593.316 537.109C582.691 533.359 572.9 528.359 563.734 522.109C557.275 517.525 551.859 511.484 547.9 504.4C544.566 497.734 542.9 490.443 543.109 483.15C543.109 474.193 545.609 465.65 550.191 457.943C555.4 449.609 563.109 442.943 572.066 438.776C581.859 433.776 594.15 431.484 608.941 431.484C617.484 431.484 626.234 432.109 634.775 433.359C641.025 434.193 647.066 435.859 652.691 438.151C653.525 438.359 654.359 439.193 654.775 440.026C654.984 440.859 655.191 441.693 655.191 442.526V476.484C655.191 477.318 654.775 478.15 654.15 478.568C652.275 478.984 651.234 478.984 650.4 478.568Z" fill="#31A8FF"/>
</g>
<defs>
<clipPath id="clip0_61_648">
<rect width="500" height="500" fill="white" transform="translate(250.4 250)"/>
</clipPath>
</defs>
</svg>
