<svg width="1001" height="1000" viewBox="0 0 1001 1000" fill="none" xmlns="http://www.w3.org/2000/svg">
<g clip-path="url(#clip0_61_670)">
<mask id="mask0_61_670" style="mask-type:luminance" maskUnits="userSpaceOnUse" x="241" y="250" width="514" height="500">
<path d="M754.045 250H241.225V750H754.045V250Z" fill="white"/>
</mask>
<g mask="url(#mask0_61_670)">
<path d="M663.233 250H332.036C281.882 250 241.225 290.658 241.225 340.812V659.188C241.225 709.342 281.882 750 332.036 750H663.233C713.387 750 754.045 709.342 754.045 659.188V340.812C754.045 290.658 713.387 250 663.233 250Z" fill="#49021F"/>
<path d="M427.46 380.804V599.942C427.46 602.238 426.428 603.384 424.364 603.383H382.738C380.9 603.383 379.983 602.236 379.986 599.942V380.804C379.986 378.971 381.018 378.053 383.082 378.051H424.708C425.082 377.998 425.463 378.033 425.821 378.152C426.179 378.272 426.504 378.473 426.771 378.74C427.039 379.007 427.24 379.332 427.359 379.691C427.479 380.049 427.513 380.43 427.46 380.804Z" fill="#FF3366"/>
<path d="M550.619 606.824C534.785 607.065 519.096 603.774 504.693 597.191C491.276 590.982 480.059 580.845 472.528 568.122C464.728 555.167 460.829 538.941 460.831 519.444C460.701 503.654 464.736 488.111 472.528 474.377C480.554 460.389 492.357 448.944 506.586 441.352C521.491 433.095 539.494 428.967 560.596 428.967C561.741 428.967 563.231 429.024 565.067 429.139C566.901 429.257 569.079 429.429 571.604 429.655V361.884C571.604 360.282 572.292 359.476 573.669 359.476H617.014C617.294 359.436 617.581 359.461 617.849 359.551C618.118 359.641 618.362 359.791 618.562 359.991C618.763 360.192 618.914 360.436 619.003 360.704C619.093 360.973 619.119 361.259 619.079 361.539V564.854C619.079 568.756 619.251 572.999 619.594 577.582C619.939 582.172 620.226 586.301 620.455 589.967C620.497 590.681 620.322 591.392 619.954 592.006C619.586 592.62 619.041 593.108 618.391 593.407C607.208 598.071 595.561 601.531 583.645 603.727C572.751 605.738 561.698 606.774 550.619 606.824ZM571.604 564.166V470.249C569.744 469.746 567.846 469.4 565.928 469.217C563.585 468.981 561.231 468.867 558.876 468.873C550.527 468.79 542.277 470.676 534.794 474.377C527.506 478 521.283 483.453 516.734 490.202C512.031 497.082 509.68 506.142 509.681 517.379C509.514 524.879 510.738 532.344 513.293 539.396C515.372 545.079 518.659 550.243 522.926 554.533C527.011 558.48 531.957 561.424 537.374 563.134C543.096 564.987 549.077 565.916 555.091 565.886C558.301 565.886 561.282 565.771 564.036 565.542C566.599 565.349 569.136 564.887 571.604 564.166Z" fill="#FF3366"/>
</g>
</g>
<defs>
<clipPath id="clip0_61_670">
<rect width="518.75" height="500" fill="white" transform="translate(241.225 250)"/>
</clipPath>
</defs>
</svg>
