<svg width="1000" height="1000" viewBox="0 0 1000 1000" fill="none" xmlns="http://www.w3.org/2000/svg">
<g clip-path="url(#clip0_61_735)">
<path d="M334.436 250.051H665.564C715.767 250.051 756.358 290.642 756.358 340.845V659.155C756.358 709.358 715.767 749.949 665.564 749.949H334.436C284.233 749.949 243.643 709.358 243.643 659.155V340.845C243.643 290.642 284.233 250.051 334.436 250.051Z" fill="#00005B"/>
<path d="M449.584 549.135H370.114L353.877 599.551C353.45 601.473 351.74 602.754 349.818 602.541H309.656C307.306 602.541 306.666 601.259 307.306 598.696L376.096 401.514C376.736 399.377 377.378 397.455 378.233 394.891C379.088 390.406 379.515 385.706 379.515 381.005C379.301 379.937 380.155 378.868 381.223 378.655H436.553C438.048 378.655 439.117 379.295 439.33 380.363L517.306 598.267C517.948 600.617 517.306 601.686 515.169 601.686H470.52C469.025 601.899 467.529 600.831 467.101 599.336L449.582 548.064V549.133L449.584 549.135ZM382.505 506.622H436.767C435.485 502.137 433.776 496.795 431.853 491.241C429.929 485.474 428.007 479.278 426.086 472.869C423.949 466.247 422.027 459.838 419.89 453.216C417.753 446.594 415.831 440.398 414.123 434.202C412.415 428.22 410.92 422.666 409.422 417.539H408.996C407.072 426.725 404.724 435.911 401.732 445.099C398.528 455.353 395.323 466.034 391.904 476.717C389.127 487.611 385.708 497.652 382.505 506.624V506.622ZM643.134 529.908H575.413C576.268 536.53 578.403 543.152 582.035 548.921C585.881 554.688 591.221 559.176 597.63 561.739C606.176 565.371 615.575 567.293 624.974 567.08C632.452 566.866 639.929 566.225 647.191 564.729C653.813 563.874 660.222 562.166 666.205 559.816C667.273 558.96 667.913 559.389 667.913 561.524V594.211C667.913 595.066 667.7 595.919 667.486 596.774C667.06 597.416 666.631 597.843 665.991 598.269C659.156 601.259 652.105 603.396 644.627 604.678C634.586 606.6 624.545 607.455 614.291 607.242C598.054 607.242 584.383 604.678 573.274 599.764C562.806 595.277 553.62 588.228 546.356 579.469C539.521 571.138 534.607 561.737 531.617 551.483C528.627 541.442 527.13 530.974 527.13 520.293C527.13 508.757 528.838 497.435 532.47 486.325C535.889 475.644 541.229 465.816 548.491 457.057C555.542 448.511 564.299 441.676 574.34 436.762C584.381 431.848 596.344 430.14 610.017 430.14C621.34 429.926 632.663 432.063 643.13 436.762C651.89 440.607 659.58 446.376 665.563 453.852C671.116 461.116 675.604 469.233 678.381 478.206C681.157 486.752 682.439 495.509 682.439 504.268C682.439 509.395 682.226 513.882 682.013 517.941C681.586 522 681.371 524.992 681.157 526.914C680.944 528.409 679.662 529.69 678.167 529.69C676.885 529.69 674.535 529.904 671.116 530.117C667.698 530.544 663.639 530.759 658.725 530.759C653.811 530.759 648.684 529.904 643.13 529.904L643.134 529.908ZM575.413 498.718H620.489C626.043 498.718 630.103 498.718 632.665 498.505C634.373 498.292 636.084 497.863 637.579 496.797V494.66C637.579 491.883 637.152 489.319 636.297 486.756C632.451 474.793 621.129 466.674 608.524 467.102C596.775 466.46 585.665 472.656 580.111 483.339C577.548 488.253 576.053 493.38 575.411 498.72L575.413 498.718Z" fill="#9999FF"/>
</g>
<defs>
<clipPath id="clip0_61_735">
<rect width="512.715" height="500" fill="white" transform="translate(243.643 250)"/>
</clipPath>
</defs>
</svg>
