<svg width="1000" height="1000" viewBox="0 0 1000 1000" fill="none" xmlns="http://www.w3.org/2000/svg">
<path d="M334.4 250H665.6C715.7 249.95 756.365 290.535 756.405 340.645V340.815V659.195C756.455 709.295 715.87 749.96 665.77 750H665.6H334.4C284.3 750.05 243.645 709.465 243.595 659.365V659.195V340.805C243.555 290.705 284.13 250.05 334.23 250H334.4Z" fill="#013301"/>
<path d="M474.363 549.149H394.876L378.64 599.579C378.26 601.472 376.507 602.764 374.574 602.574H334.399C332.056 602.574 331.405 601.292 332.056 598.728L400.856 401.292C401.487 399.159 402.138 397.226 402.989 394.662C403.851 390.084 404.281 385.427 404.271 380.779C404.141 379.668 404.882 378.646 405.984 378.436H461.333C463.045 378.436 463.897 379.087 464.117 380.148L542.092 599.159C542.723 601.502 542.092 602.574 539.958 602.574H495.307C493.744 602.724 492.302 601.733 491.891 600.23L474.363 549.149ZM407.266 506.621H461.543C460.261 502.123 458.548 496.795 456.635 491.236C454.702 485.677 452.789 479.267 450.856 472.857C448.943 466.446 446.789 459.816 444.666 453.195C442.532 446.565 440.599 440.375 438.887 434.185C437.174 427.995 435.692 422.646 434.189 417.518H433.758C431.845 426.833 429.411 436.028 426.497 445.072C423.302 455.329 420.087 466.016 416.671 476.693C413.676 487.61 410.481 497.646 407.266 506.621Z" fill="#33FF66"/>
<path d="M564.959 431.621H602.359C604.432 431.671 606.245 433.043 606.836 435.036C607.627 436.809 608.198 438.682 608.548 440.595C608.979 442.728 609.4 445.092 609.61 447.226C609.831 449.359 610.041 452.133 610.041 454.918C616.461 447.426 624.204 441.196 632.897 436.539C642.202 431.26 652.759 428.596 663.446 428.846C664.889 428.656 666.241 429.668 666.431 431.11L666.441 431.19V473.718C666.441 475.431 665.379 476.062 663.026 476.062C655.864 475.601 648.673 476.102 641.661 477.564C635.492 478.836 629.472 480.779 623.713 483.343C618.805 485.687 613.456 488.251 610.892 491.256V599.599C610.892 601.733 610.041 602.594 608.108 602.594H567.934C566.331 602.865 564.809 601.783 564.538 600.17L564.518 600.03V481.641C564.518 476.512 564.518 471.164 564.298 465.625C564.077 460.066 564.077 454.517 563.867 448.958C563.647 444.051 563.236 438.922 562.585 434.004C562.345 432.953 563.016 431.891 564.067 431.661H564.107H564.959V431.621Z" fill="#33FF66"/>
</svg>
