<svg width="1001" height="1000" viewBox="0 0 1001 1000" fill="none" xmlns="http://www.w3.org/2000/svg">
<g clip-path="url(#clip0_61_752)">
<path d="M633.012 250H367.387C302.666 250 250.199 302.467 250.199 367.188V632.812C250.199 697.533 302.666 750 367.387 750H633.012C697.733 750 750.199 697.533 750.199 632.812V367.188C750.199 302.467 697.733 250 633.012 250Z" fill="#00005B"/>
<path d="M355.668 606.797V392.213C355.668 390.755 356.293 389.922 357.751 389.922C361.293 389.922 364.626 389.922 369.418 389.713C374.418 389.505 379.626 389.505 385.251 389.297C390.876 389.088 396.918 389.088 403.376 388.88C409.835 388.672 416.085 388.672 422.335 388.672C439.418 388.672 453.584 390.755 465.252 395.13C475.668 398.672 485.252 404.505 493.168 412.213C499.834 418.88 505.043 427.005 508.377 435.963C511.502 444.713 513.168 453.672 513.168 463.047C513.168 480.963 509.002 495.756 500.668 507.422C492.334 519.088 480.668 527.838 467.127 532.838C452.959 538.047 437.335 539.922 420.251 539.922C415.251 539.922 411.918 539.922 409.835 539.713C407.751 539.506 404.835 539.506 400.876 539.506V606.381C401.085 607.838 400.043 609.088 398.585 609.297H397.751H358.168C356.501 609.297 355.668 608.463 355.668 606.588V606.797ZM401.085 430.338V500.338C404.001 500.547 406.71 500.756 409.21 500.756H420.251C428.376 500.756 436.501 499.506 444.21 497.006C450.877 495.131 456.709 491.172 461.293 485.963C465.668 480.756 467.752 473.672 467.752 464.506C467.959 458.047 466.293 451.588 462.959 445.963C459.418 440.547 454.418 436.38 448.377 434.088C440.668 430.963 432.335 429.713 423.793 429.922C418.376 429.922 413.585 429.922 409.626 430.13C405.46 429.922 402.543 430.13 401.085 430.338Z" fill="#9999FF"/>
<path d="M543.167 442.63H579.626C581.71 442.63 583.376 444.089 584.001 445.963C584.626 447.631 585.042 449.297 585.251 451.172C585.667 453.256 586.085 455.547 586.292 457.631C586.501 459.922 586.71 462.422 586.71 465.131C592.96 457.838 600.46 451.797 609.001 447.213C618.585 441.797 629.626 439.089 640.667 439.089C642.126 438.88 643.376 439.922 643.585 441.38V442.214V482.838C643.585 484.506 642.542 485.131 640.251 485.131C632.751 484.922 625.042 485.547 617.751 487.213C611.71 488.463 605.876 490.338 600.251 492.838C596.292 494.713 592.542 497.213 589.626 500.547V606.797C589.626 608.881 588.792 609.713 586.917 609.713H545.876C544.21 609.922 542.751 608.881 542.542 607.213V606.381V490.963C542.542 485.963 542.542 480.756 542.335 475.338C542.126 469.922 542.126 464.506 541.917 459.088C541.917 454.297 541.501 449.713 541.085 444.922C540.876 443.88 541.501 442.839 542.542 442.63C542.542 442.422 542.96 442.422 543.167 442.63Z" fill="#9999FF"/>
</g>
<defs>
<clipPath id="clip0_61_752">
<rect width="500" height="500" fill="white" transform="translate(250.199 250)"/>
</clipPath>
</defs>
</svg>
