<svg width="1000" height="1000" viewBox="0 0 1000 1000" fill="none" xmlns="http://www.w3.org/2000/svg">
<g clip-path="url(#clip0_56_196)">
<path d="M334.402 250H665.598C715.812 250 756.41 290.598 756.41 340.812V659.188C756.41 709.402 715.812 750 665.598 750H334.402C284.188 750 243.59 709.402 243.59 659.188V340.812C243.59 290.598 284.188 250 334.402 250Z" fill="#470137"/>
<path d="M513.248 381.41L449.145 487.18L517.521 599.359C517.949 600.214 518.162 601.068 517.949 601.923C517.735 602.778 516.88 602.137 515.598 602.351H466.667C463.248 602.351 460.897 602.137 459.402 600C454.915 591.026 450.214 582.265 445.726 573.291C441.239 564.53 436.325 555.556 431.197 546.368C426.068 537.18 420.94 527.992 415.812 518.59H415.385C410.897 527.778 405.983 536.966 401.068 546.154C396.154 555.342 391.239 564.53 386.538 573.504C381.624 582.479 376.709 591.667 371.795 600.427C370.94 602.564 369.231 602.778 366.88 602.778H319.872C319.017 602.778 318.376 603.205 318.376 602.137C318.162 601.282 318.376 600.427 318.803 599.786L385.256 490.812L320.513 381.197C319.872 380.342 319.658 379.487 320.085 379.06C320.513 378.419 321.368 378.205 322.222 378.205H370.726C371.795 378.205 372.863 378.419 373.718 378.633C374.573 379.06 375.214 379.701 375.855 380.556C379.915 389.744 384.615 398.932 389.53 408.12C394.658 417.308 399.573 426.282 404.915 435.257C410.043 444.231 414.744 453.205 419.231 462.393H419.658C424.145 452.992 428.846 443.804 433.547 434.829C438.248 425.855 443.162 416.88 448.077 407.906C452.991 398.932 457.692 389.744 462.393 380.983C462.607 380.128 463.034 379.274 463.675 378.846C464.53 378.419 465.385 378.205 466.453 378.419H511.538C512.607 378.205 513.675 378.846 513.889 379.915C514.103 380.128 513.675 380.983 513.248 381.41ZM611.966 606.838C596.154 607.051 580.342 603.846 566.026 597.222C552.564 591.026 541.453 580.769 533.761 568.162C525.855 555.128 522.009 538.889 522.009 519.445C521.795 503.633 525.855 488.034 533.761 474.359C541.88 460.47 553.632 448.932 567.735 441.239C582.692 432.906 600.641 428.846 621.795 428.846C622.863 428.846 624.359 428.846 626.282 429.06C628.205 429.274 630.342 429.274 632.906 429.487V361.966C632.906 360.47 633.547 359.615 635.043 359.615H678.419C679.487 359.402 680.342 360.257 680.556 361.111V564.957C680.556 568.804 680.769 573.077 680.983 577.778C681.41 582.265 681.624 586.539 681.838 590.171C681.838 591.667 681.197 592.949 679.701 593.59C668.59 598.291 656.838 601.71 644.872 603.846C633.974 605.769 623.077 606.838 611.966 606.838ZM632.906 564.103V470.086C630.983 469.658 629.06 469.231 627.137 469.017C624.786 468.804 622.436 468.59 620.085 468.59C611.752 468.59 603.419 470.299 595.94 474.145C588.675 477.778 582.479 483.12 577.778 489.957C573.077 496.795 570.726 505.983 570.726 517.094C570.513 524.573 571.795 532.051 574.359 539.103C576.496 544.872 579.701 550 583.974 554.274C588.034 558.12 592.949 561.111 598.504 562.821C604.273 564.744 610.256 565.598 616.239 565.598C619.444 565.598 622.436 565.385 625.214 565.171C627.991 565.385 630.342 564.957 632.906 564.103Z" fill="#FF61F6"/>
</g>
<defs>
<clipPath id="clip0_56_196">
<rect width="512.82" height="500" fill="white" transform="translate(243.59 250)"/>
</clipPath>
</defs>
</svg>
