<svg width="1000" height="1000" viewBox="0 0 1000 1000" fill="none" xmlns="http://www.w3.org/2000/svg">
<g clip-path="url(#clip0_57_322)">
<path d="M632.812 250H367.188C302.467 250 250 302.467 250 367.188V632.812C250 697.533 302.467 750 367.188 750H632.812C697.533 750 750 697.533 750 632.812V367.188C750 302.467 697.533 250 632.812 250Z" fill="#330000"/>
<path d="M491.666 547.525H414.166L398.333 596.484C397.916 598.359 396.249 599.609 394.374 599.4H355.208C352.916 599.4 352.291 598.15 352.916 595.65L419.999 402.526C420.624 400.443 421.249 398.151 422.083 395.651C422.916 391.276 423.333 386.693 423.333 382.109C423.124 381.068 423.958 380.026 424.999 379.818H425.624H478.957C480.625 379.818 481.457 380.443 481.666 381.484L557.707 596.068C558.332 598.359 557.707 599.4 555.625 599.4H512.082C510.625 599.609 509.166 598.568 508.75 597.109L491.666 547.525ZM426.249 505.234H479.166C477.916 500.859 476.25 495.65 474.375 490.234C472.5 484.609 470.625 478.568 468.75 472.318C466.666 465.859 464.791 459.609 462.707 453.15C460.625 446.693 458.75 440.651 457.082 434.609C455.416 428.776 453.957 423.359 452.5 418.359H452.082C450.207 427.318 447.916 436.276 444.999 445.234C441.874 455.234 438.749 465.65 435.416 476.068C432.499 486.693 429.374 496.484 426.249 505.234Z" fill="#FF9A00"/>
<path d="M604.166 416.276C597.291 416.484 590.625 413.776 585.625 408.984C580.834 403.776 578.334 396.901 578.541 389.818C578.334 382.734 581.041 376.068 586.041 371.276C591.041 366.484 597.709 363.984 604.584 363.984C612.709 363.984 618.959 366.484 623.541 371.276C628.125 376.276 630.625 382.943 630.416 389.818C630.625 396.901 628.125 403.776 623.125 408.984C618.334 413.984 611.25 416.693 604.166 416.276ZM580.834 597.109V436.693C580.834 434.609 581.666 433.776 583.541 433.776H624.791C626.666 433.776 627.5 434.818 627.5 436.693V597.109C627.5 599.4 626.666 600.443 624.791 600.443H583.959C581.875 600.443 580.834 599.193 580.834 597.109Z" fill="#FF9A00"/>
</g>
<defs>
<clipPath id="clip0_57_322">
<rect width="500" height="500" fill="white" transform="translate(250 250)"/>
</clipPath>
</defs>
</svg>
