<svg width="1001" height="1000" viewBox="0 0 1001 1000" fill="none" xmlns="http://www.w3.org/2000/svg">
<g clip-path="url(#clip0_61_682)">
<path d="M333.208 250H668.393C719.319 250 760.06 290.741 760.06 341.667V658.333C760.06 709.259 719.319 750 668.393 750H333.208C282.282 750 241.541 709.259 241.541 658.333V341.667C241.541 290.741 282.282 250 333.208 250Z" fill="#FA0F00"/>
<path d="M658.208 538.889C634.134 513.889 568.393 524.074 552.652 525.926C529.504 503.704 513.764 476.852 508.208 467.593C516.541 442.593 522.097 417.593 523.023 390.741C523.023 367.593 513.764 342.593 487.838 342.593C478.578 342.593 470.245 348.148 465.615 355.556C454.504 375 459.134 413.889 476.727 453.704C466.541 482.408 457.282 510.185 431.356 559.259C404.504 570.371 348.023 596.296 343.393 624.074C341.541 632.408 344.319 640.741 350.801 647.222C357.282 652.778 365.615 655.556 373.949 655.556C408.208 655.556 441.541 608.334 464.69 568.519C484.134 562.037 514.69 552.778 545.245 547.222C581.356 578.704 612.838 583.334 629.504 583.334C651.727 583.334 660.06 574.074 662.838 565.741C667.467 556.482 664.69 546.296 658.208 538.889ZM635.06 554.63C634.134 561.111 625.801 567.593 610.986 563.889C593.393 559.259 577.653 550.926 563.764 539.815C575.801 537.963 602.652 535.185 622.097 538.889C629.504 540.741 636.912 545.371 635.06 554.63ZM480.43 363.889C482.282 361.111 485.06 359.259 487.838 359.259C496.171 359.259 498.023 369.445 498.023 377.778C497.097 397.222 493.393 416.667 486.912 435.185C473.023 398.148 475.801 372.222 480.43 363.889ZM478.578 543.519C485.986 528.704 496.171 502.778 499.875 491.667C508.208 505.556 522.097 522.222 529.504 529.63C529.504 530.556 500.801 536.111 478.578 543.519ZM423.949 580.556C402.653 615.741 380.43 637.963 368.393 637.963C366.541 637.963 364.69 637.037 362.838 636.111C360.06 634.259 359.134 631.482 360.06 627.778C362.838 614.815 386.912 597.222 423.949 580.556Z" fill="white"/>
</g>
<defs>
<clipPath id="clip0_61_682">
<rect width="518.518" height="500" fill="white" transform="translate(241.541 250)"/>
</clipPath>
</defs>
</svg>
