<svg width="1001" height="1000" viewBox="0 0 1001 1000" fill="none" xmlns="http://www.w3.org/2000/svg">
<g clip-path="url(#clip0_61_648)">
<path fill-rule="evenodd" clip-rule="evenodd" d="M750.4 298.828C750.4 271.879 728.521 250 701.572 250H299.229C272.279 250 250.4 271.879 250.4 298.828V701.172C250.4 728.121 272.279 750 299.229 750H701.572C728.521 750 750.4 728.121 750.4 701.172V298.828Z" fill="#891B26"/>
<path fill-rule="evenodd" clip-rule="evenodd" d="M478.013 713.379L352.134 495.436L287.026 608.158V693.848C287.026 704.627 295.776 713.379 306.558 713.379H478.013ZM569.805 713.379H497.227C497.227 713.379 403.208 550.543 371.709 496.066C365.542 485.397 365.537 472.204 371.704 461.533C383.096 441.822 398.032 415.971 398.032 415.971L569.805 713.379ZM661.597 713.379H589.019L408.701 397.496L443.926 336.515L661.597 713.379ZM713.784 644.813V693.848C713.784 704.627 705.034 713.379 694.253 713.379H680.811L453.53 319.883L472.744 286.621H506.899L713.784 644.813ZM694.253 286.621H526.108L713.784 611.551V306.152C713.784 295.373 705.034 286.621 694.253 286.621Z" fill="url(#paint0_radial_61_648)"/>
</g>
<defs>
<radialGradient id="paint0_radial_61_648" cx="0" cy="0" r="1" gradientUnits="userSpaceOnUse" gradientTransform="translate(613.174 206.416) scale(506.963)">
<stop stop-color="#FFAE71"/>
<stop offset="1" stop-color="#FF9350"/>
</radialGradient>
<clipPath id="clip0_61_648">
<rect width="500" height="500" fill="white" transform="translate(250.4 250)"/>
</clipPath>
</defs>
</svg>
