<svg width="1000" height="1000" viewBox="0 0 1000 1000" fill="none" xmlns="http://www.w3.org/2000/svg">
<g clip-path="url(#clip0_57_310)">
<path d="M750 298.827C750 271.879 728.121 250 701.171 250H298.832C271.882 250 250 271.879 250 298.827V701.168C250 728.118 271.882 750 298.832 750H701.173C728.121 750 750 728.118 750 701.168V298.827Z" fill="#134881"/>
<path d="M713.384 693.998C713.298 704.705 704.579 713.379 693.852 713.379H496.739L412.486 567.445H713.384V693.998ZM286.627 693.845V608.161L472.266 286.62H544.814L387.984 558.268L477.532 713.377H306.157C295.377 713.377 286.627 704.625 286.627 693.845ZM524.502 550.802H451.154C442.963 550.802 435.397 546.505 431.307 539.411C427.207 532.321 427.207 523.582 431.307 516.493L467.998 452.932L524.502 550.802ZM693.854 286.62C704.581 286.62 713.3 295.291 713.386 306.002V550.802H543.718L477.602 436.302L564.02 286.62H693.854Z" fill="url(#paint0_radial_57_310)"/>
</g>
<defs>
<radialGradient id="paint0_radial_57_310" cx="0" cy="0" r="1" gradientUnits="userSpaceOnUse" gradientTransform="translate(612.996 206.147) scale(506.928)">
<stop stop-color="#6BE1FB"/>
<stop offset="1" stop-color="#38BDFA"/>
</radialGradient>
<clipPath id="clip0_57_310">
<rect width="500" height="500" fill="white" transform="translate(250 250)"/>
</clipPath>
</defs>
</svg>
