<svg width="1000" height="1000" viewBox="0 0 1000 1000" fill="none" xmlns="http://www.w3.org/2000/svg">
<g clip-path="url(#clip0_61_694)">
<path fill-rule="evenodd" clip-rule="evenodd" d="M749.997 298.828C749.997 271.879 728.119 250 701.169 250H298.829C271.88 250 250.001 271.879 250.001 298.828V701.172C250.001 728.121 271.88 750 298.829 750H701.169C728.119 750 749.998 728.121 749.998 701.172L749.997 298.828Z" fill="#4E3188"/>
<path fill-rule="evenodd" clip-rule="evenodd" d="M713.389 567.425V693.848C713.389 704.497 704.849 713.167 694.248 713.375L565.137 713.375L480.84 567.425H713.389ZM545.928 713.375H317.52L431.787 515.76L545.928 713.375ZM299.18 712.091C292.27 709.442 287.246 702.983 286.685 695.295L286.631 608.155L379.487 447.388H452.065L299.18 712.091ZM518.442 447.088C524.766 447.114 530.815 450.829 534.082 456.334C534.116 456.389 534.18 456.501 534.18 456.501L553.369 489.73L553.535 490.005C556.67 495.491 556.792 502.402 553.657 507.987C547.227 519.238 540.693 530.435 534.209 541.659C531.025 547.118 525 550.679 518.594 550.759C506.372 550.81 481.865 550.782 481.831 550.782C475.508 550.755 469.36 547.384 466.089 541.879C466.016 541.76 465.879 541.516 465.879 541.516C465.879 541.516 446.68 508.284 446.641 508.207C443.501 502.722 443.506 495.635 446.641 490.05C446.685 489.968 446.782 489.804 446.782 489.804C446.782 489.804 459.629 467.52 466.06 456.378C469.243 450.919 475.283 447.164 481.685 447.084C481.792 447.083 482.007 447.079 482.007 447.079L518.223 447.088H518.442ZM700.151 287.659L548.174 550.782H713.389V306.152C713.389 297.575 707.847 290.282 700.151 287.659ZM472.344 286.621H681.538L568.403 482.499L463.809 301.404L472.344 286.621ZM519.307 430.757H389.092L454.199 318.035L519.307 430.757Z" fill="url(#paint0_radial_61_694)"/>
</g>
<defs>
<radialGradient id="paint0_radial_61_694" cx="0" cy="0" r="1" gradientUnits="userSpaceOnUse" gradientTransform="translate(612.817 206.417) scale(506.958 506.958)">
<stop stop-color="#F9A6FF"/>
<stop offset="1" stop-color="#EA73FF"/>
</radialGradient>
<clipPath id="clip0_61_694">
<rect width="500" height="500" fill="white" transform="translate(250 250)"/>
</clipPath>
</defs>
</svg>
