<svg width="1000" height="1000" viewBox="0 0 1000 1000" fill="none" xmlns="http://www.w3.org/2000/svg">
<g clip-path="url(#clip0_119_308)">
<path d="M473.162 295.314L286.837 372.413C276.475 376.701 276.582 391.419 287.009 395.552L474.114 469.75C490.554 476.269 508.862 476.269 525.3 469.75L712.407 395.552C722.831 391.419 722.941 376.701 712.577 372.413L526.255 295.314C509.255 288.281 490.159 288.281 473.162 295.314Z" fill="#FFBF00"/>
<path d="M516.307 510.266V695.622C516.307 704.438 525.196 710.475 533.391 707.226L741.883 626.3C746.643 624.413 749.764 619.814 749.764 614.695V429.339C749.764 420.523 740.874 414.486 732.68 417.735L524.188 498.661C519.431 500.548 516.307 505.147 516.307 510.266Z" fill="#26B5F8"/>
<path d="M467.622 519.833L405.747 549.708L399.464 552.745L268.848 615.33C260.569 619.324 250.001 613.29 250.001 604.093V430.121C250.001 426.793 251.707 423.92 253.995 421.756C254.95 420.799 256.032 420.011 257.156 419.386C260.278 417.514 264.73 417.014 268.515 418.511L466.583 496.988C476.651 500.982 477.442 515.09 467.622 519.833Z" fill="#ED3049"/>
<path d="M467.622 519.833L405.747 549.708L253.995 421.756C254.95 420.799 256.032 420.011 257.156 419.386C260.278 417.514 264.73 417.014 268.515 418.511L466.583 496.988C476.65 500.982 477.441 515.09 467.622 519.833Z" fill="black" fill-opacity="0.25"/>
</g>
<defs>
<clipPath id="clip0_119_308">
<rect width="500" height="419.922" fill="white" transform="translate(250 290.039)"/>
</clipPath>
</defs>
</svg>
