<svg width="1001" height="1000" viewBox="0 0 1001 1000" fill="none" xmlns="http://www.w3.org/2000/svg">
<path d="M285.114 250H715.684C716.226 249.992 716.76 250.122 717.236 250.378C717.714 250.634 718.116 251.008 718.406 251.465C718.698 251.921 718.866 252.444 718.898 252.984C718.928 253.524 718.822 254.063 718.584 254.55C681.466 329.507 625.514 393.537 556.213 440.371C444.27 515.899 331.545 523.699 285.148 524.115C284.724 524.123 284.303 524.049 283.909 523.893C283.515 523.737 283.156 523.503 282.854 523.207C282.551 522.911 282.311 522.557 282.146 522.165C281.982 521.775 281.898 521.355 281.898 520.931V253.184C281.898 252.763 281.981 252.346 282.143 251.958C282.305 251.569 282.543 251.217 282.842 250.921C283.141 250.625 283.496 250.391 283.886 250.233C284.276 250.075 284.694 249.996 285.114 250Z" fill="#FF6250"/>
<path d="M378.041 750.002C431.14 750.002 474.185 706.957 474.185 653.858C474.185 600.76 431.14 557.715 378.041 557.715C324.943 557.715 281.898 600.76 281.898 653.858C281.898 706.957 324.943 750.002 378.041 750.002Z" fill="#FFDF90"/>
<path d="M574.566 744.308C547.368 733.925 532.901 703.995 542.118 677.497L614.695 470.377C623.995 443.878 653.577 430.829 680.775 441.212C707.973 451.612 722.438 481.526 713.223 508.04L640.644 715.16C631.344 741.658 601.764 754.723 574.566 744.308Z" fill="#3366FF"/>
</svg>
