<svg width="1001" height="1000" viewBox="0 0 1001 1000" fill="none" xmlns="http://www.w3.org/2000/svg">
<path d="M242.725 445.07L200.51 551.564H214.656L228.65 515.35H270.792L284.788 551.564H298.932L256.721 445.07H242.725ZM233.027 503.946L249.683 460.62L266.422 503.946H233.027Z" fill="#414142"/>
<path d="M366.829 520.649C364.856 517.955 362.927 515.454 361.054 513.132C359.176 510.812 357.375 508.796 355.651 507.099C353.924 505.391 352.341 504.073 350.906 503.134L350.984 502.984C354.485 502.591 357.784 501.876 360.871 500.838C363.951 499.804 366.758 498.346 369.281 496.469C372.534 494.05 375.093 490.99 376.939 487.287C378.794 483.585 379.717 479.213 379.717 474.18C379.717 469.142 378.794 464.772 376.939 461.071C375.093 457.367 372.534 454.312 369.281 451.891C366.067 449.517 362.375 447.792 358.206 446.708C354.031 445.621 349.599 445.078 344.909 445.078H311.583V551.574H325.356V502.982H328.175C330.839 502.982 333.184 503.284 335.207 503.869C337.232 504.466 339.205 505.595 341.134 507.278C343.108 508.959 345.191 511.252 347.39 514.16C349.585 517.081 352.187 520.903 355.202 525.649L371.941 551.565H388.233L372.829 529.122C370.808 526.163 368.808 523.337 366.829 520.649ZM344.909 492.17H325.358V456.18H344.909C348.025 456.18 350.862 456.529 353.427 457.219C355.993 457.91 358.208 458.983 360.064 460.44C361.91 461.891 363.356 463.757 364.391 466.028C365.424 468.304 365.944 471.013 365.944 474.178C365.944 477.338 365.424 480.054 364.391 482.327C363.356 484.596 361.912 486.46 360.064 487.917C358.208 489.372 355.993 490.447 353.427 491.138C350.862 491.826 348.023 492.17 344.909 492.17Z" fill="#414142"/>
<path d="M514.367 445.07H500.447V551.566H514.367V445.07Z" fill="#414142"/>
<path d="M581.133 534.608L549.662 445.07H535.071L574.915 551.714H587.284L627.059 445.07H612.459L581.133 534.608Z" fill="#414142"/>
<path d="M661.713 445.07H647.794V551.566H661.713V445.07Z" fill="#414142"/>
<path d="M727.046 534.608L695.575 445.07H680.982L720.826 551.714H733.193L772.963 445.07H758.374L727.046 534.608Z" fill="#414142"/>
<path d="M804.027 540.158V503.933H840.489V492.52H804.027V456.472H850.909V445.07H790.102V551.564H850.909V540.158H804.027Z" fill="#414142"/>
<path d="M150.693 585.866H474.403V414.133H150.693V585.866ZM156.614 420.056H468.479V445.072H391.682V456.475H424.787V551.568H438.707V456.473H468.482V579.945H156.614V420.056Z" fill="#414142"/>
</svg>
