<svg width="1001" height="1000" viewBox="0 0 1001 1000" fill="none" xmlns="http://www.w3.org/2000/svg">
<g clip-path="url(#clip0_64_1375)">
<path fill-rule="evenodd" clip-rule="evenodd" d="M488.14 406.16C478.089 431.317 468.406 472.953 456.712 425.056C447.941 391.035 429.202 446.372 415.571 455.857C388.091 476.756 372.879 506.195 360.673 537.736C328.347 510.252 340.475 554.363 338.49 575.937C340.251 608.272 334.985 643.638 341.093 674.106C366.741 696.459 385.3 731.738 423.471 731.282C449.584 740.356 446.311 700.876 469.983 733.64C491.772 763.503 505.227 746.039 519.449 731.348C540.234 763.161 546.6 693.287 564.13 724.627C591.224 735.173 615.523 740.19 619.966 704.429C625.53 676.187 674.089 675.613 662.71 641.657C661.124 606.427 665.865 568.682 660.384 534.998C641.991 520.644 627.804 487.5 606.848 484.612C580.919 497.195 590.913 441.719 580.24 425.394C576.752 382.518 567.569 401.905 557.588 431.309C552.059 473.633 528.838 453.456 516.973 425.753C506.423 416.881 494.396 370.009 488.144 406.16" fill="#F3E517"/>
<mask id="mask0_64_1375" style="mask-type:luminance" maskUnits="userSpaceOnUse" x="351" y="412" width="299" height="313">
<path d="M351.634 632.895L360.396 641.658L373.541 685.471L377.922 632.895L391.066 698.615V615.37L399.829 637.277L412.973 698.615V615.37L421.735 624.132L434.879 698.615L448.024 597.844L477.011 711.409L478.693 641.658L487.456 615.37L496.218 724.904L522.507 615.37L531.269 707.378L553.176 610.988L575.083 716.141L579.464 637.277L592.608 610.988L596.99 711.76L618.896 615.37L632.04 659.183L636.422 619.751L649.566 646.039V562.794L636.422 597.844L632.04 523.361L623.278 580.319L614.515 562.794L610.134 501.455L588.227 584.7L583.845 567.175L570.701 435.734L557.557 549.649L548.795 584.7L531.269 466.404L513.744 567.175L504.981 593.463L500.6 412.491L474.312 615.37L448.024 431.353L434.879 589.082L426.117 571.556L417.354 466.404L412.973 571.556L399.829 602.226L391.066 497.073L382.303 580.319L369.159 558.412V619.751L351.634 554.031V632.895Z" fill="white"/>
</mask>
<g mask="url(#mask0_64_1375)">
<path fill-rule="evenodd" clip-rule="evenodd" d="M342.871 729.285V409.446H658.329V729.285H342.871Z" fill="#FF7901"/>
<path fill-rule="evenodd" clip-rule="evenodd" d="M347.253 571.557L382.304 593.463L395.448 554.031L417.355 580.319L443.643 536.506L452.405 589.082L461.168 554.031L474.312 580.319L478.694 554.031C478.694 554.031 491.838 589.082 491.838 584.701C491.838 580.319 509.363 518.98 509.363 518.98L526.888 575.938L553.177 523.362L566.321 580.319L588.227 540.887L601.371 580.319L623.278 558.413L649.566 584.701V619.752L632.041 632.896L605.753 624.133L588.227 615.37L583.846 659.184L575.083 615.37L557.558 654.802L531.27 615.37L522.507 654.802L504.982 628.514L483.075 685.472L469.931 619.752L443.643 632.896L426.117 606.608L417.355 650.421L399.829 628.514L382.304 650.421L373.541 637.277L347.253 641.658V571.557Z" fill="#FF0101"/>
</g>
<mask id="mask1_64_1375" style="mask-type:luminance" maskUnits="userSpaceOnUse" x="220" y="251" width="562" height="461">
<path d="M500.6 251.17C442.49 251.17 389.493 269.309 350.403 299.777C311.308 330.24 285.914 373.826 285.914 422.319V439.844C247.099 459.508 220.193 511.094 220.193 571.556C220.193 648.949 264.226 711.76 320.964 711.76V422.319C320.964 386.002 339.76 352.585 372.034 327.432C404.307 302.278 449.886 286.221 500.6 286.221C551.314 286.221 596.889 302.283 629.166 327.432C661.439 352.581 680.235 386.006 680.235 422.319V711.76C736.974 711.76 781.007 648.949 781.007 571.556C781.007 511.094 754.101 459.508 715.286 439.844V422.319C715.286 373.826 689.892 330.24 650.797 299.772C611.711 269.317 558.71 251.17 500.6 251.17ZM334.109 435.734V711.76C342.871 711.76 351.634 707.378 356.015 698.616V444.497C351.634 440.116 342.871 435.734 334.109 435.734ZM667.091 435.734C658.329 435.734 649.566 440.116 645.185 444.497V698.616C649.566 707.378 658.329 711.76 667.091 711.76V435.734Z" fill="white"/>
</mask>
<g mask="url(#mask1_64_1375)">
<path d="M500.6 251.17C442.49 251.17 389.493 269.309 350.403 299.777C311.308 330.24 285.914 373.826 285.914 422.319V439.844C247.099 459.508 220.193 511.094 220.193 571.556C220.193 648.949 264.226 711.76 320.964 711.76V422.319C320.964 386.002 339.76 352.585 372.034 327.432C404.307 302.278 449.886 286.221 500.6 286.221C551.314 286.221 596.889 302.283 629.166 327.432C661.439 352.581 680.235 386.006 680.235 422.319V711.76C736.974 711.76 781.007 648.949 781.007 571.556C781.007 511.094 754.101 459.508 715.286 439.844V422.319C715.286 373.826 689.892 330.24 650.797 299.772C611.711 269.317 558.71 251.17 500.6 251.17ZM334.109 435.734V711.76C342.871 711.76 351.634 707.378 356.015 698.616V444.497C351.634 440.116 342.871 435.734 334.109 435.734ZM667.091 435.734C658.329 435.734 649.566 440.116 645.185 444.497V698.616C649.566 707.378 658.329 711.76 667.091 711.76V435.734Z" fill="#0000CC"/>
</g>
</g>
<defs>
<clipPath id="clip0_64_1375">
<rect width="560.813" height="500" fill="white" transform="translate(220.193 250)"/>
</clipPath>
</defs>
</svg>
