<svg width="1001" height="1000" viewBox="0 0 1001 1000" fill="none" xmlns="http://www.w3.org/2000/svg">
<path d="M289.285 366.713C334.405 366.713 367.784 376.611 389.423 396.409C411.062 416.206 421.882 447.744 421.882 491.022V743.094H377.683L365.942 690.608H363.18C347.066 710.866 330.031 725.829 312.075 735.497C294.58 745.166 270.178 750 238.871 750C205.261 750 177.407 741.252 155.307 723.757C133.208 705.801 122.158 677.947 122.158 640.193C122.158 603.361 136.661 575.046 165.666 555.249C194.672 534.991 239.331 523.941 299.644 522.099L362.489 520.028V497.928C362.489 467.081 355.814 445.672 342.462 433.702C329.11 421.731 310.233 415.746 285.832 415.746C266.495 415.746 248.079 418.738 230.583 424.724C213.088 430.249 196.744 436.694 181.55 444.061L162.904 398.481C179.018 389.733 198.125 382.366 220.224 376.381C242.324 369.936 265.344 366.713 289.285 366.713ZM307.241 564.227C261.2 566.068 229.202 573.435 211.246 586.326C193.751 599.217 185.003 617.403 185.003 640.884C185.003 661.602 191.219 676.796 203.65 686.464C216.541 696.133 232.885 700.967 252.683 700.967C283.99 700.967 310.003 692.449 330.721 675.414C351.44 657.919 361.799 631.215 361.799 595.304V562.155L307.241 564.227Z" fill="black"/>
<path d="M879.442 743.094H809L678.475 529.006L545.878 743.094H480.27L643.944 486.188L490.629 250H559.69L680.547 443.37L802.094 250H867.701L715.077 484.807L879.442 743.094Z" fill="black"/>
</svg>
