<svg width="1000" height="1000" viewBox="0 0 1000 1000" fill="none" xmlns="http://www.w3.org/2000/svg">
<path fill-rule="evenodd" clip-rule="evenodd" d="M695.25 263.235C691.354 254.947 682.996 250.006 672.898 250.006H633.874C622.539 250.006 614.066 254.571 609.603 262.789L551.766 347.294L602.399 416.537L690.8 289.731C700.503 277.943 697.143 267.271 695.25 263.235Z" fill="#74BB11"/>
<path fill-rule="evenodd" clip-rule="evenodd" d="M390.335 261.826L390.284 261.75C381.467 250 369.737 250 365.879 250H327.71C317.93 250 309.923 254.495 305.741 262.317C301.437 270.331 302.349 279.958 308.304 288.877L449.703 484.894L287.106 711.678C281.425 720.208 280.628 729.688 284.919 737.696C289.127 745.518 297.14 750 306.901 750H345.918C355.953 750 364.777 744.791 369.188 736.586L551.186 485.799L390.335 261.826Z" fill="#009CD9"/>
<path fill-rule="evenodd" clip-rule="evenodd" d="M714.662 713.661L601.219 557.974L551.319 626.764L641.033 746.5L643.367 747.52C646.927 749.12 650.78 749.962 654.683 749.994H692.839C702.058 749.994 709.881 745.901 714.312 738.748C718.851 731.416 718.978 722.28 714.662 713.661Z" fill="#EB2084"/>
</svg>
