<svg width="1000" height="1000" viewBox="0 0 1000 1000" fill="none" xmlns="http://www.w3.org/2000/svg">
<path d="M556.008 588.136L695.351 498.277C734.495 470.457 762.56 447.316 745.081 416.788C730.063 390.938 698.059 396.354 643.651 413.588C593.429 429.59 526.958 452.978 486.09 467.995C481.166 469.719 477.72 463.072 482.151 460.117C531.389 426.882 587.766 386.507 617.063 360.411C636.019 343.67 638.481 323.236 628.387 310.927C619.771 300.341 608.446 289.508 554.777 306.988C516.125 319.79 466.887 340.47 422.573 358.441C417.896 360.411 414.203 354.256 418.142 351.056C428.728 342.193 449.408 326.437 460.733 314.374C478.705 295.417 478.951 276.953 469.842 264.89C465.164 258.489 454.578 247.903 424.789 250.364C400.17 252.334 371.612 257.504 333.207 268.09C305.141 275.968 309.08 319.543 348.963 312.404C359.057 310.681 373.582 307.726 384.168 305.511C388.599 304.526 391.554 310.435 387.861 313.143C361.272 333.822 329.76 359.18 315.235 372.228C296.525 388.969 288.647 406.941 301.202 423.681C314.25 440.668 339.854 435.499 370.628 426.636C389.584 421.22 419.127 411.126 440.299 403.986C445.223 402.263 448.423 409.156 443.992 411.864C405.094 436.483 338.623 477.597 304.649 501.723C265.505 529.543 237.439 552.684 254.919 583.212C269.936 609.062 301.941 603.646 356.349 586.412C406.571 570.41 473.042 547.022 513.91 532.005C518.833 530.281 522.28 536.928 517.849 539.883C468.611 573.118 412.233 613.493 382.937 639.589C363.98 656.33 361.519 676.764 371.612 689.073C380.229 699.659 391.554 710.492 445.223 693.012C483.874 680.21 533.112 659.53 577.426 641.559C582.104 639.589 585.797 645.744 581.858 648.944C571.272 657.807 550.592 673.563 539.267 685.626C521.295 704.583 521.049 723.047 530.158 735.11C534.836 741.511 545.422 752.098 575.211 749.636C599.83 747.666 628.387 742.496 666.793 731.91C694.858 724.032 690.919 680.457 651.037 687.596C640.943 689.319 626.418 692.274 615.832 694.489C611.4 695.474 608.446 689.566 612.139 686.857C638.727 665.931 669.993 640.574 684.519 627.526C703.229 610.785 711.107 592.813 698.551 576.072C685.503 559.085 659.9 564.255 629.126 573.118C610.169 578.534 580.627 588.628 559.454 595.768C555.023 597.737 551.576 590.844 556.008 588.136Z" fill="#AE1C59"/>
</svg>
