<svg width="1001" height="1000" viewBox="0 0 1001 1000" fill="none" xmlns="http://www.w3.org/2000/svg">
<path d="M603.922 602.645C609.224 607.555 615.469 611.338 622.277 613.762C629.084 616.186 636.314 617.203 643.526 616.749C654.956 617.039 666.164 613.562 675.422 606.853C682.964 601.957 688.672 594.686 691.651 586.228H745.505C739.768 610.347 725.763 631.695 705.922 646.561C686.876 659.2 664.373 665.607 641.526 664.895C625.221 665.108 609.039 662.04 593.943 655.874C580.281 650.182 568.03 641.571 558.047 630.645C548.106 619.199 540.466 605.943 535.547 591.603C530.033 575.569 527.333 558.703 527.568 541.749C527.464 525.082 530.256 508.52 535.818 492.811C543.32 470.723 557.61 451.569 576.646 438.085C595.682 424.602 618.492 417.477 641.818 417.728C659.046 417.371 676.082 421.407 691.318 429.457C705.089 436.999 716.964 447.582 726.068 460.395C735.369 473.831 742.035 488.91 745.714 504.832C749.755 521.936 751.193 539.541 749.985 557.082H589.589C588.276 573.541 593.422 589.874 603.922 602.645ZM395.131 335.082C408.637 334.838 422.123 336.223 435.297 339.207C446.395 341.625 456.93 346.136 466.339 352.499C475.047 358.811 481.922 367.311 486.297 377.124C491.318 389.186 493.735 402.186 493.401 415.249C493.983 429.607 490.316 443.819 482.86 456.103C475.03 467.699 464.21 476.964 451.547 482.916C468.74 487.547 483.715 498.163 493.776 512.853C503.443 528.416 508.297 546.499 507.735 564.811C508.066 579.41 505.051 593.891 498.922 607.145C493.265 618.721 484.965 628.805 474.693 636.582C464.136 644.29 452.25 649.989 439.631 653.395C426.551 657.019 413.036 658.834 399.464 658.791H250.401V335.082H395.131ZM390.235 603.832C396.651 603.916 403.068 603.228 409.318 601.77C415.033 600.514 420.452 598.165 425.276 594.853C430.026 591.561 433.839 587.124 436.401 581.957C439.36 575.353 440.735 568.145 440.381 560.936C441.025 554.355 440.155 547.714 437.837 541.521C435.518 535.328 431.813 529.747 427.006 525.207C416.806 517.705 404.314 513.986 391.672 514.686H317.922V603.832H390.235ZM674.297 479.52C669.81 475.031 664.412 471.557 658.467 469.332C652.523 467.108 646.171 466.184 639.839 466.624C631.432 466.298 623.084 468.157 615.61 472.02C609.687 475.276 604.463 479.665 600.235 484.936C596.468 489.866 593.669 495.465 591.985 501.436C590.443 506.416 589.485 511.541 589.131 516.728H688.485C687.614 503.192 682.684 490.233 674.339 479.541L674.297 479.52ZM386.526 466.02C397.144 466.454 407.596 463.274 416.172 456.999C424.485 449.603 428.818 438.666 427.839 427.561C428.109 421.166 426.837 414.8 424.131 408.999C421.822 404.39 418.244 400.538 413.818 397.895C409.33 394.985 404.285 393.041 399.006 392.186C393.277 391.066 387.446 390.557 381.61 390.666H317.922V466.311H386.526V466.02ZM700.818 356.707H576.318V388.52H700.818V356.707Z" fill="#0055FF"/>
</svg>
