<svg width="1001" height="1000" viewBox="0 0 1001 1000" fill="none" xmlns="http://www.w3.org/2000/svg">
<g clip-path="url(#clip0_61_688)">
<path d="M433.927 526.91C436.164 486.993 455.711 451.827 485.199 426.897C514.118 402.411 553.042 387.445 595.513 387.445C637.941 387.445 676.865 402.411 705.805 426.897C735.273 451.827 754.82 486.993 757.078 526.868C759.316 567.882 742.83 605.983 713.911 634.226C684.422 662.955 642.48 680.981 595.513 680.981C548.546 680.981 506.519 662.955 477.052 634.226C448.112 605.983 431.668 567.882 433.927 526.91Z" fill="white"/>
<path d="M512.623 530.472C513.771 509.99 523.801 491.946 538.932 479.154C553.77 466.59 573.743 458.911 595.535 458.911C617.305 458.911 637.277 466.59 652.127 479.154C667.247 491.946 677.276 509.99 678.435 530.45C679.583 551.495 671.124 571.045 656.286 585.536C641.155 600.277 619.634 609.527 595.535 609.527C571.436 609.527 549.871 600.277 534.751 585.536C519.902 571.045 511.464 551.495 512.623 530.472Z" fill="#265787"/>
<path d="M380.995 572.546C381.136 580.578 383.698 596.187 387.54 608.376C395.616 634.176 409.314 658.045 428.374 679.08C447.933 700.702 472.019 718.068 499.838 730.399C529.079 743.348 560.763 749.947 593.672 749.893C626.528 749.849 658.212 743.12 687.453 730.073C715.272 717.623 739.336 700.181 758.862 678.548C777.912 657.426 791.588 633.514 799.685 607.714C803.755 594.678 806.328 581.447 807.359 568.172C808.368 555.093 807.945 541.992 806.089 528.901C802.464 503.394 793.639 479.461 780.05 457.644C767.622 437.596 751.601 420.045 732.552 405.272L732.595 405.239L540.357 257.633C540.183 257.503 540.042 257.362 539.857 257.243C527.245 247.561 506.036 247.593 492.164 257.297C478.14 267.109 476.534 283.336 489.016 293.572L488.962 293.626L569.142 358.827L324.76 359.087H324.434C304.234 359.109 284.816 372.362 280.974 389.11C277.023 406.173 290.743 420.327 311.745 420.403L311.713 420.479L435.581 420.24L214.546 589.902C214.264 590.108 213.96 590.325 213.699 590.532C192.849 606.498 186.108 633.047 199.242 649.85C212.571 666.934 240.911 666.967 261.979 649.947L382.613 551.218C382.613 551.218 380.854 564.547 380.995 572.546ZM690.98 617.179C666.124 642.501 631.326 656.862 593.672 656.938C555.965 657.003 521.166 642.773 496.31 617.493C484.164 605.174 475.242 590.998 469.739 575.9C464.345 561.062 462.25 545.313 463.639 529.422C464.952 513.89 469.576 499.074 476.957 485.669C484.208 472.492 494.194 460.585 506.524 450.512C530.686 430.823 561.446 420.164 593.618 420.12C625.823 420.077 656.562 430.638 680.745 450.263C693.053 460.292 703.029 472.156 710.279 485.311C717.693 498.705 722.284 513.467 723.651 529.042C725.019 544.911 722.924 560.639 717.53 575.488C712.016 590.629 703.126 604.805 690.98 617.179Z" fill="#EA7600"/>
</g>
<defs>
<clipPath id="clip0_61_688">
<rect width="615.385" height="500" fill="white" transform="translate(192.508 250)"/>
</clipPath>
</defs>
</svg>
