<svg width="1001" height="1000" viewBox="0 0 1001 1000" fill="none" xmlns="http://www.w3.org/2000/svg">
<path d="M284.443 625.259V374.741L400.023 441.356V558.075L284.443 625.259Z" fill="#DE6547"/>
<path d="M284.144 375.259L501.1 250L501.199 383.403L400.118 441.762L284.144 375.259Z" fill="#80B7FA"/>
<path d="M500.5 250L717.455 375.259L601.975 442.047L500.893 383.688L500.5 250Z" fill="#4581E1"/>
<path d="M717.156 374.741V625.259L601.576 558.644V441.925L717.156 374.741Z" fill="#69B356"/>
<path d="M717.455 624.741L500.5 750L500.4 616.597L601.482 558.238L717.455 624.741Z" fill="#D1E993"/>
<path d="M501.1 750L284.145 624.741L399.625 557.953L500.706 616.312L501.1 750Z" fill="#FDBC4D"/>
<path d="M610.117 547.257C616.95 554.089 623.213 567.754 623.213 578.572C623.213 588.82 616.95 602.485 610.117 609.317C603.285 616.149 589.62 622.412 579.372 622.412C568.554 622.412 554.89 616.149 548.057 609.317C546.919 608.178 545.21 606.47 544.072 604.193C544.641 606.47 544.641 608.748 544.641 611.025C544.641 621.274 538.947 634.938 531.546 641.771C524.713 648.603 511.618 654.866 500.8 654.866C489.983 654.866 476.887 648.603 470.055 641.771C462.653 634.938 456.96 621.274 456.96 611.025C456.96 608.748 456.96 606.47 457.529 604.762C455.821 606.47 454.682 608.178 453.544 609.317C446.711 616.149 433.047 622.412 422.229 622.412C411.411 622.412 398.316 616.149 391.483 609.317C384.651 602.485 378.388 588.82 378.388 578.572C378.388 567.754 384.651 554.089 391.483 547.257C392.622 546.118 394.33 544.41 396.608 543.271C394.33 543.841 392.053 543.841 389.775 543.841C379.527 543.841 365.862 538.147 359.03 530.746C352.198 523.913 345.935 510.818 345.935 500C345.935 489.182 352.198 476.087 359.03 469.255C365.862 461.853 379.527 456.159 389.775 456.159C392.053 456.159 394.33 456.159 396.038 456.729C394.33 455.021 392.622 453.882 391.483 452.743C384.651 445.911 378.388 432.246 378.388 421.428C378.388 411.18 384.651 397.515 391.483 390.683C398.316 383.851 411.98 377.588 422.229 377.588C433.047 377.588 446.711 383.851 453.544 390.683C454.682 391.822 456.39 393.53 457.529 395.807C456.96 393.53 456.96 391.252 456.96 388.975C456.96 378.726 462.653 365.062 470.055 358.23C476.887 351.397 489.983 345.134 500.8 345.134C511.618 345.134 524.713 351.397 531.546 358.23C538.947 365.062 544.641 378.726 544.641 388.975C544.641 391.252 544.641 393.53 544.072 395.238C545.78 393.53 546.919 391.822 548.057 390.683C554.89 383.851 568.554 377.588 579.372 377.588C589.62 377.588 603.285 383.851 610.117 390.683C616.95 397.515 623.213 411.18 623.213 421.428C623.213 432.246 616.95 445.911 610.117 452.743C608.979 453.882 607.271 455.59 604.993 456.729C607.271 456.159 609.548 456.159 611.826 456.159C622.074 456.159 635.739 461.853 642.571 469.255C649.403 476.087 655.666 489.182 655.666 500C655.666 510.818 649.403 523.913 642.571 530.746C635.739 538.147 622.074 543.841 611.826 543.841C609.548 543.841 607.271 543.841 605.563 543.271C607.271 544.979 608.979 546.118 610.117 547.257Z" fill="#2F2F2F"/>
<path d="M542.363 517.081H593.605C598.16 522.205 604.423 525.052 611.825 525.052C625.489 525.052 636.307 513.665 636.307 500C636.307 486.336 625.489 474.948 611.825 474.948C604.423 474.948 598.16 478.365 593.605 482.919H542.363L578.802 446.48H579.371C593.036 446.48 603.854 435.093 603.854 421.429C603.854 407.764 593.036 396.946 579.371 396.946C565.707 396.946 554.319 407.764 554.319 421.429V421.998L517.88 458.437V407.195C523.005 402.64 525.851 396.377 525.851 388.975C525.851 375.311 514.464 364.493 500.8 364.493C487.135 364.493 475.748 375.311 475.748 388.975C475.748 396.377 479.164 402.64 483.719 407.195V458.437L447.28 421.998C447.28 421.998 447.28 421.998 447.28 421.429C447.28 407.764 436.462 396.946 422.228 396.946C408.563 396.946 397.745 407.764 397.745 421.429C397.745 435.093 408.563 446.48 422.228 446.48H422.797L459.236 482.919H407.994C403.439 478.365 397.176 474.948 389.774 474.948C376.11 474.948 365.292 486.336 365.292 500C365.292 513.665 376.11 525.052 389.774 525.052C397.176 525.052 403.439 522.205 407.994 517.081H459.236L422.797 553.52C422.797 553.52 422.797 553.52 422.228 553.52C408.563 553.52 397.745 564.338 397.745 578.572C397.745 592.237 408.563 603.054 422.228 603.054C435.893 603.054 447.28 592.237 447.28 578.572C447.28 578.003 447.28 578.003 447.28 578.003L483.719 541.564V592.806C478.595 597.361 475.748 603.624 475.748 611.025C475.748 624.69 487.135 635.508 500.8 635.508C514.464 635.508 525.851 624.69 525.851 611.025C525.851 603.624 522.435 597.361 517.88 592.806V541.564L554.319 578.003V578.572C554.319 592.237 565.137 603.054 579.371 603.054C593.036 603.054 603.854 592.237 603.854 578.572C603.854 564.338 593.036 553.52 579.371 553.52C578.802 553.52 578.802 553.52 578.802 553.52L542.363 517.081Z" fill="white"/>
</svg>
