<svg width="1001" height="1000" viewBox="0 0 1001 1000" fill="none" xmlns="http://www.w3.org/2000/svg">
<path d="M288.1 343.734H250.599V381.235H288.1V343.734Z" fill="#1D1D1B"/>
<path d="M380.295 343.734H342.794V381.235H380.295V343.734Z" fill="#1D1D1B"/>
<path d="M472.474 343.734H434.974V381.235H472.474V343.734Z" fill="#1D1D1B"/>
<path d="M566.225 343.734H528.725V381.235H566.225V343.734Z" fill="#1D1D1B"/>
<path d="M658.42 343.734H620.919V381.235H658.42V343.734Z" fill="#1D1D1B"/>
<path d="M750.599 343.734H713.099V381.235H750.599V343.734Z" fill="#1D1D1B"/>
<path d="M288.1 620.289H250.599V657.79H288.1V620.289Z" fill="#1D1D1B"/>
<path d="M472.474 620.289H434.974V657.79H472.474V620.289Z" fill="#1D1D1B"/>
<path d="M566.225 620.289H528.725V657.79H566.225V620.289Z" fill="#1D1D1B"/>
<path d="M658.42 712.516H620.919V750.016H658.42V712.516Z" fill="#1D1D1B"/>
<path d="M750.599 620.289H713.099V657.79H750.599V620.289Z" fill="#1D1D1B"/>
<path d="M380.295 249.984H342.794V287.485H380.295V249.984Z" fill="#1D1D1B"/>
<path d="M658.42 249.984H620.919V287.485H658.42V249.984Z" fill="#1D1D1B"/>
<path d="M380.295 434.375H342.794V471.875H380.295V434.375Z" fill="#1D1D1B"/>
<path d="M380.295 528.125H342.794V565.625H380.295V528.125Z" fill="#1D1D1B"/>
<path d="M380.295 620.289H342.794V657.79H380.295V620.289Z" fill="#1D1D1B"/>
<path d="M380.295 712.516H342.794V750.016H380.295V712.516Z" fill="#1D1D1B"/>
<path d="M658.42 434.375H620.919V471.875H658.42V434.375Z" fill="#1D1D1B"/>
<path d="M658.42 528.125H620.919V565.625H658.42V528.125Z" fill="#1D1D1B"/>
<path d="M658.42 620.289H620.919V657.79H658.42V620.289Z" fill="#1D1D1B"/>
</svg>
