<svg width="1000" height="1000" viewBox="0 0 1000 1000" fill="none" xmlns="http://www.w3.org/2000/svg">
<g clip-path="url(#clip0_119_222)">
<path d="M302.046 490.9V547.408H291.683V490.9H280.672V481.559H313.149V490.9H302.046ZM339.233 547.408V518.551H326.371V547.408H316.007V481.559H326.371V509.305H339.233V481.559H349.596V547.408H339.233ZM356.055 547.408V481.559H383.721V490.9H366.418V509.581H381.317V518.923H366.418V538.06H383.721V547.408H356.055Z" fill="#999999"/>
<path d="M477.435 596.559H458.492L441.972 509.008L425.617 596.559H406.673L384.813 481.328H404.73L416.066 568.721L431.935 481.328H452.016L468.046 568.721L479.218 481.328H499.135L477.435 596.559ZM657.258 596.559L642.202 549.301H631.993V596.559H613.852V481.328H642.994C664.046 481.328 672.465 491.525 672.465 515.313C672.465 529.559 669.555 539.756 659.027 545.416L676.191 596.559H657.258ZM643.165 497.675H631.996V532.955H643.165C652.884 532.955 654.341 524.865 654.341 515.313C654.351 505.767 652.884 497.675 643.165 497.675ZM683.147 596.559V481.328H701.285V580.213H731.562V596.559H683.147ZM788.708 587.014C784.005 592.355 777.365 596.559 766.361 596.559H737.048V481.328H766.361C777.365 481.328 784.005 485.536 788.708 490.877C797.289 500.426 797.131 516.769 797.131 538.947C797.131 561.115 797.292 577.458 788.708 587.014ZM775.096 502.369C773.317 499.617 770.238 497.675 765.871 497.675H755.176V580.213H765.871C770.238 580.213 773.317 578.267 775.096 575.519C778.5 570.177 778.983 558.853 778.983 538.779C778.983 518.705 778.503 507.713 775.096 502.369Z" fill="#333333"/>
<path d="M618.835 469.695C616.056 472.841 612.352 475.243 606.061 475.243C599.769 475.243 596.07 472.844 593.294 469.695C588.39 464.146 588.482 454.528 588.482 441.581C588.482 428.633 588.39 419.015 593.294 413.467C596.07 410.321 599.769 407.918 606.061 407.918C612.352 407.918 616.056 410.321 618.835 413.467C623.732 419.015 623.646 428.633 623.646 441.581C623.646 454.528 623.732 464.146 618.835 469.695ZM611.063 419.755C610.139 418.275 608.57 417.26 606.061 417.26C603.565 417.26 602.085 418.275 601.164 419.755C599.217 422.9 598.852 429.557 598.852 441.581C598.852 453.605 599.217 460.261 601.164 463.407C602.085 464.886 603.565 465.902 606.061 465.902C608.57 465.902 610.129 464.886 611.063 463.407C613.01 460.261 613.286 453.605 613.286 441.581C613.283 429.557 613 422.9 611.063 419.755ZM638.716 417.999V436.676H653.614V446.018H638.716V474.504H628.356V408.658H656.021V417.999H638.716Z" fill="#999999"/>
<path d="M222.451 467.924C217.59 472.94 210.463 475.204 199.778 475.204H171.119V359.977H199.942C210.631 359.977 217.593 362.241 222.451 367.096C227.631 372.438 229.574 380.044 229.574 391.375C229.574 399.142 228.765 405.617 223.585 410.794C221.872 412.522 219.836 413.897 217.593 414.841C219.935 415.762 222.039 417.2 223.746 419.048C229.413 425.202 229.9 433.939 229.9 441.058C229.897 454.167 227.956 462.26 222.451 467.924ZM197.837 376.323H189.257V407.56H197.837C207.391 407.56 211.436 402.866 211.436 391.861C211.436 380.205 207.552 376.323 197.837 376.323ZM197.995 422.93H189.253V458.861H197.995C207.871 458.861 211.759 454.328 211.759 440.897C211.759 428.111 207.714 422.93 197.995 422.93ZM284.445 475.208L269.385 427.95H259.18V475.204H241.042V359.977H270.191C291.239 359.977 299.662 370.17 299.662 393.961C299.662 408.204 296.748 418.401 286.224 424.061L303.388 475.204L284.445 475.208ZM270.359 376.323H259.183V411.603H270.359C280.074 411.603 281.528 403.514 281.528 393.965C281.531 384.413 280.071 376.323 270.359 376.323Z" fill="#333333"/>
<path d="M358.101 475.207L353.401 452.389H326.683L322.151 475.207H303.043L331.383 359.976H349.034L377.048 475.207H358.101ZM340.124 387.811L330.248 436.042H350.004L340.124 387.811ZM426.571 475.207L399.369 406.748V475.204H381.234V359.976H397.425L424.466 428.433V359.976H442.604V475.207H426.571ZM507.189 465.658C502.499 471 495.856 475.207 484.848 475.207H455.535V359.976H484.845C495.856 359.976 502.499 364.184 507.186 369.525C515.767 379.074 515.612 395.421 515.612 417.595C515.609 439.763 515.77 456.106 507.189 465.658ZM493.587 381.013C491.808 378.265 488.726 376.32 484.358 376.32H473.673V458.858H484.358C488.733 458.858 491.808 456.915 493.587 454.164C496.991 448.822 497.474 437.492 497.474 417.424C497.471 397.36 496.987 386.355 493.587 381.013ZM573.722 468.732C569.019 473.261 561.415 476.335 551.213 476.335C541.166 476.335 533.727 473.587 528.866 468.732C523.36 463.229 521.413 456.106 521.413 443.967H539.548C539.548 450.121 540.196 454.003 542.784 456.915C544.409 458.696 547.155 459.992 551.21 459.992C555.41 459.992 558.172 458.861 559.952 456.757C562.372 454.006 563.03 450.121 563.03 443.967C563.03 431.67 561.083 428.758 552.174 425.034L538.413 419.367C526.754 414.515 522.38 408.204 522.38 390.401C522.38 380.044 525.459 371.629 531.77 365.959C536.785 361.587 543.261 359 551.526 359C560.754 359 567.552 361.429 572.252 365.959C578.244 371.787 580.352 380.037 580.352 391.046H562.208C562.208 385.865 561.889 381.819 559.462 378.745C557.844 376.638 555.255 375.343 551.361 375.343C547.642 375.343 545.372 376.638 543.59 378.581C541.482 381.007 540.512 384.892 540.512 389.911C540.512 399.296 541.969 402.208 550.069 405.449L563.668 410.952C577.435 416.454 581.158 423.9 581.158 443.32C581.174 455.137 579.55 463.068 573.722 468.732Z" fill="#333333"/>
<path d="M613.809 581.401C608.626 589.644 601.856 596.776 593.894 602.383C585.931 607.991 576.934 611.962 567.424 614.068C548.086 618.433 528.218 615.005 511.471 604.401C503.223 599.221 496.086 592.455 490.477 584.495C484.867 576.535 480.896 567.54 478.794 558.033C474.413 538.709 477.879 518.871 488.466 502.134C499.069 485.413 515.53 473.806 534.852 469.46C544.353 467.291 554.191 467.03 563.795 468.691C573.398 470.353 582.575 473.905 590.794 479.141C607.541 489.719 619.121 506.177 623.472 525.488V525.501C627.856 544.82 624.396 564.644 613.809 581.401Z" fill="white"/>
<path d="M513.168 486.903C504.768 492.743 497.815 500.428 492.844 509.367C497.891 509.355 502.936 509.158 507.969 508.779C508.987 501.335 510.728 494.009 513.168 486.903ZM582.625 538.829C580.359 526.45 575.893 515.524 570.663 506.248C555.413 511.247 537.118 515.8 516.951 517.969C516.248 529.571 517.657 541.204 521.111 552.303C544.843 551.241 566.033 545.347 582.625 538.829ZM511.195 552.474C508.033 541.55 506.655 530.189 507.114 518.827C500.863 519.252 494.596 519.404 488.331 519.281C484.72 529.229 483.556 539.9 484.937 550.393L485.01 549.939C493.952 551.579 502.71 552.345 511.195 552.474ZM591.672 535.042C602.318 530.286 610.379 525.674 615.076 522.729C612.013 512.413 606.481 502.998 598.96 495.298C592.653 498.134 586.246 500.741 579.75 503.115C584.822 512.368 589.143 523.087 591.672 535.042ZM546.103 475.316C542.903 475.54 539.706 475.931 536.486 476.651C533.099 477.443 529.778 478.496 526.554 479.8C522.239 489.576 519.496 498.917 518.065 507.802C535.529 505.722 551.562 501.787 565.211 497.468C559.711 489.377 553.299 481.945 546.103 475.316ZM574.538 494.332C579.962 492.391 585.327 490.285 590.623 488.018C581.668 481.445 571.21 477.216 560.202 475.717C565.473 481.527 570.268 487.752 574.538 494.332ZM534.592 596.862C526.275 596.819 517.984 595.941 509.843 594.242C519.86 602.116 531.923 606.959 544.606 608.199C541.073 604.596 537.731 600.812 534.592 596.862ZM593.333 545.308C594.332 554.41 594.144 563.603 592.774 572.656C601.001 568.349 608.784 563.245 616.013 557.417C617.907 549.617 618.433 541.367 617.315 533.014C609.605 537.644 601.593 541.751 593.333 545.308ZM514.55 562.43C505.34 562.448 496.143 561.738 487.045 560.307C489.089 567.464 492.316 574.23 496.593 580.325C507.278 584.023 517.562 586.051 527.284 586.813C522.186 579.16 517.917 570.986 514.55 562.43ZM585.535 598.956C595.642 592.892 603.947 584.245 609.596 573.905C603.439 577.883 597.001 581.411 590.334 584.46C589.052 589.391 587.449 594.233 585.535 598.956ZM524.692 562.154C528.787 571.854 533.996 580.22 539.147 587.096C555.255 586.652 569.637 582.852 581.835 577.813C584.078 567.643 584.592 558.091 583.937 549.16C567.651 555.356 547.418 560.826 524.692 562.154ZM558.955 608.071C561.263 607.816 563.553 607.428 565.816 606.907C567.906 606.442 569.97 605.87 572.002 605.195C574.549 600.021 576.757 594.686 578.612 589.226C568.976 592.618 558.327 595.281 546.764 596.333C552.397 602.568 557.097 606.595 558.955 608.071Z" fill="url(#paint0_linear_119_222)"/>
<path d="M599.066 640.66L597.714 633.918H591.965L590.656 640.66H588.446L593.945 616.04H595.846L601.249 640.66H599.066ZM594.839 619.699L592.389 632.084H597.336L594.839 619.699ZM615.454 641.002C613.467 641.002 611.915 640.315 610.866 639.191C608.922 637.117 608.708 634.697 608.708 625.28C608.708 615.866 608.922 613.44 610.866 611.372C611.905 610.248 613.464 609.561 615.454 609.561C617.443 609.561 618.877 610.199 619.907 611.244C621.209 612.585 621.85 614.613 621.85 616.944H619.302C619.302 614.485 618.568 611.842 615.454 611.842C614.201 611.842 613.339 612.283 612.731 612.97C611.478 614.485 611.261 616.257 611.261 625.28C611.261 634.306 611.478 636.085 612.731 637.593C613.346 638.287 614.201 638.721 615.454 638.721C617.657 638.721 619.302 636.995 619.302 634.099V626.536H615.454V624.379H621.85V634.099C621.86 638.671 618.877 641.002 615.454 641.002ZM637.071 640.66L632.618 626.877H628.642V640.66H626.096V609.897H632.144C635.858 609.897 638.804 611.238 638.804 618.41C638.804 623.16 637.545 625.457 634.999 626.407L639.798 640.667L637.071 640.66ZM632.227 612.188H628.635V624.59H632.227C635.298 624.59 636.249 622.381 636.249 618.407C636.249 614.433 635.298 612.188 632.227 612.188ZM654.13 640.66L652.446 632.239H645.27L643.626 640.66H640.86L647.73 609.897H650.115L656.853 640.66H654.13ZM648.865 614.479L645.79 629.944H651.976L648.865 614.479ZM665.026 627.048H661.527V640.66H658.984V609.897H665.036C668.706 609.897 671.692 611.238 671.692 618.456C671.686 624.932 669.39 627.048 665.026 627.048ZM665.111 612.188H661.523V624.757H665.111C668.18 624.757 669.137 622.509 669.137 618.492C669.137 614.479 668.18 612.188 665.111 612.188ZM685.765 640.66V626.184H678.161V640.66H675.619V609.897H678.161V623.847H685.765V609.897H688.321V640.66H685.765ZM693.205 640.66V609.897H695.747V640.66H693.205ZM710.964 639.536C709.931 640.446 708.544 640.999 706.731 640.999C704.738 640.999 703.179 640.312 702.14 639.184C700.193 637.11 699.979 634.694 699.979 625.277C699.979 615.859 700.193 613.433 702.14 611.366C703.17 610.242 704.732 609.555 706.731 609.555C708.672 609.555 710.096 610.16 711.132 611.198C712.474 612.533 713.079 614.607 713.128 616.937H710.573C710.573 615.383 710.264 613.874 709.366 612.875C708.761 612.234 707.932 611.842 706.731 611.842C705.472 611.842 704.607 612.283 704.008 612.97C702.749 614.485 702.535 616.257 702.535 625.28C702.535 634.306 702.749 636.085 704.008 637.593C704.613 638.287 705.472 638.721 706.731 638.721C707.932 638.721 708.761 638.33 709.366 637.689C710.264 636.693 710.573 635.177 710.573 633.629H713.128C713.076 636.081 712.431 638.195 710.964 639.536ZM727.037 639.28C726.004 640.312 724.445 640.917 722.232 640.917C720.163 640.917 718.519 640.404 717.394 639.28C716.012 637.846 715.582 636.338 715.582 632.962H718.124C718.124 635.352 718.387 636.601 719.337 637.547C719.979 638.195 720.936 638.586 722.228 638.586C723.659 638.586 724.57 638.195 725.172 637.547C726.175 636.469 726.382 635.128 726.382 632.705C726.382 628.866 725.78 627.486 723.149 626.401L719.86 625.066C716.7 623.768 715.795 621.99 715.795 617.375C715.795 614.729 716.489 612.618 717.92 611.28C719.045 610.196 720.508 609.637 722.409 609.637C724.396 609.637 725.958 610.242 727.037 611.32C728.543 612.842 728.888 614.607 728.888 617.279H726.346C726.346 615.333 726.083 614.088 725.178 613.052C724.573 612.359 723.662 611.918 722.37 611.918C721.153 611.918 720.288 612.309 719.686 612.917C718.736 613.874 718.344 615.429 718.344 617.329C718.344 620.872 718.864 621.907 721.679 623.068L724.968 624.409C728.299 625.747 728.937 628.173 728.937 632.627C728.931 635.864 728.421 637.892 727.037 639.28ZM732.522 640.66V637.419H735.758V640.66H732.522ZM748.019 639.763C747.19 640.486 746.075 640.936 744.632 640.936C743.04 640.936 741.793 640.384 740.958 639.487C739.399 637.823 739.231 635.891 739.231 628.353C739.231 620.81 739.406 618.87 740.958 617.214C741.793 616.316 743.04 615.764 744.632 615.764C746.194 615.764 747.329 616.244 748.157 617.079C749.229 618.144 749.713 619.807 749.749 621.674H747.7C747.7 620.418 747.467 619.222 746.736 618.42C746.25 617.907 745.592 617.592 744.625 617.592C743.622 617.592 742.925 617.933 742.445 618.486C741.438 619.692 741.264 621.112 741.264 628.347C741.264 635.568 741.445 636.988 742.445 638.201C742.925 638.754 743.622 639.095 744.625 639.095C745.592 639.095 746.243 638.78 746.736 638.267C747.467 637.475 747.7 636.262 747.7 635.016H749.749C749.713 636.995 749.197 638.688 748.019 639.763ZM761.257 639.487C760.428 640.384 759.148 640.936 757.557 640.936C755.968 640.936 754.725 640.384 753.896 639.487C752.341 637.823 752.166 635.891 752.166 628.353C752.166 620.81 752.344 618.87 753.896 617.214C754.725 616.316 755.968 615.764 757.557 615.764C759.148 615.764 760.428 616.316 761.257 617.214C762.819 618.87 762.987 620.81 762.987 628.353C762.987 635.891 762.812 637.823 761.257 639.487ZM759.77 618.492C759.287 617.94 758.556 617.595 757.553 617.595C756.544 617.595 755.853 617.94 755.376 618.492C754.367 619.699 754.205 621.119 754.205 628.353C754.205 635.575 754.376 636.995 755.376 638.208C755.856 638.76 756.544 639.105 757.553 639.105C758.556 639.105 759.28 638.76 759.77 638.208C760.773 636.995 760.944 635.575 760.944 628.353C760.947 621.119 760.773 619.699 759.77 618.492ZM778.816 640.66V620.842L774.33 633.849H772.837L768.403 621.253V640.66H766.367V616.04H768.403L773.6 630.529L778.816 616.04H780.864V640.66H778.816ZM798.805 639.556C797.97 640.384 796.723 640.864 794.957 640.864C793.293 640.864 791.977 640.453 791.089 639.556C789.975 638.412 789.632 637.205 789.632 634.503H791.668C791.668 636.41 791.875 637.412 792.645 638.169C793.158 638.688 793.928 638.997 794.957 638.997C796.102 638.997 796.825 638.688 797.309 638.169C798.104 637.301 798.279 636.229 798.279 634.296C798.279 631.213 797.802 630.105 795.684 629.244L793.056 628.173C790.527 627.134 789.803 625.714 789.803 622.016C789.803 619.909 790.363 618.216 791.51 617.138C792.402 616.277 793.579 615.83 795.102 615.83C796.694 615.83 797.947 616.316 798.808 617.177C800.015 618.39 800.292 619.814 800.292 621.953H798.249C798.249 620.392 798.045 619.396 797.318 618.558C796.838 618.006 796.108 617.667 795.069 617.667C794.095 617.667 793.405 617.979 792.925 618.463C792.165 619.222 791.846 620.461 791.846 621.976C791.846 624.82 792.27 625.648 794.523 626.578L797.144 627.65C799.815 628.722 800.331 630.661 800.331 634.224C800.321 636.821 799.91 638.445 798.805 639.556ZM803.426 640.66V616.04H805.471V640.66H803.426ZM813.901 617.868V640.66H811.858V617.868H807.747V616.037H818.018V617.871L813.901 617.868ZM820.301 640.66V616.04H828.881V617.871H822.343V627.41H827.983V629.247H822.343V638.833H828.881V640.667L820.301 640.66Z" fill="#333333"/>
<path d="M798.499 583.68V596.404H797.351V583.68H795.056V582.664H800.788V583.68H798.499ZM809 596.404V585.343L806.488 592.598H805.652L803.186 585.573V596.404H802.048V582.664H803.186L806.083 590.747L809 582.664H810.138V596.404H809Z" fill="#999999"/>
</g>
<defs>
<linearGradient id="paint0_linear_119_222" x1="551.131" y1="608.199" x2="551.131" y2="475.316" gradientUnits="userSpaceOnUse">
<stop stop-color="#333333"/>
<stop offset="1" stop-color="#B3B3B3"/>
</linearGradient>
<clipPath id="clip0_119_222">
<rect width="658" height="282" fill="white" transform="translate(171 359)"/>
</clipPath>
</defs>
</svg>
