<svg width="1001" height="1000" viewBox="0 0 1001 1000" fill="none" xmlns="http://www.w3.org/2000/svg">
<path d="M618.658 325C586.626 324.973 556.145 338.63 535.053 362.461L385.896 509.738L343.2 467.53C335.833 459.408 331.823 448.844 331.965 437.936C331.96 426.128 336.72 414.806 345.188 406.48C353.657 398.153 365.136 393.51 377.08 393.579C388.005 393.469 398.575 397.413 406.701 404.634C409.365 406.955 416.901 414.666 416.901 414.666L464.137 367.97L450.519 354.525C418.083 324.723 370.881 316.721 330.252 334.134C289.624 351.547 263.269 391.076 263.101 434.852C263.075 461.53 272.79 487.321 290.461 507.485L386.229 602.556L586.337 404.72C594.492 397.425 605.136 393.445 616.133 393.579C628.092 393.588 639.553 398.318 647.969 406.719C656.384 415.119 661.058 426.494 660.95 438.317C661.053 449.142 657.051 459.614 649.733 467.669L516.736 599.144C511.392 604.506 504.072 607.489 496.458 607.408C488.881 607.356 481.661 604.224 476.494 598.746L466.486 588.921L419.478 635.391L429.1 644.8C446.876 662.769 471.226 672.899 496.65 672.903C521.953 672.927 546.186 662.813 563.814 644.869L702.489 507.624C731.192 475.085 738.031 428.974 719.984 389.66C701.937 350.346 662.33 325.071 618.658 325Z" fill="#00AAFF"/>
</svg>
