<svg width="1001" height="1000" viewBox="0 0 1001 1000" fill="none" xmlns="http://www.w3.org/2000/svg">
<g clip-path="url(#clip0_64_801)">
<path d="M529.996 597.973C510.666 597.973 491.772 592.244 475.697 581.509C459.624 570.775 447.093 555.517 439.686 537.664C432.28 519.811 430.333 500.162 434.089 481.203C437.844 462.244 447.136 444.822 460.789 431.141C474.443 417.459 491.844 408.131 510.797 404.336C529.749 400.54 549.4 402.448 567.269 409.817C585.138 417.186 600.422 429.686 611.189 445.737C621.957 461.789 627.725 480.672 627.766 500C627.8 512.859 625.297 525.598 620.399 537.488C615.5 549.377 608.304 560.183 599.221 569.284C590.138 578.388 579.347 585.606 567.468 590.53C555.588 595.453 542.854 597.981 529.996 597.973ZM631.346 579.663L674.185 627.366C634.711 667.77 580.994 691.125 524.522 692.433C412.563 692.433 326.684 608.445 326.684 498.919C326.684 390.473 413.914 307.567 527.427 307.567C582.282 308.042 634.796 329.852 673.846 368.378L631.549 421.555C618.713 406.659 602.93 394.587 585.196 386.098C567.461 377.608 548.16 372.886 528.508 372.23C495.088 372.23 463.036 385.506 439.404 409.138C415.771 432.77 402.495 464.822 402.495 498.244C402.495 531.664 415.771 563.716 439.404 587.348C463.036 610.98 495.088 624.256 528.508 624.256C567.275 623.155 604.149 607.245 631.549 579.797L631.346 579.663ZM750.4 690.608V309.392C750.364 293.651 744.096 278.565 732.966 267.435C721.835 256.304 706.749 250.036 691.008 250H309.792C294.051 250.036 278.966 256.304 267.835 267.435C256.705 278.565 250.436 293.651 250.4 309.392V690.608C250.436 706.348 256.705 721.434 267.835 732.566C278.966 743.695 294.051 749.964 309.792 750H691.008C706.749 749.964 721.835 743.695 732.966 732.566C744.096 721.434 750.364 706.348 750.4 690.608Z" fill="#FA9100"/>
</g>
<defs>
<clipPath id="clip0_64_801">
<rect width="500" height="500" fill="white" transform="translate(250.4 250)"/>
</clipPath>
</defs>
</svg>
