<svg width="1000" height="1000" viewBox="0 0 1000 1000" fill="none" xmlns="http://www.w3.org/2000/svg">
<path d="M818.291 353.729V254.479L698.916 317.146V313.438C698.916 273.875 670.562 250 629.5 250H251.104C207.854 250 181.708 273.875 181.708 313.438V413.438L348.854 500L181.708 587.313V687.312C181.708 726.125 207.854 750 251.104 750H629.479C670.52 750 698.854 726.125 698.854 687.312V682.104L818.25 745.521V644.792L540.666 500L818.291 353.729ZM444.416 549.229L649.666 656.729H238.375L444.375 549.229H444.416ZM648.166 343.292L444.395 450L238.416 343.292H648.125H648.166Z" fill="black"/>
</svg>
