<svg width="1001" height="1000" viewBox="0 0 1001 1000" fill="none" xmlns="http://www.w3.org/2000/svg">
<path fill-rule="evenodd" clip-rule="evenodd" d="M608.853 312.5V437.498L717.11 375.001L608.853 312.5Z" stroke="#030404" stroke-width="10.1667" stroke-miterlimit="2" stroke-linejoin="round"/>
<path fill-rule="evenodd" clip-rule="evenodd" d="M608.854 312.5L500.601 375.001L608.854 437.502V312.5Z" stroke="#030404" stroke-width="10.1667" stroke-miterlimit="2" stroke-linejoin="round"/>
<path fill-rule="evenodd" clip-rule="evenodd" d="M608.854 312.501L500.601 250V375.001L608.854 312.501Z" stroke="#030404" stroke-width="10.1667" stroke-miterlimit="2" stroke-linejoin="round"/>
<path fill-rule="evenodd" clip-rule="evenodd" d="M392.348 312.501L500.601 375.001V250L392.348 312.501Z" stroke="#030404" stroke-width="10.1667" stroke-miterlimit="2" stroke-linejoin="round"/>
<path fill-rule="evenodd" clip-rule="evenodd" d="M392.348 312.5V437.498L500.601 375.001L392.348 312.5Z" stroke="#030404" stroke-width="10.1667" stroke-miterlimit="2" stroke-linejoin="round"/>
<path fill-rule="evenodd" clip-rule="evenodd" d="M392.347 312.5L284.09 375.001L392.347 437.502V312.5Z" stroke="#030404" stroke-width="10.1667" stroke-miterlimit="2" stroke-linejoin="round"/>
<path fill-rule="evenodd" clip-rule="evenodd" d="M284.09 500.002L392.347 437.497L284.09 375.001V500.002Z" stroke="#030404" stroke-width="10.1667" stroke-miterlimit="2" stroke-linejoin="round"/>
<path fill-rule="evenodd" clip-rule="evenodd" d="M284.09 500.002L392.347 562.503V437.501L284.09 500.002Z" stroke="#030404" stroke-width="10.1667" stroke-miterlimit="2" stroke-linejoin="round"/>
<path fill-rule="evenodd" clip-rule="evenodd" d="M284.09 500.002V625.003L392.347 562.502L284.09 500.002Z" stroke="#030404" stroke-width="10.1667" stroke-miterlimit="2" stroke-linejoin="round"/>
<path fill-rule="evenodd" clip-rule="evenodd" d="M392.347 687.499V562.502L284.09 625.003L392.347 687.499Z" stroke="#030404" stroke-width="10.1667" stroke-miterlimit="2" stroke-linejoin="round"/>
<path fill-rule="evenodd" clip-rule="evenodd" d="M392.348 687.499L500.601 625.003L392.348 562.502V687.499Z" stroke="#030404" stroke-width="10.1667" stroke-miterlimit="2" stroke-linejoin="round"/>
<path fill-rule="evenodd" clip-rule="evenodd" d="M392.348 687.499L500.601 750V625.003L392.348 687.499Z" stroke="#030404" stroke-width="10.1667" stroke-miterlimit="2" stroke-linejoin="round"/>
<path fill-rule="evenodd" clip-rule="evenodd" d="M608.854 687.499L500.601 625.003V750L608.854 687.499Z" stroke="#030404" stroke-width="10.1667" stroke-miterlimit="2" stroke-linejoin="round"/>
<path fill-rule="evenodd" clip-rule="evenodd" d="M608.854 687.499V562.502L500.601 625.003L608.854 687.499Z" stroke="#030404" stroke-width="10.1667" stroke-miterlimit="2" stroke-linejoin="round"/>
<path fill-rule="evenodd" clip-rule="evenodd" d="M608.853 687.499L717.105 625.003L608.853 562.502V687.499Z" stroke="#030404" stroke-width="10.1667" stroke-miterlimit="2" stroke-linejoin="round"/>
</svg>
