<svg width="1001" height="1000" viewBox="0 0 1001 1000" fill="none" xmlns="http://www.w3.org/2000/svg">
<g clip-path="url(#clip0_61_740)">
<path d="M343.039 473.814C343.597 473.814 344.131 474.038 344.522 474.435L414.641 544.617C415.219 545.211 415.39 546.093 415.074 546.86C414.759 547.627 414.019 548.134 413.189 548.151H395.265C394.104 548.15 393.154 549.073 393.119 550.234V708.017C393.145 718.004 397.115 727.576 404.164 734.65L414.641 745.127C415.219 745.722 415.39 746.603 415.074 747.37C414.759 748.138 414.019 748.645 413.189 748.662H330.511C309.597 748.662 292.643 731.707 292.643 710.794V550.234C292.643 549.083 291.711 548.151 290.561 548.151H272.889C272.048 548.16 271.284 547.662 270.953 546.889C270.622 546.116 270.788 545.22 271.374 544.617L341.556 474.435C341.947 474.038 342.482 473.814 343.039 473.814ZM498.108 514.459C498.666 514.459 499.2 514.683 499.591 515.08L569.773 585.009C570.359 585.612 570.525 586.508 570.194 587.281C569.863 588.054 569.099 588.552 568.259 588.543H550.334C549.174 588.578 548.251 589.528 548.252 590.689V708.017C548.26 717.995 552.207 727.566 559.233 734.65L569.773 745.127C570.359 745.73 570.525 746.626 570.194 747.399C569.863 748.172 569.099 748.67 568.259 748.662H485.77C464.856 748.662 447.902 731.707 447.902 710.794V590.816C447.902 589.655 446.979 588.704 445.819 588.67H427.958C427.129 588.653 426.388 588.146 426.073 587.379C425.758 586.611 425.928 585.73 426.506 585.135L496.625 515.08C497.016 514.683 497.551 514.459 498.108 514.459ZM653.209 554.667C653.756 554.667 654.28 554.889 654.66 555.283L724.842 625.402C725.466 625.99 725.665 626.901 725.344 627.696C725.023 628.491 724.248 629.008 723.391 628.999H705.403C704.253 628.999 703.321 629.931 703.321 631.082V708.017C703.346 718.004 707.316 727.576 714.365 734.65L724.842 745.127C725.421 745.722 725.591 746.603 725.276 747.37C724.961 748.138 724.22 748.645 723.391 748.662H640.649C619.735 748.662 602.781 731.707 602.781 710.794V631.082C602.781 629.931 601.849 628.999 600.699 628.999H583.027C582.17 629.008 581.394 628.491 581.073 627.696C580.752 626.901 580.952 625.99 581.575 625.402L651.757 555.283C652.138 554.889 652.662 554.667 653.209 554.667ZM496.688 249.996C606.928 250.799 704.158 322.385 737.654 427.415C819.524 438.1 880.954 507.559 881.552 590.121C881.552 658.263 838.937 714.888 770.13 738.463L767.57 739.321L764.414 740.331V689.461C808.152 671.032 833.839 634.616 833.839 590.121C833.615 527.335 783.891 476.067 721.4 473.676L719.288 473.614H700.354L695.81 455.564C673.508 363.507 591.406 298.449 496.688 297.781C418.753 297.407 347.581 341.692 313.427 411.562L306.402 426.027L293.148 427.415C233.289 433.819 184.139 477.601 170.885 536.324C157.82 594.208 182.488 653.963 232.333 685.822L234.516 687.189V740.835H234.2L229.467 738.69C154.602 704.273 110.75 625.236 121.169 543.5C131.588 461.764 193.867 396.256 274.972 381.722C318.79 300.152 404.096 249.473 496.688 249.996Z" fill="#3448C5"/>
</g>
<defs>
<clipPath id="clip0_61_740">
<rect width="761.905" height="500" fill="white" transform="translate(119.647 250)"/>
</clipPath>
</defs>
</svg>
