<svg width="1000" height="1000" viewBox="0 0 1000 1000" fill="none" xmlns="http://www.w3.org/2000/svg">
<path fill-rule="evenodd" clip-rule="evenodd" d="M505.722 599.999C468.712 599.999 436.397 579.894 419.106 550.007L360.287 583.965C356.866 585.942 355.781 590.373 357.9 593.708C388.942 642.572 443.546 674.999 505.722 674.999C570.49 674.999 627.041 639.813 657.301 587.513L598.147 553.36C594.976 551.53 590.943 552.474 588.908 555.517C570.971 582.339 540.409 599.999 505.722 599.999ZM716.158 378.503C719.549 376.546 720.649 372.169 718.593 368.838C674.558 297.525 595.69 250 505.722 250C413.196 250 332.41 300.265 289.18 374.979L348.253 409.085C351.486 410.951 355.604 409.93 357.595 406.773C388.584 357.641 443.342 325 505.722 325C570.49 325 627.041 360.186 657.301 412.486L716.158 378.503Z" fill="#D2E1F0"/>
<path fill-rule="evenodd" clip-rule="evenodd" d="M505.722 674.999C443.546 674.999 388.943 642.572 357.901 593.707C355.786 590.378 356.871 585.939 360.288 583.965L419.106 550.007C410.595 535.296 405.723 518.217 405.723 499.999C405.723 445.036 450.23 400 505.722 400C540.409 400 570.972 417.66 588.908 444.481C590.94 447.519 594.982 448.466 598.148 446.639L657.301 412.486C627.042 360.186 570.491 325 505.722 325C443.342 325 388.584 357.64 357.595 406.773C355.607 409.927 351.482 410.949 348.254 409.085L289.18 374.978C267.902 411.756 255.723 454.456 255.723 499.999C255.723 637.41 366.991 750 505.722 750C595.691 750 674.558 702.475 718.593 631.161C720.648 627.834 719.545 623.452 716.159 621.495L657.301 587.513C627.042 639.813 570.491 674.999 505.722 674.999Z" fill="#96AAB9"/>
<path fill-rule="evenodd" clip-rule="evenodd" d="M716.499 526.887V473.112L669.929 500L716.499 526.887ZM635.207 487.972L723.444 437.028C732.681 431.695 744.277 438.389 744.277 449.056V550.944C744.277 561.61 732.681 568.305 723.444 562.972L635.207 512.028C625.985 506.703 625.985 493.297 635.207 487.972Z" fill="#00E1C8"/>
</svg>
