<svg width="1001" height="1000" viewBox="0 0 1001 1000" fill="none" xmlns="http://www.w3.org/2000/svg">
<path d="M500.4 249.5C638.746 249.5 750.9 361.654 750.9 500C750.9 638.346 638.746 750.5 500.4 750.5C362.055 750.5 249.9 638.346 249.9 500C249.9 361.654 362.055 249.5 500.4 249.5ZM394.584 396.323L302.096 499.587L301.349 500.421H346.355C346.066 539.523 368.675 581.119 398.288 610.935L398.291 610.938C450.305 662.388 524.179 659.625 580.165 633.17L581.849 632.374L579.992 632.22C555.995 630.222 537.057 625.198 520.686 617.218C504.825 609.487 491.348 598.971 478 585.708L476.709 584.416L476.705 584.412L475.402 583.117C462.088 569.791 453.28 557.954 447.761 545.193C442.118 532.147 439.899 518.096 439.858 500.438H488.57L487.823 499.604L395.329 396.323L394.957 395.907L394.584 396.323ZM601.305 387.878C549.374 337.669 476.2 340.617 420.654 366.849L418.971 367.645L420.826 367.8C444.826 369.807 463.767 374.834 480.141 382.813C496.515 390.793 510.346 401.737 524.11 415.611L524.114 415.615C538.164 429.469 547.364 441.657 553.062 454.829C558.704 467.876 560.926 481.927 560.975 499.582H512.246L512.992 500.415L605.498 603.688L605.87 604.104L606.243 603.688L698.74 500.415L699.487 499.582H654.472C654.739 461.107 632.852 420.202 603.92 390.489L602.531 389.076L602.527 389.073L601.305 387.878Z" fill="#FF3333"/>
</svg>
