<svg width="1000" height="1000" viewBox="0 0 1000 1000" fill="none" xmlns="http://www.w3.org/2000/svg">
<path d="M441.309 407.062C440.61 397.948 441.027 388.823 441.309 379.708C442.06 356.021 444.565 332.562 450.879 309.635C452.402 304.114 453.936 298.583 456.702 293.51C457.276 293.396 457.86 293.25 458.445 293.177C465.165 292.344 471.855 291.375 478.617 290.833C485.536 290.281 492.455 289.802 499.395 289.594C504.425 289.448 509.455 289.573 514.485 289.583C517.407 289.594 520.35 289.489 523.261 289.646C529.585 289.979 535.909 290.448 542.233 290.854C545.803 297.812 548.046 305.25 549.998 312.771C554.913 331.677 557.219 350.969 558.325 370.437C559.025 382.864 559.275 395.302 558.931 407.729C558.43 425.844 557.261 444.614 555.257 462.625C554.767 462.437 533.634 448.583 523.115 442.812C511.208 436.271 499.019 430.312 486.642 424.75C476.06 419.989 465.311 415.604 454.437 411.573C450.106 409.969 445.89 407.958 441.309 407.062Z" fill="#00933E"/>
<path d="M441.308 407.062C445.89 407.958 450.106 409.958 454.437 411.573C465.321 415.604 476.06 420 486.642 424.75C499.018 430.312 511.207 436.281 523.115 442.813C533.623 448.583 543.924 454.698 553.879 461.375C554.297 461.656 554.985 462.135 555.288 462.281C555.069 464.208 554.902 465.802 554.683 467.729C553.723 467.917 552.846 468.354 552.001 468.813C539.29 475.646 527.258 483.5 516.029 492.542C507.315 499.563 499.154 507.167 491.546 515.396C486.402 520.958 481.653 526.844 476.675 532.542C471.092 525.625 465.53 518.688 459.602 512.063C456.367 508.448 453.331 504.646 449.626 501.469C447.486 486.969 445.598 472.438 444.189 457.865C443.03 445.885 442.081 433.885 441.632 421.844C441.465 416.927 441.183 412 441.308 407.062Z" fill="#2AC54B"/>
<path d="M604.9 447.552C605.974 439.166 607.164 430.812 607.842 422.375C609.032 407.489 608.938 392.635 607.383 377.771C605.693 361.729 602.593 346 597.428 330.687C593.451 318.885 588.265 307.656 581.722 297.052C581.492 296.687 581.367 296.26 581.189 295.854C589.058 296.906 596.78 298.687 604.576 300.135C608.5 300.864 612.309 302.219 616.316 302.542C621.252 307.51 625.124 313.292 628.86 319.156C638.868 334.885 645.432 351.948 648.156 370.417C649.93 382.396 649.951 394.437 649.064 406.489C648.292 416.948 646.726 427.302 644.681 437.583C644.566 438.166 644.357 438.729 644.19 439.302C630.853 440.969 617.809 443.969 604.9 447.552Z" fill="#00933E"/>
<path d="M500.031 705.875C511.824 705.875 523.606 705.906 535.398 705.844C537.068 705.833 537.558 706.042 537.11 707.917C533.958 721.312 530.921 734.729 527.916 748.156C527.592 749.625 526.987 750 525.526 750C508.484 749.948 491.432 749.948 474.391 750C473.044 750 472.439 749.646 472.136 748.302C469.131 734.958 466.136 721.604 462.953 708.302C462.379 705.906 463.203 705.844 465.113 705.854C476.749 705.917 488.395 705.875 500.031 705.875Z" fill="#607D8B"/>
<path d="M413.561 304.885C411.087 310.479 408.197 315.885 405.932 321.583C399.712 337.302 395.757 353.594 393.524 370.323C392.689 376.552 392.115 382.812 391.666 389.073C391.311 390.5 390.706 391.135 389.036 390.5C386.876 389.687 384.612 389.156 382.358 388.604C371.849 386.031 361.34 383.489 350.831 380.927C351.061 374.573 352.125 368.333 353.419 362.114C355.861 350.333 360.14 339.219 365.702 328.573C366.015 327.979 366.412 327.437 366.766 326.864C367.111 326.75 367.497 326.698 367.8 326.51C376.294 321.219 385.102 316.521 394.244 312.469C400.568 309.677 406.882 306.802 413.561 304.885Z" fill="#00933E"/>
<path d="M542.234 290.854C535.91 290.448 529.586 289.979 523.262 289.646C520.34 289.49 517.407 289.584 514.485 289.584C509.455 289.573 504.425 289.448 499.395 289.594C492.466 289.802 485.536 290.271 478.617 290.834C471.855 291.375 465.166 292.344 458.445 293.177C457.861 293.25 457.287 293.396 456.702 293.511C460.563 283.573 466.126 274.667 473.253 266.761C478.669 260.75 485.056 256.052 492.142 252.094C497.85 248.594 503.413 250 508.787 252.573C520.308 258.906 529.064 267.948 535.962 278.959C538.362 282.771 540.491 286.719 542.234 290.854Z" fill="#2196F3"/>
<path d="M350.842 380.938C361.35 383.49 371.859 386.031 382.368 388.615C384.612 389.167 386.887 389.688 389.047 390.51C390.717 391.135 391.322 390.51 391.677 389.083C391.28 396.563 391.165 404.052 391.499 411.531C392.084 424.542 393.503 437.479 395.674 450.323C395.841 451.333 396.133 452.354 395.882 453.396C390.988 450.104 386.104 446.792 381.199 443.521C373.038 438.073 364.606 433.094 356.007 428.365C355.225 427.937 354.39 427.594 353.576 427.208C350.977 411.885 349.819 396.479 350.842 380.938Z" fill="#2AC54B"/>
<path d="M675.676 436.365C670.802 436.656 665.918 436.938 661.045 437.229C664.207 421.521 666.628 405.688 666.659 389.636C666.691 368.563 662.235 348.417 653.051 329.365C649.701 322.417 645.621 315.906 641.52 309.396C642.313 309.583 643.095 309.75 643.888 309.948C647.03 310.719 649.993 312.115 653.239 312.479L653.354 312.573C653.489 312.698 653.625 312.813 653.771 312.938C659.041 318.927 663.247 325.646 667.16 332.542C673.787 344.208 678.567 356.573 680.946 369.823C682.751 379.875 682.532 389.958 681.551 400.052C680.435 411.531 678.692 422.927 676.25 434.198C676.083 434.917 675.864 435.636 675.676 436.365Z" fill="#00933E"/>
<path d="M616.307 302.563C612.299 302.229 608.501 300.885 604.566 300.156C596.771 298.708 589.048 296.917 581.18 295.875C577.006 289.76 572.737 283.708 567.759 278.198C556.948 266.219 545.469 256.604 530.629 250C547.691 253.656 562.583 260.125 577.392 269.24C591.793 278.115 604.587 288.865 615.66 301.656C615.9 301.938 616.088 302.26 616.307 302.563Z" fill="#2196F3"/>
<path d="M413.561 304.885C406.882 306.802 400.568 309.677 394.244 312.479C385.102 316.531 376.284 321.229 367.8 326.521C367.497 326.708 367.111 326.76 366.767 326.875C376.743 308.875 389.913 293.594 406.099 280.896C406.496 280.583 406.809 280.083 407.424 280.166C412.392 283.594 417.349 287.01 422.316 290.437C419.405 295.26 416.483 300.073 413.561 304.885Z" fill="#90CAF9"/>
<path d="M320.702 363.677C321.234 359.354 322.768 355.291 324.261 351.25C330.157 335.354 339.038 321.219 349.943 308.292C359.325 297.177 369.938 287.406 382.054 279.302C386.281 276.479 390.653 273.896 395.485 272.167C390.455 275.969 385.498 279.844 380.854 284.104C362.654 300.833 349.035 320.614 340.854 344.01C340.634 344.646 340.426 345.281 340.207 345.916C333.809 351.427 327.433 356.948 321.6 363.062C321.349 363.323 321.005 363.479 320.702 363.677Z" fill="#90CAF9"/>
<path d="M335.532 417.927C330.857 416.063 326.192 414.198 321.517 412.344C321.036 412.156 320.536 412.01 320.045 411.844C319.043 407.698 318.866 403.448 318.459 399.24C317.676 391.052 317.269 382.854 318.438 374.656C323.572 375.604 328.696 376.542 333.831 377.49C332.839 390.135 333.559 402.708 335.344 415.25C335.469 416.125 335.48 417.031 335.532 417.927Z" fill="#2AC54B"/>
<path d="M333.831 377.479C328.697 376.531 323.573 375.594 318.438 374.646C319.002 370.948 319.2 367.177 320.703 363.677C321.006 363.479 321.36 363.323 321.601 363.062C327.434 356.948 333.81 351.417 340.208 345.917C337.859 353.875 335.751 361.885 334.729 370.146C334.416 372.594 334.123 375.041 333.831 377.479Z" fill="#00933E"/>
<path d="M653.02 311.844C642.115 298.479 629.79 286.656 615.097 277.479C611.674 275.344 608.23 273.114 604.223 272.104C618.812 282.375 631.147 294.906 641.51 309.385C642.303 309.573 643.085 309.739 643.879 309.937C647.02 310.708 649.984 312.104 653.229 312.469C653.166 312.25 653.156 312 653.02 311.844Z" fill="#2196F3"/>
<path d="M540.011 635.219C542.025 638.823 543.621 642.625 545.093 646.469C536.327 657.031 527.081 667.167 517.334 676.844C517.24 676.75 516.467 677.646 517.041 676.573C522.165 668.135 527.175 659.635 531.766 650.896C534.511 645.667 537.266 640.448 540.011 635.219Z" fill="#FF6F00"/>
<path d="M461.492 251.875C454.928 253.864 448.364 255.875 442.259 259.104C441.633 259.333 440.986 259.51 440.391 259.781C431.134 264.021 422.347 269.083 414.051 274.958C411.766 276.573 409.47 277.927 406.976 280.156C411.943 283.583 417.37 287.01 422.327 290.437C426.459 285.229 430.393 279.854 435.1 275.125C437.782 272.427 440.485 269.739 443.177 267.052C443.95 267.052 444.336 266.406 444.826 265.979C448.353 262.937 452.1 260.208 455.972 257.635C460.25 254.781 464.811 252.427 469.382 250.042C466.689 250.531 464.059 251.094 461.492 251.875Z" fill="#2196F3"/>
<path d="M548.494 654.312C548.953 655.385 549.402 656.458 549.861 657.531C544.111 663.833 531.119 677.24 530.973 677.104C536.566 670.021 542.89 661.396 548.494 654.312Z" fill="#FF6F00"/>
<path d="M516.248 678.021L516.144 678.052L516.268 678.042L516.248 678.021Z" fill="#9A2150"/>
<path d="M396.195 453.865C396.08 453.698 395.965 453.531 395.851 453.375C396.362 453.261 396.195 453.615 396.195 453.865Z" fill="#2AC54B"/>
<path d="M653.761 312.917C653.626 312.792 653.49 312.667 653.344 312.552C653.49 312.677 653.626 312.802 653.761 312.917Z" fill="#2AC54B"/>
<path d="M522.969 601.885L523.042 601.739L521.091 598.562C516.05 589.739 510.259 581.344 504.999 572.375C490.086 546.937 465.52 518.698 459.593 512.073C456.358 508.458 453.321 504.656 449.616 501.479C451.474 513.489 453.394 525.5 455.773 537.416C457.057 543.844 459.833 556.656 459.833 556.656L468.922 595.875C468.995 596.239 469.058 596.604 469.142 596.969C469.225 597.291 469.319 597.604 469.392 597.927L469.716 599.333L470.728 603C473.754 615.125 476.874 627.239 480.297 639.26C483.011 648.781 485.839 658.281 488.636 667.781L488.677 667.916C489.731 671.5 490.785 675.083 491.818 678.677C492.246 680.135 492.872 680.698 494.469 680.635C498.226 680.5 501.983 680.521 505.74 680.625C507.138 680.666 507.681 680.156 508.057 678.875C510.822 669.479 513.734 660.114 516.457 650.708C520.36 637.198 524.138 623.646 527.53 610C526.1 607.271 524.493 604.604 522.969 601.885Z" fill="#FF6F00"/>
<path d="M417.421 533.698C408.488 507.583 401.089 481.052 396.195 453.865C396.08 453.708 395.965 453.542 395.861 453.385C390.977 450.094 386.093 446.792 381.199 443.521C373.038 438.073 364.606 433.094 356.007 428.365C355.224 427.937 354.389 427.594 353.575 427.219C353.721 428.25 353.847 429.292 354.034 430.323C358.115 453.135 364.668 475.271 372.694 496.99C382.294 522.969 393.899 548.042 406.62 572.625C409.97 579.104 413.487 585.479 417.087 591.792C420.802 583.375 425.092 574.958 429.976 567.51C425.551 556.323 421.314 545.083 417.421 533.698Z" fill="#9A2150"/>
<path d="M395.851 453.375L395.861 453.385L395.871 453.395L395.851 453.375Z" fill="#9A2150"/>
<path d="M412.245 599.802C394.964 573.417 378.955 546.313 365.879 517.563C356.07 496 347.909 473.865 342.106 450.875C339.362 440 337.296 428.99 335.542 417.927C330.867 416.063 326.202 414.198 321.527 412.344C321.047 412.156 320.546 412.01 320.056 411.844C320.097 412.594 320.087 413.344 320.191 414.083C322.8 431.969 327.016 449.469 332.662 466.635C344.872 503.75 362.748 538.146 383.307 571.219C391.562 584.49 400.568 597.188 409.981 609.563C410.972 606.833 412.026 604.042 413.164 601.177C412.861 600.719 412.527 600.229 412.245 599.802Z" fill="#9A2150"/>
<path d="M470.425 664.052C474.297 668.239 478.231 672.375 482.217 676.625C482.739 675.406 469.809 653.979 464.403 643.625C458.246 631.823 440.672 593.542 440.443 593C436.79 584.562 433.336 576.052 429.965 567.51C425.081 574.958 420.792 583.364 417.077 591.791C424.445 604.708 432.355 617.302 441.267 629.281C450.305 641.437 460.135 652.937 470.425 664.052Z" fill="#FF6F00"/>
<path d="M459.352 667.229C462.66 670.541 466.167 673.656 469.214 676.51C469.266 677.021 430.518 627.364 413.163 601.167C412.026 604.031 410.972 606.833 409.98 609.552C422.389 625.875 435.59 641.583 449.501 656.75C452.736 660.281 455.961 663.833 459.352 667.229Z" fill="#FF6F00"/>
<path d="M527.561 610.011L476.687 532.563C476.687 532.563 520.068 474.49 554.694 467.74C554.694 467.74 548.495 538.875 527.561 610.011Z" fill="#BED70F"/>
<path d="M589.424 512.667C579.5 545.094 567.196 576.615 553.129 607.448C548.881 616.761 544.394 625.959 540.011 635.219C542.025 638.823 543.622 642.625 545.093 646.469C551.668 639.063 557.585 631.157 563.303 623.094C578.279 602.011 590.28 579.229 601.749 556.146C605.61 548.386 609.21 540.49 612.759 532.573C615.816 525.771 618.707 518.917 621.504 512.021L594.047 495.792C592.524 501.427 591.136 507.084 589.424 512.667Z" fill="#BED70F"/>
<path d="M675.677 436.365C674.539 436.427 673.391 436.5 672.254 436.563C673.475 436.521 674.633 436.479 675.656 436.458C675.656 436.427 675.666 436.396 675.677 436.365Z" fill="#BED70F"/>
<path d="M629.832 526.719C611.225 565.021 588.464 600.782 563.116 634.938C558.294 641.438 553.369 647.854 548.495 654.313C548.954 655.386 549.403 656.459 549.862 657.532C550.384 657 550.937 656.49 551.438 655.938C561.143 645.209 570.546 634.24 579.656 623C603.554 593.511 623.915 561.75 641.301 528.063C641.874 526.948 642.355 525.792 642.918 524.677L633.38 519.042C632.2 521.604 631.063 524.177 629.832 526.719Z" fill="#BED70F"/>
<path d="M644.17 439.323C630.843 440.959 617.809 443.969 604.89 447.552C604.733 448.427 604.577 449.302 604.42 450.177C601.79 465.584 598.138 480.75 594.047 495.802L621.503 512.032C628.506 494.771 634.673 477.209 639.557 459.177C641.342 452.615 643.085 446.042 644.17 439.323Z" fill="#4CAF50"/>
<path d="M675.656 436.458C674.633 436.479 673.474 436.521 672.253 436.563C668.517 436.781 664.781 437 661.045 437.219C658.979 447.25 656.422 457.167 653.427 466.958C647.969 484.792 641.207 502.136 633.391 519.042L642.929 524.677C651.465 507.833 659.125 490.615 665.355 472.792C669.509 460.896 673.057 448.802 675.656 436.458Z" fill="#4CAF50"/>
</svg>
