<svg width="1001" height="1000" viewBox="0 0 1001 1000" fill="none" xmlns="http://www.w3.org/2000/svg">
<path d="M750.587 341.575C750.587 320.229 734.401 301.422 711.848 301.422C592.94 301.422 496.545 392.657 496.545 505.202C496.545 617.745 592.94 708.98 711.848 708.98C734.401 708.98 750.587 690.174 750.587 668.827V341.575Z" fill="#FFC75D"/>
<path d="M612.355 265.511C604.353 243.398 580.563 229.387 557.091 236.653C555.942 237.009 554.796 237.372 553.649 237.744C419.992 281.079 348.758 418.758 394.543 545.262C440.328 671.765 585.794 739.186 719.45 695.853C720.598 695.48 721.739 695.102 722.876 694.716C746.127 686.833 755.841 661.96 747.839 639.848L612.355 265.511Z" fill="#60C6AD" fill-opacity="0.92"/>
<path d="M441.204 263.99C426.415 245.269 399.294 238.888 378.984 252.186C375.94 254.179 372.922 256.233 369.934 258.348C238.388 351.434 211.478 527.827 309.828 652.33C408.179 776.837 594.546 802.306 726.091 709.218C729.08 707.103 732.016 704.946 734.896 702.746C754.118 688.069 755.323 661.644 740.535 642.924L441.204 263.99Z" fill="#827FFC" fill-opacity="0.88"/>
</svg>
