<svg width="1000" height="1000" viewBox="0 0 1000 1000" fill="none" xmlns="http://www.w3.org/2000/svg">
<g clip-path="url(#clip0_61_755)">
<path d="M482.068 541.249L568.405 438.356L550.625 423.436L464.287 526.329L482.068 541.249Z" fill="black"/>
<path d="M568.405 438.356L654.742 335.463L636.962 320.543L550.624 423.436L568.405 438.356Z" fill="#0019FF"/>
<path d="M569.548 439.591L657.668 338.221L640.151 322.993L552.031 424.363L569.548 439.591Z" fill="#0015FF"/>
<path d="M570.67 440.846L660.546 341.029L643.297 325.498L553.421 425.315L570.67 440.846Z" fill="#0011FF"/>
<path d="M571.769 442.12L663.373 343.887L646.398 328.057L554.794 426.29L571.769 442.12Z" fill="#000CFF"/>
<path d="M572.847 443.414L666.151 346.794L649.455 330.67L556.15 427.29L572.847 443.414Z" fill="#0008FF"/>
<path d="M573.9 444.725L668.877 349.749L652.464 333.336L557.488 428.313L573.9 444.725Z" fill="#0004FF"/>
<path d="M574.932 446.056L671.552 352.751L655.428 336.054L558.808 429.359L574.932 446.056Z" fill="#0000FF"/>
<path d="M575.939 447.403L674.173 355.799L658.343 338.823L560.11 430.428L575.939 447.403Z" fill="#0500FF"/>
<path d="M576.924 448.768L676.741 358.893L661.21 341.644L561.393 431.519L576.924 448.768Z" fill="#0900FF"/>
<path d="M577.884 450.151L679.255 362.031L664.027 344.513L562.657 432.633L577.884 450.151Z" fill="#0D00FF"/>
<path d="M578.821 451.549L681.714 365.212L666.794 347.431L563.901 433.769L578.821 451.549Z" fill="#1100FF"/>
<path d="M579.732 452.964L684.116 368.436L669.509 350.397L565.125 434.926L579.732 452.964Z" fill="#1600FF"/>
<path d="M580.619 454.395L686.462 371.701L672.172 353.41L566.329 436.104L580.619 454.395Z" fill="#1A00FF"/>
<path d="M581.481 455.84L688.751 375.006L674.782 356.469L567.512 437.303L581.481 455.84Z" fill="#1E00FF"/>
<path d="M582.317 457.301L690.981 378.352L677.338 359.574L568.674 438.523L582.317 457.301Z" fill="#2200FF"/>
<path d="M583.127 458.776L693.153 381.735L679.84 362.722L569.814 439.763L583.127 458.776Z" fill="#2700FF"/>
<path d="M583.912 460.265L695.266 385.156L682.286 365.913L570.932 441.022L583.912 460.265Z" fill="#2B00FF"/>
<path d="M584.671 461.768L697.318 388.613L684.677 369.147L572.029 442.301L584.671 461.768Z" fill="#2F00FF"/>
<path d="M585.402 463.283L699.31 392.105L687.01 372.422L573.102 443.599L585.402 463.283Z" fill="#3300FF"/>
<path d="M586.108 464.811L701.24 395.632L689.286 375.737L574.153 444.915L586.108 464.811Z" fill="#3800FF"/>
<path d="M586.787 466.351L703.109 399.192L691.504 379.091L575.182 446.25L586.787 466.351Z" fill="#3C00FF"/>
<path d="M587.439 467.902L704.915 402.784L693.662 382.484L576.186 447.602L587.439 467.902Z" fill="#4000FF"/>
<path d="M588.063 469.465L706.658 406.407L695.761 385.913L577.166 448.971L588.063 469.465Z" fill="#4400FF"/>
<path d="M588.661 471.039L708.339 410.06L697.801 389.379L578.124 450.358L588.661 471.039Z" fill="#4800FF"/>
<path d="M589.231 472.622L709.954 413.742L699.779 392.88L579.056 451.761L589.231 472.622Z" fill="#4D00FF"/>
<path d="M589.773 474.216L711.506 417.451L701.697 396.415L579.964 453.179L589.773 474.216Z" fill="#5100FF"/>
<path d="M590.287 475.818L712.992 421.187L703.551 399.982L580.847 454.614L590.287 475.818Z" fill="#5500FF"/>
<path d="M590.773 477.43L714.413 424.948L705.344 403.582L581.704 456.064L590.773 477.43Z" fill="#5900FF"/>
<path d="M591.231 479.049L715.768 428.733L707.073 407.212L582.536 457.528L591.231 479.049Z" fill="#5E00FF"/>
<path d="M591.661 480.676L717.057 432.542L708.739 410.872L583.343 459.007L591.661 480.676Z" fill="#6200FF"/>
<path d="M592.062 482.311L718.279 436.372L710.341 414.561L584.124 460.5L592.062 482.311Z" fill="#6600FF"/>
<path d="M592.434 483.952L719.434 440.223L711.877 418.276L584.877 462.006L592.434 483.952Z" fill="#6A00FF"/>
<path d="M592.778 485.6L720.521 444.093L713.349 422.018L585.606 463.525L592.778 485.6Z" fill="#6F00FF"/>
<path d="M593.094 487.253L721.542 447.982L714.756 425.786L586.308 465.056L593.094 487.253Z" fill="#7300FF"/>
<path d="M593.379 488.911L722.493 451.889L716.095 429.577L586.981 466.6L593.379 488.911Z" fill="#7700FF"/>
<path d="M593.637 490.575L723.377 455.811L717.37 433.391L587.629 468.155L593.637 490.575Z" fill="#7B00FF"/>
<path d="M593.865 492.242L724.192 459.748L718.577 437.227L588.25 469.721L593.865 492.242Z" fill="#8000FF"/>
<path d="M594.064 493.914L724.938 463.699L719.717 441.083L588.843 471.298L594.064 493.914Z" fill="#8400FF"/>
<path d="M594.234 495.588L725.616 467.662L720.79 444.958L589.408 472.884L594.234 495.588Z" fill="#8800FF"/>
<path d="M594.374 497.265L726.224 471.636L721.795 448.852L589.945 474.481L594.374 497.265Z" fill="#8C00FF"/>
<path d="M594.485 498.945L726.762 475.621L722.731 452.762L590.455 476.086L594.485 498.945Z" fill="#9100FF"/>
<path d="M594.567 500.626L727.23 479.614L723.599 456.689L590.936 477.701L594.567 500.626Z" fill="#9500FF"/>
<path d="M594.62 502.308L727.63 483.614L724.4 460.629L591.39 479.323L594.62 502.308Z" fill="#9900FF"/>
<path d="M594.643 503.991L727.959 487.622L725.13 464.584L591.814 480.953L594.643 503.991Z" fill="#9D00FF"/>
<path d="M594.637 505.674L728.219 491.634L725.793 468.55L592.211 482.59L594.637 505.674Z" fill="#A100FF"/>
<path d="M594.601 507.356L728.407 495.65L726.384 472.527L592.578 484.234L594.601 507.356Z" fill="#A600FF"/>
<path d="M594.536 509.038L728.526 499.668L726.907 476.514L592.917 485.884L594.536 509.038Z" fill="#AA00FF"/>
<path d="M594.442 510.719L728.575 503.689L727.36 480.51L593.227 487.54L594.442 510.719Z" fill="#AE00FF"/>
<path d="M594.318 512.397L728.554 507.709L727.744 484.513L593.508 489.2L594.318 512.397Z" fill="#B200FF"/>
<path d="M594.166 514.073L728.463 511.729L728.058 488.522L593.761 490.866L594.166 514.073Z" fill="#B700FF"/>
<path d="M593.984 515.746H728.301V492.535H593.984V515.746Z" fill="#BB00FF"/>
<path d="M593.773 517.416L728.069 519.76L728.474 496.553L594.178 494.209L593.773 517.416Z" fill="#BF00FF"/>
<path d="M593.532 519.081L727.768 523.769L728.578 500.572L594.342 495.885L593.532 519.081Z" fill="#C300FF"/>
<path d="M593.262 520.743L727.396 527.772L728.61 504.593L594.477 497.564L593.262 520.743Z" fill="#C800FF"/>
<path d="M592.964 522.4L726.954 531.769L728.573 508.615L594.583 499.245L592.964 522.4Z" fill="#CC00FF"/>
<path d="M592.637 524.05L726.443 535.757L728.466 512.634L594.66 500.928L592.637 524.05Z" fill="#D000FF"/>
<path d="M592.281 525.695L725.862 539.735L728.288 516.652L594.707 502.612L592.281 525.695Z" fill="#D400FF"/>
<path d="M591.897 527.333L725.213 543.703L728.042 520.665L594.726 504.296L591.897 527.333Z" fill="#D900FF"/>
<path d="M591.483 528.965L724.493 547.659L727.723 524.674L594.713 505.98L591.483 528.965Z" fill="#DD00FF"/>
<path d="M591.042 530.589L723.705 551.601L727.336 528.676L594.673 507.664L591.042 530.589Z" fill="#E100FF"/>
<path d="M590.572 532.205L722.849 555.529L726.879 532.671L594.603 509.347L590.572 532.205Z" fill="#E500FF"/>
<path d="M590.074 533.813L721.924 559.442L726.353 536.657L594.503 511.029L590.074 533.813Z" fill="#EA00FF"/>
<path d="M589.549 535.412L720.931 563.338L725.756 540.634L594.374 512.708L589.549 535.412Z" fill="#EE00FF"/>
<path d="M588.995 537.001L719.869 567.216L725.09 544.6L594.216 514.385L588.995 537.001Z" fill="#F200FF"/>
<path d="M588.413 538.58L718.74 571.075L724.355 548.553L594.028 516.059L588.413 538.58Z" fill="#F600FF"/>
<path d="M587.804 540.15L717.545 574.914L723.552 552.494L593.812 517.73L587.804 540.15Z" fill="#FA00FF"/>
<path d="M587.168 541.708L716.282 578.73L722.68 556.419L593.566 519.396L587.168 541.708Z" fill="#FF00FF"/>
<path d="M586.505 543.255L714.953 582.525L721.739 560.329L593.291 521.058L586.505 543.255Z" fill="#FF00FB"/>
<path d="M585.814 544.79L713.558 586.296L720.73 564.221L592.987 522.715L585.814 544.79Z" fill="#FF00F7"/>
<path d="M585.097 546.312L712.097 590.042L719.653 568.095L592.654 524.366L585.097 546.312Z" fill="#FF00F3"/>
<path d="M584.354 547.823L710.571 593.762L718.51 571.951L592.293 526.011L584.354 547.823Z" fill="#FF00EE"/>
<path d="M583.585 549.319L708.98 597.454L717.298 575.785L591.903 527.65L583.585 549.319Z" fill="#FF00EA"/>
<path d="M582.789 550.802L707.326 601.118L716.021 579.597L591.484 529.281L582.789 550.802Z" fill="#FF00E6"/>
<path d="M581.968 552.271L705.607 604.753L714.677 583.387L591.037 530.905L581.968 552.271Z" fill="#FF00E2"/>
<path d="M581.12 553.726L703.825 608.357L713.266 587.153L590.561 532.522L581.12 553.726Z" fill="#FF00DD"/>
<path d="M580.249 555.165L701.981 611.93L711.791 590.894L590.058 534.129L580.249 555.165Z" fill="#FF00D9"/>
<path d="M579.352 556.589L700.075 615.47L710.25 594.608L589.527 535.727L579.352 556.589Z" fill="#FF00D5"/>
<path d="M578.43 557.997L698.107 618.976L708.645 598.295L588.967 537.316L578.43 557.997Z" fill="#FF00D1"/>
<path d="M577.483 559.389L696.078 622.447L706.975 601.953L588.38 538.895L577.483 559.389Z" fill="#FF00CC"/>
<path d="M576.513 560.764L693.989 625.882L705.242 605.582L587.766 540.463L576.513 560.764Z" fill="#FF00C8"/>
<path d="M575.519 562.122L691.841 629.281L703.446 609.18L587.124 542.021L575.519 562.122Z" fill="#FF00C4"/>
<path d="M574.502 563.463L689.634 632.641L701.588 612.746L586.456 543.567L574.502 563.463Z" fill="#FF00C0"/>
<path d="M573.46 564.785L687.367 635.962L699.667 616.278L585.76 545.101L573.46 564.785Z" fill="#FF00BB"/>
<path d="M572.396 566.089L685.044 639.244L697.685 619.777L585.038 546.623L572.396 566.089Z" fill="#FF00B7"/>
<path d="M571.309 567.374L682.663 642.483L695.642 623.241L584.288 548.132L571.309 567.374Z" fill="#FF00B3"/>
<path d="M570.2 568.64L680.227 645.682L693.54 626.668L583.514 549.627L570.2 568.64Z" fill="#FF00AF"/>
<path d="M569.07 569.887L677.734 648.837L691.377 630.059L582.712 551.109L569.07 569.887Z" fill="#FF00AB"/>
<path d="M567.918 571.114L675.188 651.948L689.157 633.411L581.887 552.577L567.918 571.114Z" fill="#FF00A6"/>
<path d="M566.744 572.32L672.587 655.014L686.877 636.724L581.034 554.03L566.744 572.32Z" fill="#FF00A2"/>
<path d="M565.55 573.506L669.934 658.034L684.541 639.996L580.157 555.467L565.55 573.506Z" fill="#FF009E"/>
<path d="M564.335 574.67L667.228 661.008L682.147 643.227L579.254 556.89L564.335 574.67Z" fill="#FF009A"/>
<path d="M563.099 575.814L664.47 663.934L679.697 646.416L578.327 558.296L563.099 575.814Z" fill="#FF0095"/>
<path d="M561.845 576.935L661.662 666.811L677.193 649.562L577.376 559.686L561.845 576.935Z" fill="#FF0091"/>
<path d="M560.57 578.035L658.804 669.639L674.633 652.664L576.4 561.06L560.57 578.035Z" fill="#FF008D"/>
<path d="M559.277 579.112L655.896 672.417L672.02 655.72L575.4 562.415L559.277 579.112Z" fill="#FF0089"/>
<path d="M557.965 580.166L652.941 675.143L669.354 658.731L574.377 563.754L557.965 580.166Z" fill="#FF0084"/>
<path d="M556.635 581.198L649.939 677.817L666.636 661.694L573.331 565.074L556.635 581.198Z" fill="#FF0080"/>
<path d="M555.288 582.206L646.892 680.439L663.867 664.609L572.263 566.376L555.288 582.206Z" fill="#FF007C"/>
<path d="M553.922 583.19L643.798 683.007L661.047 667.476L571.171 567.659L553.922 583.19Z" fill="#FF0078"/>
<path d="M552.54 584.15L640.66 685.521L658.178 670.293L570.058 568.922L552.54 584.15Z" fill="#FF0073"/>
<path d="M551.141 585.086L637.479 687.979L655.259 673.059L568.922 570.166L551.141 585.086Z" fill="#FF006F"/>
<path d="M549.726 585.998L634.255 690.382L652.293 675.775L567.765 571.391L549.726 585.998Z" fill="#FF006B"/>
<path d="M548.295 586.884L630.989 692.728L649.28 678.438L566.586 572.594L548.295 586.884Z" fill="#FF0067"/>
<path d="M546.85 587.746L627.685 695.016L646.222 681.047L565.387 573.777L546.85 587.746Z" fill="#FF0062"/>
<path d="M545.389 588.582L624.339 697.247L643.117 683.604L564.167 574.939L545.389 588.582Z" fill="#FF005E"/>
<path d="M543.914 589.392L620.955 699.418L639.968 686.105L562.927 576.079L543.914 589.392Z" fill="#FF005A"/>
<path d="M542.426 590.177L617.535 701.531L636.778 688.552L561.669 577.198L542.426 590.177Z" fill="#FF0056"/>
<path d="M540.923 590.936L614.077 703.583L633.543 690.942L560.389 578.294L540.923 590.936Z" fill="#FF0052"/>
<path d="M539.408 591.668L610.585 705.575L630.269 693.275L559.092 579.368L539.408 591.668Z" fill="#FF004D"/>
<path d="M537.88 592.374L607.059 707.506L626.954 695.551L557.776 580.419L537.88 592.374Z" fill="#FF0049"/>
<path d="M536.339 593.052L603.498 709.375L623.599 697.769L556.441 581.447L536.339 593.052Z" fill="#FF0045"/>
<path d="M534.788 593.704L599.906 711.181L620.207 699.928L555.089 582.451L534.788 593.704Z" fill="#FF0041"/>
<path d="M533.225 594.329L596.283 712.924L616.777 702.027L553.719 583.432L533.225 594.329Z" fill="#FF003C"/>
<path d="M531.652 594.927L592.631 714.604L613.312 704.066L552.333 584.389L531.652 594.927Z" fill="#FF0038"/>
<path d="M530.068 595.496L588.949 716.22L609.811 706.045L550.93 585.321L530.068 595.496Z" fill="#FF0034"/>
<path d="M528.475 596.038L585.24 717.771L606.276 707.962L549.512 586.229L528.475 596.038Z" fill="#FF0030"/>
<path d="M526.872 596.552L581.504 719.257L602.708 709.817L548.076 587.112L526.872 596.552Z" fill="#FF002B"/>
<path d="M525.261 597.039L577.743 720.678L599.109 711.609L546.627 587.969L525.261 597.039Z" fill="#FF0027"/>
<path d="M523.642 597.497L573.958 722.034L595.479 713.339L545.163 588.802L523.642 597.497Z" fill="#FF0023"/>
<path d="M522.014 597.926L570.149 723.322L591.819 715.004L543.684 589.608L522.014 597.926Z" fill="#FF001F"/>
<path d="M520.38 598.328L566.319 724.544L588.13 716.606L542.191 590.389L520.38 598.328Z" fill="#FF001A"/>
<path d="M518.738 598.7L562.468 725.7L584.414 718.143L540.685 591.144L518.738 598.7Z" fill="#FF0016"/>
<path d="M517.091 599.044L558.598 726.787L580.672 719.615L539.166 591.871L517.091 599.044Z" fill="#FF0012"/>
<path d="M515.437 599.359L554.708 727.807L576.905 721.021L537.634 592.573L515.437 599.359Z" fill="#FF000E"/>
<path d="M513.779 599.645L550.802 728.759L573.113 722.362L536.091 593.248L513.779 599.645Z" fill="#FF0009"/>
<path d="M512.116 599.903L546.88 729.643L569.3 723.636L534.536 593.895L512.116 599.903Z" fill="#FF0005"/>
<path d="M510.448 600.131L542.942 730.458L565.464 724.843L532.97 594.515L510.448 600.131Z" fill="#FF0001"/>
<path d="M508.777 600.329L538.992 731.204L561.608 725.983L531.393 595.108L508.777 600.329Z" fill="#FF0300"/>
<path d="M507.102 600.499L535.028 731.881L557.732 727.056L529.806 595.674L507.102 600.499Z" fill="#FF0700"/>
<path d="M505.426 600.64L531.055 732.489L553.839 728.06L528.21 596.211L505.426 600.64Z" fill="#FF0C00"/>
<path d="M503.746 600.751L527.07 733.028L549.929 728.997L526.605 596.721L503.746 600.751Z" fill="#FF1000"/>
<path d="M502.065 600.833L523.077 733.497L546.002 729.866L524.99 597.202L502.065 600.833Z" fill="#FF1400"/>
<path d="M500.383 600.885L519.076 733.896L542.061 730.665L523.368 597.655L500.383 600.885Z" fill="#FF1800"/>
<path d="M498.7 600.909L515.069 734.225L538.107 731.396L521.738 598.08L498.7 600.909Z" fill="#FF1D00"/>
<path d="M497.017 600.903L511.057 734.484L534.14 732.058L520.1 598.476L497.017 600.903Z" fill="#FF2100"/>
<path d="M495.335 600.867L507.041 734.673L530.164 732.65L518.457 598.844L495.335 600.867Z" fill="#FF2500"/>
<path d="M493.653 600.802L503.022 734.792L526.177 733.173L516.807 599.183L493.653 600.802Z" fill="#FF2900"/>
<path d="M491.972 600.708L499.002 734.841L522.181 733.626L515.151 599.493L491.972 600.708Z" fill="#FF2E00"/>
<path d="M490.294 600.584L494.981 734.82L518.178 734.01L513.491 599.774L490.294 600.584Z" fill="#FF3200"/>
<path d="M488.618 600.431L490.962 734.728L514.169 734.323L511.825 600.026L488.618 600.431Z" fill="#FF3600"/>
<path d="M486.944 600.249V734.566H510.155V600.249H486.944Z" fill="#FF3A00"/>
<path d="M485.275 600.038L482.931 734.335L506.138 734.74L508.482 600.443L485.275 600.038Z" fill="#FF3F00"/>
<path d="M483.609 599.798L478.921 734.033L502.118 734.843L506.805 600.608L483.609 599.798Z" fill="#FF4300"/>
<path d="M481.948 599.529L474.918 733.662L498.097 734.876L505.127 600.743L481.948 599.529Z" fill="#FF4700"/>
<path d="M480.291 599.23L470.922 733.22L494.076 734.839L503.446 600.849L480.291 599.23Z" fill="#FF4B00"/>
<path d="M478.64 598.903L466.934 732.709L490.056 734.732L501.763 600.926L478.64 598.903Z" fill="#FF5000"/>
<path d="M476.995 598.547L462.955 732.128L486.039 734.555L500.079 600.973L476.995 598.547Z" fill="#FF5400"/>
<path d="M475.356 598.163L458.987 731.479L482.025 734.307L498.394 600.991L475.356 598.163Z" fill="#FF5800"/>
<path d="M473.726 597.749L455.032 730.759L478.017 733.99L496.711 600.98L473.726 597.749Z" fill="#FF5C00"/>
<path d="M472.102 597.308L451.09 729.971L474.015 733.602L495.027 600.939L472.102 597.308Z" fill="#FF6000"/>
<path d="M470.485 596.838L447.161 729.114L470.019 733.145L493.343 600.868L470.485 596.838Z" fill="#FF6500"/>
<path d="M468.877 596.34L443.248 728.189L466.032 732.618L491.661 600.768L468.877 596.34Z" fill="#FF6900"/>
<path d="M467.279 595.814L439.353 727.196L462.056 732.022L489.982 600.64L467.279 595.814Z" fill="#FF6D00"/>
<path d="M465.689 595.26L435.475 726.135L458.091 731.356L488.305 600.481L465.689 595.26Z" fill="#FF7100"/>
<path d="M464.11 594.678L431.615 725.006L454.137 730.621L486.631 600.294L464.11 594.678Z" fill="#FF7600"/>
<path d="M462.541 594.07L427.777 723.81L450.197 729.817L484.961 600.077L462.541 594.07Z" fill="#FF7A00"/>
<path d="M460.983 593.433L423.96 722.547L446.272 728.945L483.294 599.831L460.983 593.433Z" fill="#FF7E00"/>
<path d="M459.436 592.77L420.165 721.218L442.362 728.004L481.632 599.556L459.436 592.77Z" fill="#FF8200"/>
<path d="M457.901 592.08L416.395 719.823L438.469 726.996L479.976 599.253L457.901 592.08Z" fill="#FF8700"/>
<path d="M456.378 591.363L412.648 718.362L434.595 725.919L478.324 598.92L456.378 591.363Z" fill="#FF8B00"/>
<path d="M454.868 590.62L408.929 716.836L430.74 724.775L476.679 598.558L454.868 590.62Z" fill="#FF8F00"/>
<path d="M453.371 589.85L405.236 715.246L426.906 723.564L475.04 598.168L453.371 589.85Z" fill="#FF9300"/>
<path d="M451.888 589.055L401.572 713.591L423.093 722.286L473.409 597.75L451.888 589.055Z" fill="#FF9800"/>
<path d="M450.419 588.233L397.938 711.873L419.303 720.942L471.785 597.303L450.419 588.233Z" fill="#FF9C00"/>
<path d="M448.965 587.386L394.333 710.091L415.537 719.532L470.169 596.827L448.965 587.386Z" fill="#FFA000"/>
<path d="M447.526 586.514L390.761 708.247L411.797 718.056L468.562 596.324L447.526 586.514Z" fill="#FFA400"/>
<path d="M446.101 585.617L387.221 706.341L408.082 716.516L466.963 595.792L446.101 585.617Z" fill="#FFA900"/>
<path d="M444.694 584.696L383.715 704.373L404.396 714.911L465.375 595.233L444.694 584.696Z" fill="#FFAD00"/>
<path d="M443.301 583.749L380.243 702.344L400.737 713.241L463.795 594.646L443.301 583.749Z" fill="#FFB100"/>
<path d="M441.926 582.779L376.808 700.255L397.108 711.508L462.227 594.032L441.926 582.779Z" fill="#FFB500"/>
<path d="M440.569 581.784L373.41 698.106L393.511 709.712L460.67 593.39L440.569 581.784Z" fill="#FFB900"/>
<path d="M439.228 580.767L370.05 695.899L389.945 707.853L459.124 592.721L439.228 580.767Z" fill="#FFBE00"/>
<path d="M437.906 579.725L366.729 693.633L386.412 705.933L457.59 592.025L437.906 579.725Z" fill="#FFC200"/>
<path d="M436.602 578.662L363.447 691.31L382.914 703.951L456.068 591.303L436.602 578.662Z" fill="#FFC600"/>
<path d="M435.316 577.575L360.207 688.929L379.45 701.909L454.559 590.555L435.316 577.575Z" fill="#FFCA00"/>
<path d="M434.05 576.466L357.009 686.493L376.022 699.806L453.063 589.78L434.05 576.466Z" fill="#FFCF00"/>
<path d="M432.803 575.336L353.854 684L372.631 697.643L451.581 588.979L432.803 575.336Z" fill="#FFD300"/>
<path d="M431.577 574.183L350.743 681.454L369.28 695.422L450.114 588.152L431.577 574.183Z" fill="#FFD700"/>
<path d="M430.371 573.01L347.677 678.853L365.967 693.143L448.661 587.3L430.371 573.01Z" fill="#FFDB00"/>
<path d="M429.185 571.815L344.656 676.199L362.694 690.806L447.223 586.422L429.185 571.815Z" fill="#FFE000"/>
<path d="M428.02 570.6L341.683 673.493L359.463 688.413L445.801 585.52L428.02 570.6Z" fill="#FFE400"/>
<path d="M426.877 569.365L338.757 670.735L356.274 685.963L444.394 584.593L426.877 569.365Z" fill="#FFE800"/>
<path d="M425.756 568.11L335.88 667.927L353.129 683.458L443.005 583.641L425.756 568.11Z" fill="#FFEC00"/>
<path d="M424.656 566.836L333.052 665.069L350.027 680.899L441.631 582.666L424.656 566.836Z" fill="#FFF100"/>
<path d="M423.579 565.543L330.274 662.163L346.971 678.286L440.275 581.667L423.579 565.543Z" fill="#FFF500"/>
<path d="M422.524 564.231L327.548 659.208L343.96 675.62L438.937 580.643L422.524 564.231Z" fill="#FFF900"/>
<path d="M421.493 562.901L324.873 656.206L340.997 672.902L437.616 579.598L421.493 562.901Z" fill="#FFFD00"/>
<path d="M420.485 561.553L322.252 653.157L338.082 670.133L436.315 578.528L420.485 561.553Z" fill="#FCFF00"/>
<path d="M419.501 560.188L319.684 650.063L335.215 667.312L435.032 577.437L419.501 560.188Z" fill="#F8FF00"/>
<path d="M418.54 558.806L317.17 646.926L332.398 664.443L433.768 576.323L418.54 558.806Z" fill="#F4FF00"/>
<path d="M417.605 557.407L314.712 643.744L329.632 661.525L432.524 575.187L417.605 557.407Z" fill="#F0FF00"/>
<path d="M416.693 555.992L312.309 640.521L326.916 658.559L431.3 574.03L416.693 555.992Z" fill="#ECFF00"/>
<path d="M415.806 554.561L309.963 637.255L324.253 655.546L430.096 572.852L415.806 554.561Z" fill="#E7FF00"/>
<path d="M414.945 553.116L307.675 633.95L321.643 652.487L428.914 571.653L414.945 553.116Z" fill="#E3FF00"/>
<path d="M414.108 551.655L305.443 630.604L319.086 649.382L427.751 570.433L414.108 551.655Z" fill="#DFFF00"/>
<path d="M413.298 550.18L303.271 627.221L316.585 646.234L426.611 569.193L413.298 550.18Z" fill="#DBFF00"/>
<path d="M412.513 548.691L301.159 623.8L314.139 643.043L425.493 567.934L412.513 548.691Z" fill="#D6FF00"/>
<path d="M411.755 547.189L299.107 620.343L311.749 639.81L424.397 566.655L411.755 547.189Z" fill="#D2FF00"/>
<path d="M411.023 545.673L297.115 616.851L309.415 636.535L423.323 565.357L411.023 545.673Z" fill="#CEFF00"/>
<path d="M410.317 544.145L295.185 613.324L307.139 633.219L422.271 564.041L410.317 544.145Z" fill="#CAFF00"/>
<path d="M409.638 542.606L293.316 609.764L304.922 629.865L421.244 562.707L409.638 542.606Z" fill="#C5FF00"/>
<path d="M408.986 541.054L291.51 606.172L302.763 626.473L420.239 561.354L408.986 541.054Z" fill="#C1FF00"/>
<path d="M408.362 539.491L289.767 602.549L300.663 623.043L419.258 559.985L408.362 539.491Z" fill="#BDFF00"/>
<path d="M407.764 537.917L288.087 598.896L298.624 619.577L418.302 558.598L407.764 537.917Z" fill="#B9FF00"/>
<path d="M407.194 536.334L286.471 595.215L296.646 616.077L417.369 557.196L407.194 536.334Z" fill="#B4FF00"/>
<path d="M406.652 534.74L284.919 591.505L294.728 612.542L416.461 555.777L406.652 534.74Z" fill="#B0FF00"/>
<path d="M406.137 533.138L283.433 587.77L292.873 608.974L415.578 554.342L406.137 533.138Z" fill="#ACFF00"/>
<path d="M405.651 531.527L282.012 584.009L291.081 605.374L414.721 552.893L405.651 531.527Z" fill="#A8FF00"/>
<path d="M405.194 529.907L280.657 580.223L289.352 601.744L413.889 551.428L405.194 529.907Z" fill="#A3FF00"/>
<path d="M404.764 528.28L279.368 576.415L287.686 598.084L413.082 549.949L404.764 528.28Z" fill="#9FFF00"/>
<path d="M404.363 526.645L278.146 572.584L286.085 594.396L412.302 548.456L404.363 526.645Z" fill="#9BFF00"/>
<path d="M403.991 525.004L276.991 568.733L284.548 590.68L411.547 546.95L403.991 525.004Z" fill="#97FF00"/>
<path d="M403.647 523.357L275.903 564.863L283.076 586.938L410.819 545.431L403.647 523.357Z" fill="#93FF00"/>
<path d="M403.332 521.703L274.884 560.974L281.67 583.17L410.118 543.9L403.332 521.703Z" fill="#8EFF00"/>
<path d="M403.046 520.045L273.932 557.067L280.329 579.379L409.443 542.356L403.046 520.045Z" fill="#8AFF00"/>
<path d="M402.788 518.382L273.048 553.146L279.055 575.565L408.796 540.802L402.788 518.382Z" fill="#86FF00"/>
<path d="M402.56 516.714L272.232 549.208L277.848 571.729L408.175 539.235L402.56 516.714Z" fill="#82FF00"/>
<path d="M402.361 515.043L271.486 545.257L276.708 567.873L407.582 537.658L402.361 515.043Z" fill="#7DFF00"/>
<path d="M402.192 513.368L270.81 541.294L275.635 563.998L407.017 536.072L402.192 513.368Z" fill="#79FF00"/>
<path d="M402.051 511.691L270.201 537.32L274.63 560.104L406.479 534.475L402.051 511.691Z" fill="#75FF00"/>
<path d="M401.94 510.012L269.663 533.335L273.694 556.194L405.97 532.87L401.94 510.012Z" fill="#71FF00"/>
<path d="M401.858 508.331L269.194 529.343L272.825 552.268L405.489 531.256L401.858 508.331Z" fill="#6CFF00"/>
<path d="M401.805 506.648L268.795 525.342L272.025 548.327L405.035 529.633L401.805 506.648Z" fill="#68FF00"/>
<path d="M401.782 504.966L268.466 521.335L271.295 544.373L404.611 528.004L401.782 504.966Z" fill="#64FF00"/>
<path d="M401.788 503.283L268.207 517.323L270.633 540.406L404.215 526.366L401.788 503.283Z" fill="#60FF00"/>
<path d="M401.824 501.6L268.018 513.307L270.041 536.429L403.847 524.723L401.824 501.6Z" fill="#5BFF00"/>
<path d="M401.888 499.918L267.898 509.288L269.518 532.442L403.508 523.072L401.888 499.918Z" fill="#57FF00"/>
<path d="M401.983 498.238L267.85 505.268L269.064 528.447L403.197 521.417L401.983 498.238Z" fill="#53FF00"/>
<path d="M402.106 496.559L267.871 501.247L268.681 524.444L402.916 519.756L402.106 496.559Z" fill="#4FFF00"/>
<path d="M402.259 494.883L267.962 497.228L268.367 520.435L402.664 518.091L402.259 494.883Z" fill="#4AFF00"/>
<path d="M402.441 493.21H268.124V516.421H402.441V493.21Z" fill="#46FF00"/>
<path d="M402.652 491.54L268.355 489.196L267.95 512.404L402.247 514.748L402.652 491.54Z" fill="#42FF00"/>
<path d="M402.893 489.875L268.657 485.187L267.847 508.384L402.083 513.071L402.893 489.875Z" fill="#3EFF00"/>
<path d="M403.162 488.213L269.029 481.184L267.815 504.363L401.948 511.392L403.162 488.213Z" fill="#3AFF00"/>
<path d="M403.461 486.557L269.471 477.188L267.852 500.342L401.842 509.711L403.461 486.557Z" fill="#35FF00"/>
<path d="M403.788 484.906L269.981 473.199L267.958 496.322L401.765 508.028L403.788 484.906Z" fill="#31FF00"/>
<path d="M404.144 483.261L270.562 469.221L268.136 492.305L401.718 506.345L404.144 483.261Z" fill="#2DFF00"/>
<path d="M404.528 481.623L271.212 465.253L268.383 488.291L401.699 504.66L404.528 481.623Z" fill="#29FF00"/>
<path d="M404.942 479.991L271.932 461.297L268.701 484.282L401.711 502.976L404.942 479.991Z" fill="#24FF00"/>
<path d="M405.383 478.367L272.72 457.355L269.089 480.28L401.752 501.292L405.383 478.367Z" fill="#20FF00"/>
<path d="M405.853 476.751L273.576 453.427L269.546 476.285L401.822 499.609L405.853 476.751Z" fill="#1CFF00"/>
<path d="M406.35 475.143L274.501 449.514L270.072 472.299L401.922 497.927L406.35 475.143Z" fill="#18FF00"/>
<path d="M406.877 473.544L275.495 445.618L270.669 468.322L402.051 496.248L406.877 473.544Z" fill="#13FF00"/>
<path d="M407.43 471.955L276.556 441.74L271.334 464.356L402.209 494.571L407.43 471.955Z" fill="#0FFF00"/>
<path d="M408.012 470.376L277.685 437.881L272.069 460.403L402.397 492.897L408.012 470.376Z" fill="#0BFF00"/>
<path d="M408.621 468.807L278.881 434.043L272.873 456.463L402.614 491.227L408.621 468.807Z" fill="#07FF00"/>
<path d="M409.258 467.248L280.144 430.226L273.746 452.537L402.86 489.56L409.258 467.248Z" fill="#02FF00"/>
<path d="M409.921 465.702L281.473 426.431L274.686 448.628L403.135 487.898L409.921 465.702Z" fill="#00FF02"/>
<path d="M410.61 464.166L282.867 422.66L275.695 444.735L403.438 486.241L410.61 464.166Z" fill="#00FF06"/>
<path d="M411.328 462.644L284.328 418.915L276.771 440.861L403.771 484.59L411.328 462.644Z" fill="#00FF0A"/>
<path d="M412.07 461.134L285.854 415.195L277.915 437.006L404.132 482.945L412.07 461.134Z" fill="#00FF0F"/>
<path d="M412.84 459.637L287.444 411.502L279.126 433.171L404.522 481.306L412.84 459.637Z" fill="#00FF13"/>
<path d="M413.636 458.154L289.1 407.838L280.405 429.359L404.941 479.675L413.636 458.154Z" fill="#00FF17"/>
<path d="M414.457 456.685L290.817 404.203L281.748 425.569L405.388 478.051L414.457 456.685Z" fill="#00FF1B"/>
<path d="M415.304 455.23L292.6 400.599L283.159 421.803L405.864 476.435L415.304 455.23Z" fill="#00FF1F"/>
<path d="M416.176 453.791L294.443 397.026L284.634 418.063L406.367 474.827L416.176 453.791Z" fill="#00FF24"/>
<path d="M417.073 452.367L296.35 393.486L286.175 414.348L406.898 473.229L417.073 452.367Z" fill="#00FF28"/>
<path d="M417.995 450.959L298.317 389.98L287.78 410.661L407.457 471.64L417.995 450.959Z" fill="#00FF2C"/>
<path d="M418.942 449.567L300.347 386.509L289.45 407.003L408.045 470.061L418.942 449.567Z" fill="#00FF30"/>
<path d="M419.912 448.192L302.436 383.074L291.183 403.374L408.659 468.493L419.912 448.192Z" fill="#00FF35"/>
<path d="M420.906 446.834L304.584 379.675L292.979 399.776L409.301 466.935L420.906 446.834Z" fill="#00FF39"/>
<path d="M421.924 445.494L306.792 376.315L294.838 396.211L409.97 465.389L421.924 445.494Z" fill="#00FF3D"/>
<path d="M422.965 444.171L309.058 372.994L296.758 392.678L410.665 463.855L422.965 444.171Z" fill="#00FF41"/>
<path d="M424.029 442.867L311.381 369.713L298.739 389.179L411.387 462.334L424.029 442.867Z" fill="#00FF46"/>
<path d="M425.116 441.582L313.762 366.473L300.782 385.715L412.136 460.825L425.116 441.582Z" fill="#00FF4A"/>
<path d="M426.224 440.316L316.198 363.274L302.885 382.288L412.911 459.329L426.224 440.316Z" fill="#00FF4E"/>
<path d="M427.355 439.069L318.69 360.12L305.047 378.898L413.712 457.847L427.355 439.069Z" fill="#00FF52"/>
<path d="M428.508 437.842L321.237 357.008L307.269 375.545L414.539 456.379L428.508 437.842Z" fill="#00FF57"/>
<path d="M429.681 436.636L323.838 353.942L309.548 372.233L415.391 454.927L429.681 436.636Z" fill="#00FF5B"/>
<path d="M430.875 435.45L326.491 350.922L311.884 368.96L416.268 453.489L430.875 435.45Z" fill="#00FF5F"/>
<path d="M432.09 434.286L329.197 347.948L314.278 365.729L417.171 452.066L432.09 434.286Z" fill="#00FF63"/>
<path d="M433.326 433.142L331.955 345.022L316.727 362.54L418.098 450.66L433.326 433.142Z" fill="#00FF68"/>
<path d="M434.581 432.021L334.764 342.145L319.233 359.394L419.05 449.27L434.581 432.021Z" fill="#00FF6C"/>
<path d="M435.854 430.921L337.621 339.317L321.791 356.293L420.025 447.897L435.854 430.921Z" fill="#00FF70"/>
<path d="M437.148 429.844L340.528 336.54L324.405 353.236L421.024 446.541L437.148 429.844Z" fill="#00FF74"/>
<path d="M438.46 428.79L343.483 333.813L327.071 350.226L422.047 445.203L438.46 428.79Z" fill="#00FF78"/>
<path d="M439.79 427.758L346.485 331.139L329.789 347.262L423.093 443.882L439.79 427.758Z" fill="#00FF7D"/>
<path d="M441.137 426.75L349.533 328.517L332.558 344.347L424.162 442.58L441.137 426.75Z" fill="#00FF81"/>
<path d="M442.503 425.766L352.627 325.949L335.378 341.48L425.254 441.297L442.503 425.766Z" fill="#00FF85"/>
<path d="M443.885 424.806L355.765 323.436L338.247 338.663L426.367 440.034L443.885 424.806Z" fill="#00FF89"/>
<path d="M445.284 423.87L358.946 320.977L341.166 335.897L427.503 438.79L445.284 423.87Z" fill="#00FF8E"/>
<path d="M446.698 422.959L362.17 318.575L344.132 333.182L428.66 437.566L446.698 422.959Z" fill="#00FF92"/>
<path d="M448.129 422.072L365.436 316.229L347.145 330.519L429.839 436.362L448.129 422.072Z" fill="#00FF96"/>
<path d="M449.575 421.21L368.741 313.94L350.204 327.909L431.038 435.179L449.575 421.21Z" fill="#00FF9A"/>
<path d="M451.036 420.374L372.086 311.709L353.308 325.352L432.258 434.017L451.036 420.374Z" fill="#00FF9F"/>
<path d="M452.511 419.564L375.47 309.538L356.457 322.851L433.498 432.877L452.511 419.564Z" fill="#00FFA3"/>
<path d="M454 418.779L378.891 307.425L359.648 320.405L434.757 431.759L454 418.779Z" fill="#00FFA7"/>
<path d="M455.502 418.02L382.348 305.373L362.881 318.014L436.036 430.662L455.502 418.02Z" fill="#00FFAB"/>
<path d="M457.017 417.288L385.84 303.381L366.156 315.681L437.333 429.588L457.017 417.288Z" fill="#00FFB0"/>
<path d="M458.546 416.582L389.367 301.45L369.472 313.405L438.65 428.537L458.546 416.582Z" fill="#00FFB4"/>
<path d="M460.085 415.904L392.927 299.582L372.826 311.187L439.984 427.509L460.085 415.904Z" fill="#00FFB8"/>
<path d="M461.637 415.252L396.519 297.775L376.218 309.028L441.336 426.505L461.637 415.252Z" fill="#00FFBC"/>
<path d="M463.2 414.627L400.142 296.032L379.648 306.929L442.706 425.524L463.2 414.627Z" fill="#00FFC1"/>
<path d="M464.773 414.03L403.794 294.352L383.113 304.89L444.092 424.567L464.773 414.03Z" fill="#00FFC5"/>
<path d="M466.356 413.46L407.476 292.736L386.614 302.911L445.495 423.635L466.356 413.46Z" fill="#00FFC9"/>
<path d="M467.95 412.918L411.186 291.185L390.149 300.994L446.914 422.727L467.95 412.918Z" fill="#00FFCD"/>
<path d="M469.553 412.404L414.921 289.699L393.717 299.139L448.348 421.844L469.553 412.404Z" fill="#00FFD1"/>
<path d="M471.164 411.917L418.682 288.278L397.316 297.347L449.798 420.987L471.164 411.917Z" fill="#00FFD6"/>
<path d="M472.784 411.46L422.468 286.923L400.947 295.618L451.263 420.154L472.784 411.46Z" fill="#00FFDA"/>
<path d="M474.41 411.03L426.275 285.634L404.606 293.952L452.741 419.348L474.41 411.03Z" fill="#00FFDE"/>
<path d="M476.046 410.628L430.106 284.412L408.295 292.35L454.235 418.567L476.046 410.628Z" fill="#00FFE2"/>
<path d="M477.686 410.256L433.957 283.257L412.011 290.814L455.74 417.813L477.686 410.256Z" fill="#00FFE7"/>
<path d="M479.334 409.912L437.828 282.169L415.753 289.341L457.26 417.085L479.334 409.912Z" fill="#00FFEB"/>
<path d="M480.987 409.597L441.717 281.149L419.52 287.935L458.791 416.383L480.987 409.597Z" fill="#00FFEF"/>
<path d="M482.646 409.311L445.623 280.197L423.311 286.595L460.334 415.709L482.646 409.311Z" fill="#00FFF3"/>
<path d="M484.309 409.054L449.545 279.313L427.125 285.321L461.889 415.061L484.309 409.054Z" fill="#00FFF8"/>
<path d="M485.977 408.825L453.482 278.498L430.961 284.113L463.455 414.441L485.977 408.825Z" fill="#00FFFC"/>
<path d="M487.648 408.627L457.434 277.752L434.818 282.973L465.032 413.848L487.648 408.627Z" fill="#00FEFF"/>
<path d="M489.323 408.457L461.396 277.075L438.693 281.901L466.619 413.283L489.323 408.457Z" fill="#00FAFF"/>
<path d="M490.999 408.316L465.37 276.467L442.586 280.896L468.215 412.745L490.999 408.316Z" fill="#00F5FF"/>
<path d="M492.678 408.205L469.354 275.929L446.496 279.959L469.82 412.236L492.678 408.205Z" fill="#00F1FF"/>
<path d="M494.359 408.123L473.348 275.459L450.423 279.09L471.434 411.754L494.359 408.123Z" fill="#00EDFF"/>
<path d="M496.042 408.071L477.349 275.061L454.364 278.291L473.057 411.301L496.042 408.071Z" fill="#00E9FF"/>
<path d="M497.725 408.047L481.355 274.731L458.318 277.56L474.687 410.876L497.725 408.047Z" fill="#00E4FF"/>
<path d="M499.408 408.054L485.368 274.472L462.284 276.898L476.324 410.48L499.408 408.054Z" fill="#00E0FF"/>
<path d="M501.09 408.089L489.384 274.283L466.261 276.306L477.968 410.112L501.09 408.089Z" fill="#00DCFF"/>
<path d="M502.773 408.154L493.403 274.164L470.249 275.783L479.619 409.773L502.773 408.154Z" fill="#00D8FF"/>
<path d="M504.452 408.248L497.423 274.115L474.244 275.33L481.273 409.463L504.452 408.248Z" fill="#00D4FF"/>
<path d="M506.131 408.372L501.443 274.137L478.247 274.947L482.934 409.182L506.131 408.372Z" fill="#00CFFF"/>
<path d="M507.807 408.525L505.463 274.228L482.256 274.633L484.6 408.93L507.807 408.525Z" fill="#00CBFF"/>
<path d="M509.48 408.707V274.39H486.27V408.707H509.48Z" fill="#00C7FF"/>
<path d="M511.15 408.918L513.494 274.621L490.287 274.216L487.943 408.513L511.15 408.918Z" fill="#00C3FF"/>
<path d="M512.816 409.158L517.504 274.923L494.307 274.113L489.62 408.348L512.816 409.158Z" fill="#00BEFF"/>
<path d="M514.477 409.428L521.507 275.294L498.328 274.08L491.298 408.213L514.477 409.428Z" fill="#00BAFF"/>
<path d="M516.133 409.726L525.503 275.736L502.349 274.117L492.979 408.107L516.133 409.726Z" fill="#00B6FF"/>
<path d="M517.785 410.053L529.491 276.247L506.369 274.224L494.662 408.03L517.785 410.053Z" fill="#00B2FF"/>
<path d="M519.43 410.409L533.47 276.828L510.386 274.402L496.346 407.983L519.43 410.409Z" fill="#00ADFF"/>
<path d="M521.068 410.794L537.438 277.478L514.4 274.649L498.031 407.965L521.068 410.794Z" fill="#00A9FF"/>
<path d="M522.699 411.207L541.393 278.197L518.408 274.967L499.714 407.977L522.699 411.207Z" fill="#00A5FF"/>
<path d="M524.324 411.649L545.336 278.985L522.411 275.354L501.399 408.018L524.324 411.649Z" fill="#00A1FF"/>
<path d="M525.94 412.118L549.264 279.842L526.405 275.811L503.082 408.088L525.94 412.118Z" fill="#009CFF"/>
<path d="M527.548 412.616L553.177 280.767L530.392 276.338L504.763 408.188L527.548 412.616Z" fill="#0098FF"/>
<path d="M529.146 413.142L557.072 281.76L534.369 276.934L506.443 408.316L529.146 413.142Z" fill="#0094FF"/>
<path d="M530.735 413.696L560.95 282.822L538.334 277.6L508.119 408.475L530.735 413.696Z" fill="#0090FF"/>
<path d="M532.315 414.278L564.81 283.95L542.288 278.335L509.794 408.662L532.315 414.278Z" fill="#008BFF"/>
<path d="M533.884 414.886L568.647 285.146L546.228 279.139L511.464 408.879L533.884 414.886Z" fill="#0087FF"/>
<path d="M535.442 415.523L572.465 286.409L550.153 280.011L513.13 409.125L535.442 415.523Z" fill="#0083FF"/>
<path d="M536.989 416.186L576.26 287.738L554.063 280.952L514.793 409.4L536.989 416.186Z" fill="#007FFF"/>
<path d="M538.524 416.876L580.03 289.133L557.955 281.96L516.449 409.703L538.524 416.876Z" fill="#007BFF"/>
<path d="M540.047 417.593L583.776 290.594L561.83 283.037L518.101 410.036L540.047 417.593Z" fill="#0076FF"/>
<path d="M541.557 418.336L587.496 292.12L565.685 284.181L519.746 410.398L541.557 418.336Z" fill="#0072FF"/>
<path d="M543.054 419.106L591.188 293.71L569.519 285.392L521.384 410.788L543.054 419.106Z" fill="#006EFF"/>
<path d="M544.536 419.901L594.853 295.365L573.332 286.67L523.016 411.207L544.536 419.901Z" fill="#006AFF"/>
<path d="M546.005 420.723L598.487 297.083L577.122 288.014L524.64 411.654L546.005 420.723Z" fill="#0065FF"/>
<path d="M547.46 421.57L602.092 298.865L580.888 289.424L526.256 412.129L547.46 421.57Z" fill="#0061FF"/>
<path d="M548.899 422.442L605.664 300.709L584.628 290.9L527.863 412.632L548.899 422.442Z" fill="#005DFF"/>
<path d="M550.323 423.339L609.204 302.616L588.342 292.441L529.462 413.164L550.323 423.339Z" fill="#0059FF"/>
<path d="M551.731 424.261L612.71 304.583L592.029 294.046L531.05 413.723L551.731 424.261Z" fill="#0054FF"/>
<path d="M553.124 425.207L616.182 306.612L595.688 295.715L532.63 414.31L553.124 425.207Z" fill="#0050FF"/>
<path d="M554.499 426.178L619.617 308.701L599.317 297.448L534.198 414.925L554.499 426.178Z" fill="#004CFF"/>
<path d="M555.857 427.172L623.016 310.85L602.914 299.244L535.756 415.566L555.857 427.172Z" fill="#0048FF"/>
<path d="M557.197 428.189L626.375 313.057L606.479 301.103L537.301 416.235L557.197 428.189Z" fill="#0043FF"/>
<path d="M558.519 429.231L629.696 315.323L610.012 303.023L538.835 416.931L558.519 429.231Z" fill="#003FFF"/>
<path d="M559.823 430.294L632.978 317.646L613.511 305.005L540.357 417.653L559.823 430.294Z" fill="#003BFF"/>
<path d="M561.109 431.381L636.218 320.027L616.975 307.048L541.866 418.402L561.109 431.381Z" fill="#0037FF"/>
<path d="M562.375 432.49L639.416 322.464L620.403 309.151L543.362 419.177L562.375 432.49Z" fill="#0032FF"/>
<path d="M563.622 433.62L642.571 324.956L623.793 311.313L544.844 419.977L563.622 433.62Z" fill="#002EFF"/>
<path d="M564.849 434.773L645.683 327.502L627.146 313.534L546.312 420.804L564.849 434.773Z" fill="#002AFF"/>
<path d="M566.054 435.946L648.748 330.103L630.458 315.813L547.764 421.656L566.054 435.946Z" fill="#0026FF"/>
<path d="M567.24 437.141L651.769 332.757L633.73 318.15L549.202 422.534L567.24 437.141Z" fill="#0022FF"/>
<path d="M505.013 726.862H491.828C491.216 726.64 490.602 726.584 489.985 726.584C482.946 726.25 475.957 725.683 469.03 724.741C456.072 723.065 443.33 720.215 430.928 716.253C409.642 709.442 389.809 699.667 371.428 686.928C354.383 675.084 339.304 661.122 326.173 645.039C310.691 626.159 298.628 605.322 290.076 582.427C282.42 562.095 277.84 541.042 276.44 519.312C276.44 518.139 276.217 516.966 275.828 515.793V492.836C276.217 491.824 276.384 490.768 276.44 489.708C276.718 484.512 277.274 479.316 277.952 474.181C281.307 449.383 288.676 425.863 300.02 403.576C307.841 388.213 317.341 373.921 328.51 360.731C339.573 347.664 351.977 335.985 365.717 325.767C388.122 309.119 412.762 297.111 439.689 289.743C452.76 286.172 466.118 283.826 479.633 282.705C482.033 282.483 484.552 282.705 486.952 282.094H509.523C511.253 282.594 513.043 282.316 514.772 282.483C523.716 283.261 532.598 284.385 541.42 286.114C569.189 291.588 594.942 301.98 618.747 317.333C637.242 329.229 653.555 343.583 667.8 360.283C679.256 373.689 688.972 388.269 696.908 404.014C706.294 422.617 712.995 442.106 716.802 462.603C718.811 473.437 720.323 484.385 720.374 495.446C720.374 496.18 720.541 496.958 720.596 497.678V510.861C720.374 511.695 720.374 512.59 720.318 513.484C720.318 515.605 720.318 517.734 720.152 519.854C719.14 533.373 717.023 546.72 713.668 559.9C707.244 584.646 696.902 607.603 682.544 628.768C671.871 644.521 659.416 658.71 645.11 671.274C630.865 683.786 615.273 694.344 598.343 702.885C578.84 712.712 558.337 719.532 536.826 723.268C528.56 724.719 520.234 725.667 511.856 726.17C509.648 726.426 507.307 726.373 505.013 726.862Z" fill="#383838"/>
<path style="mix-blend-mode:lighten" d="M440.371 412.205C440.215 416.291 440.941 420.758 442.145 425.226C444.438 433.727 448.239 441.517 452.722 448.874C462.933 465.606 475.804 479.931 489.768 493.231C490.912 494.324 492.273 495.248 493.731 495.952C495.191 496.711 496.649 496.711 498.158 496.06C499.616 495.409 500.92 494.482 502.015 493.28C506.861 488.269 511.652 483.251 516.239 478.073C522.699 470.715 528.85 463.146 534.426 455.025C539.483 447.669 544.014 439.929 547.345 431.538C550.677 423.197 552.296 414.594 551.202 405.549C549.378 390.622 543.285 377.976 532.392 368.059C519.513 356.353 504.512 351.665 487.629 354.276C460.171 358.532 440.265 383.818 440.371 412.205Z" fill="url(#paint0_radial_61_755)"/>
<path d="M582.476 615.654C579.019 615.759 575.139 615.332 571.259 614.508C559.781 611.995 550.032 606.776 542.54 597.524C537.984 591.882 534.154 585.767 530.852 579.337C526.97 571.759 523.727 563.865 520.898 555.873C517.442 546.207 514.508 536.329 512.249 526.345C510.994 520.752 512.404 517.248 518.591 515.321C526.449 512.866 534.365 510.67 542.435 508.89C555.795 505.963 569.262 504.085 582.998 504.548C586.879 504.703 590.751 505.12 594.581 505.799C605.692 507.735 615.123 512.857 622.826 520.955C635.983 534.752 641.216 551.214 637.972 569.979C633.309 596.792 609.514 615.865 582.476 615.654Z" fill="url(#paint1_radial_61_755)"/>
<path d="M409.416 615.654C412.872 615.759 416.752 615.332 420.632 614.508C432.11 611.995 441.859 606.776 449.351 597.524C453.907 591.882 457.738 585.767 461.039 579.337C464.921 571.759 468.164 563.865 470.993 555.873C474.449 546.207 477.383 536.329 479.642 526.345C480.897 520.752 479.487 517.248 473.301 515.321C465.442 512.866 457.526 510.67 449.456 508.89C436.096 505.963 422.629 504.085 408.893 504.548C405.013 504.703 401.14 505.12 397.31 505.799C386.199 507.735 376.768 512.857 369.065 520.955C355.908 534.752 350.675 551.214 353.92 569.979C358.582 596.792 382.377 615.865 409.416 615.654Z" fill="url(#paint2_radial_61_755)"/>
</g>
<defs>
<radialGradient id="paint0_radial_61_755" cx="0" cy="0" r="1" gradientUnits="userSpaceOnUse" gradientTransform="translate(497.022 489.124) rotate(4.82254) scale(59.0558 109.165)">
<stop stop-color="white"/>
<stop offset="1" stop-color="#009BD8"/>
</radialGradient>
<radialGradient id="paint1_radial_61_755" cx="0" cy="0" r="1" gradientUnits="userSpaceOnUse" gradientTransform="translate(512.448 522.928) rotate(21.7759) scale(130.23 69.5919)">
<stop stop-color="white"/>
<stop offset="1" stop-color="#FF3044"/>
</radialGradient>
<radialGradient id="paint2_radial_61_755" cx="0" cy="0" r="1" gradientUnits="userSpaceOnUse" gradientTransform="translate(478.753 518.209) rotate(146.321) scale(131.607 59.8221)">
<stop stop-color="white"/>
<stop offset="1" stop-color="#FCFF7C"/>
</radialGradient>
<clipPath id="clip0_61_755">
<rect width="500" height="500" fill="white" transform="translate(250 250)"/>
</clipPath>
</defs>
</svg>
