<svg width="1001" height="1000" viewBox="0 0 1001 1000" fill="none" xmlns="http://www.w3.org/2000/svg">
<g clip-path="url(#clip0_119_325)">
<path d="M745.163 346.711C739.859 344.126 737.579 349.058 734.476 351.564C733.429 352.386 732.527 353.46 731.639 354.402C723.882 362.702 714.84 368.138 703.039 367.475C685.749 366.534 671.005 371.957 657.971 385.203C655.2 368.881 645.985 359.135 631.984 352.877C624.638 349.628 617.226 346.38 612.108 339.313C608.515 334.301 607.547 328.706 605.731 323.19C604.604 319.862 603.45 316.441 599.631 315.871C595.481 315.208 593.85 318.708 592.233 321.625C585.696 333.545 583.19 346.711 583.416 360.037C583.986 389.976 596.635 413.816 621.721 430.801C624.585 432.736 625.314 434.712 624.413 437.549C622.702 443.383 620.674 449.058 618.857 454.906C617.73 458.645 616.02 459.467 612.029 457.823C598.252 452.068 586.346 443.556 575.845 433.227C557.998 415.964 541.862 396.884 521.734 381.954C517.001 378.454 512.294 375.205 507.401 372.129C486.863 352.148 510.093 335.733 515.463 333.81C521.098 331.795 517.412 324.807 499.247 324.887C481.095 324.967 464.455 331.052 443.28 339.154C440.178 340.387 436.929 341.288 433.575 341.991C414.349 338.371 394.394 337.549 373.524 339.896C334.251 344.298 302.88 362.888 279.809 394.63C252.111 432.736 245.587 476.067 253.569 521.307C261.962 568.92 286.24 608.393 323.577 639.233C362.267 671.188 406.844 686.847 457.693 683.85C488.573 682.087 522.967 677.937 561.75 645.081C571.535 649.933 581.798 651.869 598.836 653.341C611.949 654.574 624.572 652.678 634.357 650.663C649.671 647.414 648.61 633.227 643.081 630.602C598.173 609.679 608.024 618.191 599.061 611.323C621.88 584.261 656.274 556.178 669.732 465.221C670.78 457.982 669.878 453.46 669.732 447.587C669.653 444.046 670.448 442.654 674.519 442.243C685.762 440.97 696.688 437.881 706.712 432.339C735.802 416.428 747.523 390.321 750.294 358.976C750.705 354.203 750.215 349.231 745.176 346.725L745.163 346.711ZM491.663 628.666C448.133 594.418 427.038 583.147 418.327 583.638C410.186 584.089 411.644 593.423 413.434 599.509C415.304 605.515 417.757 609.666 421.191 614.929C423.551 618.43 425.182 623.641 418.831 627.512C404.816 636.237 380.446 624.595 379.292 624.012C350.944 607.319 327.237 585.242 310.517 555.051C294.394 525.987 285.02 494.815 283.482 461.548C283.071 453.487 285.431 450.649 293.413 449.217C303.914 447.282 314.773 446.871 325.274 448.395C369.679 454.892 407.494 474.794 439.17 506.245C457.269 524.211 470.952 545.637 485.06 566.56C500.042 588.809 516.192 609.984 536.73 627.34C543.97 633.426 549.764 638.067 555.293 641.487C538.6 643.344 510.716 643.755 491.663 628.653V628.666ZM512.519 494.325C512.519 490.745 515.37 487.907 518.976 487.907C519.772 487.907 520.514 488.067 521.177 488.318C522.066 488.65 522.888 489.141 523.524 489.883C524.678 490.997 525.328 492.641 525.328 494.325C525.328 497.905 522.477 500.742 518.897 500.742C515.317 500.742 512.519 497.905 512.519 494.325ZM577.303 527.632C573.153 529.316 569.003 530.801 565.012 530.96C558.82 531.251 552.058 528.732 548.372 525.656C542.67 520.883 538.613 518.218 536.876 509.825C536.16 506.245 536.571 500.742 537.208 497.573C538.693 490.745 537.049 486.383 532.249 482.405C528.324 479.156 523.365 478.295 517.902 478.295C515.861 478.295 513.991 477.393 512.599 476.65C510.318 475.497 508.449 472.659 510.239 469.172C510.809 468.059 513.593 465.301 514.243 464.81C521.642 460.58 530.194 461.973 538.109 465.142C545.455 468.138 550.984 473.654 558.953 481.424C567.12 490.838 568.579 493.476 573.219 500.504C576.879 506.059 580.233 511.734 582.514 518.231C583.893 522.262 582.103 525.59 577.29 527.645L577.303 527.632Z" fill="#4D6BFE"/>
</g>
<defs>
<clipPath id="clip0_119_325">
<rect width="500" height="368.417" fill="white" transform="translate(250.4 315.793)"/>
</clipPath>
</defs>
</svg>
