<svg width="1001" height="1000" viewBox="0 0 1001 1000" fill="none" xmlns="http://www.w3.org/2000/svg">
<g clip-path="url(#clip0_119_284)">
<path d="M250.8 740.305C250.8 772.458 271.665 793.31 303.83 793.31L458.77 793.313C551.201 793.313 626.811 762.052 678.217 707.326H250.8V740.305ZM458.77 205.081L303.83 205.078C271.665 205.078 250.8 225.934 250.8 258.087V291.066H678.217C626.811 236.34 551.201 205.081 458.77 205.081ZM593.988 583.012C593.988 609.023 610.939 625.9 637.075 625.9H729.917C740.442 599.794 747.513 571.094 750.8 540.124H637.075C610.939 540.124 593.988 556.997 593.988 583.012ZM465.3 415.592C465.3 441.606 482.252 458.48 508.387 458.48H750.8C747.513 427.509 740.442 398.81 729.917 372.704H508.387C482.252 372.704 465.3 389.577 465.3 415.592ZM508.358 583.012C508.358 556.997 491.406 540.124 465.27 540.124H250.8V625.9H465.27C491.406 625.9 508.358 609.026 508.358 583.012ZM379.67 415.592C379.67 389.577 362.718 372.704 336.583 372.704H250.8V458.48H336.583C362.718 458.48 379.67 441.606 379.67 415.592Z" fill="#0062FF"/>
</g>
<defs>
<clipPath id="clip0_119_284">
<rect width="500" height="589.844" fill="white" transform="translate(250.8 205.078)"/>
</clipPath>
</defs>
</svg>
