<svg width="1000" height="1000" viewBox="0 0 1000 1000" fill="none" xmlns="http://www.w3.org/2000/svg">
<g clip-path="url(#clip0_72_66)">
<path d="M270.703 250H729.297C740.234 250 749.121 258.887 749.121 269.824V730.078C749.121 741.016 740.234 749.902 729.297 749.902H270.703C259.766 749.902 250.879 741.016 250.879 730.078V269.824C250.879 258.887 259.766 250 270.703 250Z" fill="#F08705"/>
<path fill-rule="evenodd" clip-rule="evenodd" d="M515.332 378.027L569.043 321.094L749.121 501.66V729.98C749.121 741.016 740.234 750 729.199 750H416.602L320.801 653.418L515.332 378.027Z" fill="#DF6C0C"/>
<path d="M509.303 427.496L535.182 412.555L610.182 542.458L584.303 557.4L509.303 427.496Z" fill="white"/>
<path d="M389.837 542.27L464.593 412.789L490.557 427.779L415.801 557.26L389.837 542.27Z" fill="white"/>
<path d="M445.117 315.039H554.883C565.82 315.039 574.707 323.926 574.707 334.863V420.117C574.707 431.055 565.82 439.941 554.883 439.941H445.117C434.18 439.941 425.293 431.055 425.293 420.117V334.863C425.293 323.926 434.18 315.039 445.117 315.039Z" fill="white"/>
<path d="M554.687 534.961H664.453C675.391 534.961 684.277 543.848 684.277 554.785V640.039C684.277 650.977 675.391 659.863 664.453 659.863H554.687C543.75 659.863 534.863 650.977 534.863 640.039V554.785C534.863 543.848 543.75 534.961 554.687 534.961Z" fill="white"/>
<path d="M335.449 534.961H445.312C456.25 534.961 465.137 543.848 465.137 554.785V640.039C465.137 650.977 456.25 659.863 445.312 659.863H335.449C324.512 659.863 315.625 650.977 315.625 640.039V554.785C315.625 543.848 324.512 534.961 335.449 534.961Z" fill="white"/>
</g>
<defs>
<clipPath id="clip0_72_66">
<rect width="500" height="500" fill="white" transform="translate(250 250)"/>
</clipPath>
</defs>
</svg>
