<svg width="1000" height="1000" viewBox="0 0 1000 1000" fill="none" xmlns="http://www.w3.org/2000/svg">
<g clip-path="url(#clip0_119_318)">
<path d="M500 266.602C628.906 266.602 733.203 370.898 733.203 499.609C733.203 628.32 628.906 732.812 500 732.812C371.094 732.812 266.797 628.516 266.797 499.805C266.797 371.094 371.094 266.602 500 266.602Z" fill="#E74D89"/>
<path d="M500 749.414C362.109 749.414 250 637.5 250 499.805C250 361.914 362.109 250 500 250C637.891 250 750 361.914 750 499.609C750 637.305 637.891 749.414 500 749.414ZM710.742 533.789C703.516 531.445 644.727 514.063 577.734 524.609C605.664 601.172 616.992 663.672 619.141 676.562C667.188 644.336 701.367 593.164 710.742 533.789ZM583.398 696.289C580.273 677.539 567.773 612.305 537.891 534.57C537.5 534.766 536.914 534.961 536.523 534.961C416.016 576.953 372.852 660.352 368.945 668.164C405.078 696.289 450.586 713.086 500 713.086C529.492 713.281 557.812 707.227 583.398 696.289ZM341.406 642.578C346.289 634.375 404.883 537.5 515.039 501.758C517.773 500.781 520.703 500 523.438 499.219C518.164 487.109 512.305 475 506.055 463.086C399.414 494.922 295.898 493.555 286.523 493.359C286.523 495.508 286.328 497.656 286.328 499.805C286.523 554.688 307.227 604.688 341.406 642.578ZM291.016 456.25C300.586 456.445 388.477 456.836 488.477 430.273C453.125 367.383 414.844 314.648 409.375 307.031C349.414 335.156 304.883 390.234 291.016 456.25ZM450 292.578C455.859 300.391 494.727 353.125 529.687 417.383C605.664 388.867 637.695 345.898 641.602 340.43C603.906 307.031 554.297 286.719 500 286.719C482.812 286.719 466.016 288.867 450 292.578ZM665.234 365.039C660.742 371.094 625 416.992 546.094 449.219C550.977 459.375 555.859 469.727 560.352 480.078C561.914 483.789 563.477 487.5 565.039 491.016C636.133 482.031 706.641 496.484 713.672 497.852C713.086 447.656 695.117 401.367 665.234 365.039Z" fill="#B2215A"/>
</g>
<defs>
<clipPath id="clip0_119_318">
<rect width="500" height="500" fill="white" transform="translate(250 250)"/>
</clipPath>
</defs>
</svg>
