<svg width="1001" height="1000" viewBox="0 0 1001 1000" fill="none" xmlns="http://www.w3.org/2000/svg">
<g clip-path="url(#clip0_61_726)">
<path d="M341.949 440.107L233.018 352.87L390.564 250.002L500.798 342.019L341.949 440.107L500.8 538.197L390.566 630.218L233.018 527.349L341.951 440.105L341.949 440.107ZM500.8 538.197L611.041 630.218L768.58 527.349L659.647 440.107L500.8 538.197ZM768.582 352.87L611.041 250L500.802 342.017L659.651 440.107L768.582 352.866V352.87ZM501.122 557.992L390.564 649.736L343.258 618.849V653.481L501.124 748.157L658.992 653.481V618.849L611.691 649.736L501.122 557.992Z" fill="#007EE5"/>
</g>
<defs>
<clipPath id="clip0_61_726">
<rect width="535.565" height="500" fill="white" transform="translate(233.018 250)"/>
</clipPath>
</defs>
</svg>
