<svg width="1001" height="1000" viewBox="0 0 1001 1000" fill="none" xmlns="http://www.w3.org/2000/svg">
<path d="M491.271 750C457.388 750 426.939 742.674 399.924 728.022C373.368 712.912 352.077 691.163 336.051 662.775C320.483 633.929 312.699 598.672 312.699 557.006V442.995C312.699 380.723 330.098 333.104 364.897 300.137C399.696 266.712 446.399 250 505.007 250C563.615 250 608.716 265.797 640.309 297.39C671.903 328.526 687.699 370.65 687.699 423.764V426.511H606.655V421.016C606.655 402.701 602.992 386.218 595.666 371.566C588.34 356.914 577.122 345.467 562.012 337.225C546.903 328.526 527.901 324.176 505.007 324.176C471.124 324.176 444.338 334.707 424.65 355.769C405.419 376.374 395.804 404.991 395.804 441.621V558.379C395.804 594.551 405.419 623.397 424.65 644.918C444.338 666.438 471.582 677.198 506.381 677.198C541.179 677.198 566.591 667.811 582.617 649.038C598.642 630.266 606.655 606.227 606.655 576.923V568.681H485.089V498.626H687.699V740.385H612.15V692.995H600.474C596.811 701.236 591.087 709.936 583.304 719.093C575.52 727.793 564.302 735.119 549.65 741.071C535.456 747.024 515.996 750 491.271 750Z" fill="#00CC66"/>
</svg>
