<svg width="1001" height="1000" viewBox="0 0 1001 1000" fill="none" xmlns="http://www.w3.org/2000/svg">
<path d="M520.29 750C382.583 750 270.072 637.923 270.072 499.783C270.072 361.642 382.583 250 520.29 250C657.996 250 770.507 362.077 770.507 500.217C770.507 638.358 658.431 750 520.29 750ZM520.29 323.414C422.983 323.414 343.486 402.476 343.486 500.217C343.486 597.958 422.548 677.02 520.29 677.02C618.031 677.02 697.092 597.524 697.092 500.217C697.092 402.91 617.596 323.414 520.29 323.414Z" fill="url(#paint0_linear_61_688)"/>
<path opacity="0.8" d="M502.481 750C355.652 750 236.625 630.973 236.625 484.144C236.625 464.162 252.698 448.088 272.681 448.088C292.663 448.088 308.736 464.162 308.736 484.144C308.736 591.008 395.617 678.323 502.916 678.323C522.898 678.323 538.97 694.397 538.97 714.379C538.97 734.362 522.029 750 502.481 750Z" fill="#21DB5F"/>
<g filter="url(#filter0_d_61_688)">
<path d="M520.292 677.89C618.657 677.89 698.397 598.149 698.397 499.784C698.397 401.419 618.657 321.678 520.292 321.678C421.926 321.678 342.186 401.419 342.186 499.784C342.186 598.149 421.926 677.89 520.292 677.89Z" fill="white"/>
</g>
<g filter="url(#filter1_d_61_688)">
<path d="M428.196 548.436L489.447 485.448L489.882 485.881C495.529 488.488 502.045 489.791 508.561 489.791C532.454 489.357 551.568 469.808 551.133 445.916C550.698 422.024 531.15 402.91 507.258 403.344C483.365 403.779 464.251 423.327 464.686 447.22C464.686 455.038 466.858 461.99 470.768 468.071L409.517 530.626C407.344 533.231 406.041 536.707 406.041 539.748C406.041 542.788 407.345 546.264 409.951 548.87C415.164 553.649 422.983 553.649 428.196 548.436ZM507.258 419.417C522.462 418.984 534.626 431.146 535.06 446.351C535.495 461.555 523.331 473.719 508.127 474.152C492.922 474.587 480.76 462.423 480.325 447.22C480.325 432.015 492.054 419.852 507.258 419.417Z" fill="#1EBC4E"/>
<path d="M495.964 534.105C484.669 545.399 482.932 562.341 489.448 576.242L515.512 549.308C516.38 548.44 518.119 548.44 518.987 549.308L532.889 562.775C533.757 563.644 533.757 565.382 532.889 566.25L506.823 593.184C520.725 599.699 537.232 597.093 548.527 585.364C558.952 574.504 561.558 557.997 555.912 545.399C555.477 544.53 555.043 543.662 554.608 542.792L627.589 467.641C632.366 462.428 632.366 454.608 627.154 449.396C624.548 446.789 621.507 445.92 618.032 445.92C614.556 445.92 611.515 447.223 608.909 449.83L535.061 525.85C520.725 520.204 506.39 523.244 495.964 534.105Z" fill="#1EBC4E"/>
</g>
<defs>
<filter id="filter0_d_61_688" x="340.693" y="321.678" width="359.195" height="359.196" filterUnits="userSpaceOnUse" color-interpolation-filters="sRGB">
<feFlood flood-opacity="0" result="BackgroundImageFix"/>
<feColorMatrix in="SourceAlpha" type="matrix" values="0 0 0 0 0 0 0 0 0 0 0 0 0 0 0 0 0 0 127 0" result="hardAlpha"/>
<feOffset dy="1.49213"/>
<feGaussianBlur stdDeviation="0.746066"/>
<feComposite in2="hardAlpha" operator="out"/>
<feColorMatrix type="matrix" values="0 0 0 0 0 0 0 0 0 0 0 0 0 0 0 0 0 0 0.25 0"/>
<feBlend mode="normal" in2="BackgroundImageFix" result="effect1_dropShadow_61_688"/>
<feBlend mode="normal" in="SourceGraphic" in2="effect1_dropShadow_61_688" result="shape"/>
</filter>
<filter id="filter1_d_61_688" x="404.549" y="403.337" width="228.062" height="196.322" filterUnits="userSpaceOnUse" color-interpolation-filters="sRGB">
<feFlood flood-opacity="0" result="BackgroundImageFix"/>
<feColorMatrix in="SourceAlpha" type="matrix" values="0 0 0 0 0 0 0 0 0 0 0 0 0 0 0 0 0 0 127 0" result="hardAlpha"/>
<feOffset dy="1.49213"/>
<feGaussianBlur stdDeviation="0.746066"/>
<feComposite in2="hardAlpha" operator="out"/>
<feColorMatrix type="matrix" values="0 0 0 0 0 0 0 0 0 0 0 0 0 0 0 0 0 0 0.25 0"/>
<feBlend mode="normal" in2="BackgroundImageFix" result="effect1_dropShadow_61_688"/>
<feBlend mode="normal" in="SourceGraphic" in2="effect1_dropShadow_61_688" result="shape"/>
</filter>
<linearGradient id="paint0_linear_61_688" x1="520.369" y1="750.069" x2="520.369" y2="250" gradientUnits="userSpaceOnUse">
<stop offset="0.078125" stop-color="#21DB5F"/>
<stop offset="1" stop-color="#F2EB03"/>
</linearGradient>
</defs>
</svg>
