<svg width="1000" height="1000" viewBox="0 0 1000 1000" fill="none" xmlns="http://www.w3.org/2000/svg">
<g clip-path="url(#clip0_61_711)">
<path d="M748.926 662.109C748.047 661.328 746.777 661.035 745.605 661.328C719.434 622.754 686.23 586.133 654.004 550.781L648.73 545.02C648.73 544.336 648.437 543.75 647.949 543.164C647.461 542.481 646.68 542.09 645.801 541.895L644.726 540.82L643.945 540.234C642.969 538.281 640.625 536.719 637.988 538.086C628.125 543.164 619.238 550.391 610.547 557.031C598.926 565.918 587.5 575.293 576.758 585.254C572.363 589.356 568.066 593.555 564.453 598.242C562.695 600.586 564.062 602.734 566.113 603.711C558.496 611.231 550.879 618.945 543.164 627.051C542.48 627.832 542.09 628.809 542.187 629.785C542.285 630.762 542.773 631.738 543.555 632.324L557.031 642.578C557.031 642.578 557.129 642.773 557.226 642.871C576.465 661.914 610.351 688.281 646.094 716.211C651.367 720.41 656.738 724.609 662.109 728.711C664.551 731.641 666.894 734.57 669.141 737.402C670.312 738.965 672.559 739.258 674.121 738.086C674.902 738.672 675.781 739.356 676.562 740.039C678.125 741.211 680.371 740.918 681.543 739.453C681.934 738.867 682.129 738.184 682.226 737.5C682.519 737.5 682.617 737.695 682.812 737.695C683.789 737.695 684.766 737.305 685.449 736.621L748.926 667.285C750.195 665.918 750.195 663.672 748.73 662.305L748.926 662.109ZM566.601 638.086C566.992 638.672 567.48 639.16 567.871 639.649C575.098 645.801 582.812 652.344 590.723 659.082L558.789 634.668C558.789 634.668 556.836 633.301 555.566 632.422C554.883 631.934 554.297 631.445 553.613 630.957L551.269 629.004C551.269 629.004 551.66 628.613 551.855 628.32L554.004 626.172C564.746 615.332 583.105 597.266 592.578 588.379C582.617 598.438 562.207 628.027 566.601 638.086ZM675.879 724.219L649.512 704.102C639.258 693.457 628.125 682.91 616.797 672.754C631.055 683.691 643.164 693.066 645.019 694.629C658.789 706.934 658.203 704.688 667.676 712.793L679.101 721.094C678.027 722.168 676.855 723.145 675.879 724.219ZM682.519 729.297L682.031 728.906C683.008 728.125 684.082 727.344 685.059 726.563L682.519 729.297ZM265.039 321.973C265.918 326.465 266.699 330.859 267.578 335.156C271.875 358.203 275.879 379.004 283.496 394.824L286.523 406.836C287.695 411.426 289.355 417.09 290.918 418.262C308.691 433.984 335.937 457.422 365.039 479.492C366.309 480.469 368.164 480.469 369.434 479.395L369.726 479.688C370.41 480.273 371.191 480.664 372.07 480.664C373.047 480.664 374.023 480.273 374.707 479.492C412.012 437.988 439.746 403.906 459.57 375.293C460.84 373.731 461.426 371.973 461.426 370.02C462.695 368.555 463.965 366.992 465.137 365.82C466.504 364.453 466.406 362.207 465.039 360.938C464.844 360.742 464.648 360.645 464.453 360.449C464.355 359.57 463.965 358.789 463.379 358.203C454.687 349.805 448.242 343.75 441.797 337.695C430.273 326.953 418.457 315.82 393.359 290.82L392.969 290.43C392.578 290.039 392.09 289.746 391.601 289.551C384.668 287.109 370.41 284.668 352.539 281.543C326.172 277.051 290.137 270.801 257.715 261.133H257.324V261.035C257.324 261.035 257.226 261.035 257.129 261.133L257.422 261.035C257.422 261.035 255.469 261.133 255.078 261.328C254.59 261.621 254.199 261.914 253.906 262.305C253.613 262.695 253.32 263.086 250.976 263.574C248.633 264.063 251.465 263.574 251.66 263.574H250.976V263.77C251.367 265.918 251.269 267.383 251.953 269.824C251.855 270.41 253.223 276.172 253.418 276.758L264.844 322.07L265.039 321.973ZM458.105 362.793C458.105 362.793 457.91 363.086 457.812 363.086L453.809 358.691C455.176 359.961 456.543 361.231 458.105 362.793ZM413.867 421.387C413.867 421.387 413.476 421.875 413.281 422.168L413.184 422.07C413.379 421.777 413.574 421.582 413.867 421.387ZM388.574 295.996C390.723 298.145 399.414 306.25 401.465 308.301C392.383 304.199 369.922 293.75 359.375 290.332C369.726 292.09 383.887 294.434 388.574 295.996ZM268.945 278.711C274.219 287.695 278.32 319.238 282.422 349.805C280.078 339.941 278.125 330.371 276.269 321.094C273.047 305.078 270.019 290.82 265.82 278.223C266.699 278.32 267.773 278.418 268.848 278.516C268.945 278.613 268.945 278.613 268.945 278.711ZM267.187 271.191C265.723 271.094 264.453 270.898 263.281 270.898C263.184 270.606 263.086 270.41 262.988 270.117L267.187 271.191ZM743.164 266.602C743.457 265.137 736.328 258.887 738.574 258.789C743.848 258.496 743.945 250.391 738.574 250.586C731.543 250.977 724.414 252.539 717.578 253.906C705.273 256.25 692.969 258.789 680.664 261.426C653.32 267.285 625.976 273.438 598.926 280.859C590.43 283.203 581.055 285.254 573.242 289.356C570.605 290.723 570.703 293.555 572.168 295.313C571.582 295.606 571.094 295.801 570.41 295.898C568.066 296.289 565.82 296.68 563.476 297.07C561.523 297.363 560.254 299.219 560.547 301.074C560.644 301.563 560.742 301.953 561.035 302.441C546.582 321.777 530.078 342.578 512.305 364.551C494.824 384.57 476.562 405.859 457.91 427.832C399.219 496.68 332.715 574.902 258.984 643.75C257.519 645.02 257.519 647.266 258.789 648.731C259.082 649.121 259.57 649.316 259.961 649.512C258.984 650.488 258.008 651.367 256.934 652.246C256.348 652.832 256.055 653.516 255.957 654.199C255.469 654.688 254.98 655.274 254.492 655.762C253.223 657.227 253.223 659.473 254.687 660.742C256.152 662.012 258.398 662.012 259.668 660.547C259.961 660.254 260.156 659.961 260.449 659.766C262.402 657.617 265.723 657.617 267.871 659.57L268.066 659.766C272.363 664.356 276.465 668.75 280.273 672.754L271.68 665.625C270.215 664.356 267.969 664.551 266.699 666.016C265.43 667.481 265.625 669.727 267.09 670.996L359.57 748.535C360.254 749.121 361.035 749.316 361.914 749.316C362.891 749.316 363.769 748.926 364.453 748.242L366.699 745.996C368.066 746.582 369.629 746.289 370.605 745.215C495.898 619.336 596.875 524.219 712.402 439.16C713.476 438.379 713.965 437.207 713.867 435.938C715.234 435.742 716.406 434.863 716.894 433.496C738.184 368.262 742.383 310.449 743.555 282.129C743.555 281.934 743.652 281.836 743.652 281.738L743.945 280.859C744.141 280.176 744.238 279.688 744.238 279.688C745.898 274.805 745.312 270.117 743.262 266.309L743.164 266.602ZM519.141 368.652C524.707 362.207 530.273 355.957 535.84 349.805C499.902 397.07 440.43 469.922 356.152 556.543C413.476 493.066 471.289 427.246 519.141 368.652ZM316.113 698.145L315.918 697.949C316.601 698.047 317.09 698.242 317.187 698.242C316.797 698.145 316.504 698.145 316.113 698.145ZM359.18 738.184L358.887 737.891L359.082 737.695C359.18 737.695 359.277 737.793 359.375 737.793C359.277 737.988 359.18 737.988 359.18 738.184ZM411.328 693.164L419.922 684.18C420.019 684.277 420.019 684.375 420.117 684.473C417.187 687.402 414.258 690.332 411.328 693.164ZM425.293 679.395C426.953 677.539 428.809 675.293 430.762 673.047C430.859 672.949 430.859 672.852 431.055 672.754C451.562 651.563 472.754 630.176 494.531 608.789L494.922 608.399C500.293 604.297 506.25 599.707 511.914 595.41C483.691 622.461 454.98 650.293 425.293 679.395ZM560.351 330.859C548.73 345.996 536.035 365.527 525.195 381.152C491.113 430.469 381.445 551.27 379.004 553.613C362.109 569.922 311.133 618.848 278.613 649.512C277.734 650.293 277.051 650.977 276.465 651.66C274.609 649.707 274.609 646.582 276.562 644.629C431.348 498.633 525.293 377.051 563.476 324.121C562.695 326.172 562.012 328.418 560.059 330.957L560.351 330.859ZM663.281 375.098L663.184 375.195C663.281 375.098 663.086 374.805 663.281 375.098ZM620.898 402.051C606.836 393.848 600.195 381.641 604.004 369.336L605.176 365.234C605.664 364.063 606.25 362.891 606.934 361.719C610.644 355.566 616.211 350.195 622.656 346.973C622.949 346.875 623.242 346.777 623.633 346.68C623.34 345.801 623.242 344.922 623.34 344.043C623.633 342.09 624.902 340.43 627.441 340.43C631.641 340.43 644.629 344.336 649.512 348.535C650.976 349.707 652.441 351.074 653.711 352.441C655.566 354.59 658.301 358.203 659.668 360.742C660.449 361.133 661.133 364.648 662.012 366.406C662.891 369.238 663.281 372.168 663.086 375.098C663.086 375.195 663.086 375.195 663.184 375.293C662.988 375.684 663.184 377.637 662.891 377.832C662.305 382.324 660.644 386.719 658.203 390.625C657.91 390.918 657.812 391.309 657.519 391.602C657.519 391.699 657.422 391.699 657.324 391.895C655.469 394.531 653.223 397.07 650.586 398.926C642.773 404.492 633.594 406.152 624.414 403.809C623.242 403.32 621.973 402.832 620.898 402.246V402.051ZM722.363 391.895C719.336 404.688 715.527 418.066 711.133 431.738C710.937 432.227 710.937 432.715 710.937 433.203C710.351 433.301 709.766 433.496 709.277 433.887C681.543 454.199 654.785 475.195 628.32 496.973C651.172 476.27 674.414 455.664 698.34 434.863C705.273 428.809 709.961 420.606 711.523 411.523L715.039 390.527L715.234 389.941C716.797 385.547 723.633 387.402 722.559 391.992L722.363 391.895Z" fill="#6965DB"/>
</g>
<defs>
<clipPath id="clip0_61_711">
<rect width="500" height="500" fill="white" transform="translate(250 250)"/>
</clipPath>
</defs>
</svg>
