<svg width="1000" height="1000" viewBox="0 0 1000 1000" fill="none" xmlns="http://www.w3.org/2000/svg">
<path d="M276.983 603.719V396.281C276.983 382.942 287.115 365.39 298.667 358.72L478.316 255.001C489.518 248.531 509.789 248.138 521.684 255.001L575.443 286.041C570.474 287.263 565.302 289.252 561.164 291.641L381.519 395.359C359.303 408.181 350.138 435.338 350.138 449.712V553.431C350.138 571.987 362.726 593.791 378.795 603.068C378.827 603.086 378.862 603.101 378.894 603.12C378.943 603.149 378.992 603.184 379.041 603.213C394.971 612.402 419.926 612.411 435.862 603.21L525.933 551.205C543.53 541.048 557.314 517.174 557.314 496.853V423.123L573.589 413.726C583.665 407.906 601.323 407.898 611.437 413.694C621.341 419.532 630.179 434.573 630.216 446.026V550.319C630.258 563.645 620.328 581.182 608.785 587.848L429.139 691.563C417.585 698.237 397.255 698.193 385.771 691.569L298.667 641.279C287.115 634.609 276.983 617.057 276.983 603.719ZM723.017 603.719C723.017 617.057 712.885 634.609 701.333 641.279L521.684 744.998C510.132 751.671 489.868 751.664 478.316 744.998L424.557 713.958C432.758 711.939 438.182 708.736 438.836 708.358L618.481 604.639C640.696 591.819 649.862 564.66 649.862 550.287V446.569C649.862 428.012 637.276 406.207 621.205 396.931C621.164 396.907 621.119 396.885 621.078 396.861C621.038 396.838 620.999 396.809 620.959 396.786C605.029 387.595 580.074 387.592 564.138 396.79L474.067 448.794C456.47 458.951 442.686 482.826 442.686 503.147V576.876L426.411 586.273C416.332 592.093 398.673 592.101 388.563 586.306C378.659 580.466 369.821 565.426 369.784 553.974V449.68C369.743 436.354 379.672 418.818 391.215 412.151L570.861 308.436C582.44 301.75 602.768 301.818 614.23 308.431L701.333 358.72C712.885 365.39 723.017 382.942 723.017 396.281V603.719Z" fill="url(#paint0_linear_119_311)"/>
<defs>
<linearGradient id="paint0_linear_119_311" x1="406.388" y1="250" x2="599.119" y2="660.241" gradientUnits="userSpaceOnUse">
<stop stop-color="#DA622C"/>
<stop offset="1" stop-color="#EC964E"/>
</linearGradient>
</defs>
</svg>
