<svg width="1001" height="1000" viewBox="0 0 1001 1000" fill="none" xmlns="http://www.w3.org/2000/svg">
<g clip-path="url(#clip0_61_688)">
<path d="M416.867 750C462.867 750 500.2 712.667 500.2 666.667V583.333H416.867C370.867 583.333 333.533 620.667 333.533 666.667C333.533 712.667 370.867 750 416.867 750Z" fill="#0ACF83"/>
<path d="M333.533 500C333.533 454 370.867 416.667 416.867 416.667H500.2V583.333H416.867C370.867 583.333 333.533 546 333.533 500Z" fill="#A259FF"/>
<path d="M333.533 333.333C333.533 287.333 370.867 250 416.867 250H500.2V416.667H416.867C370.867 416.667 333.533 379.333 333.533 333.333Z" fill="#F24E1E"/>
<path d="M500.199 250H583.533C629.533 250 666.866 287.333 666.866 333.333C666.866 379.333 629.533 416.667 583.533 416.667H500.199V250Z" fill="#FF7262"/>
<path d="M666.866 500C666.866 546 629.533 583.333 583.533 583.333C537.533 583.333 500.199 546 500.199 500C500.199 454 537.533 416.667 583.533 416.667C629.533 416.667 666.866 454 666.866 500Z" fill="#1ABCFE"/>
</g>
<defs>
<clipPath id="clip0_61_688">
<rect width="333.333" height="500" fill="white" transform="translate(333.533 250)"/>
</clipPath>
</defs>
</svg>
