<svg width="1000" height="1000" viewBox="0 0 1000 1000" fill="none" xmlns="http://www.w3.org/2000/svg">
<mask id="mask0_56_193" style="mask-type:luminance" maskUnits="userSpaceOnUse" x="333" y="250" width="334" height="500">
<path d="M666.667 250H333.333V750H666.667V250Z" fill="white"/>
</mask>
<g mask="url(#mask0_56_193)">
<path d="M416.667 750.001C462.667 750.001 500 712.667 500 666.667V583.334H416.667C370.667 583.334 333.333 620.667 333.333 666.667C333.333 712.667 370.667 750.001 416.667 750.001Z" fill="#0ACF83"/>
<path d="M333.333 499.999C333.333 453.999 370.667 416.666 416.667 416.666H500V583.333H416.667C370.667 583.333 333.333 545.999 333.333 499.999Z" fill="#A259FF"/>
<path d="M333.333 333.333C333.333 287.333 370.667 250 416.667 250H500V416.667H416.667C370.667 416.667 333.333 379.333 333.333 333.333Z" fill="#F24E1E"/>
<path d="M500.001 250H583.334C629.334 250 666.668 287.333 666.668 333.333C666.668 379.333 629.334 416.667 583.334 416.667H500.001V250Z" fill="#FF7262"/>
<path d="M666.668 499.999C666.668 545.999 629.334 583.333 583.334 583.333C537.334 583.333 500.001 545.999 500.001 499.999C500.001 453.999 537.334 416.666 583.334 416.666C629.334 416.666 666.668 453.999 666.668 499.999Z" fill="#1ABCFE"/>
</g>
</svg>
