<svg width="1001" height="1000" viewBox="0 0 1001 1000" fill="none" xmlns="http://www.w3.org/2000/svg">
<path fill-rule="evenodd" clip-rule="evenodd" d="M358.24 289.264C358.244 298.343 355.945 307.274 351.559 315.223C347.173 323.172 340.843 329.878 333.161 334.716H723.517C728.06 334.716 732.532 335.852 736.524 338.02C740.517 340.187 743.905 343.318 746.381 347.128C748.857 350.937 750.342 355.305 750.701 359.834C751.06 364.363 750.282 368.91 748.438 373.062L684.686 516.53L748.447 659.998C750.293 664.15 751.073 668.698 750.715 673.228C750.357 677.757 748.872 682.126 746.396 685.936C743.92 689.746 740.531 692.877 736.537 695.044C732.542 697.211 728.07 698.346 723.526 698.344H337.577V764.459H271.463V331.604C264.28 325.996 258.641 318.653 255.078 310.266C251.514 301.879 250.143 292.723 251.092 283.66C252.042 274.597 255.282 265.924 260.507 258.458C265.732 250.992 272.77 244.978 280.96 240.981C289.149 236.985 298.221 235.137 307.321 235.612C316.422 236.087 325.252 238.87 332.98 243.698C340.709 248.526 347.083 255.24 351.502 263.21C355.921 271.18 358.239 280.151 358.24 289.264Z" fill="#183153"/>
</svg>
