<svg width="1000" height="1000" viewBox="0 0 1000 1000" fill="none" xmlns="http://www.w3.org/2000/svg">
<g clip-path="url(#clip0_64_1376)">
<path d="M500 250C361.938 250 250 361.938 250 500C250 638.063 361.938 750 500 750C638.083 750 750 638.063 750 500C750 361.938 638.083 250 500 250ZM631.667 396.667C619.125 396.667 625.313 368.021 607.583 368.021C593.083 368.021 581.042 406.271 575.021 439.625H606.271C609.854 439.625 610.5 442.229 610.5 445C610.5 452.479 607.083 458.833 600.917 458.833H570.146C570.146 458.833 556 525.75 545.563 567.542C541.375 584.333 534.583 597.521 526.396 607.75L526.813 607.958L578.083 560.625L570.104 560.292C570.091 560.296 570.076 560.296 570.063 560.292V560.229L570.333 553.208C570.333 553.188 570.354 553.167 570.396 553.167L583.188 553.667L583.688 540.875L583.708 540.833H583.75L590.771 541.104C590.813 541.104 590.833 541.146 590.833 541.167L590.312 553.958L603.104 554.458L603.146 554.479V554.521L602.875 561.542C602.875 561.558 602.868 561.574 602.857 561.586C602.845 561.598 602.829 561.604 602.812 561.604L590.021 561.104L589.521 573.875V573.917L589.458 573.938L582.542 573.667H582.438C582.421 573.665 582.407 573.658 582.396 573.646C582.391 573.632 582.391 573.618 582.396 573.604L582.688 566.104L531.688 613.188C533.306 616.287 533.627 619.903 532.58 623.239C531.533 626.576 529.204 629.36 526.104 630.979C524.565 631.794 522.879 632.294 521.144 632.452C519.41 632.609 517.661 632.42 516 631.896C514.924 631.564 513.894 631.095 512.938 630.5L463.167 676.438L470.25 676.708C470.271 676.708 470.313 676.75 470.313 676.792L470.021 683.813C470.016 683.825 470.008 683.836 469.997 683.844C469.985 683.851 469.972 683.855 469.958 683.854L457.167 683.354L456.667 696.125C456.667 696.142 456.66 696.157 456.648 696.169C456.637 696.181 456.621 696.188 456.604 696.188L449.583 695.917C449.567 695.917 449.551 695.91 449.539 695.898C449.527 695.887 449.521 695.871 449.521 695.854L450.021 683.063L437.25 682.563C437.233 682.563 437.218 682.556 437.206 682.544C437.194 682.532 437.187 682.517 437.187 682.5L437.458 675.479C437.458 675.438 437.5 675.417 437.521 675.417L450.313 675.917L450.813 663.146C450.814 663.13 450.821 663.115 450.833 663.104L450.875 663.083L457.917 663.354L457.958 663.375V663.417L457.625 671.813L508.125 625.208L507.958 624.875C492.167 635.604 474.833 639.458 461.438 639.458C448.583 639.458 434.896 634.917 425.792 625.479C413.583 638 395.042 647.938 375.167 647.938C365.417 647.938 349.125 641.417 349.125 629.063C349.125 622.063 356.146 611.479 363.625 611.479C376.813 611.479 378.417 625.792 393.25 625.792C400.396 625.792 405.375 623.833 411.313 602.375C424.333 555.333 444.021 458.833 444.021 458.833H420.75C417 458.833 416.521 456.542 416.521 454.104C416.521 447.604 418.958 439.625 427.25 439.625H448.917C460.792 398.792 487.146 360.542 535.646 360.542C551.271 360.542 565.583 365.75 572.729 374.708C590.313 356.958 606.75 352.063 620.917 352.063C643.708 352.063 650.854 366.562 650.854 376.146C650.854 388.188 643.208 396.667 631.667 396.667ZM456.354 562.813C451.208 582.667 446.896 593.812 442.396 603.187C451.667 614.083 463.708 619.604 474.125 619.604C486.833 619.604 496.917 615.375 503.083 593.25C517.729 540.542 534.021 458.833 534.021 458.833H480.313C472.5 494.833 463.917 533.646 456.354 562.813ZM522.938 376.813C500 376.813 489.583 414.875 484.542 439.625H538.896C542.928 424.695 548.777 410.317 556.313 396.813C548.5 384.458 534.979 376.813 522.938 376.813Z" fill="black"/>
</g>
<defs>
<clipPath id="clip0_64_1376">
<rect width="500" height="500" fill="white" transform="translate(250 250)"/>
</clipPath>
</defs>
</svg>
