<svg width="1001" height="1000" viewBox="0 0 1001 1000" fill="none" xmlns="http://www.w3.org/2000/svg">
<path d="M750.6 500C750.6 361.929 638.671 250 500.6 250C362.528 250 250.6 361.929 250.6 500C250.6 638.071 362.528 750 500.6 750C638.671 750 750.6 638.071 750.6 500Z" fill="#F18D00"/>
<path opacity="0.15" d="M713.563 500C713.563 382.384 618.216 287.037 500.6 287.037C382.983 287.037 287.637 382.384 287.637 500C287.637 617.616 382.983 712.963 500.6 712.963C618.216 712.963 713.563 617.616 713.563 500Z" fill="white"/>
<path fill-rule="evenodd" clip-rule="evenodd" d="M667.267 449.463C636.026 317.407 516.044 318.509 443.609 352.99C367.378 391.518 312.165 490.268 342.276 572.963C388.813 697.713 560.118 695.842 618.091 579.833C635.294 537.296 647.924 507.092 600.609 466.666V516.666L583.933 483.333C583.933 483.333 569.137 518.305 553.415 534.259C531.554 556.426 500.6 550 500.6 550C506.433 572.102 550.6 583.342 550.6 583.342C435.97 637.602 432.609 546.916 433.933 525.009C437.693 461.926 488.406 412.972 555.23 416.472C576.526 418.111 617.276 433.324 617.276 433.324C601.943 398.231 580.109 389.889 567.276 383.324C617.591 366.685 644.443 419.203 667.276 449.444L667.267 449.463Z" fill="white"/>
</svg>
