<svg width="1001" height="1000" viewBox="0 0 1001 1000" fill="none" xmlns="http://www.w3.org/2000/svg">
<g clip-path="url(#clip0_119_76)">
<path d="M337.43 586.56C335.55 576.41 333.107 566.447 331.791 556.297C326.528 516.635 334.987 479.981 358.483 447.274C376.904 421.523 402.092 403.665 431.039 391.259C465.814 376.41 503.22 368.327 541.002 367.575C574.648 366.635 603.971 379.041 629.535 400.094C655.851 421.899 676.152 448.778 691.753 479.041C699.272 493.703 706.227 508.741 713.37 523.778C714.122 525.47 714.686 527.35 715.062 529.229C705.099 535.244 695.513 541.447 685.362 546.899C647.768 567.575 607.167 581.673 564.874 589.004C541.753 592.951 518.445 595.207 495.137 596.711C472.956 598.214 450.776 598.966 428.596 598.402C398.332 597.65 368.257 592.951 337.43 586.56ZM385.174 485.808C384.611 518.891 411.49 545.583 444.197 545.959C475.776 546.335 505.287 522.087 505.287 486.56C505.287 449.718 476.904 426.41 445.137 426.41C412.242 426.41 385.362 452.914 385.174 485.808ZM616.19 503.102C634.047 504.417 653.971 489.568 654.159 465.132C654.347 444.831 637.994 428.29 617.693 428.102H616.941C596.265 427.726 579.347 444.267 578.971 464.756V465.32C578.971 486.748 594.949 503.102 616.19 503.102Z" fill="#1E61C6"/>
<path d="M716.19 537.688C718.821 569.266 710.927 597.086 695.137 622.65C673.709 657.236 641.754 679.041 604.16 692.763C565.814 706.672 525.024 712.124 484.423 709.116C460.175 707.424 435.739 703.853 413.934 692.387C376.34 672.462 353.032 640.695 340.814 600.281C340.25 597.838 340.062 595.206 339.874 592.763C472.393 623.402 598.145 609.868 716.19 537.688Z" fill="#1E60C6"/>
<path d="M709.987 422.839C719.761 419.268 719.761 419.08 718.821 409.87C718.257 404.606 718.069 399.343 720.701 394.268C721.829 392.2 721.641 389.569 721.829 387.125C722.205 379.606 728.408 373.779 735.927 373.779C743.445 373.779 749.836 379.794 750.212 387.313C750.212 394.832 744.197 401.035 736.679 401.411C734.235 401.599 731.791 401.411 728.408 401.411C728.032 405.17 727.28 408.554 727.656 411.749C728.784 420.96 727.28 428.667 716.754 432.614L738.182 470.584L706.039 490.509C692.506 459.118 671.829 433.178 647.017 409.494L666.19 386.185C684.047 394.644 697.393 408.178 709.987 422.839ZM323.145 539.193L291.942 528.667C290.438 509.87 294.385 492.388 301.34 475.283L290.438 457.99C286.491 457.99 282.543 458.742 279.16 457.802C271.641 456.11 264.31 453.854 257.355 451.035C251.904 448.779 249.46 441.261 250.964 435.809C253.032 429.23 259.235 425.095 266.002 425.659C272.393 426.223 277.656 431.11 278.596 437.501C278.972 440.509 278.596 443.704 278.596 447.464H295.137C302.092 450.283 301.716 458.742 306.979 464.193C317.318 450.659 327.468 437.125 342.882 427.539L357.167 438.629C346.265 453.667 334.611 467.764 330.663 485.245C326.716 502.915 325.588 520.584 323.145 539.193Z" fill="#2163C7"/>
<path d="M450.964 380.546L444.573 364.756C462.242 350.658 482.355 344.831 503.596 342.012C503.972 336.373 501.152 333.929 496.829 331.673C482.167 324.155 479.724 306.485 491.378 295.771C498.333 289.38 506.603 288.44 514.874 291.636C522.393 294.267 527.656 301.222 528.22 309.305C529.536 317.952 525.4 326.41 517.882 330.734C515.814 331.861 513.558 332.801 511.491 333.741L513.746 340.884C532.731 340.508 551.34 340.696 569.761 348.027L567.13 363.628C528.22 363.816 488.746 361.749 450.964 380.546Z" fill="#2162C6"/>
</g>
<defs>
<clipPath id="clip0_119_76">
<rect width="500" height="420.2" fill="white" transform="translate(250.4 289.9)"/>
</clipPath>
</defs>
</svg>
