<svg width="1001" height="1000" viewBox="0 0 1001 1000" fill="none" xmlns="http://www.w3.org/2000/svg">
<path d="M292.501 285.631C448.081 500.399 644.369 411.649 691.135 267.951C703.983 421.521 684.756 412.758 628.815 469.536C623.596 509.446 621.689 508.312 594.704 566.25C515.632 699.704 232.41 603.286 207.062 529.716L235.168 463.995C283.209 462.474 324.91 456.894 373.854 452.655C321.354 392.448 311.457 354.91 292.501 285.631Z" fill="url(#paint0_linear_61_665)"/>
<path d="M298.108 484.53C317.18 518.377 308.702 554.441 272.454 570.581C244.696 582.964 212.136 560.164 198.185 523.629C184.239 487.107 193.446 449.193 221.912 438.221C250.367 427.253 281.045 454.273 298.108 484.53Z" fill="url(#paint1_radial_61_665)"/>
<path d="M380.044 461.719C380.044 485.434 361.389 504.661 338.378 504.661C315.366 504.661 296.713 485.437 296.713 461.719C296.713 438.003 315.368 418.776 338.378 418.776C361.39 418.776 380.044 438 380.044 461.719Z" fill="url(#paint2_radial_61_665)"/>
<path d="M485.166 474.929C485.166 503.781 462.135 527.172 433.726 527.172C405.315 527.172 382.285 503.785 382.285 474.929C382.285 446.077 405.317 422.686 433.726 422.686C462.137 422.686 485.166 446.074 485.166 474.929Z" fill="url(#paint3_radial_61_665)"/>
<path d="M367.513 472.603C367.513 484.243 359.294 493.679 349.156 493.679C339.018 493.679 330.799 484.243 330.799 472.603C330.799 460.962 339.018 451.527 349.156 451.527C359.294 451.527 367.513 460.962 367.513 472.603Z" fill="url(#paint4_radial_61_665)"/>
<path d="M468.623 487.312C468.623 501.079 458.782 512.238 446.64 512.238C434.498 512.238 424.654 501.079 424.654 487.312C424.654 473.545 434.496 462.385 446.637 462.385C458.779 462.385 468.623 473.545 468.623 487.312Z" fill="url(#paint5_radial_61_665)"/>
<path d="M289.975 597.99C401.508 594.575 450.219 592.436 509.833 526.843C510.258 582.603 484.42 616.959 455.348 621.701C404.098 630.077 349.369 620.85 289.975 597.99Z" fill="url(#paint6_linear_61_665)"/>
<path d="M484.793 413.827C539.741 412.577 624.497 411.005 691.133 267.951C668.079 413.183 606.185 427.925 577.538 432.358C548.259 436.894 503.762 423.492 484.793 413.827Z" fill="url(#paint7_linear_61_665)"/>
<path d="M298.325 484.755C317.41 518.595 308.931 554.665 272.681 570.812C244.923 583.183 212.359 560.399 198.416 523.866C184.459 487.332 281.276 454.51 298.325 484.755Z" fill="url(#paint8_linear_61_665)"/>
<path d="M469.83 562.671L593.705 567.878L585.372 602.491L454.561 572.079C460.933 569.102 464.899 566.125 469.829 562.671H469.83Z" fill="url(#paint9_linear_61_665)"/>
<path d="M658.931 576.537L593.706 567.877L585.373 602.491L657.01 602.182L658.93 576.537H658.931Z" fill="url(#paint10_linear_61_665)"/>
<path d="M674.794 565.635C660.825 566.06 652.693 581.254 652.358 592.246C652.023 602.916 680.657 643.47 768.853 604.102C735.361 592.774 690.039 564.888 674.794 565.635Z" fill="url(#paint11_linear_61_665)"/>
<defs>
<linearGradient id="paint0_linear_61_665" x1="362.977" y1="390.386" x2="589.807" y2="495.554" gradientUnits="userSpaceOnUse">
<stop stop-color="#8E8570"/>
<stop offset="1" stop-color="#464236"/>
</linearGradient>
<radialGradient id="paint1_radial_61_665" cx="0" cy="0" r="1" gradientUnits="userSpaceOnUse" gradientTransform="translate(234.074 469.444) rotate(-26.9627) scale(27.972 24.4029)">
<stop stop-color="#F8F8F8"/>
<stop offset="1"/>
</radialGradient>
<radialGradient id="paint2_radial_61_665" cx="0" cy="0" r="1" gradientUnits="userSpaceOnUse" gradientTransform="translate(338.381 461.235) scale(41.6655 42.9011)">
<stop stop-color="#FEFEFE"/>
<stop offset="1" stop-color="#E2E2E2"/>
</radialGradient>
<radialGradient id="paint3_radial_61_665" cx="0" cy="0" r="1" gradientUnits="userSpaceOnUse" gradientTransform="translate(439.173 484.005) rotate(-45.4745) scale(38.6208 38.2242)">
<stop stop-color="#FEFEFE"/>
<stop offset="1" stop-color="#E2E2E2"/>
</radialGradient>
<radialGradient id="paint4_radial_61_665" cx="0" cy="0" r="1" gradientUnits="userSpaceOnUse" gradientTransform="translate(343.711 467.087) scale(18.357 21.0738)">
<stop stop-color="#F8F8F8"/>
<stop offset="1"/>
</radialGradient>
<radialGradient id="paint5_radial_61_665" cx="0" cy="0" r="1" gradientUnits="userSpaceOnUse" gradientTransform="translate(439.392 480.079) scale(21.9845 24.9289)">
<stop stop-color="#F8F8F8"/>
<stop offset="1"/>
</radialGradient>
<linearGradient id="paint6_linear_61_665" x1="440.451" y1="563.106" x2="455.451" y2="597.552" gradientUnits="userSpaceOnUse">
<stop stop-color="#423E32"/>
<stop offset="1" stop-color="#8E8872"/>
</linearGradient>
<linearGradient id="paint7_linear_61_665" x1="610.45" y1="412.771" x2="582.525" y2="363.814" gradientUnits="userSpaceOnUse">
<stop stop-color="#464236"/>
<stop offset="1" stop-color="#7F7763"/>
</linearGradient>
<linearGradient id="paint8_linear_61_665" x1="269.02" y1="541.72" x2="225.616" y2="483.037" gradientUnits="userSpaceOnUse">
<stop stop-color="#808080"/>
<stop offset="1" stop-opacity="0"/>
</linearGradient>
<linearGradient id="paint9_linear_61_665" x1="491.62" y1="558.148" x2="565.603" y2="571.744" gradientUnits="userSpaceOnUse">
<stop stop-color="#56422A"/>
<stop offset="1" stop-color="#BA9A71"/>
</linearGradient>
<linearGradient id="paint10_linear_61_665" x1="628.428" y1="574.308" x2="626.289" y2="597.877" gradientUnits="userSpaceOnUse">
<stop stop-color="#E1E0E0"/>
<stop offset="1" stop-color="#828282"/>
</linearGradient>
<linearGradient id="paint11_linear_61_665" x1="677.99" y1="584.102" x2="740.541" y2="602.233" gradientUnits="userSpaceOnUse">
<stop/>
<stop offset="1" stop-color="#828282"/>
</linearGradient>
</defs>
</svg>
