<svg width="1001" height="1000" viewBox="0 0 1001 1000" fill="none" xmlns="http://www.w3.org/2000/svg">
<path d="M733.47 590.686C733.47 590.686 732.697 585.944 732.245 585.987L646.192 594.29C639.345 594.951 634.027 600.411 633.547 607.273L631.183 641.156L564.61 645.906L560.082 615.197C559.073 608.367 553.109 603.218 546.204 603.218H455.38C448.479 603.218 442.514 608.367 441.505 615.197L436.975 645.906L370.402 641.156L368.038 607.273C367.557 600.409 362.239 594.948 355.392 594.287L269.298 585.987C268.853 585.943 268.527 590.691 268.082 590.691L267.966 609.313L340.88 621.071L343.268 655.258C343.751 662.179 349.335 667.775 356.261 668.272L447.947 674.812C448.294 674.836 448.636 674.85 448.979 674.85C455.869 674.85 461.824 669.698 462.833 662.868L467.492 631.27H534.096L538.755 662.868C539.761 669.696 545.724 674.848 552.623 674.848C552.961 674.848 553.299 674.835 553.629 674.811L645.328 668.271C652.251 667.774 657.837 662.178 658.32 655.257L660.706 621.071L733.589 609.26L733.47 590.686Z" fill="white"/>
<path d="M446.874 250.001C422.653 255.385 398.693 262.88 376.229 274.187C376.743 294.021 378.025 313.026 380.625 332.331C371.901 337.92 362.733 342.717 354.584 349.259C346.306 355.628 337.849 361.724 330.353 369.173C315.377 359.267 299.528 349.958 283.199 341.74C265.597 360.683 249.138 381.13 235.693 404.008C245.808 420.372 256.369 435.709 267.771 450.263H268.088V590.683C268.345 590.684 268.604 590.697 268.858 590.719L354.943 599.017C359.452 599.452 362.986 603.083 363.3 607.601L365.955 645.602L441.046 650.962L446.218 615.888C446.889 611.341 450.791 607.972 455.391 607.972H546.213C550.811 607.972 554.712 611.341 555.383 615.888L560.555 650.962L635.649 645.602L638.301 607.601C638.618 603.083 642.149 599.455 646.658 599.017L732.708 590.719C732.963 590.696 733.218 590.684 733.475 590.683V579.477L733.512 579.464V450.262H733.829C745.233 435.707 755.786 420.369 765.906 404.007C752.466 381.127 735.999 360.681 718.397 341.739C702.073 349.956 686.216 359.265 671.24 369.172C663.746 361.723 655.306 355.628 647.015 349.258C638.869 342.716 629.688 337.919 620.981 332.33C623.573 313.025 624.857 294.02 625.373 274.186C602.908 262.879 578.95 255.384 554.716 250C545.042 266.261 536.194 283.867 528.488 301.082C519.351 299.556 510.171 298.99 500.98 298.88C500.916 298.88 500.857 298.88 500.801 298.88C500.745 298.88 500.682 298.868 500.626 298.868C491.417 298.977 482.244 299.556 473.105 301.082C465.404 283.869 456.563 266.262 446.874 250.001ZM267.941 609.254C267.977 617.573 268.083 626.687 268.083 628.502C268.083 710.253 371.79 749.547 500.635 750H500.952C629.799 749.548 733.474 710.253 733.474 628.502C733.474 626.654 733.587 617.578 733.625 609.254L656.248 616.717L653.58 654.922C653.259 659.526 649.597 663.191 644.993 663.521L553.295 670.064C553.071 670.081 552.848 670.088 552.627 670.088C548.07 670.088 544.139 666.742 543.466 662.166L538.208 626.507H463.388L458.13 662.166C457.424 666.966 453.134 670.418 448.301 670.064L356.603 663.521C351.999 663.191 348.337 659.526 348.016 654.922L345.351 616.717L267.941 609.254Z" fill="#478CBF"/>
<path d="M378.767 455.415C350.128 455.415 326.896 478.623 326.896 507.267C326.896 535.93 350.127 559.149 378.767 559.149C407.421 559.149 430.646 535.93 430.646 507.267C430.646 478.623 407.421 455.415 378.767 455.415ZM622.833 455.415C594.174 455.415 570.951 478.623 570.951 507.267C570.951 535.93 594.174 559.149 622.833 559.149C651.47 559.149 674.697 535.93 674.697 507.267C674.697 478.623 651.47 455.415 622.833 455.415ZM500.789 485.758C491.566 485.758 484.091 492.562 484.091 500.934V548.692C484.091 557.07 491.566 563.868 500.789 563.868C510.012 563.868 517.506 557.07 517.506 548.692V500.934C517.506 492.562 510.013 485.758 500.789 485.758Z" fill="white"/>
<path d="M383.732 475.916C364.715 475.916 349.299 491.34 349.299 510.353C349.299 529.365 364.715 544.773 383.732 544.773C402.759 544.773 418.169 529.365 418.169 510.353C418.169 491.341 402.759 475.916 383.732 475.916ZM617.862 475.916C598.849 475.916 583.444 491.34 583.444 510.353C583.444 529.365 598.85 544.773 617.862 544.773C636.894 544.773 652.295 529.365 652.295 510.353C652.295 491.341 636.893 475.916 617.862 475.916Z" fill="#414042"/>
</svg>
