<svg width="1001" height="1000" viewBox="0 0 1001 1000" fill="none" xmlns="http://www.w3.org/2000/svg">
<mask id="mask0_119_294" style="mask-type:luminance" maskUnits="userSpaceOnUse" x="258" y="167" width="484" height="666">
<path d="M560.768 167.941H304.186C292.186 167.974 280.686 172.755 272.2 181.241C263.714 189.727 258.933 201.227 258.9 213.227V786.778C258.935 798.777 263.718 810.274 272.204 818.758C280.689 827.241 292.187 832.021 304.186 832.054H696.615C708.612 832.019 720.107 827.237 728.591 818.754C737.074 810.271 741.855 798.775 741.89 786.778V349.064L560.768 167.941Z" fill="white"/>
</mask>
<g mask="url(#mask0_119_294)">
<path d="M560.768 167.941H304.186C292.186 167.974 280.686 172.755 272.2 181.241C263.714 189.727 258.933 201.227 258.9 213.227V786.778C258.935 798.777 263.718 810.274 272.204 818.758C280.689 827.241 292.187 832.021 304.186 832.054H696.615C708.612 832.019 720.107 827.237 728.591 818.754C737.074 810.271 741.855 798.775 741.89 786.778V349.064L636.247 273.594L560.768 167.941Z" fill="#0F9D58"/>
</g>
<mask id="mask1_119_294" style="mask-type:luminance" maskUnits="userSpaceOnUse" x="258" y="167" width="484" height="666">
<path d="M560.768 167.941H304.186C292.186 167.974 280.686 172.755 272.2 181.241C263.714 189.727 258.933 201.227 258.9 213.227V786.778C258.935 798.777 263.718 810.274 272.204 818.758C280.689 827.241 292.187 832.021 304.186 832.054H696.615C708.612 832.019 720.107 827.237 728.591 818.754C737.074 810.271 741.855 798.775 741.89 786.778V349.064L560.768 167.941Z" fill="white"/>
</mask>
<g mask="url(#mask1_119_294)">
<path d="M379.646 492.453V711.31H621.146V492.453H379.646ZM485.309 681.127H409.839V643.392H485.309V681.127ZM485.309 620.749H409.839V583.014H485.309V620.749ZM485.309 560.371H409.839V522.637H485.309V560.371ZM590.962 681.127H515.492V643.392H590.962V681.127ZM590.962 620.749H515.492V583.014H590.962V620.749ZM590.962 560.371H515.492V522.637H590.962V560.371Z" fill="#F1F1F1"/>
</g>
<mask id="mask2_119_294" style="mask-type:luminance" maskUnits="userSpaceOnUse" x="258" y="167" width="484" height="666">
<path d="M560.768 167.941H304.186C292.186 167.974 280.686 172.755 272.2 181.241C263.714 189.727 258.933 201.227 258.9 213.227V786.778C258.935 798.777 263.718 810.274 272.204 818.758C280.689 827.241 292.187 832.021 304.186 832.054H696.615C708.612 832.019 720.107 827.237 728.591 818.754C737.074 810.271 741.855 798.775 741.89 786.778V349.064L560.768 167.941Z" fill="white"/>
</mask>
<g mask="url(#mask2_119_294)">
<path d="M574.013 335.82L741.89 503.657V349.065L574.013 335.82Z" fill="url(#paint0_linear_119_294)"/>
</g>
<mask id="mask3_119_294" style="mask-type:luminance" maskUnits="userSpaceOnUse" x="258" y="167" width="484" height="666">
<path d="M560.768 167.941H304.186C292.186 167.974 280.686 172.755 272.2 181.241C263.714 189.727 258.933 201.227 258.9 213.227V786.778C258.935 798.777 263.718 810.274 272.204 818.758C280.689 827.241 292.187 832.021 304.186 832.054H696.615C708.612 832.019 720.107 827.237 728.591 818.754C737.074 810.271 741.855 798.775 741.89 786.778V349.064L560.768 167.941Z" fill="white"/>
</mask>
<g mask="url(#mask3_119_294)">
<path d="M560.768 167.941V303.788C560.766 309.735 561.937 315.624 564.212 321.118C566.488 326.613 569.824 331.605 574.029 335.81C578.235 340.014 583.228 343.349 588.722 345.623C594.217 347.897 600.106 349.067 606.053 349.064H741.89L560.768 167.941Z" fill="#87CEAC"/>
</g>
<mask id="mask4_119_294" style="mask-type:luminance" maskUnits="userSpaceOnUse" x="258" y="167" width="484" height="666">
<path d="M560.768 167.941H304.186C292.186 167.974 280.686 172.755 272.2 181.241C263.714 189.727 258.933 201.227 258.9 213.227V786.778C258.935 798.777 263.718 810.274 272.204 818.758C280.689 827.241 292.187 832.021 304.186 832.054H696.615C708.612 832.019 720.107 827.237 728.591 818.754C737.074 810.271 741.855 798.775 741.89 786.778V349.064L560.768 167.941Z" fill="white"/>
</mask>
<g mask="url(#mask4_119_294)">
<path d="M304.186 167.941C292.186 167.974 280.686 172.755 272.2 181.241C263.714 189.727 258.933 201.227 258.9 213.227V217.003C258.933 205.002 263.714 193.502 272.2 185.016C280.686 176.531 292.186 171.749 304.186 171.717H560.768V167.941H304.186Z" fill="white" fill-opacity="0.2"/>
</g>
<mask id="mask5_119_294" style="mask-type:luminance" maskUnits="userSpaceOnUse" x="258" y="167" width="484" height="666">
<path d="M560.768 167.941H304.186C292.186 167.974 280.686 172.755 272.2 181.241C263.714 189.727 258.933 201.227 258.9 213.227V786.778C258.935 798.777 263.718 810.274 272.204 818.758C280.689 827.241 292.187 832.021 304.186 832.054H696.615C708.612 832.019 720.107 827.237 728.591 818.754C737.074 810.271 741.855 798.775 741.89 786.778V349.064L560.768 167.941Z" fill="white"/>
</mask>
<g mask="url(#mask5_119_294)">
<path d="M696.615 828.29H304.186C292.186 828.257 280.686 823.476 272.2 814.99C263.714 806.504 258.933 795.004 258.9 783.004V786.779C258.935 798.778 263.718 810.275 272.204 818.759C280.689 827.242 292.187 832.023 304.186 832.055H696.615C708.612 832.02 720.107 827.239 728.591 818.755C737.074 810.272 741.855 798.776 741.89 786.779V783.004C741.858 795.003 737.078 806.501 728.594 814.986C720.111 823.472 708.613 828.255 696.615 828.29Z" fill="#263238" fill-opacity="0.2"/>
</g>
<mask id="mask6_119_294" style="mask-type:luminance" maskUnits="userSpaceOnUse" x="258" y="167" width="484" height="666">
<path d="M560.768 167.941H304.186C292.186 167.974 280.686 172.755 272.2 181.241C263.714 189.727 258.933 201.227 258.9 213.227V786.778C258.935 798.777 263.718 810.274 272.204 818.758C280.689 827.241 292.187 832.021 304.186 832.054H696.615C708.612 832.019 720.107 827.237 728.591 818.754C737.074 810.271 741.855 798.775 741.89 786.778V349.064L560.768 167.941Z" fill="white"/>
</mask>
<g mask="url(#mask6_119_294)">
<path d="M606.043 349.065C600.097 349.066 594.209 347.896 588.715 345.621C583.222 343.346 578.23 340.011 574.025 335.807C569.821 331.602 566.486 326.611 564.211 321.117C561.936 315.623 560.766 309.735 560.768 303.789V307.565C560.766 313.511 561.937 319.4 564.212 324.895C566.488 330.389 569.824 335.381 574.029 339.586C578.235 343.79 583.228 347.125 588.722 349.399C594.217 351.674 600.106 352.843 606.053 352.84H741.89V349.065H606.043Z" fill="#263238" fill-opacity="0.1"/>
</g>
<path d="M560.768 167.941H304.186C292.186 167.974 280.686 172.755 272.2 181.241C263.714 189.727 258.933 201.227 258.9 213.227V786.778C258.935 798.777 263.718 810.274 272.204 818.758C280.689 827.241 292.187 832.021 304.186 832.054H696.615C708.612 832.019 720.107 827.237 728.591 818.754C737.074 810.271 741.855 798.775 741.89 786.778V349.064L560.768 167.941Z" fill="url(#paint1_radial_119_294)"/>
<defs>
<linearGradient id="paint0_linear_119_294" x1="8968.73" y1="1776.87" x2="8968.73" y2="17121.8" gradientUnits="userSpaceOnUse">
<stop stop-color="#263238" stop-opacity="0.2"/>
<stop offset="1" stop-color="#263238" stop-opacity="0.02"/>
</linearGradient>
<radialGradient id="paint1_radial_119_294" cx="0" cy="0" r="1" gradientUnits="userSpaceOnUse" gradientTransform="translate(1789.01 1480.29) scale(77881.6 77881.5)">
<stop stop-color="white" stop-opacity="0.1"/>
<stop offset="1" stop-color="white" stop-opacity="0"/>
</radialGradient>
</defs>
</svg>
