<svg width="1000" height="1000" viewBox="0 0 1000 1000" fill="none" xmlns="http://www.w3.org/2000/svg">
<g clip-path="url(#clip0_119_181)">
<path d="M250 684.917L490.904 306.773L620.029 389.037L431.531 684.917H250Z" fill="#FBBC04"/>
<path d="M485.812 304.801H634.1V684.917H485.812V304.801Z" fill="#1A73E8"/>
<path d="M332.146 458.122C372.74 458.122 405.648 425.214 405.648 384.621C405.648 344.027 372.74 311.119 332.146 311.119C291.552 311.119 258.645 344.027 258.645 384.621C258.645 425.214 291.552 458.122 332.146 458.122Z" fill="#EA4335"/>
<path d="M739.716 579.302C739.716 607.313 728.589 634.177 708.782 653.984C688.975 673.79 662.111 684.918 634.1 684.918V473.695C662.11 473.695 688.972 484.821 708.779 504.626C728.585 524.431 739.714 551.292 739.716 579.302Z" fill="#34A853"/>
<path d="M634.1 473.695V684.918C606.267 684.65 579.664 673.405 560.077 653.628C540.49 633.851 529.502 607.141 529.502 579.307C529.502 551.472 540.49 524.762 560.077 504.985C579.664 485.209 606.267 473.964 634.1 473.695Z" fill="#0D652D"/>
<path d="M715.383 392.411C715.38 413.968 706.815 434.641 691.573 449.884C676.33 465.127 655.657 473.691 634.1 473.694V311.119C655.658 311.122 676.333 319.688 691.576 334.933C706.819 350.178 715.383 370.853 715.383 392.411Z" fill="#1A73E8"/>
<path d="M634.1 311.119V473.694C612.696 473.459 592.248 464.791 577.196 449.572C562.143 434.353 553.701 413.812 553.701 392.407C553.701 371.001 562.143 350.46 577.196 335.241C592.248 320.022 612.696 311.354 634.1 311.119Z" fill="#174EA6"/>
</g>
<defs>
<clipPath id="clip0_119_181">
<rect width="500" height="390.4" fill="white" transform="translate(250 304.801)"/>
</clipPath>
</defs>
</svg>
