<svg width="1000" height="1000" viewBox="0 0 1000 1000" fill="none" xmlns="http://www.w3.org/2000/svg">
<path fill-rule="evenodd" clip-rule="evenodd" d="M496.932 269.432C526.793 269.424 556.363 275.299 583.953 286.719C611.544 298.139 636.615 314.882 657.735 335.992C678.855 357.101 695.611 382.164 707.045 409.749C718.479 437.334 724.368 466.901 724.375 496.761C724.383 526.622 718.509 556.192 707.088 583.783C695.668 611.373 678.925 636.444 657.816 657.565C636.706 678.685 611.643 695.44 584.058 706.874C556.473 718.308 526.907 724.197 497.046 724.205C436.739 724.22 378.897 700.277 336.243 657.645C293.589 615.012 269.618 557.182 269.603 496.875C269.587 436.568 293.53 378.726 336.162 336.072C378.795 293.418 436.625 269.447 496.932 269.432Z" fill="url(#paint0_radial_61_646)"/>
<path fill-rule="evenodd" clip-rule="evenodd" d="M720.454 538.977C694.835 557.527 670.323 577.562 647.045 598.977C596.023 646.932 566.704 684.432 534.091 720.909C580.049 713.323 622.569 691.806 655.9 659.268C689.231 626.729 711.765 584.74 720.454 538.977Z" fill="#88A03E"/>
<path fill-rule="evenodd" clip-rule="evenodd" d="M418.523 340.227L269.659 506.932C270.909 534.773 277.159 561.477 287.614 585.796L483.296 283.182L418.523 340.227Z" fill="url(#paint1_linear_61_646)"/>
<path fill-rule="evenodd" clip-rule="evenodd" d="M271.023 470.455C269.623 482.522 269.168 494.68 269.659 506.818L418.523 340.227L271.136 470.455" fill="#88A03E"/>
<path fill-rule="evenodd" clip-rule="evenodd" d="M271.478 467.273L469.887 271.136C419.726 277.143 372.994 299.684 337.067 335.2C301.139 370.716 278.062 417.185 271.478 467.273Z" fill="url(#paint2_linear_61_646)"/>
<path fill-rule="evenodd" clip-rule="evenodd" d="M469.318 271.136L271.25 467.273C271.25 468.409 271.25 469.432 271.022 470.455L418.75 340.227L483.409 283.182L287.613 585.909C289.432 590.227 291.477 594.546 293.636 598.75L295 601.364C297.045 605.341 299.204 609.318 301.477 613.068L301.818 613.75C304.318 617.841 306.932 621.932 309.772 625.909L311.022 627.727L318.636 637.841L319.886 639.432C322.954 643.182 326.136 646.932 329.432 650.568L329.659 650.796C332.841 654.205 336.136 657.614 339.545 660.796L341.022 662.273C348.182 668.864 355.795 675.114 363.636 680.909L364.772 681.705C368.75 684.546 372.727 687.159 376.818 689.659L376.932 689.886C385.682 695.227 394.659 700.114 404.091 704.205L404.659 704.546C414.091 708.636 423.75 712.159 433.75 715.114L434.204 715.227C449.318 719.546 465.113 722.386 481.477 723.409C482.159 592.727 527.159 429.659 596.477 292.386C557.003 273.264 512.865 265.888 469.318 271.136Z" fill="url(#paint3_linear_61_646)"/>
<defs>
<radialGradient id="paint0_radial_61_646" cx="0" cy="0" r="1" gradientUnits="userSpaceOnUse" gradientTransform="translate(496.932 496.705) scale(454.873 454.46)">
<stop stop-color="#FFF101"/>
<stop offset="1" stop-color="#E6DA1A"/>
</radialGradient>
<linearGradient id="paint1_linear_61_646" x1="271.136" y1="508.068" x2="481.915" y2="272.782" gradientUnits="userSpaceOnUse">
<stop stop-color="#CFDC5E"/>
<stop offset="1" stop-color="#BFCA65"/>
</linearGradient>
<linearGradient id="paint2_linear_61_646" x1="272.728" y1="416.932" x2="468.591" y2="264.376" gradientUnits="userSpaceOnUse">
<stop stop-color="#CFDC5E"/>
<stop offset="1" stop-color="#BFCA65"/>
</linearGradient>
<linearGradient id="paint3_linear_61_646" x1="375.227" y1="682.159" x2="537.356" y2="274.589" gradientUnits="userSpaceOnUse">
<stop stop-color="#D91963"/>
<stop offset="1" stop-color="#981245"/>
</linearGradient>
</defs>
</svg>
