<svg width="1001" height="1000" viewBox="0 0 1001 1000" fill="none" xmlns="http://www.w3.org/2000/svg">
<path d="M750.6 499.976C750.6 361.845 638.11 249.459 499.98 249.821C362.935 250.183 250.962 362.207 250.6 499.355C250.239 637.589 362.521 750.182 500.6 750.182H664.888C712.138 750.182 750.445 711.824 750.445 664.523V508.35C750.548 505.611 750.6 502.819 750.6 500.027V499.976ZM372.033 638.882C332.228 604.866 307.724 550.482 308.861 495.013C308.965 491.136 309.12 487.259 309.482 483.382V483.123C315.272 416.953 357.972 355.228 417.836 326.589C477.699 297.95 552.554 303.378 607.61 340.443C662.717 377.457 696.009 444.765 692.132 511.039C691.253 525.565 688.772 539.936 685.256 554.049C683.861 559.684 682.206 565.474 678.226 569.661C674.245 573.849 667.318 575.813 662.614 572.453C658.116 569.248 657.444 562.941 657.082 557.461C653.981 512.951 642.091 467.097 612.056 434.116C589.361 409.25 557.103 393.431 523.605 390.278C490.106 387.176 455.625 396.74 428.226 416.384C405.325 432.823 387.335 456.293 378.65 483.071C369.965 509.901 370.844 539.885 382.269 565.681C390.644 584.601 404.601 600.989 421.868 612.362C452.42 632.471 494.241 635.315 526.034 617.17C557.775 599.024 576.799 559.684 568.683 524.014C560.619 488.344 524.432 460.48 488.09 464.254C482.507 464.823 474.597 464.254 474.39 458.619C474.235 454.277 479.405 452.002 483.644 451.279C520.554 444.662 560.102 463.427 580.315 494.961C600.579 526.547 601.561 568.834 585.071 602.54C568.528 636.194 535.701 660.801 499.308 669.692C450.197 681.686 405.739 667.521 372.137 638.83L372.033 638.882Z" fill="url(#paint0_linear_119_301)"/>
<defs>
<linearGradient id="paint0_linear_119_301" x1="261.663" y1="268.38" x2="823.439" y2="812.889" gradientUnits="userSpaceOnUse">
<stop offset="0.09" stop-color="#FFAB0C"/>
<stop offset="0.31" stop-color="#FF5538"/>
<stop offset="0.46" stop-color="#E9405D"/>
<stop offset="0.75" stop-color="#D266DA"/>
<stop offset="0.89" stop-color="#D584EF"/>
</linearGradient>
</defs>
</svg>
