<svg width="1000" height="1000" viewBox="0 0 1000 1000" fill="none" xmlns="http://www.w3.org/2000/svg">
<g clip-path="url(#clip0_64_1369)">
<path d="M635.994 250C635.706 250.299 635.47 250.644 635.296 251.021C633.966 253.898 632.794 256.844 631.785 259.848C630.416 263.758 628.299 269.597 627.092 272.834C625.909 276.071 624.378 280.677 623.668 283.068C622.958 285.458 620.032 293.576 617.132 301.121C614.001 309.23 610.913 317.356 607.869 325.498C605.54 331.723 603.387 336.243 602.727 336.293C601.556 336.392 599.788 331.3 595.966 316.97C594.872 312.85 593.722 308.745 592.517 304.657C589.854 295.87 587.302 287.051 584.861 278.2C583.877 274.403 583.242 273.158 582.62 273.905C582.445 274.104 580.951 286.629 579.295 301.743C576.22 329.644 575.697 332.943 574.253 333.068C573.805 333.105 572.386 331.449 571.066 329.445C568.998 326.401 566.852 323.412 564.629 320.481C560.271 314.819 556.126 308.997 552.204 303.026C548.502 297.39 547.236 297.369 548.406 302.963C549.452 307.906 553.499 324.764 556.873 338.197C560.707 353.461 561.355 357.719 559.91 357.844C558.753 357.943 533.354 347.946 528.934 345.655C527.643 345.016 526.286 344.52 524.888 344.174C523.181 343.721 521.521 343.103 519.933 342.331C517.32 341.144 514.666 340.048 511.977 339.044L507.047 337.226L508.79 339.293C509.773 340.426 513.123 343.775 516.21 346.726C519.298 349.677 524.216 354.47 527.166 357.408C530.092 360.346 533.093 363.347 533.84 364.044C534.587 364.741 536.292 366.509 537.637 367.978C538.982 369.447 542.418 371.664 545.294 372.871C547.535 373.805 549.838 374.963 552.054 376.233L653.673 405.043C663.048 401.768 666.322 400.722 667.58 400.61C669.446 400.257 671.273 399.719 673.033 399.004C675.137 398.207 681.126 396.178 686.355 394.522C691.584 392.841 698.518 390.588 701.756 389.48C704.98 388.359 708.267 387.388 709.064 387.313C709.873 387.239 710.508 386.903 710.483 386.566C710.433 385.944 706.723 385.496 691.173 384.251C683.799 383.689 676.432 383.041 669.074 382.308C665.463 381.935 660.931 381.561 659.026 381.437C656.474 381.263 655.515 380.802 655.416 379.781C655.354 379.009 663.621 368.576 673.755 356.574C683.902 344.584 692.156 334.45 692.119 334.064C692.007 332.719 687.762 334.612 674.153 342.132C668.825 345.07 655.366 351.245 654.021 351.37C653.461 351.42 652.976 351.146 652.951 350.76C652.926 350.386 654.943 344.647 657.433 337.998C662.463 324.639 664.654 318.688 668.762 307.458C674.328 292.194 674.303 292.119 667.891 299.216C665.613 301.756 659.176 308.802 653.523 314.878C647.896 320.941 639.953 329.569 635.894 334.052C631.835 338.534 628.025 342.269 627.391 342.331C625.946 342.455 625.71 339.716 626.556 332.645C626.917 329.719 628.237 318.041 629.532 306.748C630.814 295.468 632.831 279.233 633.977 270.643C635.122 262.052 636.081 253.735 636.143 252.167C636.218 250.511 636.218 249.863 635.994 250Z" fill="#479951"/>
<path d="M553.611 374.041C529.402 374.638 506.022 382.975 486.898 397.83C467.775 412.685 453.914 433.277 447.348 456.586L409.101 591.422C404.997 605.763 403.767 620.773 405.48 635.591C407.194 650.409 411.817 664.743 419.086 677.769C426.354 690.795 436.124 702.257 447.835 711.497C459.546 720.737 472.966 727.572 487.326 731.611L509.3 737.836C523.642 741.94 538.652 743.17 553.47 741.457C568.288 739.743 582.622 735.12 595.648 727.851C608.674 720.583 620.136 710.813 629.376 699.102C638.616 687.391 645.451 673.971 649.49 659.611L687.749 524.801C691.851 510.456 693.08 495.443 691.364 480.622C689.649 465.802 685.023 451.466 677.752 438.438C670.482 425.41 660.71 413.946 648.997 404.705C637.284 395.464 623.862 388.627 609.5 384.586L587.55 378.361C576.513 375.229 565.08 373.773 553.611 374.041Z" fill="#E5B731"/>
<path d="M561.753 375.423L562.226 375.958C564.915 379.519 566.708 380.254 567.766 378.199C567.978 377.763 568.202 377.477 568.588 377.34L561.753 375.423ZM582.694 376.668C583.03 377.477 576.245 381.399 574.427 382.544C572.435 383.802 567.916 383.628 568.078 382.295C568.268 380.693 567.808 379.909 566.696 379.942C565.114 380.017 565.152 380.166 567.467 383.441C568.551 384.972 569.746 385.918 570.094 385.557C570.468 385.209 570.468 385.371 570.194 385.931C569.497 387.275 571.489 391.197 572.51 390.5C572.946 390.189 573.12 390.301 572.871 390.749C572.622 391.172 573.344 394.646 574.527 398.431C575.697 402.203 576.743 406.274 576.805 407.47C576.905 409.437 576.979 409.474 577.552 407.968C577.992 406.822 578.141 407.644 578 410.433C577.477 421.613 577.39 411.553 579.196 422.796C580.714 424.253 583.03 430.54 582.557 431.934C582.059 433.366 577.814 435.346 576.332 434.823C575.249 434.449 553.884 441.509 544.684 445.43C534.723 431.15 524.464 417.791 522.311 418.289C520.58 420.966 518.937 422.211 518.937 422.211C515.077 421.277 527.963 444.957 530.876 446.04C530.827 446.128 533.989 450.273 535.358 452.116C528.834 456.349 521.103 461.977 520.978 462.114C520.779 462.325 501.282 477.016 501.793 476.992C502.291 476.967 501.108 477.303 500.871 478.012C500.635 478.722 495.904 481.86 490.413 484.947L480.465 490.537L473.929 502.527C473.307 503.647 473.369 503.697 472.809 504.768C470.082 509.897 467.455 515.077 467.455 515.562C467.455 515.662 468.526 517.629 468.725 518.09C469.596 520.107 471.24 523.568 474.29 529.195C478.038 536.118 481.125 542.554 481.138 543.476C481.175 544.621 480.241 545.592 478.187 546.588C476.349 547.479 474.539 548.425 472.759 549.427L460.533 556.586C454.345 560.196 450.087 562.188 449.141 561.939C448.319 561.69 447.199 560.42 446.613 559.076C446.041 557.756 445.269 556.66 444.945 556.685C444.526 553.776 443.766 550.926 442.679 548.194C439.567 541.11 436.205 549.8 435.084 552.129C434.686 552.975 434.848 554.768 435.184 556.822C436.018 561.889 438.197 568.924 437.525 569.932C434.873 573.879 425.622 577.651 426.12 578.125C423.045 586.715 422.908 587.238 426.295 585.271C429.619 583.441 444.26 576.705 444.845 576.917C446.265 577.402 461.815 607.47 461.554 609.2C461.305 610.794 433.491 627.054 430.64 627.265C429.258 627.365 428.424 626.606 427.316 624.327C426.194 622.074 425.023 619.844 423.805 617.641L409.636 589.728L406.499 604.967C406.125 606.362 421.638 625.473 421.551 632.208L406.959 640.649L408.678 649.489L426.432 642.392L434.773 658.391C439.355 667.206 442.903 674.838 442.629 675.323C442.355 675.796 440.463 677.066 438.421 678.162C436.379 679.258 432.445 681.486 429.644 683.105C424.888 685.844 424.651 686.155 425.909 687.475C426.631 688.259 427.44 689.517 427.453 689.99C428.038 690.363 428.374 690.861 428.872 691.932C430.403 693.252 430.789 693.14 438.546 688.77C442.99 686.255 447.086 684.362 447.659 684.561C448.942 685.01 464.467 714.84 464.492 716.907C464.492 717.704 464.156 718.401 463.707 718.401C461.94 718.488 462.375 721.389 465.289 722.684C470.929 725.211 479.42 729.332 479.756 728.959C479.943 728.76 480.677 725.373 480.179 724.477C478.411 721.314 479.133 720.493 487.786 715.712C492.517 713.097 497.311 710.358 498.406 709.661C499.514 708.951 502.639 707.096 505.391 705.527C509.786 703.013 510.558 702.826 511.616 703.847C512.288 704.482 516.26 711.491 520.468 719.434C528.038 733.727 526.369 739.33 523.63 740.537C521.514 741.471 524.589 741.135 530.851 741.882C534.001 743.115 538.932 742.007 539.604 742.119C540.276 742.231 541.297 741.521 541.571 741.558C541.857 741.596 542.567 740.886 543.152 739.952C544.31 738.122 572.124 721.987 574.278 721.887C575.087 721.85 576.83 724.19 578.884 727.988C580.702 731.374 582.42 734.25 582.669 734.387C583.566 734.86 590.762 731.934 590.749 731.1C590.737 730.639 589.181 727.627 587.313 724.377C585.446 721.103 583.902 717.841 583.889 717.156C583.852 715.463 614.318 697.995 616.173 698.643C616.92 698.892 618.6 701.17 619.87 703.647C621.153 706.138 622.435 708.117 622.734 708.105C623.842 708.055 628.187 701.942 628.112 700.535C627.903 699.316 627.468 698.146 626.83 697.086C624.577 693.301 625.137 692.355 631.86 688.545C637.998 685.072 638.284 684.785 640.55 679.531C642.791 674.315 643.327 672.223 642.418 672.261C642.194 672.261 637.276 674.925 631.499 678.187C622.858 683.08 620.792 683.951 619.945 683.08C618.239 681.337 603.361 653.162 603.312 651.606C603.287 650.585 607.756 647.696 619.223 641.247C627.975 636.342 635.433 632.532 635.831 632.768C636.23 633.005 639.069 637.998 642.106 643.849C645.144 649.726 647.883 654.494 648.207 654.482C648.531 654.482 649.527 651.892 650.411 648.742L652.042 643.027L648.518 636.367C646.588 632.694 644.97 628.872 644.945 627.9C644.908 626.506 646.352 625.361 652.091 622.36L659.313 618.588L661.18 612.313C662.213 608.864 662.948 605.963 662.848 605.876C662.724 605.776 657.731 608.466 651.681 611.877C645.63 615.288 640.177 617.915 639.604 617.716C638.097 617.193 622.609 587.624 622.896 585.806C623.145 584.101 650.747 567.841 653.747 567.629C655.304 567.505 656.449 569.148 661.342 578.486C664.492 584.536 667.281 589.467 667.53 589.454C667.779 589.454 668.775 586.753 669.696 583.478L671.402 577.515L667.916 571.128C662.836 561.777 662.898 561.441 671.427 556.947L678.573 553.174L680.254 547.223C681.188 543.949 681.798 541.147 681.623 540.998C681.437 540.836 676.531 543.339 670.742 546.588C664.641 550.012 659.699 552.315 658.952 552.066C658.242 551.817 653.971 544.634 649.464 536.055C643.102 523.916 641.496 520.194 642.194 519.285C643.613 517.417 672.522 501.543 673.742 501.967C674.34 502.178 677.54 507.221 680.839 513.172C687.525 525.261 687.313 525.211 689.318 515.027C690.065 511.255 689.977 510.831 686.578 504.594C684.624 501.02 683.043 497.51 683.03 496.787C683.005 496.016 684.935 494.36 687.761 492.754L692.58 490.002L692.455 485.582C692.393 483.142 692.106 480.926 691.808 480.639C691.509 480.353 688.583 481.748 685.333 483.752C682.096 485.769 678.922 487.238 678.262 487.014C676.693 486.466 661.666 457.656 661.603 455.054C661.566 453.349 662.848 452.315 670.568 447.958C675.535 445.169 679.718 442.803 679.868 442.654C680.179 442.343 677.838 438.247 676.245 436.292C675.124 434.922 674.589 435.109 666.098 439.902C661.168 442.704 656.636 444.845 656.013 444.634C654.943 444.26 638.62 414.081 638.583 412.387C638.571 411.927 640.363 410.557 642.567 409.3C646.514 407.046 650.846 405.664 649.228 404.718C644.92 397.659 631.088 390.836 614.28 386.068C616.583 387.861 618.426 394.733 620.879 399.265C625.672 408.167 625.772 407.98 609.86 417.056C595.381 425.311 593.7 426.108 591.957 425.485C590.662 425.024 575.647 396.302 575.597 394.173C575.56 392.629 591.658 381.474 595.966 380.266L582.694 376.668ZM626.855 391.11C627.44 390.737 632.731 395.032 633.578 395.268C635.47 395.791 638.658 398.182 639.33 399.228C639.181 400.498 636.466 402.129 635.022 402.365C633.329 402.639 632.644 402.191 631.536 400.024C630.378 397.734 625.884 391.72 626.855 391.11ZM628.897 417.803L629.121 417.828C630.353 418.252 632.831 422.273 638.82 433.565C648.531 451.867 648.518 450.933 639.069 455.278C636.456 456.439 633.949 457.822 631.574 459.412C628.642 461.371 625.595 463.151 622.448 464.741C614.679 468.787 614.567 468.849 613.409 467.442C611.442 465.039 597.124 436.466 597.435 435.557C597.871 434.262 626.892 417.89 628.897 417.803ZM587.649 441.446C589.019 441.571 591.011 444.658 596.8 455.478C603.872 468.687 605.167 472.173 603.797 474.526C602.764 476.332 576.544 490.948 574.178 491.048C572.099 491.135 571.464 490.176 564.591 476.867C563.172 473.506 557.619 464.741 551.307 455.278C553.805 454.349 555.694 453.66 556.972 453.212C564.492 451.431 572.721 448.269 577.316 446.787C581.872 444.185 586.691 441.359 587.649 441.446ZM651.93 459.661C653.511 460.582 669.011 491.011 668.563 492.33C668.314 493.015 661.591 497.261 653.598 501.73C645.617 506.212 638.471 509.897 637.749 509.935C637.346 509.928 636.948 509.839 636.58 509.674C636.212 509.51 635.881 509.272 635.607 508.976C633.441 506.387 620.045 480.179 619.995 478.473C619.957 476.767 621.9 475.435 635.458 467.841C644.011 463.047 651.419 459.375 651.93 459.661ZM541.247 460.109C547.908 468.949 555.154 478.697 557.109 482.395C560.645 489.068 563.558 495.144 563.583 495.879C563.633 497.771 560.919 499.676 546.9 507.582C538.932 512.064 533.852 514.429 532.482 514.33C530.615 514.193 529.469 512.462 522.896 499.987C518.787 492.181 515.388 484.91 515.363 483.839C524.29 471.439 533.466 464.516 541.247 460.109ZM503.698 483.017C503.772 483.042 504.22 483.914 504.357 484.076C507.196 487.487 522.784 518.974 522.286 520.43C522.037 521.152 514.965 525.585 506.623 530.278C498.282 534.972 491.16 538.807 490.787 538.819C489.89 538.857 487.052 534.088 479.843 520.343C478.12 517.184 476.57 513.934 475.199 510.607C473.954 507.47 473.693 505.627 474.788 504.631C475.523 503.959 480.154 500.373 483.715 497.597C486.865 495.144 488.571 493.799 492.082 491.16C497.933 486.753 503.262 482.868 503.698 483.017ZM610.234 483.167C612.089 483.715 627.826 513.844 627.204 515.662C626.955 516.409 620.107 520.704 612.039 525.186C603.971 529.668 596.775 533.379 596.078 533.403C594.285 533.478 594.036 533.03 585.595 516.969C579.519 505.366 578.15 502.216 578.822 501.033C580.042 498.916 608.578 482.681 610.234 483.167ZM567.679 507.146C567.958 507.141 568.236 507.183 568.501 507.27C569.537 507.655 570.428 508.351 571.053 509.263C574.464 514.006 585.807 536.703 585.62 538.371C585.47 539.728 582.109 541.969 570.717 548.431C562.624 553.037 555.328 556.86 554.494 556.897C553.349 556.947 551.033 553.224 544.821 541.384C540.338 532.818 536.803 525.298 537.014 524.676C537.512 523.207 565.376 507.283 567.679 507.146ZM631.947 525.161L632.171 525.186C633.317 525.647 635.968 530.042 641.509 540.575C645.966 549.091 649.639 556.573 649.651 557.258C649.676 558.055 644.061 561.665 634.35 567.106C625.934 571.837 618.588 575.747 618.04 575.771C617.492 575.796 616.633 575.348 616.185 574.8C614.318 572.435 600.622 545.418 600.585 544.011C600.56 542.828 604.146 540.351 615.525 533.827C623.792 529.096 631.175 525.199 631.96 525.161M527.589 530.054C529.22 530.615 544.248 559.661 544.011 561.79C543.849 563.197 540.675 565.4 529.42 571.899C521.489 576.469 514.38 580.241 513.608 580.291C512.836 580.341 511.255 578.984 510.084 577.203C506.499 571.763 495.978 550.56 495.929 548.692C495.891 547.236 498.518 545.455 511.18 538.296C519.596 533.54 526.992 529.83 527.589 530.054ZM591.085 548.829C592.58 549.34 607.968 577.988 608.03 580.366C608.055 581.648 604.793 583.852 592.841 590.625C584.462 595.356 577.104 599.228 576.444 599.253C575.299 599.302 559.001 569.347 558.939 567.056C558.902 565.637 589.492 548.269 591.085 548.829ZM486.205 553.71C486.397 553.767 486.572 553.869 486.715 554.009C488.334 555.278 503.324 583.503 503.374 585.346C503.399 586.64 502.253 587.35 484.723 597.41C478.623 600.896 472.958 603.797 472.124 603.834C470.443 603.909 468.09 600.074 459.362 583.304C455.104 575.137 454.096 572.597 454.718 571.439C455.154 570.63 462.213 566.11 470.406 561.416C481.935 554.818 484.823 553.324 486.205 553.71ZM549.639 572.485C549.738 572.501 549.826 572.526 549.9 572.559C551.681 573.618 566.31 601.095 566.372 603.486C566.409 605.067 564.903 606.274 557.408 610.582L542.467 619.248C539.168 621.14 536.255 622.646 536.018 622.622C534.138 622.422 532.557 619.982 525.398 606.362C519.21 594.596 517.467 590.587 518.127 589.728C518.6 589.106 525.622 584.773 533.752 580.142C544.459 574.041 548.344 572.198 549.639 572.485ZM612.761 591.16C613.957 591.284 616.422 595.181 622.248 606.013C626.581 614.081 630.154 621.439 630.204 622.36C630.266 623.717 627.316 625.722 615.102 632.793C606.76 637.612 599.377 641.608 598.705 641.633C597.535 641.695 581.212 611.69 581.15 609.375C581.113 607.993 610.67 590.948 612.761 591.16ZM508.354 596.053C510.371 597.161 524.626 624.825 524.502 627.365C524.415 629.195 522.609 630.478 509.748 637.798C501.656 642.392 494.746 646.177 494.372 646.19C492.829 646.264 490.65 642.915 483.777 629.818C479.756 622.173 476.556 615.127 476.681 614.131C476.954 611.603 506.25 594.883 508.354 596.053ZM571.476 614.504C571.559 614.504 571.634 614.512 571.701 614.529C572.921 614.952 575.373 618.961 581.237 629.992C585.782 638.558 589.305 646.09 589.081 646.725C588.869 647.36 582.134 651.531 574.091 656.013C566.048 660.495 558.628 664.218 557.619 664.255C556.076 664.33 554.606 662.026 547.634 648.767C543.127 640.201 539.616 632.706 539.828 632.084C540.289 630.739 569.347 614.591 571.476 614.504ZM466.235 619.111L466.447 619.123C467.642 619.559 470.144 623.667 475.809 634.474C480.279 642.978 483.939 650.498 483.951 651.17C483.976 651.917 478.15 655.739 468.762 661.043C460.358 665.786 453 669.683 452.453 669.708C451.369 669.758 442.642 655.166 442.592 653.237C442.567 652.614 441.646 650.896 440.525 649.452C438.967 647.227 437.64 644.849 436.566 642.355C434.674 637.935 434.699 637.811 436.18 636.255C438.172 634.113 464.367 619.198 466.235 619.111ZM530.428 637.811L530.677 637.886C531.872 638.483 545.58 663.595 547.248 668.264C548.095 670.605 545.63 672.522 532.134 679.955C517.119 688.222 516.31 688.57 515.177 687.898C514.044 687.226 498.78 658.192 498.742 656.611C498.693 654.78 499.464 654.245 514.99 645.356C525.224 639.479 529.071 637.574 530.428 637.811ZM593.414 656.86C593.629 656.851 593.845 656.872 594.061 656.922C595.555 657.358 597.111 660.034 603.087 671.414C607.321 679.482 610.807 686.79 610.807 687.637C610.881 690.002 609.151 691.197 594.721 699.165C587.375 703.212 580.615 706.586 579.718 706.636C578.399 706.685 576.481 703.61 569.945 691.21C565.376 682.544 561.977 675.199 562.226 674.477C562.811 672.808 590.824 656.959 593.401 656.847M488.11 661.728L488.409 661.777C489.928 662.151 491.72 665.052 498.182 677.166C504.532 689.068 506.2 692.853 505.602 693.949C505.167 694.721 498.531 698.892 490.861 703.212C483.192 707.532 476.145 711.13 475.224 711.18C473.581 711.304 470.68 707.046 464.716 695.841L460.271 687.5C455.714 678.909 455.341 679.494 471.8 669.97C479.855 665.313 487.052 661.678 488.11 661.728ZM552.677 680.017C552.884 680.042 553.05 680.104 553.175 680.204C555.067 681.698 570.107 711.192 569.646 712.5C569.435 713.122 562.5 717.38 554.208 721.987C545.916 726.593 538.956 730.515 538.72 730.64C538.471 730.764 537.848 730.615 537.35 730.328C536.081 729.569 520.891 700.224 520.841 698.456C520.817 697.348 524.925 694.621 536.354 688.085C547.871 681.511 551.282 679.768 552.677 680.017Z" fill="#9F7E21"/>
<path d="M528.374 358.89C520.734 358.891 513.169 360.398 506.111 363.323C499.053 366.248 492.64 370.535 487.239 375.939C481.837 381.343 477.553 387.757 474.631 394.817C471.709 401.876 470.205 409.442 470.207 417.082C470.214 432.506 476.344 447.296 487.252 458.201C498.159 469.106 512.951 475.233 528.374 475.237C543.802 475.24 558.6 469.115 569.513 458.209C580.426 447.304 586.56 432.51 586.567 417.082C586.568 409.44 585.064 401.872 582.14 394.811C579.216 387.75 574.93 381.334 569.526 375.93C564.122 370.526 557.706 366.24 550.645 363.316C543.585 360.392 536.017 358.888 528.374 358.89Z" fill="#E2E5E7"/>
<path d="M528.386 355.391C512.032 355.41 496.354 361.917 484.791 373.482C473.228 385.047 466.724 400.727 466.708 417.081C466.724 433.432 473.229 449.108 484.793 460.667C496.357 472.227 512.036 478.725 528.386 478.735C544.737 478.728 560.416 472.231 571.979 460.67C583.542 449.11 590.042 433.432 590.052 417.081C590.046 400.726 583.547 385.043 571.985 373.476C560.422 361.908 544.741 355.404 528.386 355.391ZM528.386 362.363C535.571 362.359 542.686 363.773 549.324 366.522C555.963 369.271 561.994 373.302 567.072 378.384C572.151 383.467 576.178 389.5 578.923 396.14C581.667 402.78 583.076 409.896 583.068 417.081C583.074 424.263 581.664 431.376 578.918 438.013C576.172 444.649 572.145 450.679 567.066 455.757C561.987 460.835 555.956 464.861 549.319 467.606C542.682 470.35 535.568 471.758 528.386 471.75C521.206 471.755 514.094 470.345 507.459 467.6C500.823 464.856 494.794 460.831 489.714 455.755C484.635 450.679 480.606 444.652 477.857 438.019C475.108 431.385 473.693 424.275 473.693 417.094C473.684 409.908 475.093 402.791 477.839 396.15C480.584 389.509 484.612 383.475 489.692 378.392C494.772 373.31 500.805 369.279 507.444 366.531C514.084 363.782 521.2 362.37 528.386 362.375" fill="#48B19B"/>
<path d="M531.586 369.435C530.715 369.443 530.121 369.601 529.806 369.908C528.71 370.991 528.262 408.74 529.308 410.371C529.497 410.643 529.771 410.844 530.086 410.943C530.402 411.042 530.741 411.034 531.051 410.919C533.566 409.961 554.993 380.715 554.993 378.237C554.993 375.449 537.55 369.323 531.586 369.435ZM517.966 370.581C512.388 371.278 495.904 380.043 495.904 382.906C495.904 384.4 513.334 403.063 519.622 408.305C522.199 410.446 524.726 412.214 525.212 412.214C525.822 412.214 525.909 410.073 525.523 405.279C524.814 396.489 520.543 371.788 519.597 370.83C519.315 370.556 518.771 370.473 517.966 370.581ZM562.612 384.861C562.027 384.985 556.736 389.642 550.859 395.195C540.488 404.993 533.94 412.289 533.94 414.032C533.94 415.252 544.236 414.343 559.637 411.753C576.445 408.927 576.171 409.052 575.137 405.192C572.896 396.875 565.152 384.276 562.612 384.861ZM489.393 391.186C486.703 391.186 479.121 411.753 480.802 414.467C481.014 414.804 490.14 415.14 501.096 415.252C516.572 415.414 521.016 415.252 521.004 414.455C521.004 412.475 492.07 391.173 489.38 391.173M560.508 417.555C544.124 417.032 535.521 417.605 534.973 419.248C534.599 420.369 544.435 428.287 558.093 437.861C566.746 443.9 567.655 444.36 568.925 443.227C572.05 440.414 577.789 422.286 576.557 419.074C576.258 418.327 572.087 417.916 560.508 417.555ZM532.109 422.734C531.528 422.718 531.404 424.988 531.736 429.545C532.259 437.139 536.006 460.234 537.152 462.973C537.824 464.592 538.173 464.654 540.961 463.895C548.631 461.84 561.467 454.221 561.467 451.718C561.467 449.403 534.45 422.734 532.122 422.734M526.644 423.681C526.046 423.805 525.274 424.552 524.303 425.648C521.464 428.798 504.794 456.45 504.794 457.993C504.794 459.562 510.247 462.226 517.219 464.044C523.768 465.762 527.129 466.036 527.851 464.866C528.113 464.443 528.399 455.304 528.461 444.597C528.549 428.2 528.399 423.27 526.644 423.681Z" fill="#48B19B"/>
<path d="M526.693 414.106L289.479 414.766L408.391 620.506L526.693 414.106Z" fill="black"/>
<path d="M395.48 535.135V740.812H421.327V535.135H395.48Z" fill="black"/>
<path d="M346.938 740.364V750.026H468.962V740.364H346.938Z" fill="black"/>
<path d="M321.29 430.765C321.207 430.939 321.199 431.151 321.265 431.4C321.987 434.5 373.506 525.299 384.836 543.451C391.061 553.424 397.958 561.554 402.465 564.193C406.424 566.522 410.956 566.696 414.89 564.654C419.173 562.426 427.664 552.577 433.827 542.667C444.497 525.511 496.526 433.877 496.975 431.437C497.041 431.146 496.751 430.922 496.103 430.765H321.29Z" fill="#EB8923"/>
<path d="M330.59 343.763L402.838 547.772L339.703 343.377L330.59 343.763Z" fill="#48B19B"/>
<path d="M334.275 344.957C332.063 345.149 329.857 344.532 328.066 343.22C326.276 341.908 325.022 339.99 324.539 337.823C324.059 335.659 324.379 333.394 325.442 331.448C326.504 329.502 328.236 328.007 330.316 327.241C332.397 326.478 334.684 326.495 336.754 327.289C338.823 328.084 340.535 329.601 341.571 331.561C342.605 333.525 342.891 335.798 342.376 337.958C341.861 340.117 340.579 342.016 338.769 343.301L333.466 335.831L334.275 344.957Z" fill="#48B19B" stroke="#48B19B" stroke-width="0.561"/>
<path d="M346.7 351.009C343.687 351.007 340.703 351.599 337.918 352.751C335.134 353.902 332.604 355.591 330.472 357.721C328.34 359.85 326.648 362.379 325.494 365.162C324.339 367.945 323.744 370.929 323.742 373.942C323.741 376.957 324.333 379.944 325.486 382.73C326.64 385.516 328.331 388.047 330.463 390.18C332.595 392.312 335.127 394.003 337.913 395.156C340.699 396.309 343.685 396.902 346.7 396.9C349.714 396.899 352.697 396.303 355.48 395.149C358.264 393.994 360.792 392.303 362.922 390.171C365.051 388.039 366.74 385.508 367.892 382.724C369.043 379.939 369.635 376.955 369.634 373.942C369.63 367.861 367.213 362.03 362.913 357.729C358.613 353.429 352.782 351.012 346.7 351.009Z" fill="#EB8923"/>
<path d="M461.105 430.752L420.231 539.629L484.35 430.615L461.105 430.752Z" fill="#ECAD6B"/>
</g>
<defs>
<clipPath id="clip0_64_1369">
<rect width="420.941" height="500" fill="white" transform="translate(289.529 250)"/>
</clipPath>
</defs>
</svg>
