<svg width="1001" height="1000" viewBox="0 0 1001 1000" fill="none" xmlns="http://www.w3.org/2000/svg">
<g clip-path="url(#clip0_119_296)">
<path d="M709.6 487.507C698.461 468.493 682.567 452.704 663.48 441.691C648.908 433.223 633.839 427.844 616.826 425.517V364.595C625.077 361.176 632.112 355.361 637.022 347.9C641.932 340.44 644.491 331.678 644.368 322.747C644.398 316.717 643.236 310.739 640.949 305.159C638.662 299.579 635.295 294.505 631.042 290.23C626.788 285.955 621.731 282.563 616.162 280.248C610.593 277.933 604.622 276.741 598.591 276.741C586.375 276.741 574.658 281.584 566.006 290.207C557.354 298.83 552.473 310.532 552.433 322.747C552.433 341.44 562.351 357.385 579.403 364.595V425.174C565.278 427.218 551.573 431.52 538.814 437.915L375.733 314.431C376.877 310.121 377.869 305.657 377.869 300.965C377.869 272.812 355.057 250 326.904 250C298.751 250 275.977 272.812 275.977 300.965C275.977 329.118 298.789 351.93 326.942 351.93C336.555 351.93 345.444 349.107 353.112 344.491L363.793 352.579L510.089 458.057C502.345 465.152 495.135 473.24 489.375 482.319C477.701 500.82 470.568 521.153 470.568 543.355V547.932C470.619 562.989 473.332 577.918 478.579 592.031C483.004 604.086 489.489 615.072 497.538 624.99L448.938 673.705C434.557 668.364 418.42 671.912 407.548 682.784C400.147 690.146 395.989 700.179 396.028 710.632C396.066 721.084 400.147 731.041 407.586 738.479C415.025 745.918 424.982 750.038 435.434 750.038C445.886 750.038 455.919 745.918 463.282 738.479C470.644 731.041 474.84 721.084 474.802 710.632C474.799 706.619 474.182 702.631 472.971 698.806L523.173 648.604C530.04 653.372 537.479 657.378 545.49 660.811C561.955 668.033 579.735 671.773 597.714 671.798H601.147C622.204 671.798 642.079 666.838 660.733 656.729C679.908 646.447 696.018 631.272 707.426 612.745C719.137 594.053 725.546 573.339 725.546 550.565V549.42C725.546 527.028 720.358 506.39 709.524 487.469L709.6 487.507ZM648.297 592.87C634.679 608.015 619 617.361 601.3 617.361H597.943C587.833 617.361 577.915 614.576 568.264 609.464C557.681 603.962 548.715 595.797 542.247 585.775C535.228 575.856 531.413 565.023 531.413 553.54V550.107C531.413 538.815 533.588 528.096 539.043 517.987C544.879 506.542 552.776 498.341 563.266 491.512C573.757 484.684 584.553 481.403 596.836 481.403H597.981C609.043 481.403 619.61 483.577 629.529 488.651C639.577 493.936 648.111 501.695 654.325 511.196C660.476 520.724 664.281 531.575 665.426 542.859L665.693 549.992C665.693 565.518 659.742 579.9 647.878 592.947L648.297 592.87Z" fill="#F8761F"/>
</g>
<defs>
<clipPath id="clip0_119_296">
<rect width="500" height="500" fill="white" transform="translate(250.8 250)"/>
</clipPath>
</defs>
</svg>
