<svg width="1001" height="1000" viewBox="0 0 1001 1000" fill="none" xmlns="http://www.w3.org/2000/svg">
<path d="M491.197 273.932C522.982 257.933 559.227 247.597 594.835 255.597C644.743 264.658 684.598 303.452 701.871 350.245C724.949 364.615 747.602 385.569 749.231 414.594C752.77 437.247 740.594 457.422 729.622 476.04C740.594 493.809 752.558 512.923 749.797 534.797C750.293 556.247 735.356 572.883 723.746 589.306C736.205 618.968 737.55 656.629 712.348 680.202C692.527 703.28 660.388 704.625 632.638 699.528C618.267 725.013 594.552 744.268 564.749 747.171H562.484C540.184 744.834 520.292 734.216 502.948 720.553C480.861 724.163 456.792 732.163 435.272 722.818C421.043 715.173 426.281 688.98 442.988 689.051C463.659 684.945 489.427 688.697 503.727 669.725C528.362 643.32 511.231 593.554 474.703 589.873C419.132 584.988 363.065 591.43 307.423 587.183C288.451 585.484 286.327 554.335 305.37 550.442C361.578 545.557 418.282 552.212 474.49 547.681C497.851 545.133 515.974 522.479 515.124 499.26C515.903 473.775 493.321 451.547 468.261 450.626C420.76 448.078 373.259 450.98 325.758 449.918C316.201 448.857 304.591 450.768 297.017 443.618C286.681 433.92 292.628 412.187 307.565 411.55C363.136 406.524 419.273 413.319 474.915 408.718C498.842 406.17 517.106 381.959 515.337 358.315C515.124 333.75 492.684 311.947 467.977 312.796C453.111 310.672 429.184 313.787 426.848 293.187C429.467 261.331 470.243 274.498 491.197 273.932ZM530.982 298.284C542.096 313.575 551.015 330.352 555.546 348.829C579.969 346.422 603.33 354.563 622.019 370.066C633.912 362.491 646.23 355.483 658.83 349.112C635.54 303.452 579.332 281.152 530.982 298.284ZM658.972 393.002C643.256 400.86 643.398 419.903 638.018 434.274C629.877 446.733 606.162 443.547 604.746 427.548C601.419 410.7 594.198 390.1 573.669 389.038C546.556 383.162 539.547 415.726 523.407 430.239C536.857 443.972 547.051 460.396 553.635 478.447C580.535 475.191 609.489 482.058 627.328 503.791C644.106 520.851 639.646 554.619 665.98 562.335C690.474 571.325 717.729 545.133 708.951 520.427C703.995 501.03 683.041 497.773 667.042 492.11C652.318 488.075 653.309 463.581 667.467 459.546C683.112 455.086 703.146 452.75 708.384 434.203C722.472 405.674 683.678 376.933 658.972 393.002ZM554.838 522.125C545.848 538.62 536.928 555.397 523.195 568.494C559.935 599.854 565.457 657.691 535.229 695.351C549.954 706.89 572.465 711.421 586.269 695.918C604.604 681.122 584.004 646.859 609.701 638.789C632.354 637.232 641.557 671.92 666.334 662.08C696.066 661.159 705.906 605.376 672.989 603.677C638.372 602.19 610.268 575.502 602.835 542.372C599.437 521.701 571.757 509.879 554.838 522.125Z" fill="black"/>
<path d="M364.975 346.71C393.645 333.684 429.324 342.604 460.685 341.188C481.214 340.126 486.028 371.557 467.481 378.566C437.04 381.61 406.105 380.902 375.594 379.274C360.303 378.495 353.79 356.62 364.975 346.71Z" fill="black"/>
<path d="M264.878 480.928C329.794 478.733 394.993 479.936 460.05 480.361C476.332 479.229 485.888 501.528 474.279 512.713C467.907 521.349 456.085 518.73 446.953 519.721C387.559 519.084 328.166 520.358 268.772 519.084C246.968 520.571 242.721 483.901 264.878 480.928Z" fill="black"/>
<path d="M370.151 621.171C400.237 616.852 431.102 618.834 461.401 619.825C481.293 619.188 485.965 651.186 467.276 657.274C436.695 660.035 405.759 659.469 375.177 657.77C357.125 655.787 353.94 628.462 370.151 621.171Z" fill="black"/>
<path d="M530.982 298.284C579.333 281.153 635.541 303.452 658.831 349.113C646.23 355.484 633.913 362.492 622.02 370.067C603.331 354.563 579.97 346.422 555.547 348.829C551.016 330.353 542.097 313.575 530.982 298.284Z" fill="#FAFAFC"/>
<path d="M658.977 393.007C683.683 376.938 722.477 405.679 708.389 434.208C703.151 452.755 683.117 455.091 667.472 459.551C653.314 463.586 652.323 488.08 667.047 492.115C683.046 497.778 704 501.035 708.956 520.431C717.734 545.137 690.479 571.33 665.985 562.34C639.651 554.623 644.111 520.856 627.334 503.795C609.494 482.063 580.541 475.196 553.64 478.452C547.056 460.4 536.862 443.977 523.412 430.243C539.552 415.731 546.561 383.167 573.674 389.043C594.203 390.105 601.424 410.705 604.751 427.553C606.167 443.552 629.882 446.738 638.023 434.279C643.403 419.908 643.262 400.865 658.977 393.007Z" fill="#FAFAFC"/>
<path d="M554.838 522.127C571.757 509.88 599.436 521.702 602.834 542.373C610.267 575.503 638.372 602.191 672.988 603.678C705.906 605.377 696.066 661.16 666.334 662.081C641.557 671.921 632.354 637.233 609.701 638.79C584.004 646.861 604.604 681.123 586.269 695.919C572.465 711.422 549.953 706.891 535.229 695.352C565.457 657.692 559.935 599.855 523.194 568.495C536.928 555.398 545.847 538.621 554.838 522.127Z" fill="#FAFAFC"/>
</svg>
