<svg width="1001" height="1000" viewBox="0 0 1001 1000" fill="none" xmlns="http://www.w3.org/2000/svg">
<path d="M778.18 416.667H722.623V250H611.511V416.667H667.065V583.334H611.511V416.667H500.399V583.334H555.955V750H944.847V583.334V416.667V250H778.18V416.667Z" fill="black"/>
<path d="M500.402 250H444.846V416.667H500.402V250Z" fill="black"/>
<path d="M305.954 250H278.176V416.667H305.954V250Z" fill="black"/>
<path d="M389.29 416.664H333.734V583.332H389.29V416.664Z" fill="black"/>
<path d="M194.843 416.664H167.064V583.332H194.843V416.664Z" fill="black"/>
<path d="M500.399 583.329H389.287V749.995H500.399V583.329Z" fill="black"/>
<path d="M278.179 583.329H222.623V749.995H278.179V583.329Z" fill="black"/>
<path d="M83.731 583.329H55.9531V749.995H83.731V583.329Z" fill="black"/>
</svg>
