<svg width="1000" height="1000" viewBox="0 0 1000 1000" fill="none" xmlns="http://www.w3.org/2000/svg">
<g clip-path="url(#clip0_57_305)">
<path d="M453.267 267.171L266.234 458.561C203.04 536.819 309.24 527.714 354.766 550.254C371.097 566.947 292.171 579.268 308.502 595.975C324.833 612.668 407.253 628.135 423.612 644.828C439.943 661.521 390.184 679.231 406.515 695.923C422.846 712.616 460.618 696.801 467.69 735.338C472.73 762.876 535.756 747.172 566.581 724.617C582.911 707.911 535.339 709.484 551.67 692.791C592.281 651.261 630.094 677.699 643.989 636.085C650.853 615.522 584.206 604.384 600.565 587.691C647.553 560.25 809.957 542.388 732.897 465.328L539.028 267.171C515.318 244.408 475.751 244.157 453.267 267.171ZM668.102 636.085C668.102 645.58 738.062 651.804 738.062 633.844C728.094 604.997 676.372 606.946 668.102 636.085ZM352.956 686.54C369.524 700.866 395.113 682.976 402.784 662.983C386.732 641.654 326.643 663.749 352.956 686.54ZM659.331 655.59C637.974 674.748 661.726 694.183 682.776 681.806C687.468 677.045 682.651 660.352 659.331 655.59Z" fill="black"/>
<path d="M408.506 560.612C413.504 563.717 489.103 579.073 507.578 582.136C513.982 583.487 509.443 590.086 500.617 594.541C480.708 599.831 384.142 560.612 408.506 560.612ZM527.723 280.592L601.721 355.745C608.738 362.915 608.64 376.809 604.714 380.805L567.973 351.415L560.747 394.936L530.048 378.731L480.889 409.791L464.613 344.314L438.203 390.008H397.828C381.372 390.008 379.436 369.124 394.389 354.172C420.507 325.979 450.482 297.243 466.771 280.592C483.144 263.857 511.671 264.331 527.723 280.592Z" fill="white"/>
</g>
<defs>
<clipPath id="clip0_57_305">
<rect width="506.655" height="500" fill="white" transform="translate(246.673 250)"/>
</clipPath>
</defs>
</svg>
