<svg width="1000" height="1000" viewBox="0 0 1000 1000" fill="none" xmlns="http://www.w3.org/2000/svg">
<path d="M301.894 646.354C299.937 646.354 297.98 646.354 296.023 647.003C282.323 648.311 269.955 655.481 260.819 666.558C252.341 677.643 248.435 690.669 249.734 704.369C251.298 716.939 257.391 728.507 266.872 736.907C276.352 745.307 288.57 749.962 301.237 750C303.194 750 305.151 750 307.108 749.35C320.807 748.043 333.176 740.872 342.312 730.445C350.79 719.36 354.696 706.334 353.396 692.634C350.79 665.909 327.978 646.354 301.894 646.354ZM749.1 446.224C742.579 392.115 716.503 341.92 675.514 306.066C635.019 269.555 582.867 250 528.186 250C519.708 250 511.238 250.65 502.76 251.307C380.78 264.999 292.766 374.517 307.116 495.777C313.637 549.886 339.713 600.081 380.701 635.934C421.69 671.788 473.921 692 528.03 692C536.508 692 544.978 691.351 553.456 690.693C675.358 676.923 762.784 566.826 749.1 446.224Z" fill="#21C0C0"/>
</svg>
