<svg width="1001" height="1000" viewBox="0 0 1001 1000" fill="none" xmlns="http://www.w3.org/2000/svg">
<path d="M362.881 610.445C285.734 609.827 230.422 533.881 257.271 462.81C264.793 443.154 277.626 425.973 294.34 413.182C311.053 400.391 330.99 392.492 351.929 390.366C365.113 388.993 380.941 389.336 393.644 387.001C458.878 374.881 509.28 324.995 519.477 261.443C521.743 247.366 520.542 230.543 523.872 215.607C539.288 146.391 618.599 107.559 685.206 138.837C719.917 155.18 743.23 186.012 748.964 222.852C750.131 230.405 750.52 239.767 750.131 250.937C742.578 451.514 571.253 612.093 362.881 610.411M460.08 642.341C459.762 642.21 459.505 641.965 459.359 641.654L459.325 641.448L459.393 641.242C459.393 641.174 459.428 641.128 459.496 641.105L459.702 641.002C538.853 622.874 607.429 586.423 665.43 531.649C666.46 530.688 667.41 530.768 668.28 531.889C677.55 544.147 687.3 557.296 695.06 569.862C726.7 620.514 745.389 678.173 749.479 737.754C750.326 749.886 750.589 759.259 750.268 765.874C747.384 824.413 698.425 871.621 636.624 871.965C581.965 872.308 533.898 834.987 523.529 782.8C521.057 770.44 521.812 753.342 519.752 740.295C513.297 700.125 493.67 667.622 460.87 642.787L460.08 642.341ZM344.41 870.317C297.956 862.248 260.601 826.164 252.258 781.289C250.92 772.002 250.346 762.62 250.542 753.239V604.78C250.542 604.299 250.725 604.219 251.091 604.54C281.442 631.526 313.372 648.006 355.053 650.753L366.246 651.096C420.528 652.847 466.5 688.417 477.11 740.089C492.8 816.481 423.652 884.119 344.41 870.317Z" fill="black"/>
<path d="M356.354 128.178C416.987 123.921 470.479 166.117 478.273 224.381C485.689 279.727 447.819 333.254 390.894 345.785C376.645 348.944 360.783 348.051 345.676 349.974C309.925 354.184 276.661 370.405 251.327 395.981L251.053 396.119L250.709 396.084L250.503 395.913L250.4 395.604C250.4 395.398 250.458 395.214 250.572 395.054C250.725 394.832 250.808 394.569 250.812 394.299C250.429 342.33 250.314 290.36 250.469 238.39C250.572 180.709 296.099 132.436 356.354 128.178Z" fill="black"/>
</svg>
