<svg width="1000" height="1000" viewBox="0 0 1000 1000" fill="none" xmlns="http://www.w3.org/2000/svg">
<path opacity="0.2" d="M500 726.562C620.812 726.562 718.75 628.625 718.75 507.812C718.75 387 620.812 289.062 500 289.062C379.188 289.062 281.25 387 281.25 507.812C281.25 628.625 379.188 726.562 500 726.562Z" fill="black"/>
<path d="M499.906 713.508C617.728 713.508 713.242 617.977 713.242 500.133C713.242 382.289 617.728 286.758 499.906 286.758C382.084 286.758 286.57 382.289 286.57 500.133C286.57 617.977 382.084 713.508 499.906 713.508Z" fill="white"/>
<path d="M689.399 390.709C660.383 340.444 612.592 303.766 556.538 288.743C500.485 273.721 440.76 281.585 390.504 310.606C357.023 330.044 329.298 358.018 310.158 391.674L499.907 500.131L689.399 390.709Z" fill="#E040FB"/>
<path d="M689.4 390.709L499.908 500.131L498.936 718.746C537.653 718.987 575.74 708.95 609.311 689.657C634.195 675.287 656.006 656.156 673.498 633.356C690.991 610.556 703.821 584.533 711.258 556.773C718.695 529.013 720.593 500.06 716.842 471.566C713.092 443.073 703.767 415.598 689.4 390.709Z" fill="#FDFD4B"/>
<path d="M499.907 500.132L310.158 391.674C291.172 424.85 281.205 462.422 281.25 500.648C281.295 538.875 291.351 576.423 310.415 609.554C329.566 642.637 357.047 670.126 390.123 689.284C423.198 708.441 460.714 718.599 498.935 718.746L499.907 500.132Z" fill="#18FFFF"/>
<path opacity="0.2" d="M500 281.25C471.273 281.25 442.828 286.908 416.288 297.901C389.748 308.895 365.633 325.008 345.32 345.32C325.008 365.633 308.895 389.748 297.901 416.288C286.908 442.828 281.25 471.273 281.25 500C281.285 501.282 281.33 502.564 281.387 503.845C282.427 446.543 305.913 391.938 346.795 351.772C387.676 311.606 442.689 289.089 500 289.062C557.301 289.105 612.297 311.629 653.166 351.793C694.035 391.957 717.512 446.554 718.552 503.845C718.629 502.564 718.695 501.282 718.75 500C718.75 471.273 713.092 442.828 702.099 416.288C691.105 389.748 674.992 365.633 654.68 345.32C634.367 325.008 610.252 308.895 583.712 297.901C557.172 286.908 528.727 281.25 500 281.25Z" fill="white"/>
<path opacity="0.1" d="M543.097 529.156C509.311 560.27 444.312 510.916 416.877 479.92C388.658 448.039 283.293 340.514 275.591 333.54C267.89 326.567 261.757 317.955 268.567 309.387C275.656 301.042 285.459 305.188 293.962 311.186C302.465 317.185 430.808 396.75 468.238 417.422C504.629 437.52 566.971 490.107 543.097 529.156Z" fill="black"/>
<path d="M543.097 521.343C509.311 552.457 444.312 503.104 416.877 472.108C388.658 440.227 283.293 332.701 275.591 325.727C267.89 318.754 261.757 310.142 268.567 301.574C275.656 293.23 285.459 297.375 293.962 303.374C302.465 309.372 430.808 388.937 468.238 409.609C504.629 429.708 566.971 482.295 543.097 521.343Z" fill="#4F4F4F"/>
<path opacity="0.1" d="M592.187 552.184C468.749 659.73 355.787 563.675 339.404 526.034C349.092 591.368 393.874 649.834 461.524 672.334C512.617 689.328 617.785 678.065 625.697 625.96L592.187 552.184Z" fill="black"/>
<path d="M592.187 544.372C468.749 651.917 355.787 555.862 339.404 518.221C349.092 583.555 393.874 642.021 461.524 664.522C512.617 681.515 617.785 670.252 625.697 618.147L592.187 544.372Z" fill="#4883F7"/>
<path opacity="0.1" d="M590.27 567.519C579.709 572.274 580.851 575.711 571.475 574.228C565.008 573.206 508.983 531.456 508.983 531.456C506.143 524.756 509.55 515.546 515.948 508.256C521.883 500.597 530.347 495.42 537.601 496.769C537.601 496.769 590.716 542.045 593.068 548.055C596.479 556.769 592.823 556.38 590.27 567.519Z" fill="black"/>
<path d="M590.27 559.707C579.709 564.462 580.851 567.898 571.475 566.416C565.008 565.393 508.983 523.643 508.983 523.643C506.143 516.944 509.55 507.733 515.948 500.444C521.883 492.784 530.347 487.607 537.601 488.956C537.601 488.956 590.716 534.233 593.068 540.243C596.479 548.957 592.823 548.567 590.27 559.707Z" fill="#9B9B9B"/>
<path opacity="0.1" d="M600.676 659.125C640.39 636.786 649.727 596.533 634.045 568.062C621.86 545.938 601.851 541.755 588.032 552.453C574.322 563.065 573.114 575.711 577.203 588.27C585.543 613.886 621.306 632.706 600.676 659.125Z" fill="black"/>
<path d="M600.676 651.312C640.39 628.974 649.727 588.721 634.045 560.25C621.86 538.126 601.851 533.943 588.032 544.64C574.322 555.253 573.114 567.899 577.203 580.458C585.543 606.073 621.306 624.893 600.676 651.312Z" fill="#3F3F3F"/>
</svg>
