<svg width="1001" height="1000" viewBox="0 0 1001 1000" fill="none" xmlns="http://www.w3.org/2000/svg">
<g clip-path="url(#clip0_119_299)">
<path d="M200.701 543.613L202.199 319.025C202.461 278.368 230.895 243.514 270.148 235.746L487.042 192.749C539.155 182.416 587.524 223.204 587.187 277.17L585.69 501.795C585.409 542.434 556.975 577.269 517.722 585.056L300.828 628.053C248.715 638.386 200.346 597.598 200.701 543.613Z" fill="#111827" fill-opacity="0.2"/>
<path d="M306.965 633.22L308.463 408.595C308.706 367.975 337.159 333.139 376.412 325.352L593.306 282.374C645.419 272.041 693.788 312.811 693.433 366.796L691.935 591.421C691.673 632.059 663.239 666.895 623.986 674.682L407.092 717.679C354.979 727.993 306.61 687.223 306.965 633.257V633.22Z" fill="#111827" fill-opacity="0.5"/>
<path d="M413.232 722.827L414.729 498.202C414.991 457.545 443.425 422.728 482.678 414.941L699.573 371.944C751.686 361.611 800.055 402.399 799.699 456.365L798.202 680.99C797.94 721.648 769.506 756.483 730.253 764.251L513.358 807.248C461.245 817.581 412.876 776.793 413.213 722.827H413.232Z" fill="#111827" fill-opacity="0.8"/>
</g>
<defs>
<clipPath id="clip0_119_299">
<rect width="599" height="617.719" fill="white" transform="translate(200.699 191.141)"/>
</clipPath>
</defs>
</svg>
