<svg width="1000" height="1000" viewBox="0 0 1000 1000" fill="none" xmlns="http://www.w3.org/2000/svg">
<g clip-path="url(#clip0_57_316)">
<path d="M500.321 330.57C525.146 331.633 546.896 331.705 571.805 335.504C721.977 358.412 854.097 461.507 897.829 609.009C899.543 614.792 905.385 633.387 905.003 638.076C904.865 639.754 903.73 641.081 902.655 642.269L820.216 642.777C816.907 641.194 811.555 619.493 809.577 614.314C769.107 508.351 664.327 433.241 552.869 418.415C535.439 416.097 517.859 415.745 500.315 414.694C500.345 443.115 500.303 471.585 500.315 500C514.066 500.747 527.159 500.586 541.024 502.539C635.243 515.83 714.062 581.639 739.318 673.917C740.602 678.612 744.431 690.445 742.603 694.298L740.25 696.687H658.497C651.819 681.849 646.897 667.435 637.542 653.661C604.796 605.431 556.316 588.401 500.321 585.313C500.351 613.34 500.303 641.415 500.315 669.442C534.19 669.054 565.533 688.354 575.813 721.316C577.103 725.443 583.196 750.006 576.739 750.006H501.504C501.886 748.841 500.321 747.438 500.321 747.043V670.619C475.226 669.305 450.269 668.272 425.426 664.353C279.561 641.314 146.359 537.776 102.813 394.545C100.818 387.98 94.4919 367.539 94.9996 361.942C95.3819 357.683 97.6996 357.056 101.606 356.614C124.747 353.968 152.661 358.681 176.334 356.572C184.159 357.594 185.742 374.003 188.394 381.242C225.489 482.51 318.657 555.738 423.299 577.613C449.696 583.132 473.649 583.831 500.327 585.301C500.297 556.879 500.339 528.41 500.327 499.994C399.274 494.517 314.768 455.874 272.285 358.961C267.883 348.92 256.294 318.175 256.3 308.468C256.3 306.742 257.859 303.313 259.215 303.313H340.968C346.38 310.857 348.148 321.15 352.365 329.829C381.223 389.151 438.305 410.96 500.327 414.688C500.297 386.666 500.404 358.591 500.327 330.564C466.057 329.094 435.157 313.868 424.16 279.36C421.681 271.576 417.577 256.404 422.72 249.994H497.364C499.467 251.804 500.04 253.823 500.351 256.487C502.818 277.603 500.261 308.277 500.327 330.564L500.321 330.57Z" fill="#FD8117"/>
</g>
<defs>
<clipPath id="clip0_57_316">
<rect width="810.057" height="500" fill="white" transform="translate(94.9707 250)"/>
</clipPath>
</defs>
</svg>
