<svg width="1001" height="1000" viewBox="0 0 1001 1000" fill="none" xmlns="http://www.w3.org/2000/svg">
<g clip-path="url(#clip0_119_298)">
<mask id="mask0_119_298" style="mask-type:luminance" maskUnits="userSpaceOnUse" x="250" y="250" width="501" height="500">
<path d="M750.199 250H250.199V750H750.199V250Z" fill="white"/>
</mask>
<g mask="url(#mask0_119_298)">
<path d="M623.69 250H376.712C306.84 250 250.199 306.641 250.199 376.512V623.491C250.199 693.359 306.84 750 376.712 750H623.69C693.559 750 750.199 693.359 750.199 623.491V376.512C750.199 306.641 693.559 250 623.69 250Z" fill="#00DDB3"/>
<path d="M623.69 250H376.712C306.84 250 250.199 306.641 250.199 376.512V623.491C250.199 693.359 306.84 750 376.712 750H623.69C693.559 750 750.199 693.359 750.199 623.491V376.512C750.199 306.641 693.559 250 623.69 250Z" fill="#00DDB3"/>
<path d="M630.212 361.988C544.144 361.988 512.252 423.441 486.607 472.808L469.851 504.394C442.697 556.75 422.405 588.575 370.121 588.575C366.875 588.574 363.66 589.211 360.66 590.453C357.661 591.695 354.935 593.517 352.641 595.814C350.346 598.11 348.526 600.835 347.285 603.833C346.044 606.831 345.405 610.045 345.406 613.291C345.407 616.536 346.047 619.749 347.29 622.747C348.533 625.744 350.355 628.469 352.65 630.763C357.285 635.395 363.568 638.003 370.121 638.014C456.223 638.014 488.116 576.558 513.762 527.192L530.482 495.608C557.669 443.249 577.962 411.427 630.212 411.427C633.46 411.431 636.679 410.797 639.683 409.556C642.687 408.316 645.416 406.494 647.715 404.198C650.013 401.902 651.837 399.175 653.08 396.174C654.326 393.173 654.966 389.956 654.965 386.707C654.952 380.15 652.34 373.865 647.699 369.231C643.058 364.598 636.769 361.991 630.212 361.988Z" fill="white"/>
</g>
</g>
<defs>
<clipPath id="clip0_119_298">
<rect width="500" height="500" fill="white" transform="translate(250.199 250)"/>
</clipPath>
</defs>
</svg>
