<svg width="1001" height="1000" viewBox="0 0 1001 1000" fill="none" xmlns="http://www.w3.org/2000/svg">
<path d="M500.2 562.5V750L446.959 718.572V593.75L500.2 562.5Z" fill="#FF8F8F"/>
<path d="M713.162 562.5L659.922 593.75L500.199 500L340.477 593.75L287.236 562.5L500.199 437.5L713.162 562.5Z" fill="#FF3D3D"/>
<path d="M500.2 312.5V437.5L446.959 468.75V281.25L500.2 312.5Z" fill="#FF8F8F"/>
<path d="M713.163 562.5V625L659.922 656.25V593.75L713.163 562.5Z" fill="#C90C0C"/>
<path d="M553.44 593.75V718.75L500.199 750V562.5L553.44 593.75Z" fill="#C90C0C"/>
<path d="M713.162 437.5L606.68 500L553.439 468.75L713.162 375V437.5Z" fill="#C90C0C"/>
<path d="M713.162 375L553.439 468.75V406.25L659.921 343.75L713.162 375Z" fill="#FF3D3D"/>
<path d="M446.959 468.75L393.718 500L287.236 437.5V375L446.959 468.75Z" fill="#FF8F8F"/>
<path d="M446.959 406.25V468.75L287.236 375L340.477 343.75L446.959 406.25Z" fill="#FF3D3D"/>
<path d="M340.477 593.75V656.25L287.236 625V562.5L340.477 593.75Z" fill="#FF8F8F"/>
<path d="M500.199 500V562.5L340.477 656.25V593.75L500.199 500Z" fill="#C90C0C"/>
<path d="M659.921 656.25L500.199 562.5V500L659.921 593.75V656.25Z" fill="#FF8F8F"/>
<path d="M553.44 281.25L500.2 312.5L446.959 281.25L500.2 250L553.44 281.25Z" fill="#FF3D3D"/>
<path d="M553.44 281.25V468.75L500.199 437.5V312.5L553.44 281.25Z" fill="#C90C0C"/>
</svg>
