<svg width="1001" height="1000" viewBox="0 0 1001 1000" fill="none" xmlns="http://www.w3.org/2000/svg">
<path d="M542.266 499.983C542.266 453.959 504.956 416.65 458.933 416.65C412.909 416.65 375.6 453.959 375.6 499.983C375.6 592.031 450.219 666.65 542.266 666.65C634.314 666.65 708.933 592.031 708.933 499.983C708.933 425.941 676.745 359.417 625.6 313.641" stroke="white" stroke-width="41.6667" stroke-linecap="round" stroke-linejoin="round"/>
<path d="M458.933 499.999C458.933 546.022 496.243 583.332 542.266 583.332C588.289 583.332 625.6 546.022 625.6 499.999C625.6 407.951 550.981 333.332 458.933 333.332C366.886 333.332 292.266 407.951 292.266 499.999C292.266 574.667 325.001 641.69 376.902 687.499" stroke="#F56565" stroke-width="41.6667" stroke-linecap="round" stroke-linejoin="round"/>
</svg>
