<svg width="1000" height="1000" viewBox="0 0 1000 1000" fill="none" xmlns="http://www.w3.org/2000/svg">
<g clip-path="url(#clip0_56_206)">
<path d="M465.394 419.375C493.998 419.375 441.185 566.792 447.79 630.583C454.394 694.396 524.789 676.792 520.394 639.396C511.581 575.583 555.602 375.396 597.394 375.396C628.185 375.396 562.185 511.792 575.394 597.583C584.185 652.583 658.977 637.188 650.185 599.792C625.977 487.583 705.185 379.792 694.185 300.604C689.789 267.604 669.977 250 650.185 250C579.789 250 522.581 395.208 522.581 395.208C522.581 395.208 531.394 313.792 471.998 309.396C388.394 305 302.602 516.188 304.79 707.583C306.998 769.188 381.789 758.188 377.394 709.792C372.998 623.958 421.394 419.375 465.414 419.375H465.394Z" fill="#08B7FF"/>
</g>
<defs>
<clipPath id="clip0_56_206">
<rect width="500" height="500" fill="white" transform="translate(250 250)"/>
</clipPath>
</defs>
</svg>
