<svg width="1000" height="1000" viewBox="0 0 1000 1000" fill="none" xmlns="http://www.w3.org/2000/svg">
<g clip-path="url(#clip0_119_336)">
<path d="M250 684.917L490.904 306.773L620.03 389.037L431.532 684.917H250Z" fill="#FBBC04"/>
<path d="M485.811 304.801H634.1V684.917H485.811V304.801Z" fill="#1A73E8"/>
<path d="M332.146 458.124C372.74 458.124 405.648 425.216 405.648 384.623C405.648 344.029 372.74 311.121 332.146 311.121C291.552 311.121 258.644 344.029 258.644 384.623C258.644 425.216 291.552 458.124 332.146 458.124Z" fill="#EA4335"/>
<path d="M739.716 579.302C739.716 607.313 728.589 634.177 708.782 653.984C688.975 673.79 662.111 684.918 634.1 684.918V473.695C662.109 473.695 688.972 484.821 708.778 504.626C728.585 524.431 739.713 551.292 739.716 579.302Z" fill="#34A853"/>
<path d="M634.1 473.695V684.918C606.266 684.65 579.664 673.405 560.077 653.628C540.49 633.851 529.502 607.141 529.502 579.307C529.502 551.472 540.49 524.762 560.077 504.985C579.664 485.209 606.266 473.964 634.1 473.695Z" fill="#0D652D"/>
<path d="M715.382 392.413C715.38 413.97 706.815 434.643 691.572 449.886C676.329 465.129 655.657 473.693 634.1 473.696V311.121C655.658 311.124 676.333 319.69 691.576 334.935C706.819 350.179 715.382 370.855 715.382 392.413Z" fill="#1A73E8"/>
<path d="M634.1 311.121V473.696C612.696 473.461 592.248 464.793 577.196 449.574C562.143 434.355 553.701 413.814 553.701 392.408C553.701 371.003 562.143 350.462 577.196 335.243C592.248 320.024 612.696 311.356 634.1 311.121Z" fill="#174EA6"/>
</g>
<defs>
<clipPath id="clip0_119_336">
<rect width="500" height="390.4" fill="white" transform="translate(250 304.801)"/>
</clipPath>
</defs>
</svg>
