<svg width="1000" height="1000" viewBox="0 0 1000 1000" fill="none" xmlns="http://www.w3.org/2000/svg">
<g clip-path="url(#clip0_61_680)">
<path d="M725.658 321.429H238.612C225.176 321.429 214.285 332.32 214.285 345.755V725.674C214.285 739.109 225.176 750 238.612 750H725.658C739.093 750 749.984 739.109 749.984 725.674V345.755C749.984 332.32 739.093 321.429 725.658 321.429Z" fill="url(#paint0_linear_61_680)"/>
<path d="M481.693 552.591C480.519 551.527 478.991 550.937 477.406 550.937C475.821 550.937 474.293 551.527 473.118 552.591C455.421 567.795 434.044 570.836 417.198 565.453C408.988 562.747 402.541 557.335 395.912 550.249C390.682 544.168 361.399 507.252 349.783 496.336C338.037 485.258 323.181 478.042 307.212 475.658C291.66 473.401 275.798 476.307 262.056 483.929C249.173 491.082 239.16 502.47 233.715 516.162C233.225 517.498 233.195 518.96 233.63 520.315C234.065 521.671 234.941 522.842 236.118 523.642C237.328 524.431 238.761 524.807 240.202 524.714C241.644 524.621 243.017 524.063 244.115 523.125C261.843 507.921 283.189 504.881 300.066 510.263C308.246 512.969 314.692 518.382 321.352 525.467C326.582 531.548 355.895 568.464 367.481 579.38C379.227 590.458 394.083 597.674 410.052 600.058C425.604 602.322 441.468 599.416 455.208 591.787C468.091 584.634 478.103 573.246 483.548 559.554C484.022 558.347 484.097 557.021 483.763 555.768C483.43 554.516 482.704 553.402 481.693 552.591Z" fill="white"/>
<path d="M476.738 550.949C476.305 552.078 476.21 553.309 476.462 554.492C476.714 555.676 477.304 556.76 478.159 557.616C479.014 558.471 480.099 559.061 481.282 559.313C482.465 559.565 483.696 559.469 484.826 559.037L498.297 552.773L483.093 537.417L476.738 550.949Z" fill="#1E2021"/>
<path d="M503.831 485.784L481.602 531.184C481.088 532.198 480.944 533.361 481.194 534.47C481.443 535.58 482.072 536.568 482.971 537.265L498.175 552.621C498.89 553.542 499.905 554.183 501.044 554.433C502.183 554.683 503.373 554.526 504.409 553.99L549.808 531.731C550.715 531.287 551.547 530.702 552.271 529.998L505.473 483.2C504.803 483.977 504.25 484.848 503.831 485.784Z" fill="#CCCCCC"/>
<path d="M784.528 291.477C773.582 275.782 759.941 262.151 744.237 251.216C743.332 250.465 742.191 250.053 741.014 250.053C739.837 250.053 738.697 250.465 737.791 251.216L505.564 483.443L552.393 530.089L784.589 297.893C785.319 296.98 785.711 295.843 785.7 294.674C785.689 293.505 785.275 292.376 784.528 291.477Z" fill="#333333"/>
</g>
<defs>
<linearGradient id="paint0_linear_61_680" x1="726.266" y1="721.781" x2="264.611" y2="369.93" gradientUnits="userSpaceOnUse">
<stop stop-color="#2CD2D5"/>
<stop offset="1" stop-color="#0C34FB"/>
</linearGradient>
<clipPath id="clip0_61_680">
<rect width="571.429" height="500" fill="white" transform="translate(214.285 250)"/>
</clipPath>
</defs>
</svg>
