<svg width="1001" height="1000" viewBox="0 0 1001 1000" fill="none" xmlns="http://www.w3.org/2000/svg">
<g clip-path="url(#clip0_61_760)">
<path d="M422.249 517.354C421.985 515.141 423.194 510.5 419.484 506.755C416.416 503.662 411.447 502.671 405.337 503.777C376.409 508.789 345.746 542.435 345.686 542.486C332.454 555.727 324.068 571.248 319.567 588.199C317.537 595.855 316.381 603.717 316.12 611.633C315.303 638.808 325.353 665.97 345.741 686.967C371.891 713.98 399.248 721.928 411.068 725.812C485.099 750 567.653 724.408 626.844 665.706C710.232 583.004 711.432 448.798 630.193 364.602C672.753 408.596 664.324 486.584 612.949 537.542C608.771 541.682 584.629 564.87 551.085 575.107C521.549 584.169 499.136 581.97 479.87 576.758C459.899 571.38 442.672 556.612 436.375 550.264C430.078 543.916 423.917 531.194 422.249 517.354Z" fill="url(#paint0_linear_61_760)"/>
<path d="M585.175 340.95C587.828 346.827 590.108 352.867 591.999 359.032C598.037 378.656 600.51 399.204 599.3 419.7C594.654 498.88 557.021 569.103 487.147 565.002C446.187 562.598 429.781 533.7 421.803 517.081C420.578 588.807 494.635 624.963 538.343 627.533C661.916 634.783 681.109 521.634 682.552 497.071C683.326 483.878 680.688 463.668 677.582 451.393C677.404 450.631 677.191 449.877 676.944 449.134C663.722 402.115 634.873 361.004 595.152 332.581C589.493 328.577 582.328 334.661 585.175 340.95Z" fill="url(#paint1_linear_61_760)"/>
<path d="M476.28 269.229C480.274 262.412 486.755 257.409 494.362 255.273C501.968 253.137 510.106 254.034 517.065 257.776C524.024 261.517 529.26 267.811 531.673 275.334C534.086 282.857 533.488 291.023 530.004 298.114L421.51 518.409L352.35 481.223L476.28 269.233V269.229Z" fill="url(#paint2_linear_61_760)"/>
<path d="M273.535 608.331C263.231 570.826 284.844 530.632 321.809 518.545C358.77 506.457 397.087 527.054 407.392 564.559C417.693 602.06 396.083 642.254 359.119 654.346L301.114 673.313C299.963 673.703 298.745 673.852 297.534 673.75C296.323 673.649 295.146 673.3 294.076 672.724C293.006 672.149 292.066 671.36 291.313 670.406C290.561 669.452 290.013 668.353 289.703 667.178L273.535 608.331Z" fill="url(#paint3_radial_61_760)"/>
<path d="M333.862 515.805L403.022 552.991L421.615 518.409L352.455 481.223L333.862 515.805Z" fill="url(#paint4_linear_61_760)"/>
<path d="M646.539 315.06C645.432 314.272 644.529 313.23 643.906 312.022C643.283 310.814 642.958 309.474 642.958 308.115C642.958 306.755 643.283 305.415 643.906 304.207C644.529 302.999 645.432 301.957 646.539 301.169L660.112 291.515C665.354 287.787 669.935 283.207 673.663 277.964L683.317 264.391C684.105 263.283 685.147 262.379 686.356 261.756C687.564 261.132 688.905 260.807 690.265 260.807C691.625 260.807 692.965 261.132 694.174 261.756C695.382 262.379 696.424 263.283 697.212 264.391L706.862 277.964C710.59 283.206 715.171 287.787 720.413 291.515L733.986 301.169C735.094 301.957 735.998 302.998 736.621 304.207C737.245 305.415 737.57 306.755 737.57 308.115C737.57 309.474 737.245 310.814 736.621 312.023C735.998 313.231 735.094 314.272 733.986 315.06L720.413 324.714C715.171 328.442 710.59 333.023 706.862 338.265L697.212 351.838C696.424 352.946 695.382 353.85 694.174 354.473C692.965 355.097 691.625 355.422 690.265 355.422C688.905 355.422 687.564 355.097 686.356 354.473C685.147 353.85 684.105 352.946 683.317 351.838L673.663 338.265C669.936 333.023 665.357 328.442 660.116 324.714L646.539 315.06Z" fill="url(#paint5_linear_61_760)"/>
<path d="M533.084 397.129C524.83 391.262 524.83 379.004 533.084 373.137L556.523 356.471C565.573 350.036 573.48 342.129 579.915 333.079L596.581 309.636C602.453 301.386 614.706 301.386 620.578 309.636L637.239 333.079C643.677 342.129 651.587 350.036 660.64 356.471L684.075 373.137C692.329 379.008 692.329 391.262 684.075 397.133L660.635 413.795C651.584 420.231 643.675 428.139 637.239 437.191L620.573 460.63C614.706 468.884 602.448 468.884 596.581 460.63L579.915 437.191C573.48 428.14 565.573 420.231 556.523 413.795L533.084 397.129Z" fill="url(#paint6_linear_61_760)"/>
</g>
<defs>
<linearGradient id="paint0_linear_61_760" x1="422.194" y1="734.883" x2="737.849" y2="514.205" gradientUnits="userSpaceOnUse">
<stop stop-color="#C640F0"/>
<stop offset="1" stop-color="#F3CBFF"/>
</linearGradient>
<linearGradient id="paint1_linear_61_760" x1="489.589" y1="627.865" x2="620.263" y2="411.756" gradientUnits="userSpaceOnUse">
<stop offset="0.285" stop-color="#E9ACFA"/>
<stop offset="0.951" stop-color="#C640F0"/>
</linearGradient>
<linearGradient id="paint2_linear_61_760" x1="417.719" y1="362.959" x2="485.904" y2="402.63" gradientUnits="userSpaceOnUse">
<stop stop-color="#E9ACFA"/>
<stop offset="0.872" stop-color="#8260F6"/>
</linearGradient>
<radialGradient id="paint3_radial_61_760" cx="0" cy="0" r="1" gradientUnits="userSpaceOnUse" gradientTransform="translate(313.729 550.298) rotate(67.331) scale(185.86 162.821)">
<stop stop-color="#E9ACFA"/>
<stop offset="0.659" stop-color="#4B35F1"/>
</radialGradient>
<linearGradient id="paint4_linear_61_760" x1="338.185" y1="473.551" x2="421.615" y2="518.409" gradientUnits="userSpaceOnUse">
<stop stop-color="#AA6CF5"/>
<stop offset="1" stop-color="#4B35F1"/>
</linearGradient>
<linearGradient id="paint5_linear_61_760" x1="642.957" y1="260.809" x2="736.679" y2="346.511" gradientUnits="userSpaceOnUse">
<stop offset="0.191" stop-color="#C886F8"/>
<stop offset="0.774" stop-color="#4B35F1"/>
</linearGradient>
<linearGradient id="paint6_linear_61_760" x1="526.894" y1="303.449" x2="688.721" y2="451.427" gradientUnits="userSpaceOnUse">
<stop offset="0.217" stop-color="#C886F8"/>
<stop offset="0.769" stop-color="#4B35F1"/>
</linearGradient>
<clipPath id="clip0_61_760">
<rect width="474.34" height="500" fill="white" transform="translate(263.23 250)"/>
</clipPath>
</defs>
</svg>
