<svg width="1001" height="1000" viewBox="0 0 1001 1000" fill="none" xmlns="http://www.w3.org/2000/svg">
<g clip-path="url(#clip0_119_259)">
<path d="M720.83 609.164C722.124 612.521 721.063 615.332 718.195 617.639C691.331 639.264 663.134 658.878 632.443 674.751L606.818 687.984C612.104 692.206 618.07 693.393 624.403 693.156C631.335 692.896 637.144 689.714 642.509 685.621C648.919 680.731 654.983 675.32 661.718 670.936C678.027 660.32 695.604 661.28 711.031 673.25C717.583 678.335 723.607 684.144 730.405 688.851C733.693 691.128 737.902 692.368 741.937 693.26L742.831 693.452C747.727 694.484 750.703 696.95 750.376 701.178C750.052 705.373 746.728 707.824 741.709 707.5C731.074 706.813 722.738 701.327 714.925 694.695C710.047 690.555 705.334 686.141 700.07 682.55C690.308 675.891 679.947 675.696 670.001 682.089C664.138 685.857 658.808 690.466 653.322 694.802C644.48 701.789 634.938 706.934 623.295 707.11C610.525 707.302 600.249 701.573 590.834 693.699C587.467 690.883 584.132 688.026 580.702 685.289C567.837 675.028 554.659 675.033 541.75 685.296C540.246 686.492 538.758 687.708 537.273 688.929L534.304 691.372C531.829 693.405 529.342 695.422 526.788 697.352C510.986 709.295 492.891 709.865 476.517 698.682C470.559 694.613 465.129 689.773 459.447 685.298C446.537 675.13 435.822 675.161 422.682 685.254L421.607 686.082L418.385 688.572C414.086 691.892 409.762 695.183 405.221 698.135C388.111 709.26 370.696 708.795 353.69 698.042C346.653 693.593 340.228 688.176 333.563 683.138L332.561 682.385C329.901 680.399 327.272 678.364 324.541 676.479C320.731 673.85 316.63 673.114 312.506 675.619C305.217 680.045 298.014 684.61 290.795 689.15C283.973 693.439 277.381 698.153 270.287 701.927C266.444 703.971 261.826 704.922 257.444 705.482C253.367 706.002 250.562 702.974 250.407 699.155C250.254 695.392 252.711 693.029 256.53 691.944L256.751 691.883C260.811 690.796 264.992 689.419 268.513 687.204C278.45 680.958 288.078 674.219 297.817 667.659C298.093 667.473 298.254 667.119 298.584 666.695L292.538 655.262C290.52 651.446 288.504 647.625 286.498 643.797C282.981 637.082 285.27 632.578 292.821 632.038C313.177 630.584 333.549 629.336 353.915 628.025L471.143 620.501C498.851 618.719 526.558 616.919 554.266 615.131C593.341 612.609 632.416 610.091 671.491 607.574C681.881 606.904 692.272 606.251 702.662 605.572L713.051 604.883C716.63 604.642 719.503 605.723 720.83 609.164ZM691.102 621.036L690.755 620.184L302.85 645.158L303.808 646.947C306.323 651.658 308.548 655.913 310.981 660.046C311.206 660.426 311.99 660.504 312.812 660.531L313.651 660.552C313.737 660.555 313.822 660.558 313.904 660.562L314.142 660.576C317.513 660.825 321.198 660.231 324.191 661.412C328.97 663.298 333.535 666 337.748 668.983C345.287 674.32 352.261 680.469 359.896 685.654C373.461 694.866 386.237 694.591 399.581 685.251C405.214 681.31 410.555 676.956 416.134 672.936C433.58 660.367 450.107 660.628 467.138 673.75C472.114 677.585 476.857 681.723 481.825 685.569C494.281 695.212 506.919 695.247 519.313 685.668C523.439 682.478 527.37 679.033 531.42 675.743C549.79 660.818 568.413 659.379 586.477 672.689L587.024 673.097C592.807 677.455 597.109 677.236 602.871 674.363L605.676 672.961C631.373 660.076 656.583 646.385 679.86 629.37C683.626 626.618 687.356 623.815 691.102 621.036ZM330.904 292.334C372.889 311.276 410.592 336.756 444.859 367.381C487.498 405.49 521.101 450.491 545.922 501.958C558.985 529.048 569.145 557.184 573.812 587.058L574.036 588.523L574.375 590.862C574.381 596.643 569.75 600.041 564.923 598.09C540.954 588.405 516.204 581.688 490.628 577.851C456.828 572.781 423.454 574.042 390.593 583.936C368.802 590.498 348.074 599.448 328.812 611.661C325.255 613.916 321.485 613.522 319.163 610.762C316.751 607.896 316.754 604.437 319.54 601.412C339.664 579.562 351.373 553.323 359.136 525.107C366.721 497.54 369.491 469.369 367.792 440.87C366.516 419.449 361.378 398.723 354.656 378.376C345.959 352.055 334.674 326.894 321.067 302.758C318.844 298.814 318.885 295.741 321.133 293.217C323.459 290.604 326.455 290.327 330.904 292.334ZM460.338 341.536C464.231 342.672 469.475 343.792 474.407 345.712C494.102 353.377 511.069 365.539 527.232 378.826C553.501 400.42 577.555 424.304 599.066 450.646C614.037 468.98 626.319 489.148 637.516 509.966C650.213 533.573 661.146 557.977 670.427 583.118L671.072 584.873C671.316 585.541 671.568 586.206 671.795 586.881C672.772 589.788 672.65 592.599 670.373 594.82C668.047 597.088 665.261 597.238 662.317 596.087L662.111 596.004C657.892 594.27 653.617 592.67 649.405 590.919L647.605 590.159C635.758 585.073 623.582 584.056 611.043 586.905C609.887 587.168 608.714 587.367 607.542 587.547C602.891 588.263 599.986 586.446 598.716 581.94C586.503 538.61 569.284 497.349 547.485 457.982L546.394 456.022C532.341 430.909 516.25 407.295 495.34 387.231C482.994 375.383 470.002 364.338 455.653 354.956C452.328 352.782 451.082 349.766 452.177 346.473C453.254 343.234 455.769 341.962 460.338 341.536ZM343.457 314.041C343.498 315.137 343.791 315.993 344.19 316.797C353.314 335.2 361.249 354.103 367.694 373.608C373.807 392.113 378.496 410.973 380.741 430.366C383.255 452.075 382.22 473.726 379.242 495.317C375.321 523.75 367.436 550.945 353.834 576.346L352.252 579.305C351.46 580.79 350.664 582.285 349.854 583.802C350.356 583.938 350.611 584.101 350.774 584.036C352.207 583.47 353.632 582.884 355.042 582.265C383.91 569.594 413.99 561.941 445.583 561.155C481.659 560.257 516.599 566.76 550.721 578.087L553.05 578.861C554.738 579.415 556.539 579.986 558.871 580.742C545.048 520.237 516.395 468.233 477.773 421.451C440.541 376.354 395.256 341.115 343.457 314.041ZM514.871 387.398L515.328 387.915L516.236 388.928C516.587 389.323 516.906 389.694 517.205 390.082C519.322 392.825 521.487 395.538 523.661 398.245L527.213 402.662C532.549 409.311 537.817 416.005 542.451 423.113C571.758 468.061 593.308 516.664 609.018 567.884L609.493 569.437C610.308 572.12 611.429 572.873 614.044 572.478L614.224 572.45C625.976 570.492 637.462 571.509 648.6 575.799L649.176 576.024C650.24 576.445 651.378 576.68 653.44 577.282C638.352 539.637 620.519 504.595 597.955 471.929C578.443 443.681 526.195 393.531 514.871 387.398Z" fill="#1A222D"/>
</g>
<defs>
<clipPath id="clip0_119_259">
<rect width="500" height="417.969" fill="white" transform="translate(250.4 291.016)"/>
</clipPath>
</defs>
</svg>
