<svg width="1001" height="1000" viewBox="0 0 1001 1000" fill="none" xmlns="http://www.w3.org/2000/svg">
<g clip-path="url(#clip0_61_677)">
<path d="M250.6 375C250.6 305.964 306.564 250 375.6 250H625.6C694.636 250 750.6 305.964 750.6 375V625C750.6 694.036 694.636 750 625.6 750H375.6C306.564 750 250.6 694.036 250.6 625V375Z" fill="#FFDD33"/>
<path d="M583.012 345.312H537.623L575.446 411.769L492.234 345.312H446.846L488.453 426.539L401.457 345.312H356.068L401.457 448.705L356.068 655.469H401.457L488.453 433.934L446.846 655.469H492.234L575.446 419.164L537.623 655.469H583.012L666.225 396.999L583.012 345.312Z" fill="black"/>
</g>
<defs>
<clipPath id="clip0_61_677">
<rect width="500" height="500" fill="white" transform="translate(250.6 250)"/>
</clipPath>
</defs>
</svg>
