<svg width="1001" height="1000" viewBox="0 0 1001 1000" fill="none" xmlns="http://www.w3.org/2000/svg">
<path d="M820.315 396.574H727.74V749.998H820.315V396.574Z" fill="black"/>
<path d="M327.061 342.575C356.955 342.575 381.064 366.924 381.064 396.577H473.639C473.639 315.815 407.823 250 327.061 250C246.3 250 180.484 315.815 180.484 396.577H273.06C273.06 366.924 297.167 342.575 327.061 342.575Z" fill="#FF4B4B"/>
<path d="M381.065 749.998H473.64V657.423V396.574H381.065V749.998Z" fill="#5887FF"/>
<path d="M619.733 749.759V657.425H527.158H473.638V750L619.733 749.759Z" fill="#FFAA00"/>
<path d="M619.733 396.577C619.733 366.683 644.083 342.575 673.736 342.575V250C592.974 250 527.159 315.815 527.159 396.577V657.427H619.733V396.577Z" fill="#00843F"/>
<path d="M727.732 396.577H820.307C820.307 315.815 754.493 250 673.73 250V342.575C703.624 342.575 727.732 366.683 727.732 396.577Z" fill="#FC83FF"/>
<path d="M273.06 396.574H180.484V749.998H273.06V396.574Z" fill="black"/>
</svg>
