<svg width="1001" height="1000" viewBox="0 0 1001 1000" fill="none" xmlns="http://www.w3.org/2000/svg">
<path opacity="0.2" d="M400.042 726.562C386.677 726.562 370.281 716.98 363.607 705.268L263.218 529.107C256.544 517.395 256.544 498.23 263.218 486.518L363.607 310.357C370.281 298.645 386.677 289.062 400.042 289.062H600.758C614.124 289.062 630.52 298.645 637.193 310.357L737.582 486.518C744.256 498.23 744.256 517.395 737.582 529.107L637.194 705.268C630.521 716.98 614.125 726.562 600.759 726.562H400.042Z" fill="black"/>
<path d="M400.042 718.75C386.677 718.75 370.281 709.167 363.607 697.455L263.218 521.295C256.544 509.583 256.544 490.417 263.218 478.705L363.607 302.545C370.281 290.833 386.677 281.25 400.042 281.25H600.758C614.124 281.25 630.52 290.833 637.193 302.545L737.582 478.705C744.256 490.417 744.256 509.583 737.582 521.295L637.194 697.455C630.521 709.167 614.125 718.75 600.759 718.75H400.042Z" fill="#4F4F4F"/>
<path opacity="0.2" d="M586.648 379.705C582.72 372.821 578.605 367.188 578.563 367.188C578.521 367.188 578.489 373.689 578.489 381.635V492.402C578.489 500.348 576.132 501.223 572.189 494.348L507.569 379.689C503.627 372.813 493.966 367.188 486.102 367.188H434.477C426.612 367.188 416.965 372.82 413.037 379.705L347.096 495.295C343.169 502.179 343.169 513.445 347.096 520.33L414.157 635.92C418.084 642.805 422.196 648.438 422.237 648.438C422.279 648.438 422.313 641.936 422.313 633.99V521.297C422.313 513.351 424.64 512.493 428.541 519.393L493.306 635.893C497.209 642.794 506.836 648.438 514.7 648.438H566.325C574.189 648.438 583.837 642.805 587.764 635.921L653.705 520.329C657.632 513.445 657.632 502.18 653.705 495.295L586.648 379.705Z" fill="black"/>
<path d="M586.648 371.893C582.72 365.009 578.605 359.375 578.563 359.375C578.521 359.375 578.489 365.876 578.489 373.823V484.589C578.489 492.535 576.132 493.411 572.189 486.536L507.569 371.876C503.627 365.001 493.966 359.375 486.102 359.375H434.477C426.612 359.375 416.965 365.008 413.037 371.893L347.096 487.482C343.169 494.366 343.169 505.633 347.096 512.518L414.157 628.107C418.084 634.992 422.196 640.625 422.237 640.625C422.279 640.625 422.313 634.123 422.313 626.177V513.485C422.313 505.538 424.64 504.68 428.541 511.58L493.306 628.08C497.209 634.982 506.836 640.625 514.7 640.625H566.325C574.189 640.625 583.837 634.992 587.764 628.108L653.705 512.517C657.632 505.633 657.632 494.367 653.705 487.482L586.648 371.893Z" fill="white"/>
<path opacity="0.1" d="M400.044 281.25C386.678 281.25 370.28 290.839 363.606 302.551L263.218 478.699C259.316 485.546 257.766 494.942 258.427 503.906C258.896 497.538 260.446 491.376 263.218 486.511L363.606 310.364C370.28 298.652 386.678 289.062 400.044 289.062H600.758C614.123 289.062 630.523 298.652 637.196 310.364L737.583 486.511C740.355 491.376 741.905 497.538 742.375 503.906C743.035 494.942 741.485 485.546 737.583 478.699L637.196 302.551C630.523 290.839 614.123 281.25 600.758 281.25H400.044Z" fill="white"/>
</svg>
