<svg width="1001" height="1000" viewBox="0 0 1001 1000" fill="none" xmlns="http://www.w3.org/2000/svg">
<g clip-path="url(#clip0_61_723)">
<path d="M500.62 386.304C448.82 386.304 404.922 421.422 391.313 468.832C379.461 443.371 354 425.812 324.149 425.812C283.763 425.812 250.4 459.175 250.4 500C250.4 540.825 283.763 574.188 324.588 574.188C354 574.188 379.9 556.629 391.752 531.168C404.922 578.578 448.82 613.696 500.62 613.696C551.981 613.696 595.879 579.017 609.926 532.046C621.779 556.629 647.24 573.749 676.213 573.749C717.038 573.749 750.4 540.386 750.4 499.561C750.4 458.736 717.038 425.812 676.213 425.812C647.24 425.812 621.779 442.932 609.926 467.515C595.879 420.983 552.42 386.304 500.62 386.304ZM500.62 429.763C539.689 429.763 570.857 460.931 570.857 500C570.857 539.069 539.689 570.237 500.62 570.237C461.551 570.237 430.383 539.069 430.383 500C430.383 460.931 461.551 429.763 500.62 429.763ZM324.588 469.271C341.709 469.271 355.317 482.88 355.317 500C355.317 517.12 341.709 530.729 324.588 530.729C307.468 530.729 293.86 517.12 293.86 500C293.86 482.88 307.468 469.271 324.588 469.271ZM676.213 469.271C693.333 469.271 706.941 482.88 706.941 500C706.941 517.12 693.333 530.729 676.213 530.729C659.092 530.729 645.484 517.12 645.484 500C645.923 482.88 659.092 469.271 676.213 469.271Z" fill="#0082C9"/>
</g>
<defs>
<clipPath id="clip0_61_723">
<rect width="500" height="500" fill="white" transform="translate(250.4 250)"/>
</clipPath>
</defs>
</svg>
