<svg width="1001" height="1000" viewBox="0 0 1001 1000" fill="none" xmlns="http://www.w3.org/2000/svg">
<g clip-path="url(#clip0_119_314)">
<path d="M375.199 476.367L432.523 533.789V624.609H375.199V476.367ZM616.117 354.395V615.332C616.117 620.703 611.723 625 606.352 625C603.813 625 601.371 624.023 599.516 622.168L375.199 419.824V362.598C375.199 357.227 379.496 352.93 384.867 352.93H385.355C387.895 352.93 390.434 354.004 392.191 355.762L558.695 500.195V354.395H616.117Z" fill="url(#paint0_linear_119_314)"/>
<path fill-rule="evenodd" clip-rule="evenodd" d="M312.699 250C278.227 250 250.199 278.027 250.199 312.5V687.5C250.199 721.973 278.227 750 312.699 750H687.699C722.172 750 750.199 721.973 750.199 687.5V312.5C750.199 278.027 722.172 250 687.699 250H312.699ZM325.883 294.434C308.598 294.434 294.633 308.398 294.633 325.684V674.316C294.633 691.602 308.598 705.566 325.883 705.566H674.516C691.801 705.566 705.766 691.602 705.766 674.316V325.684C705.766 308.398 691.801 294.434 674.516 294.434H325.883Z" fill="url(#paint1_linear_119_314)"/>
</g>
<defs>
<linearGradient id="paint0_linear_119_314" x1="495.663" y1="261.317" x2="495.663" y2="701.275" gradientUnits="userSpaceOnUse">
<stop stop-color="#4351E8"/>
<stop offset="1" stop-color="#2A1EA5"/>
</linearGradient>
<linearGradient id="paint1_linear_119_314" x1="350.671" y1="648.813" x2="806.521" y2="195.143" gradientUnits="userSpaceOnUse">
<stop stop-color="#4351E8"/>
<stop offset="1" stop-color="#2A1EA5"/>
</linearGradient>
<clipPath id="clip0_119_314">
<rect width="500" height="500" fill="white" transform="translate(250.199 250)"/>
</clipPath>
</defs>
</svg>
