<svg width="1001" height="1000" viewBox="0 0 1001 1000" fill="none" xmlns="http://www.w3.org/2000/svg">
<g clip-path="url(#clip0_119_334)">
<path d="M500.779 316.689C362.716 316.689 250.8 427.668 250.8 564.605V683.335H296.883V671.501C296.883 615.96 342.258 570.939 398.258 570.939C454.258 570.939 499.633 615.939 499.633 671.501V683.335H545.716V671.501C545.716 590.73 479.675 525.272 398.258 525.272C367.794 525.198 338.055 534.565 313.133 552.085C325.986 526.859 345.575 505.688 369.729 490.919C393.883 476.15 421.656 468.362 449.966 468.418C534.487 468.418 603.029 536.418 603.029 620.23V683.335H649.112V620.21C649.112 511.147 559.946 422.689 449.946 422.689C402.493 422.592 356.564 439.436 320.425 470.189C337.882 437.544 363.89 410.263 395.664 391.268C427.438 372.272 463.781 362.278 500.8 362.355C613.425 362.355 704.716 452.897 704.716 564.585V683.335H750.8V564.585C750.779 427.647 638.862 316.689 500.779 316.689Z" fill="black"/>
</g>
<defs>
<clipPath id="clip0_119_334">
<rect width="500" height="500" fill="white" transform="translate(250.8 250)"/>
</clipPath>
</defs>
</svg>
