<svg width="1000" height="1000" viewBox="0 0 1000 1000" fill="none" xmlns="http://www.w3.org/2000/svg">
<g clip-path="url(#clip0_61_674)">
<path d="M342.896 337.667C358.438 350.292 364.271 349.333 393.479 347.375L668.792 330.854C674.625 330.854 669.771 325.021 667.833 324.062L622.083 291C613.333 284.208 601.646 276.417 579.271 278.354L312.708 297.812C303 298.771 301.042 303.646 304.917 307.521L342.896 337.667ZM359.417 401.833V691.5C359.417 707.062 367.188 712.896 384.708 711.917L687.271 694.417C704.792 693.458 706.75 682.75 706.75 670.104V382.375C706.75 369.75 701.896 362.937 691.167 363.896L374.979 382.375C363.313 383.354 359.417 389.208 359.417 401.833ZM658.104 417.354C660.042 426.104 658.104 434.854 649.354 435.854L634.771 438.771V652.604C622.104 659.417 610.437 663.312 600.708 663.312C585.125 663.312 581.229 658.437 569.562 643.875L474.208 494.167V639L504.375 645.833C504.375 645.833 504.375 663.333 480.042 663.333L412.917 667.208C410.979 663.333 412.917 653.604 419.729 651.667L437.229 646.812V455.292L412.958 453.333C411 444.583 415.875 431.958 429.479 430.979L501.479 426.125L600.729 577.771V443.604L575.417 440.708C573.479 430 581.25 422.229 590.979 421.271L658.104 417.354ZM290.333 271.562L567.625 251.146C601.667 248.229 610.437 250.167 631.833 265.729L720.354 327.937C734.938 338.625 739.813 341.542 739.813 353.208V694.417C739.813 715.792 732.042 728.458 704.812 730.375L382.771 749.833C362.354 750.812 352.604 747.896 341.896 734.271L276.708 649.687C265.042 634.125 260.188 622.479 260.188 608.854V305.562C260.188 288.083 267.979 273.479 290.333 271.562Z" fill="black"/>
</g>
<defs>
<clipPath id="clip0_61_674">
<rect width="500" height="500" fill="white" transform="translate(250 250)"/>
</clipPath>
</defs>
</svg>
