<svg width="1001" height="1000" viewBox="0 0 1001 1000" fill="none" xmlns="http://www.w3.org/2000/svg">
<g clip-path="url(#clip0_61_747)">
<path d="M506.904 250.083C644.925 253.458 754.092 368.083 750.717 506.125C747.342 644.146 632.717 753.312 494.675 749.937C356.654 746.562 247.487 631.937 250.862 493.896L250.883 493.375C254.55 355.542 369.092 246.708 506.904 250.083ZM506.904 275.875C383.133 272.458 280.029 370.042 276.612 493.812C273.196 617.583 370.779 720.687 494.55 724.104C618.321 727.521 721.425 629.937 724.842 506.167L724.862 505.646C727.987 382.062 630.487 279.271 506.904 275.875ZM628.612 448.833H678.612C698.946 448.833 692.821 430.646 692.821 430.646C683.389 403.974 668.398 379.609 648.842 359.167L648.737 359.396C629.005 338.61 605.215 322.095 578.842 310.875C576.771 309.773 574.436 309.264 572.095 309.403C569.754 309.543 567.496 310.325 565.571 311.665C563.645 313.004 562.127 314.849 561.182 316.996C560.237 319.143 559.903 321.509 560.217 323.833C559.3 340.542 557.258 373.729 557.258 373.729C557.258 373.729 557.592 389.75 544.196 389.75C527.258 389.979 513.175 388.833 513.175 388.833C503.514 387.771 494.401 383.813 487.029 377.479L435.55 323.146C431.959 319.073 427.028 316.422 421.65 315.673C416.273 314.924 410.805 316.126 406.237 319.062C360.486 342.67 325.395 382.756 308.05 431.229C302.716 446.104 314.987 448.021 323.279 448.021H448.279C454.717 447.459 461.2 448.34 467.254 450.599C473.309 452.859 478.783 456.441 483.279 461.083C499.633 478.25 511.008 489.604 511.008 489.604C511.008 489.604 521.008 500.854 537.258 517.896C546.237 527.458 550.425 540.583 548.612 553.583C548.612 553.583 542.466 673.25 542.466 678.583C541.904 686.875 543.258 699.271 558.487 694.729C607.76 679.927 649.586 646.991 675.529 602.562C678.717 598.154 680.217 592.749 679.759 587.328C679.3 581.907 676.912 576.831 673.029 573.021L621.55 518.708C615.467 511.065 611.862 501.747 611.217 492C611.217 492 610.758 477.792 611.904 460.979C612.821 447.583 628.612 448.833 628.612 448.833ZM579.404 477.458C569.508 487.229 548.487 482.229 533.154 466.104C517.821 449.958 513.904 428.583 523.779 419.146C533.675 409.708 555.071 414.167 570.425 430.312C585.779 446.437 589.3 467.687 579.404 477.458Z" fill="black"/>
</g>
<defs>
<clipPath id="clip0_61_747">
<rect width="500" height="500" fill="white" transform="translate(250.8 250)"/>
</clipPath>
</defs>
</svg>
