<svg width="1000" height="1000" viewBox="0 0 1000 1000" fill="none" xmlns="http://www.w3.org/2000/svg">
<g clip-path="url(#clip0_119_302)">
<path d="M658.312 777.94C654.322 807.1 625.622 829.967 596.923 821.987C556.252 810.937 509.136 793.441 466.777 790.218L401.705 785.306C391.251 784.571 381.427 780.041 374.079 772.568L262.044 657.77C249.868 645.257 246.582 626.571 253.756 610.654C253.756 610.654 322.819 459.329 325.582 451.502C328.038 443.675 337.553 374.919 343.078 338.086C344.627 328.305 349.506 319.36 356.89 312.763L489.184 194.281C497.994 186.379 509.672 182.459 521.465 183.447C533.258 184.435 544.122 190.242 551.495 199.499L662.916 340.081C669.151 348.109 672.502 358.002 672.431 368.166C672.431 394.717 674.733 449.507 689.62 484.806C704.392 516.552 722.722 546.518 744.257 574.127C749.591 581.053 750.198 590.519 745.792 598.069C736.123 614.491 716.785 646.106 689.62 686.47C672.423 714.222 661.672 745.48 658.158 777.94H658.312Z" fill="black" fill-opacity="0.3"/>
<path d="M659.386 773.028C655.396 802.341 626.696 825.209 597.997 817.382C557.48 806.178 510.517 788.682 468.005 785.459L403.086 780.548C392.608 779.785 382.776 775.197 375.461 767.656L263.425 652.552C251.13 639.912 247.84 621.027 255.138 604.975C255.138 604.975 324.354 453.036 326.963 445.056C329.572 437.229 338.934 368.319 344.459 331.179C345.974 321.343 350.856 312.339 358.272 305.702L490.565 186.76C499.395 178.876 511.086 174.982 522.88 175.999C534.674 177.015 545.526 182.852 552.876 192.132L664.144 333.327C670.357 341.367 673.706 351.252 673.659 361.413C673.659 388.117 675.961 443.061 690.695 478.513C705.455 510.409 723.785 540.528 745.331 568.295C750.782 575.22 751.452 584.772 747.019 592.39C737.197 608.965 718.013 640.581 690.695 681.251C673.56 709.133 662.864 740.487 659.386 773.028Z" fill="#6C31E3"/>
<path d="M387.432 776.249C439.459 670.813 438.078 595.151 415.824 541.435C395.566 491.71 357.658 460.401 327.884 440.91C327.27 443.826 326.349 446.589 325.122 449.198L255.138 604.973C247.88 621.056 251.231 639.945 263.579 652.55L375.461 767.655C378.991 771.184 383.134 774.1 387.432 776.249Z" fill="url(#paint0_radial_119_302)"/>
<path d="M528.934 562.308C542.9 563.689 556.559 566.758 570.065 571.669C612.73 587.631 651.559 623.543 683.635 692.76C685.937 688.769 688.239 684.933 690.695 681.249C710.297 652.161 729.079 622.53 747.019 592.388C751.496 584.801 750.887 575.251 745.485 568.293C723.885 540.534 705.504 510.414 690.695 478.511C675.961 443.212 673.813 388.115 673.659 361.411C673.659 351.282 670.436 341.306 664.144 333.326L552.876 192.13L551.034 189.828C559.168 216.686 558.708 238.172 553.643 257.663C549.039 275.773 540.445 292.195 531.39 309.537C528.32 315.369 525.251 321.355 522.335 327.494C507.902 355.059 499.628 385.431 498.086 416.508C496.551 453.649 504.071 500.151 528.781 562.308H528.934Z" fill="url(#paint1_radial_119_302)"/>
<path d="M528.781 562.309C504.072 500.152 496.551 453.65 498.086 416.509C499.621 379.676 510.364 352.05 522.335 327.495L531.543 309.538C540.445 292.196 548.886 275.774 553.643 257.664C559.294 235.27 558.388 211.723 551.034 189.829C535.143 172.37 508.143 170.999 490.566 186.76L358.272 305.702C350.857 312.338 345.975 321.343 344.459 331.178L328.345 437.995C328.345 439.07 328.038 439.991 327.884 441.065C357.658 460.403 395.412 491.711 415.824 541.283C419.815 551.105 423.191 561.388 425.647 572.591C459.184 563.291 494.06 559.762 528.781 562.155V562.309Z" fill="url(#paint2_radial_119_302)"/>
<path d="M598.15 817.383C626.696 825.21 655.396 802.342 659.386 772.875C662.654 744.925 670.919 717.789 683.788 692.762C651.559 623.546 612.73 587.633 570.218 571.672C524.943 554.79 475.679 560.469 425.646 572.593C436.85 623.393 430.251 689.846 387.585 776.252C392.343 778.707 397.714 780.089 403.086 780.549L470.46 785.614C506.987 788.223 561.47 807.1 598.15 817.383Z" fill="url(#paint3_radial_119_302)"/>
<path d="M498.393 414.206C496.705 451.04 501.309 493.091 526.018 555.094L518.344 554.327C496.091 489.715 491.18 456.565 492.868 419.271C494.403 381.977 506.527 353.277 518.498 328.722C521.567 322.583 528.627 311.072 531.697 305.24C540.598 287.898 546.583 278.843 551.648 263.035C559.015 240.935 557.48 230.499 556.559 220.062C562.238 257.663 540.598 290.353 524.33 323.657C509.269 351.631 500.373 382.507 498.239 414.206H498.393Z" fill="url(#paint4_radial_119_302)"/>
<path d="M423.191 544.046C426.26 550.799 428.869 556.324 430.711 564.765L424.112 566.299C421.503 556.477 419.507 549.417 415.671 540.976C393.264 488.335 357.351 461.17 328.191 441.219C363.49 460.249 399.863 490.177 423.191 544.046Z" fill="url(#paint5_radial_119_302)"/>
<path d="M431.018 571.517C443.296 629.069 429.483 702.276 388.813 773.487C422.884 702.89 439.459 635.208 425.647 572.438L431.018 571.363V571.517Z" fill="url(#paint6_radial_119_302)"/>
<path d="M571.599 566.147C638.36 591.163 664.144 645.953 683.328 691.842C659.54 643.958 626.543 591.01 569.144 571.365C525.557 556.325 488.724 558.167 425.646 572.44L424.265 566.301C491.179 550.953 526.171 549.112 571.599 566.301V566.147Z" fill="url(#paint7_radial_119_302)"/>
</g>
<defs>
<radialGradient id="paint0_radial_119_302" cx="0" cy="0" r="1" gradientUnits="userSpaceOnUse" gradientTransform="translate(13292 32946.5) scale(29332.7 54926.2)">
<stop stop-color="white" stop-opacity="0.4"/>
<stop offset="1" stop-opacity="0.1"/>
</radialGradient>
<radialGradient id="paint1_radial_119_302" cx="0" cy="0" r="1" gradientUnits="userSpaceOnUse" gradientTransform="translate(13838.4 45771.4) scale(47991 95738.8)">
<stop stop-color="white" stop-opacity="0.6"/>
<stop offset="1" stop-color="white" stop-opacity="0.1"/>
</radialGradient>
<radialGradient id="paint2_radial_119_302" cx="0" cy="0" r="1" gradientUnits="userSpaceOnUse" gradientTransform="translate(7479.73 38721.1) scale(41000.6 70915.5)">
<stop stop-color="white" stop-opacity="0.8"/>
<stop offset="1" stop-color="white" stop-opacity="0.4"/>
</radialGradient>
<radialGradient id="paint3_radial_119_302" cx="0" cy="0" r="1" gradientUnits="userSpaceOnUse" gradientTransform="translate(21659 26341.1) scale(27276.1 23741.3)">
<stop stop-color="white" stop-opacity="0.3"/>
<stop offset="1" stop-opacity="0.3"/>
</radialGradient>
<radialGradient id="paint4_radial_119_302" cx="0" cy="0" r="1" gradientUnits="userSpaceOnUse" gradientTransform="translate(8089.23 11868.7) scale(21341.6 110135)">
<stop stop-color="white" stop-opacity="0"/>
<stop offset="1" stop-color="white" stop-opacity="0.2"/>
</radialGradient>
<radialGradient id="paint5_radial_119_302" cx="0" cy="0" r="1" gradientUnits="userSpaceOnUse" gradientTransform="translate(-638.69 1530.88) scale(15736.1 19198.9)">
<stop stop-color="white" stop-opacity="0.2"/>
<stop offset="1" stop-color="white" stop-opacity="0.4"/>
</radialGradient>
<radialGradient id="paint6_radial_119_302" cx="0" cy="0" r="1" gradientUnits="userSpaceOnUse" gradientTransform="translate(5223.22 -3910.05) scale(18368.1 79792.8)">
<stop stop-color="white" stop-opacity="0.1"/>
<stop offset="1" stop-color="white" stop-opacity="0.3"/>
</radialGradient>
<radialGradient id="paint7_radial_119_302" cx="0" cy="0" r="1" gradientUnits="userSpaceOnUse" gradientTransform="translate(26161.7 12840.6) scale(52803.3 28077.2)">
<stop stop-color="white" stop-opacity="0.2"/>
<stop offset="0.5" stop-color="white" stop-opacity="0.2"/>
<stop offset="1" stop-color="white" stop-opacity="0.3"/>
</radialGradient>
<clipPath id="clip0_119_302">
<rect width="500" height="648.438" fill="white" transform="translate(250 175.781)"/>
</clipPath>
</defs>
</svg>
