<svg width="1000" height="1000" viewBox="0 0 1000 1000" fill="none" xmlns="http://www.w3.org/2000/svg">
<path d="M749.957 446.237L575.748 288.667C545.006 302.292 519.28 325.168 502.156 354.107C502.13 354.404 502.13 354.703 502.156 355C502.156 355 502.156 355 501.598 354.107C495.456 343.498 434.594 243.551 325.602 295.032C218.173 345.508 231.462 481.413 325.825 571.756C412.483 654.617 481.385 712.575 501.486 719.611C521.587 712.575 590.824 654.617 677.258 571.756C713.664 538.278 738.987 494.489 749.845 446.237H749.957Z" fill="#EB3656"/>
<path d="M718.767 468.988C654.924 468.988 605.598 424.246 605.598 353.102H628.435C628.458 377.06 637.979 400.032 654.912 416.981C671.846 433.93 694.809 443.473 718.767 443.518C728.193 443.483 740.914 449.203 749.886 446.314L745.317 464.407C733.83 468.153 730.849 468.965 718.767 468.988Z" fill="#8E243F"/>
<path d="M576.084 288.273C574.066 297.721 573.012 307.349 572.941 317.01C572.867 338.53 577.903 359.76 587.634 378.953C597.366 398.147 611.516 414.756 628.919 427.414C646.323 440.072 666.483 448.418 687.741 451.764C708.999 455.11 729.593 452.997 750.043 446.297L576.084 288.273Z" fill="#F49D9A"/>
</svg>
