<svg width="1001" height="1000" viewBox="0 0 1001 1000" fill="none" xmlns="http://www.w3.org/2000/svg">
<g clip-path="url(#clip0_61_729)">
<path d="M414.153 400.613L570.626 494.315L663.862 455.069C682.813 446.883 703.241 442.674 723.884 442.701C727.332 442.701 730.732 442.864 734.109 443.074C722.904 399.361 699.242 359.845 666 329.328C632.757 298.812 591.365 278.609 546.856 271.176C502.347 263.742 456.637 269.398 415.282 287.456C373.927 305.515 338.708 335.197 313.906 372.896L316.282 372.826C350.859 372.781 384.759 382.406 414.153 400.613Z" fill="#0364B8"/>
<path d="M414.176 400.59C384.772 382.387 350.863 372.77 316.281 372.826L313.906 372.896C280.063 373.32 246.975 382.956 218.198 400.77C189.42 418.584 166.04 443.903 150.57 474.005C135.099 504.108 128.123 537.857 130.391 571.626C132.659 605.395 144.085 637.908 163.442 665.671L301.375 607.605L362.725 581.798L499.283 524.315L570.602 494.315L414.176 400.59Z" fill="#0078D4"/>
<path d="M734.108 443.073C730.705 442.835 727.295 442.711 723.883 442.701C703.247 442.684 682.826 446.901 663.884 455.092L570.625 494.315L597.666 510.502L686.291 563.584L724.955 586.736L857.181 665.927C869.195 643.625 875.422 618.666 875.29 593.334C875.158 568.003 868.671 543.109 856.425 520.934C844.179 498.759 826.564 480.011 805.194 466.408C783.824 452.805 759.383 444.782 734.108 443.073Z" fill="#1490DF"/>
<path d="M724.956 586.736L686.292 563.584L597.668 510.479L570.649 494.315L499.307 524.314L362.749 581.798L301.376 607.605L163.396 665.671C180.547 690.326 203.41 710.464 230.033 724.364C256.657 738.263 286.249 745.512 316.282 745.491H723.885C751.217 745.501 778.042 738.11 801.511 724.101C824.981 710.092 844.219 689.99 857.182 665.927L724.956 586.736Z" fill="#28A8EA"/>
</g>
<defs>
<clipPath id="clip0_61_729">
<rect width="1000" height="1000" fill="white" transform="translate(0.200195)"/>
</clipPath>
</defs>
</svg>
