<svg width="1000" height="1000" viewBox="0 0 1000 1000" fill="none" xmlns="http://www.w3.org/2000/svg">
<path d="M889.145 624.957C889.145 585.581 870.886 550.51 842.458 527.611C831.201 550.349 811.853 568.262 788.25 577.985C821.935 560.567 845.007 525.496 845.007 484.982C845.007 427.149 798.196 380.882 740.363 380.882C735.971 380.882 731.839 381.204 727.571 381.723C742.045 413.38 750.061 447.895 750.061 484.982C750.061 487.369 749.938 489.732 749.851 492.107C745.694 357.7 635.508 250 500.061 250C365.022 250 255.047 357.093 250.296 490.994C250.247 488.978 250.061 486.998 250.061 484.982C250.061 447.969 258.313 412.96 272.737 381.365C181.49 392.808 110.854 470.521 110.854 564.872C110.854 667.116 193.737 750 295.981 750H766.737V749.79C834.553 748.417 889.145 693.107 889.145 624.957Z" fill="#1EBCC5"/>
<path d="M498.009 674.504C401.22 674.504 322.753 596.037 322.753 499.248C322.753 402.472 401.22 323.992 498.009 323.992C594.81 323.992 673.265 402.46 673.265 499.248C673.265 596.037 594.81 674.504 498.009 674.504ZM498.095 298.335C386.957 298.335 296.873 388.419 296.873 499.545C296.873 610.672 386.957 700.768 498.095 700.768C609.234 700.768 699.305 610.672 699.305 499.545C699.305 388.419 609.234 298.335 498.095 298.335Z" fill="white"/>
<path d="M528.912 497.785H528.689H473.949H473.726V453.794H473.949H528.689H528.912C541.06 453.794 550.907 463.641 550.907 475.777C550.907 487.925 541.06 497.785 528.912 497.785ZM445.694 401.33C430.095 401.33 417.439 413.973 417.439 429.585V582.883C417.439 598.482 430.095 611.15 445.694 611.15C461.318 611.15 473.949 598.482 473.949 582.883V550.274H528.689V550.162C569.785 550.162 603.124 516.848 603.124 475.752C603.124 434.644 569.797 401.33 528.689 401.33" fill="white"/>
</svg>
