<svg width="1000" height="1000" viewBox="0 0 1000 1000" fill="none" xmlns="http://www.w3.org/2000/svg">
<g clip-path="url(#clip0_57_298)">
<path d="M409.46 250L356.884 324.053V365.914L311.13 387.676L310.718 387.482V660.581L489.098 744.854L500 750L510.899 744.854L689.282 660.581V387.482L688.946 387.64L643.178 365.872V324.053L641.577 321.801L590.598 250L538.019 324.053V324.127L499.76 270.243L461.797 323.712L460.439 321.801L409.46 250ZM418.762 293.016L439.098 321.657H379.823L399.922 293.351L418.762 293.016ZM599.9 293.016L620.236 321.657H560.961L581.057 293.351L599.9 293.016ZM509.061 313.261L529.398 341.9H470.125L490.221 313.595L509.061 313.261ZM374.202 336.09H402.316V430.754L374.202 417.472V336.09ZM416.749 336.09H444.721L444.719 450.785L416.746 437.571L416.749 336.09ZM555.337 336.09H583.454L583.451 437.475L555.34 450.754L555.337 336.09ZM597.884 336.09H625.856V417.441L597.884 430.655V336.09ZM464.502 356.333H492.615V473.411L464.502 460.129V356.333ZM507.049 356.333H535.021L535.018 460.355L507.046 473.572L507.049 356.333ZM643.175 387.445L667.926 397.565L643.175 409.257V387.445ZM356.884 387.482V409.291L332.135 397.599L356.884 387.482ZM332.516 421.893L489.098 495.862V720.741L332.516 646.772V421.893ZM667.48 421.893V646.772L510.899 720.741V495.862L667.48 421.893Z" fill="black"/>
</g>
<defs>
<clipPath id="clip0_57_298">
<rect width="378.564" height="500" fill="white" transform="translate(310.718 250)"/>
</clipPath>
</defs>
</svg>
