<svg width="1001" height="1000" viewBox="0 0 1001 1000" fill="none" xmlns="http://www.w3.org/2000/svg">
<path d="M453.925 578.125H514.284V519.5H532.519C538.929 519.5 545.276 518.237 551.198 515.784C557.121 513.331 562.502 509.736 567.034 505.203C571.567 500.67 575.162 495.289 577.615 489.367C580.068 483.445 581.331 477.098 581.331 470.687C581.331 464.277 580.068 457.93 577.615 452.008C575.162 446.086 571.567 440.705 567.034 436.172C562.502 431.639 557.121 428.044 551.198 425.591C545.276 423.138 538.929 421.875 532.519 421.875H453.925V578.125ZM545.534 609.375H422.675V390.625H532.519C552.625 390.621 571.996 398.182 586.783 411.806C601.57 425.43 610.69 444.119 612.33 464.158C613.97 484.197 608.009 504.12 595.634 519.966C583.258 535.813 565.374 546.423 545.534 549.688V609.375Z" fill="white"/>
</svg>
