<svg width="1001" height="1000" viewBox="0 0 1001 1000" fill="none" xmlns="http://www.w3.org/2000/svg">
<path d="M511.878 250.027H333.998C330.581 250.027 327.303 251.385 324.886 253.802C322.47 256.218 321.112 259.496 321.112 262.913V579.029C321.156 624.341 339.168 667.787 371.198 699.837C403.228 731.888 446.662 749.927 491.974 750C493.665 750 495.342 749.667 496.904 749.019C498.468 748.371 499.889 747.422 501.086 746.225C502.282 745.029 503.23 743.609 503.879 742.045C504.526 740.482 504.859 738.806 504.859 737.114V591.914H511.769C534.475 592.321 557.035 588.2 578.131 579.792C599.227 571.385 618.436 558.858 634.637 542.943C650.839 527.029 663.707 508.047 672.493 487.105C681.277 466.163 685.802 443.681 685.802 420.971C685.802 398.261 681.277 375.779 672.493 354.837C663.707 333.895 650.839 314.912 634.637 298.999C618.436 283.085 599.227 270.558 578.131 262.15C557.035 253.742 534.475 249.621 511.769 250.027H511.878ZM478.977 723.68C445.114 720.6 413.401 705.746 389.356 681.702C365.312 657.656 350.457 625.943 347.378 592.08H478.977V723.68ZM478.977 524.47L354.89 275.799H479.197L478.977 524.47ZM511.878 566.143H504.97V275.799H511.878C531.179 275.424 550.362 278.902 568.303 286.029C586.245 293.156 602.585 303.789 616.368 317.307C630.151 330.824 641.1 346.955 648.575 364.754C656.049 382.555 659.898 401.665 659.898 420.971C659.898 440.277 656.049 459.388 648.575 477.188C641.1 494.987 630.151 511.118 616.368 524.635C602.585 538.152 586.245 548.786 568.303 555.914C550.362 563.04 531.179 566.518 511.878 566.143Z" fill="#3C402B"/>
</svg>
