<svg width="1001" height="1000" viewBox="0 0 1001 1000" fill="none" xmlns="http://www.w3.org/2000/svg">
<g clip-path="url(#clip0_61_677)">
<path d="M331.867 250H669.34C714.316 250 750.672 286.338 750.672 331.307V668.731C750.672 713.643 714.316 750 669.34 750H383.747L382.796 534.593H382.652V533.067C382.652 451.391 447.485 385.376 527.754 385.376C575.887 385.376 614.815 424.991 614.815 473.988C614.815 522.991 575.887 562.606 527.754 562.606C511.686 562.606 498.733 549.366 498.733 533.067C498.733 516.718 511.686 503.527 527.754 503.527C543.79 503.527 556.774 490.287 556.774 473.988C556.774 457.639 543.815 444.455 527.754 444.455C479.589 444.455 440.693 484.07 440.693 533.067C440.693 582.07 479.557 621.654 527.754 621.654C607.991 621.654 672.855 555.614 672.855 473.963C672.855 392.287 607.991 326.266 527.754 326.266C415.413 326.266 324.58 418.687 324.58 533.042V534.824H324.117L325.068 749.712C283.295 746.291 250.528 711.398 250.528 668.699V331.276C250.528 286.394 286.891 250 331.867 250Z" fill="#18A497"/>
</g>
<defs>
<clipPath id="clip0_61_677">
<rect width="500.2" height="500" fill="white" transform="translate(250.5 250)"/>
</clipPath>
</defs>
</svg>
