<svg width="1001" height="1000" viewBox="0 0 1001 1000" fill="none" xmlns="http://www.w3.org/2000/svg">
<path d="M500.8 748.12C637.833 748.12 748.92 637.033 748.92 500C748.92 362.967 637.833 251.88 500.8 251.88C363.767 251.88 252.68 362.967 252.68 500C252.68 637.033 363.767 748.12 500.8 748.12Z" fill="url(#paint0_linear_64_798)"/>
<path d="M672.228 581.767L664.709 627.255M664.709 627.255C664.709 627.443 664.521 627.443 664.521 627.443L357.379 609.774H357.191V609.586L537.454 351.127C537.454 351.127 537.642 351.127 537.642 351.315L664.709 627.067V627.255ZM329.559 583.646L357.379 609.962M329.559 583.646C329.371 583.458 329.371 583.458 329.371 583.27L500.236 326.315M329.559 583.646H329.747L672.228 582.142C672.416 582.142 672.416 581.955 672.416 581.955V581.767L500.612 326.315C500.612 326.127 500.424 326.127 500.236 326.315M500.236 326.315C500.424 326.127 500.424 326.127 500.236 326.315ZM500.424 325.939L537.642 350.939" stroke="#1D1D1B" stroke-width="6" stroke-miterlimit="10"/>
<defs>
<linearGradient id="paint0_linear_64_798" x1="325.353" y1="675.448" x2="676.247" y2="324.553" gradientUnits="userSpaceOnUse">
<stop stop-color="#B8EDFF"/>
<stop offset="1" stop-color="#D4B8FF"/>
</linearGradient>
</defs>
</svg>
