<svg width="1001" height="1000" viewBox="0 0 1001 1000" fill="none" xmlns="http://www.w3.org/2000/svg">
<path fill-rule="evenodd" clip-rule="evenodd" d="M749.331 456.598C744.123 532.119 683.359 600.695 606.97 603.299V546.008C606.97 493.924 569.644 448.786 518.428 438.369L327.456 401.042V273.438C327.456 238.716 358.706 212.674 393.428 219.619L590.477 257.813C698.116 281.251 756.276 364.584 749.331 456.598ZM395.165 637.154L282.317 615.452C265.824 611.98 251.067 625.001 251.067 641.494V719.619C250.199 738.716 264.088 756.077 283.185 759.549L396.033 781.251C412.526 784.723 427.283 771.702 427.283 755.209V677.084C428.151 657.987 414.262 641.494 395.165 637.154ZM508.88 481.772L336.137 447.917C310.963 442.709 288.394 461.806 288.394 487.848V572.917H289.262L402.109 594.619C441.172 602.431 469.817 637.154 469.817 677.084V694.445L513.22 703.126C538.394 708.334 560.963 689.237 560.963 663.195V546.876C562.699 514.758 540.13 487.848 508.88 481.772Z" fill="url(#paint0_linear_119_277)"/>
<defs>
<linearGradient id="paint0_linear_119_277" x1="798.696" y1="355.947" x2="177.192" y2="574.654" gradientUnits="userSpaceOnUse">
<stop stop-color="#6B53FF"/>
<stop offset="1" stop-color="#8D49F7"/>
</linearGradient>
</defs>
</svg>
