<svg width="1001" height="1000" viewBox="0 0 1001 1000" fill="none" xmlns="http://www.w3.org/2000/svg">
<g clip-path="url(#clip0_64_802)">
<path d="M259.136 516.818C245.05 528.504 225.648 534.081 200.949 534.081H175.738L164.043 589.553H127.1L157.114 447.232H138.528L143.844 421.526H218.491C241.861 421.526 257.808 424.979 268.686 433.744C277.703 440.896 282.222 451.273 282.222 466.127C282.222 486.578 273.716 504.619 259.117 516.818H259.136ZM238.937 453.075C234.153 448.864 226.483 447.27 214.751 447.27H193.982L180.503 510.709H195.633C212.644 510.709 223.522 507.01 230.964 500.332C240 492.668 244.31 479.407 244.31 468.252C244.31 461.366 242.392 456.3 238.937 453.113V453.075Z" fill="black"/>
<path d="M351.363 408L320.039 556.107C319.488 558.459 319.146 560.869 318.975 563.278C318.975 566.731 321.102 568.59 325.088 568.59C328.544 568.59 333.328 566.731 336.783 564.871L332.53 585.057C324.994 589.61 316.356 592 307.566 591.962C293.479 591.962 283.133 585.588 283.133 570.183C283.228 565.346 283.854 560.546 284.993 555.841L311.097 432.947H293.764L299.08 408H351.401H351.363Z" fill="black"/>
<path d="M481.653 460.816L461.454 555.045C460.922 557.397 460.562 559.787 460.391 562.197C460.391 565.649 462.251 567.509 466.238 567.509C469.693 567.509 474.743 565.649 478.198 563.809L473.946 583.975C466.428 588.51 457.809 590.9 449.038 590.881C438.426 590.881 429.389 586.1 426.997 576.804C419.574 585.569 406.019 591.943 390.072 591.943C363.513 591.943 347.319 574.414 347.319 545.995C347.319 497.411 385.896 458.406 434.173 458.406C444.558 458.406 455.417 461.366 462.593 465.824L481.672 460.835L481.653 460.816ZM441.596 482.841C439.09 481.399 436.242 480.659 433.357 480.716C402.545 480.716 382.915 517.88 382.915 544.952C382.915 560.091 389.028 568.04 400.988 568.04C408.392 568.267 415.511 565.137 420.371 559.541C425.156 553.963 428.079 545.749 430.186 536.168L441.577 482.822L441.596 482.841Z" fill="black"/>
<path d="M611.336 502.761L577.335 503.557C577.676 501.717 577.847 499.858 577.866 497.98C577.866 489.215 574.677 481.532 564.596 481.532C553.699 481.532 544.396 489.765 538.018 500.105C530.196 513.308 525.887 528.296 525.526 543.643C525.526 560.091 534.828 568.324 551.819 568.324C565.355 568.324 582.631 562.481 595.654 554.514L590.32 579.195C579.157 586.366 561.369 591.943 544.89 591.943C513.813 591.943 489.911 577.336 489.911 543.89C489.911 499.554 521.786 458.406 567.463 458.406C594.364 458.368 612.152 472.748 612.152 495.571C612.038 497.98 611.753 500.37 611.298 502.723L611.336 502.761Z" fill="black"/>
<path d="M670.681 542.049C662.822 542.068 655 541.271 647.312 539.659C647.312 540.721 647.046 541.784 647.046 542.618C647.046 559.066 657.943 568.362 673.871 568.362C688.223 568.362 706.277 561.988 718.218 554.836L713.169 579.517C700.696 586.935 681.825 592 665.081 592C634.535 592 611.678 576.33 611.678 544.212C611.678 500.408 646.476 458.463 692.95 458.463C717.402 458.463 735.456 470.415 735.456 494.034C735.456 520.783 709.182 542.011 670.662 542.011L670.681 542.049ZM689.799 481.532C671.991 481.532 657.164 499.839 651.222 519.474C655.949 520.46 660.771 520.991 665.594 521.067C690.027 521.067 703.05 509.381 703.05 493.977C703.088 486.825 698.551 481.513 689.78 481.513L689.799 481.532Z" fill="black"/>
<path d="M790.284 460.815L767.958 566.465C767.275 569.254 766.819 572.1 766.629 574.964C766.629 578.398 768.755 580.542 773.008 580.542C776.957 580.371 780.81 579.195 784.171 577.089L781.779 587.978C778.589 590.369 772.21 591.962 767.426 591.962C757.042 591.962 751.479 586.119 751.479 577.146C751.631 573.845 752.087 570.544 752.808 567.319L773.008 472.293H756.283L758.675 460.872L790.284 460.834V460.815ZM786.829 435.337C782.31 435.375 778.627 431.752 778.589 427.237C778.589 427.104 778.589 426.971 778.589 426.838C778.589 420.217 784.968 414.374 791.328 414.374C795.96 414.185 799.89 417.77 800.099 422.418C800.099 422.475 800.099 422.551 800.099 422.608C800.099 429.229 793.169 435.337 786.829 435.337Z" fill="black"/>
<path d="M874.1 460.816L871.708 472.236H840.649L823.374 553.774C822.595 557.435 822.159 561.173 822.045 564.929C822.045 575.306 828.405 580.333 838.504 580.333C846.364 580.068 854.034 577.791 860.754 573.693L858.419 585.588C852.572 589.307 842.738 591.962 834.499 591.962C818.039 591.962 806.61 583.198 806.61 567.528C806.724 563.145 807.275 558.801 808.205 554.533L825.766 472.236H807.123L809.515 460.816H828.12L835.543 426.573L851.736 420.218L842.985 460.816H874.062H874.1Z" fill="black"/>
</g>
<defs>
<clipPath id="clip0_64_802">
<rect width="747" height="184" fill="white" transform="translate(127.1 408)"/>
</clipPath>
</defs>
</svg>
