<svg width="1001" height="1000" viewBox="0 0 1001 1000" fill="none" xmlns="http://www.w3.org/2000/svg">
<path d="M378.006 491.601C378.006 491.601 409.254 486.289 432.749 484.157C504.201 477.605 499.626 539.016 454.149 550.143C388.667 566.155 291.938 573.637 291.938 500.983C291.938 448.993 346.021 423.095 455.39 423.095C435.385 362.343 438.835 330.513 451.552 294.961C464.307 259.41 496.059 239.986 516.53 255.261C538.202 271.428 521.763 298.063 521.763 334.933C521.763 367.422 531.029 388.939 541.613 406.812C547.313 416.426 555.842 422.862 565.379 418.249C574.102 414.023 574.18 402.78 571.544 392.273C562.549 356.45 561.192 328.846 570.962 299.808C582.748 264.721 610.352 243.475 634.118 257.743C655.015 270.265 640.166 300.777 640.166 335.902C640.166 378.742 678.586 441.278 699.328 467.176C705.57 474.969 708.788 484.738 708.439 494.741L701.538 685.681C701.073 698.32 692.233 709.137 679.905 711.928C606.669 728.522 522.112 738.989 420.575 748.565" fill="white"/>
<path d="M378.006 491.601C378.006 491.601 409.254 486.289 432.749 484.157C504.201 477.605 499.626 539.016 454.149 550.143C388.667 566.155 291.938 573.637 291.938 500.983C291.938 448.993 346.021 423.095 455.39 423.095C435.385 362.343 438.835 330.513 451.552 294.961C464.307 259.41 496.059 239.986 516.53 255.261C538.202 271.428 521.763 298.063 521.763 334.933C521.763 367.422 531.029 388.939 541.613 406.812C547.313 416.426 555.842 422.862 565.379 418.249C574.102 414.023 574.18 402.78 571.544 392.273C562.549 356.45 561.192 328.846 570.962 299.808C582.748 264.721 610.352 243.475 634.118 257.743C655.015 270.265 640.166 300.777 640.166 335.902C640.166 378.742 678.586 441.278 699.328 467.176C705.57 474.969 708.788 484.738 708.439 494.741L701.538 685.681C701.073 698.32 692.233 709.137 679.905 711.928C606.669 728.522 522.112 738.989 420.575 748.565" stroke="black" stroke-width="5.0873" stroke-miterlimit="10" stroke-linecap="round" stroke-linejoin="round"/>
<path d="M329.153 685.254C315.041 708.865 341.986 749.961 395.372 750C460.544 750.038 496.095 732.088 493.381 698.165C492.296 684.247 482.293 677.152 475.586 673.624M307.675 541.729C302.364 545.645 292.632 557.547 293.524 576.932C294.571 599.302 308.993 620.509 350.438 624.503C401.148 629.426 491.055 623.301 495.708 580.034C497.724 561.153 485.317 547.622 476.788 542.272" fill="white"/>
<path d="M329.153 685.254C315.041 708.865 341.986 749.961 395.372 750C460.544 750.038 496.095 732.088 493.381 698.165C492.296 684.247 482.293 677.152 475.586 673.624M307.675 541.729C302.364 545.645 292.632 557.547 293.524 576.932C294.571 599.302 308.993 620.509 350.438 624.503C401.148 629.426 491.055 623.301 495.708 580.034C497.724 561.153 485.317 547.622 476.788 542.272" stroke="black" stroke-width="5.0873" stroke-miterlimit="10" stroke-linecap="round" stroke-linejoin="round"/>
<path d="M314.692 614.037C314.692 614.037 304.689 626.637 304.689 641.37C304.689 669.206 329.153 690.18 375.134 690.18C429.062 690.18 488.341 684.21 493.652 646.642C496.676 625.009 477.175 612.409 477.175 612.409" fill="white"/>
<path d="M314.692 614.037C314.692 614.037 304.689 626.637 304.689 641.37C304.689 669.206 329.153 690.18 375.134 690.18C429.062 690.18 488.341 684.21 493.652 646.642C496.676 625.009 477.175 612.409 477.175 612.409" stroke="black" stroke-width="5.0873" stroke-miterlimit="10" stroke-linecap="round" stroke-linejoin="round"/>
</svg>
