<svg width="1000" height="1000" viewBox="0 0 1000 1000" fill="none" xmlns="http://www.w3.org/2000/svg">
<mask id="mask0_119_319" style="mask-type:luminance" maskUnits="userSpaceOnUse" x="264" y="285" width="472" height="465">
<path d="M264.344 285.621H735.656V749.791H264.344V285.621Z" fill="white"/>
</mask>
<g mask="url(#mask0_119_319)">
<mask id="mask1_119_319" style="mask-type:luminance" maskUnits="userSpaceOnUse" x="269" y="289" width="466" height="570">
<path d="M269.002 406.435L539.471 289.723L734.707 742.122L464.238 858.833L269.002 406.435Z" fill="white"/>
</mask>
<g mask="url(#mask1_119_319)">
<mask id="mask2_119_319" style="mask-type:luminance" maskUnits="userSpaceOnUse" x="188" y="-23" width="837" height="883">
<path d="M188.443 219.736L749.045 -22.168L1024.92 617.096L464.322 859.029L188.443 219.736Z" fill="white"/>
</mask>
<g mask="url(#mask2_119_319)">
<path d="M596.879 395.725C493.947 359.127 377.821 359.434 269.728 406.074L417.375 748.288C525.496 701.62 641.621 701.341 744.553 737.911C788.543 637.936 868.434 553.638 976.527 506.997L828.879 164.784C720.76 211.452 640.898 295.722 596.879 395.725ZM549.291 285.429C600.701 263.252 624.439 203.39 602.207 151.896C580.002 100.43 520.168 76.6081 468.758 98.7845C417.348 120.989 393.609 180.851 415.841 232.345C438.046 283.811 497.879 307.633 549.291 285.429Z" fill="#FDA8A7"/>
</g>
</g>
</g>
<mask id="mask3_119_319" style="mask-type:luminance" maskUnits="userSpaceOnUse" x="342" y="257" width="394" height="486">
<path d="M342.896 257.059H735.656V742.651H342.896V257.059Z" fill="white"/>
</mask>
<g mask="url(#mask3_119_319)">
<mask id="mask4_119_319" style="mask-type:luminance" maskUnits="userSpaceOnUse" x="342" y="259" width="391" height="544">
<path d="M342.227 320.214L630.465 259.375L732.225 741.481L443.987 802.321L342.227 320.214Z" fill="white"/>
</mask>
<g mask="url(#mask4_119_319)">
<mask id="mask5_119_319" style="mask-type:luminance" maskUnits="userSpaceOnUse" x="300" y="-5" width="742" height="808">
<path d="M300.245 121.296L897.641 -4.81641L1041.44 676.432L444.043 802.544L300.245 121.296Z" fill="white"/>
</mask>
<g mask="url(#mask5_119_319)">
<path d="M665.723 374.665C572.08 318.429 458.214 295.722 343.008 320.019L419.97 684.687C535.176 660.364 649.07 683.071 742.713 739.306C805.643 650.015 900.625 583.235 1015.83 558.911L938.869 194.269C823.664 218.566 728.654 285.374 665.723 374.665ZM640.924 257.144C695.711 245.568 730.83 191.591 719.254 136.722C707.678 81.853 653.729 46.6776 598.943 58.226C544.158 69.8024 509.039 123.779 520.615 178.648C532.219 233.517 586.139 268.692 640.924 257.144Z" fill="#FA736D"/>
</g>
</g>
</g>
<mask id="mask6_119_319" style="mask-type:luminance" maskUnits="userSpaceOnUse" x="435" y="250" width="295" height="493">
<path d="M435.73 250H729.686V742.734H435.73V250Z" fill="white"/>
</mask>
<g mask="url(#mask6_119_319)">
<path d="M740.397 370.088C660.367 295.72 553.641 249.973 435.897 249.973V622.675C553.641 622.675 660.367 668.423 740.397 742.79C820.4 668.423 927.154 622.675 1044.9 622.675V249.973C927.154 249.973 820.4 295.72 740.397 370.088ZM740.397 249.973C796.381 249.973 841.879 204.42 841.879 148.352C841.879 92.2554 796.381 46.7031 740.397 46.7031C684.412 46.7031 638.887 92.2554 638.887 148.352C638.887 204.42 684.412 249.973 740.397 249.973Z" fill="#F83E35"/>
</g>
</svg>
