<svg width="1000" height="1000" viewBox="0 0 1000 1000" fill="none" xmlns="http://www.w3.org/2000/svg">
<path fill-rule="evenodd" clip-rule="evenodd" d="M293.821 636.667V396.54C293.821 295.725 375.633 214 476.553 214C577.474 214 659.285 295.725 659.285 396.54C659.285 496.027 579.611 576.925 480.526 579.036V579.079C452.004 579.079 428.884 555.984 428.884 527.492C428.884 499.267 451.576 476.335 479.731 475.911V475.843C522.136 474.176 556.002 439.308 556.002 396.54C556.002 352.708 520.431 317.175 476.553 317.175C432.675 317.175 397.105 352.708 397.105 396.54V662.413C397.105 690.905 373.985 714 345.463 714C334.839 714.017 324.471 710.745 315.784 704.635C330.638 700.298 341.491 686.59 341.491 670.349C341.491 650.625 325.483 634.635 305.739 634.635C301.56 634.635 297.549 635.351 293.821 636.667ZM480.526 563.206C500.27 563.206 516.278 547.216 516.278 527.492C516.278 507.768 500.27 491.778 480.526 491.778C460.781 491.778 444.774 507.768 444.774 527.492C444.774 547.216 460.781 563.206 480.526 563.206Z" fill="url(#paint0_linear_57_283)"/>
<defs>
<linearGradient id="paint0_linear_57_283" x1="42322.2" y1="214" x2="42322.2" y2="100209" gradientUnits="userSpaceOnUse">
<stop stop-color="#D378E5"/>
<stop offset="1" stop-color="#7526C2"/>
</linearGradient>
</defs>
</svg>
