<svg width="1000" height="1000" viewBox="0 0 1000 1000" fill="none" xmlns="http://www.w3.org/2000/svg">
<path d="M268.591 250C263.235 250 258.327 252.26 254.997 255.962C251.997 259.097 250.133 263.362 249.997 268V269.232C250.057 271.432 250.489 273.497 251.262 275.394C251.295 275.562 251.365 275.697 251.424 275.864C252.03 277.297 252.792 278.626 253.759 279.864C254.089 280.334 254.462 280.767 254.862 281.161C254.939 281.271 255.028 281.373 255.127 281.464L314.395 351.829L335.795 377.228L399.868 453.269L421.267 478.63L478.633 546.736L499.995 572.098V750C512.101 750.031 523.741 745.331 532.431 736.903C532.469 736.903 532.469 736.903 532.469 736.865L538.766 729.368L692.637 546.736L745.305 484.198C745.57 483.933 745.803 483.63 746.04 483.333C747.17 481.933 748.067 480.36 748.732 478.63C749.57 476.566 750.002 474.301 750.002 471.896V268.6C750.002 263.697 748.1 259.195 744.97 255.93C743.24 254.049 741.136 252.55 738.794 251.529C736.451 250.508 733.921 249.987 731.365 250H268.591Z" fill="black"/>
<path d="M268.591 250C263.235 250 258.327 252.26 254.997 255.962C251.997 259.097 250.133 263.362 249.997 268V269.232C250.057 271.432 250.489 273.497 251.262 275.394C251.295 275.562 251.365 275.697 251.424 275.864C252.03 277.297 252.792 278.626 253.759 279.864C254.089 280.334 254.462 280.767 254.862 281.161C254.939 281.271 255.028 281.373 255.127 281.464L314.395 351.829L335.795 377.228L399.868 453.269L421.267 478.63L478.633 546.736L499.995 572.098V750C512.101 750.031 523.741 745.331 532.431 736.903C532.469 736.903 532.469 736.903 532.469 736.865L538.766 729.368L692.637 546.736L745.305 484.198C745.57 483.933 745.803 483.63 746.04 483.333C747.17 481.933 748.067 480.36 748.732 478.63C749.57 476.566 750.002 474.301 750.002 471.896V268.6C750.002 263.697 748.1 259.195 744.97 255.93C743.24 254.049 741.136 252.55 738.794 251.529C736.451 250.508 733.921 249.987 731.365 250H268.591Z" fill="url(#paint0_linear_56_207)"/>
<path d="M500 673.938V750C487.896 750.011 476.264 745.312 467.563 736.898C467.531 736.898 467.531 736.898 467.531 736.871L461.234 729.368L307.363 546.737L254.997 484.566C254.863 484.489 254.757 484.372 254.695 484.231L253.862 483.269C253.797 483.198 253.754 483.133 253.7 483.063C252.674 481.714 251.852 480.22 251.262 478.631C250.483 476.689 250.055 474.625 249.997 472.534V471.269C249.997 470.869 250.03 470.464 250.1 470.064C250.462 465.869 252.262 462.129 254.997 459.199C256.733 457.328 258.836 455.836 261.175 454.815C263.515 453.795 266.039 453.269 268.591 453.27H314.033L335.4 478.631L392.766 546.737L486.827 658.371L499.962 673.97L500 673.938Z" fill="#FCD1CA"/>
<path d="M500 572.113V673.926L499.967 673.959L486.844 658.365L392.782 546.747L335.405 478.646L314.033 453.269L254.651 382.828C253.186 381.185 252.033 379.289 251.246 377.233C250.478 375.27 250.056 373.189 249.997 371.082V369.828C250.12 365.339 251.901 361.054 254.997 357.802C256.72 355.911 258.819 354.402 261.161 353.374C263.503 352.345 266.034 351.819 268.591 351.829H314.406L335.811 377.233L399.879 453.269L421.251 478.646L478.628 546.741L500 572.113Z" fill="#FF9D8D"/>
<defs>
<linearGradient id="paint0_linear_56_207" x1="50802.5" y1="-6483.95" x2="7485.64" y2="37317" gradientUnits="userSpaceOnUse">
<stop stop-color="#FF6660"/>
<stop offset="1" stop-color="#FB4444"/>
</linearGradient>
</defs>
</svg>
