<svg width="1000" height="1000" viewBox="0 0 1000 1000" fill="none" xmlns="http://www.w3.org/2000/svg">
<path d="M499.852 749.999C444.982 749.967 391.647 731.884 348.072 698.539C304.497 665.194 273.102 618.44 258.729 565.486C244.357 512.532 247.804 456.321 268.54 405.52C289.277 354.72 326.15 312.153 373.473 284.383C420.796 256.613 475.941 245.183 530.404 251.856C584.866 258.529 635.62 282.934 674.839 321.308C714.059 359.681 739.564 409.892 747.422 464.196C755.28 518.5 745.055 573.881 718.323 621.798C716.07 625.408 712.514 628.012 708.393 629.071C704.272 630.13 699.902 629.562 696.188 627.486C692.474 625.41 689.701 621.984 688.445 617.919C687.188 613.854 687.544 609.461 689.439 605.651C714.428 560.758 722.639 508.442 712.604 458.053C702.569 407.664 674.942 362.485 634.661 330.59C594.38 298.696 544.07 282.165 492.722 283.951C441.374 285.738 392.335 305.725 354.368 340.342C316.402 374.959 291.982 421.949 285.473 472.914C278.964 523.879 290.791 575.498 318.84 618.545C346.888 661.593 389.33 693.263 438.581 707.897C487.832 722.531 540.682 719.174 587.685 698.427C591.659 696.889 596.071 696.941 600.007 698.572C603.942 700.203 607.098 703.288 608.818 707.186C610.539 711.083 610.691 715.494 609.244 719.501C607.797 723.508 604.862 726.803 601.048 728.702C569.182 742.816 534.704 750.072 499.852 749.999Z" fill="#3A3938"/>
<path d="M676.842 669.264C676.855 673.717 675.547 678.073 673.082 681.78C670.617 685.488 667.107 688.38 662.996 690.09C658.886 691.8 654.36 692.251 649.993 691.386C645.625 690.521 641.613 688.378 638.465 685.23C635.317 682.082 633.175 678.07 632.309 673.703C631.444 669.335 631.895 664.81 633.605 660.699C635.316 656.588 638.208 653.078 641.915 650.613C645.623 648.148 649.979 646.84 654.431 646.854C660.375 646.854 666.075 649.215 670.278 653.418C674.481 657.62 676.842 663.321 676.842 669.264Z" fill="#FC2A51"/>
<path d="M466.166 537.792C465.637 538.347 464.913 538.671 464.147 538.697C463.773 538.716 463.4 538.644 463.061 538.487C462.721 538.329 462.425 538.09 462.199 537.792L446.191 522.063C445.686 521.566 445.018 521.269 444.312 521.228H419.882C419.144 521.228 418.436 521.521 417.914 522.043C417.392 522.565 417.098 523.273 417.098 524.012C417.099 524.393 417.18 524.769 417.336 525.117C417.492 525.465 417.719 525.776 418.003 526.03L444.172 551.155C444.716 551.662 445.041 552.361 445.077 553.104C445.039 553.622 444.873 554.121 444.593 554.559C444.314 554.996 443.93 555.357 443.476 555.61C438 557.548 432.234 558.536 426.425 558.533C413.818 558.527 401.729 553.521 392.808 544.613C388.179 540.112 384.548 534.688 382.15 528.693C379.752 522.698 378.641 516.265 378.889 509.813C378.686 503.169 379.813 496.551 382.203 490.348C384.594 484.145 388.199 478.482 392.808 473.692C397.31 469.062 402.734 465.431 408.729 463.033C414.724 460.635 421.156 459.524 427.608 459.772C434.047 459.629 440.448 460.788 446.428 463.18C452.408 465.572 457.843 469.147 462.407 473.692C470.613 482.139 475.557 493.223 476.36 504.973C477.163 516.723 473.773 528.376 466.792 537.862M502.218 577.255L483.983 559.646C483.466 559.12 483.146 558.432 483.078 557.698C483.095 557.039 483.37 556.414 483.844 555.958C494.827 543.445 500.888 527.367 500.896 510.718C501.189 499.943 499.037 489.241 494.601 479.416C490.165 469.592 483.56 460.9 475.283 453.995C461.36 441.928 443.425 435.508 425.006 435.997C406.588 436.487 389.02 443.851 375.757 456.64C368.473 463.418 362.705 471.659 358.831 480.823C354.956 489.987 353.063 499.866 353.276 509.813C353.019 519.912 355.001 529.943 359.08 539.185C363.16 548.427 369.235 556.65 376.87 563.265C390.516 575.615 408.299 582.395 426.703 582.266C439.1 582.329 451.303 579.188 462.129 573.148C462.673 572.617 463.388 572.296 464.147 572.244C464.511 572.223 464.875 572.296 465.204 572.454C465.532 572.612 465.815 572.851 466.026 573.148L474.17 581.361C474.659 581.889 475.331 582.212 476.049 582.266H499.712C500.445 582.248 501.143 581.949 501.661 581.431C502.18 580.913 502.479 580.215 502.496 579.482C502.77 579.176 502.922 578.779 502.922 578.368C502.922 577.958 502.77 577.561 502.496 577.255" fill="#FC2A51"/>
<path d="M646.426 578.855L590.747 511.623L646.009 443.137C646.844 441.885 647.261 439.588 644.965 439.588H617.751C616.818 439.708 615.922 440.032 615.128 440.537C614.335 441.042 613.662 441.716 613.158 442.511L575.435 492.135L538.2 442.511C537.718 441.682 537.041 440.983 536.229 440.474C535.417 439.965 534.493 439.661 533.537 439.588H506.811C504.514 439.588 504.931 441.885 505.975 442.929L561.098 511.623L505.419 578.577C504.583 579.691 504.166 582.196 506.254 582.196H533.467C534.41 582.077 535.316 581.754 536.121 581.249C536.926 580.744 537.612 580.07 538.13 579.273L576.201 530.554L614.132 579.273C614.603 580.096 615.268 580.793 616.068 581.302C616.868 581.811 617.78 582.118 618.726 582.196H645.73C648.027 582.196 647.609 579.899 646.774 578.855" fill="#FC2A51"/>
</svg>
