<svg width="1001" height="1000" viewBox="0 0 1001 1000" fill="none" xmlns="http://www.w3.org/2000/svg">
<path d="M687.249 521.876L638.649 437.501L664.299 394.376C666.349 390.776 666.349 386.326 664.299 382.726L638.649 339.601C637.349 337.276 634.874 335.826 632.149 335.826H537.399L515.549 297.576C514.249 295.251 511.774 293.801 509.049 293.801H458.449C455.724 293.801 453.249 295.251 451.949 297.576L403.349 381.926H352.749C350.024 381.926 347.549 383.376 346.249 385.701L320.599 428.826C318.549 432.426 318.549 436.876 320.599 440.476L363.999 518.751L342.149 557.001C340.099 560.601 340.099 565.051 342.149 568.651L367.799 611.776C369.099 614.101 371.574 615.551 374.299 615.551H469.049L490.899 653.801C492.199 656.126 494.674 657.576 497.399 657.576H547.999C550.724 657.576 553.199 656.126 554.499 653.801L603.099 569.451H646.499C649.224 569.451 651.699 568.001 652.999 565.676L678.649 522.551C680.699 518.951 680.699 514.501 678.649 510.901L687.249 521.876Z" fill="url(#paint0_radial_119_315)"/>
<path d="M547.999 657.574H497.399L469.049 611.774H374.299L403.349 565.974H451.949L346.249 388.224H403.349L458.449 297.574L484.099 343.374L458.449 388.224H654.149L628.499 431.349L677.099 515.699H628.499L603.099 470.849L503.149 657.574H547.999Z" fill="white"/>
<path d="M569.849 449.574H440.549L503.149 555.274L569.849 449.574Z" fill="url(#paint1_radial_119_315)"/>
<defs>
<radialGradient id="paint0_radial_119_315" cx="0" cy="0" r="1" gradientUnits="userSpaceOnUse" gradientTransform="translate(500.199 500.001) rotate(90) scale(250 250)">
<stop stop-color="#665CEE"/>
<stop offset="1" stop-color="#332E91"/>
</radialGradient>
<radialGradient id="paint1_radial_119_315" cx="0" cy="0" r="1" gradientUnits="userSpaceOnUse" gradientTransform="translate(500.199 499.999) rotate(90) scale(250 250)">
<stop stop-color="#665CEE"/>
<stop offset="1" stop-color="#332E91"/>
</radialGradient>
</defs>
</svg>
