<svg width="1000" height="1000" viewBox="0 0 1000 1000" fill="none" xmlns="http://www.w3.org/2000/svg">
<path d="M490 750C447.565 750 406.869 733.143 376.863 703.137C346.857 673.131 330 632.435 330 590C330 547.565 346.857 506.869 376.863 476.863C406.869 446.857 447.565 430 490 430V750ZM490 250V410H330V250H490ZM590 410C568.783 410 548.434 401.571 533.431 386.569C518.429 371.566 510 351.217 510 330C510 308.783 518.429 288.434 533.431 273.431C548.434 258.429 568.783 250 590 250C611.217 250 631.566 258.429 646.569 273.431C661.571 288.434 670 308.783 670 330C670 351.217 661.571 371.566 646.569 386.569C631.566 401.571 611.217 410 590 410Z" fill="black"/>
</svg>
