<svg width="1001" height="1000" viewBox="0 0 1001 1000" fill="none" xmlns="http://www.w3.org/2000/svg">
<path d="M263.995 280.729C263.995 297.688 277.912 311.458 295.037 311.458H552.475C581.808 311.458 605.975 320.417 624.975 338.333C643.933 356.271 653.433 379.313 653.433 407.5C653.433 433.542 643.933 454.875 624.954 471.5C605.975 487.75 581.829 495.833 552.475 495.833H440.6C423.433 495.833 409.537 509.583 409.537 526.563C409.537 543.542 423.433 557.292 440.6 557.292H564.141L675.433 734C682.35 744.667 692.037 750 704.558 750C718.37 750 728.079 744.667 733.683 734C739.287 722.896 738.204 711.167 730.454 698.792L631.433 541.292C658.183 529.333 679.329 511.833 694.85 488.792C710.391 465.313 718.162 438.229 718.162 407.5C718.162 376.333 711.037 349.021 696.787 325.542C682.995 302.063 663.579 283.708 638.558 270.479C613.516 256.812 584.85 250 552.475 250H295.058C277.912 250 263.995 263.75 263.995 280.729Z" fill="black"/>
</svg>
