<svg width="1000" height="1000" viewBox="0 0 1000 1000" fill="none" xmlns="http://www.w3.org/2000/svg">
<path d="M739.873 320.577C754.615 366.421 750.73 408.298 720.179 446.129C706.451 463.132 687.007 474.192 648.499 484.051C658.045 492.947 666.804 500.627 675.008 508.862C690.869 524.785 706.619 540.829 722.057 557.163C758.136 595.338 756.766 650.481 732.264 694.091C699.91 751.676 617.44 770.357 567.711 727.521C544.007 707.103 521.754 684.995 498.949 663.541C494.368 659.229 490.252 654.421 485.268 649.147C481.332 661.299 478.79 672.766 474.04 683.235C447.585 741.543 372.951 765.153 312.136 735.189C270.844 714.842 251.524 679.984 250.873 635.951C249.536 545.414 249.959 454.842 250.657 364.289C251.126 303.434 300.759 251.198 361.481 250.159C454.131 248.573 546.843 248.797 639.505 250.13C687.121 250.815 720.868 275.303 739.873 320.577ZM397.646 331.79C382.423 319.842 365.819 315.55 348.015 324.971C330.015 334.497 321.611 349.598 321.721 370.588C322.178 457.228 321.807 543.869 322.092 630.509C322.12 638.338 323.164 646.847 326.357 653.842C335.073 672.922 358.453 682.272 380.385 676.83C401.358 671.623 413.651 655.657 413.662 633.131C413.717 545.215 413.498 457.299 413.874 369.383C413.936 354.735 409.402 342.948 397.646 331.79ZM497.142 483.428C493.449 483.605 489.752 483.781 485.202 483.996C485.202 504.649 484.99 524.554 485.409 544.448C485.479 547.765 487.522 551.764 489.924 554.197C526.848 591.622 563.65 629.183 601.368 665.794C608.167 672.398 618.543 677.276 627.952 678.826C647.126 681.987 666.499 669.131 675.939 650.012C683.815 634.058 680.106 614.446 665.791 599.857C633.37 566.822 600.402 534.319 568.349 500.936C555.806 487.869 542.473 480.267 523.812 483.221C515.932 484.469 507.689 483.428 497.142 483.428ZM570.68 319.881C539.511 319.881 508.343 319.881 479.56 319.881C482.166 351.605 484.662 382.054 487.216 413.165C535.224 413.165 583.54 413.286 631.856 413.121C660.549 413.02 678.725 394.444 678.553 365.975C678.388 338.875 659.402 320.088 631.782 319.908C612.268 319.779 592.749 319.881 570.68 319.881Z" fill="#FEFEFE"/>
</svg>
