<svg width="1001" height="1000" viewBox="0 0 1001 1000" fill="none" xmlns="http://www.w3.org/2000/svg">
<path d="M172.609 650.542C132.812 650.376 94.2066 636.946 62.9004 612.375L95.6504 539.792L98.9212 540.313C112.567 587.625 150.796 626.875 192.817 626.875C223.38 626.875 232.109 610.208 232.109 596.771C232.109 584.938 226.109 575.271 213.005 569.896L128.4 531.188C89.1087 512.896 74.9004 483.875 74.9004 451.604C74.9004 407.521 110.38 352.146 197.192 352.146C232.109 352.146 268.671 361.833 298.15 383.333L264.317 445.708L261.025 445.167C239.192 386.563 201.546 373.646 175.338 373.646C149.15 373.646 139.296 384.938 139.296 398.396C139.296 409.688 146.421 420.958 162.234 428.5L242.484 465.063C278.505 481.729 293.234 508.604 293.234 540.854C293.234 595.167 254.484 650.542 172.609 650.542ZM453.88 599.458C453.88 621.5 465.338 633.333 480.63 639.792V642.479H323.421V639.771C338.713 633.333 350.171 621.5 350.171 599.458V332.25C350.171 311.833 342.525 298.396 323.421 291.938V289.229L453.88 250V599.458ZM493.546 750V747.313C508.838 740.854 520.296 729.042 520.296 706.979V434.417C520.296 408.583 513.213 397.313 493.546 391.396V388.708L624.005 352.146V396.771C637.65 366.667 668.213 352.146 698.234 352.146C757.192 352.146 797.025 405.896 797.025 486.562C797.025 583.854 741.9 650.521 659.484 650.521C646.942 650.521 632.192 646.771 624.005 641.938V706.979C624.005 733.333 641.484 743.021 661.671 747.313V750H493.546ZM640.38 633.333C667.671 633.333 685.15 587.625 685.15 519.896C685.15 445.167 668.213 397.313 637.65 397.313C635.037 397.296 632.454 397.868 630.091 398.986C627.729 400.104 625.649 401.74 624.005 403.771V627.417C628.921 631.729 634.38 633.333 640.38 633.333ZM884.963 650.542C855.484 650.542 831.463 626.875 831.463 597.833C831.463 569.354 855.484 545.708 884.963 545.708C913.88 545.708 937.9 569.354 937.9 597.854C937.9 626.875 913.88 650.542 884.963 650.542Z" fill="black"/>
</svg>
