<svg width="1001" height="1000" viewBox="0 0 1001 1000" fill="none" xmlns="http://www.w3.org/2000/svg">
<path fill-rule="evenodd" clip-rule="evenodd" d="M700.551 500.472C700.551 442.843 678.172 387.575 638.337 346.825C598.502 306.076 544.473 283.183 488.138 283.183C431.802 283.183 377.774 306.076 337.939 346.825C298.104 387.575 275.725 442.843 275.725 500.472C275.725 558.101 298.104 613.369 337.939 654.118C377.774 694.868 431.802 717.761 488.138 717.761C544.474 717.761 598.502 694.868 638.337 654.118C678.172 613.369 700.551 558.101 700.551 500.472Z" fill="url(#paint0_linear_61_665)"/>
<path fill-rule="evenodd" clip-rule="evenodd" d="M696.175 497.572C696.175 441.737 674.371 388.189 635.561 348.708C596.75 309.227 544.111 287.047 489.224 287.047C434.338 287.047 381.699 309.227 342.888 348.708C304.077 388.189 282.273 441.737 282.273 497.572C282.273 553.407 304.077 606.955 342.888 646.436C381.699 685.917 434.338 708.098 489.224 708.098C544.111 708.098 596.75 685.917 635.561 646.436C674.371 606.955 696.175 553.407 696.175 497.572Z" fill="url(#paint1_linear_61_665)"/>
<path fill-rule="evenodd" clip-rule="evenodd" d="M717.611 371.32C724.987 364.554 726.86 353.691 722.82 341.12C718.779 328.548 709.155 315.298 696.065 304.285C682.974 293.271 667.49 285.396 653.018 282.392C638.546 279.388 626.272 281.501 618.896 288.267C611.52 295.032 609.646 305.895 613.686 318.466C617.727 331.038 627.351 344.288 640.442 355.301C653.532 366.315 669.016 374.19 683.488 377.194C697.96 380.198 710.235 378.085 717.611 371.32Z" fill="#060000"/>
<path fill-rule="evenodd" clip-rule="evenodd" d="M461.238 664.724C461.238 664.724 403.281 572.996 448.265 480.316C484.017 405.815 495.113 337.221 466.034 288.689C414.39 295.127 369.433 321.52 347.159 344.058C313.418 376.939 297.273 411.411 289.963 435.508C299.71 554.331 462.05 667.217 461.238 664.724Z" fill="url(#paint2_linear_61_665)" fill-opacity="0.75" stroke="#F6F7F7" stroke-opacity="0.392857" stroke-width="1.30398"/>
<path fill-rule="evenodd" clip-rule="evenodd" d="M476.066 669.271C474.527 667.832 551.82 553.231 646.301 537.669C646.592 414.135 703.392 368.693 706.987 360.958C699.396 319.919 677.107 304.419 656.989 301.154C622.891 296.808 629.291 312.106 625.102 316.179C602.029 368.284 553.707 441.839 546.887 454.991C527.696 481.584 487.056 612.828 470.801 669.01L476.066 669.271Z" fill="url(#paint3_linear_61_665)" stroke="#323232" stroke-width="5.63507"/>
<path fill-rule="evenodd" clip-rule="evenodd" d="M556.353 479.833C558.641 476.023 560.324 472.027 561.031 468.724C561.739 465.421 561.413 463.082 560.126 462.22C558.838 461.359 556.695 462.046 554.166 464.131C551.638 466.216 548.932 469.528 546.644 473.338C544.356 477.148 542.673 481.144 541.965 484.447C541.258 487.75 541.584 490.089 542.871 490.951C544.159 491.812 546.302 491.124 548.831 489.039C551.359 486.954 554.065 483.643 556.353 479.833Z" fill="#665123"/>
<path fill-rule="evenodd" clip-rule="evenodd" d="M544.499 490.078L542.985 488.941C541.244 487.634 482.868 640.866 473.859 668.318C482.812 639.371 535.489 502.155 544.499 490.078Z" fill="#665123" stroke="#665123" stroke-width="1.73912"/>
<path fill-rule="evenodd" clip-rule="evenodd" d="M577.248 541.724C597.743 525.611 606.776 512.497 627.069 508.501C623.563 458.118 662.287 397.279 693.765 340.39L688.096 330.162C675.075 349.883 597.692 491.583 577.248 541.724Z" fill="url(#paint4_linear_61_665)"/>
<defs>
<linearGradient id="paint0_linear_61_665" x1="311.95" y1="306.949" x2="489.786" y2="697.788" gradientUnits="userSpaceOnUse">
<stop stop-color="#66B8FF"/>
<stop offset="1" stop-color="#00507A"/>
</linearGradient>
<linearGradient id="paint1_linear_61_665" x1="317.567" y1="310.073" x2="489.237" y2="689.467" gradientUnits="userSpaceOnUse">
<stop stop-color="#66B8FF"/>
<stop offset="1" stop-color="#00507A"/>
</linearGradient>
<linearGradient id="paint2_linear_61_665" x1="381.99" y1="309.256" x2="565.279" y2="548.62" gradientUnits="userSpaceOnUse">
<stop stop-color="#B9E5FF" stop-opacity="0.419643"/>
<stop offset="1" stop-color="white"/>
</linearGradient>
<linearGradient id="paint3_linear_61_665" x1="572.543" y1="432.953" x2="614.255" y2="454.512" gradientUnits="userSpaceOnUse">
<stop stop-color="#FFF2BC"/>
<stop offset="1" stop-color="#83560B"/>
</linearGradient>
<linearGradient id="paint4_linear_61_665" x1="639.073" y1="384.705" x2="727.659" y2="424.134" gradientUnits="userSpaceOnUse">
<stop stop-color="#FFF9DB" stop-opacity="0.732143"/>
<stop offset="1" stop-color="#2C2C2C"/>
</linearGradient>
</defs>
</svg>
