<svg width="1000" height="1000" viewBox="0 0 1000 1000" fill="none" xmlns="http://www.w3.org/2000/svg">
<path d="M476.936 269.289C476.936 256.21 489.735 246.929 502.208 250.945L715.719 319.708C723.671 322.259 729.118 329.694 729.118 338.052V661.785C729.118 670.143 723.726 677.524 715.719 680.129L502.208 749.055C489.735 753.071 476.936 743.79 476.936 730.711V269.289Z" fill="#F73558"/>
<path fill-rule="evenodd" clip-rule="evenodd" d="M431.336 315.747L387.599 301.908C375.126 297.946 362.381 307.227 362.381 320.252V679.479C362.381 692.504 375.126 701.785 387.599 697.823L431.282 683.875V315.747H431.336Z" fill="#F73558"/>
<path fill-rule="evenodd" clip-rule="evenodd" d="M316.69 364.916L296.21 358.241C283.737 354.17 270.883 363.451 270.883 376.53V623.414C270.883 636.494 283.683 645.774 296.156 641.758L316.69 635.137V364.916Z" fill="#F73558"/>
</svg>
