<svg width="1001" height="1000" viewBox="0 0 1001 1000" fill="none" xmlns="http://www.w3.org/2000/svg">
<path opacity="0.2" d="M700.799 281.746H300.799C288.526 281.746 278.577 291.695 278.577 303.968V703.968C278.577 716.241 288.526 726.191 300.799 726.191H700.799C713.072 726.191 723.022 716.241 723.022 703.968V303.968C723.022 291.695 713.072 281.746 700.799 281.746Z" fill="black"/>
<path d="M700.799 273.81H300.799C288.526 273.81 278.577 283.759 278.577 296.032V696.032C278.577 708.305 288.526 718.254 300.799 718.254H700.799C713.072 718.254 723.022 708.305 723.022 696.032V296.032C723.022 283.759 713.072 273.81 700.799 273.81Z" fill="#115C77"/>
<path opacity="0.3" d="M300.799 273.81C288.488 273.81 278.577 283.721 278.577 296.032V696.032C278.577 708.343 288.488 718.254 300.799 718.254H434.133V273.81H300.799Z" fill="black"/>
<path opacity="0.1" d="M300.806 273.81C288.494 273.81 278.577 283.727 278.577 296.038V303.974C278.577 291.663 288.494 281.746 300.806 281.746H700.793C713.104 281.746 723.022 291.663 723.022 303.974V296.038C723.022 283.727 713.104 273.81 700.793 273.81H300.806Z" fill="white"/>
<path opacity="0.2" d="M443.26 257.937H423.419C417.94 257.937 413.498 262.943 413.498 269.119V738.817C413.498 744.993 417.94 750 423.419 750H443.26C448.739 750 453.181 744.993 453.181 738.817V269.119C453.181 262.943 448.739 257.937 443.26 257.937Z" fill="black"/>
<path d="M443.26 250H423.419C417.94 250 413.498 255.007 413.498 261.183V730.881C413.498 737.057 417.94 742.064 423.419 742.064H443.26C448.739 742.064 453.181 737.057 453.181 730.881V261.183C453.181 255.007 448.739 250 443.26 250Z" fill="#E4E4E4"/>
<path opacity="0.2" d="M423.419 250C417.923 250 413.498 254.981 413.498 261.176V269.113C413.498 262.917 417.923 257.937 423.419 257.937H443.26C448.756 257.937 453.181 262.917 453.181 269.113V261.176C453.181 254.981 448.756 250 443.26 250H423.419Z" fill="white"/>
</svg>
