<svg width="1001" height="1000" viewBox="0 0 1001 1000" fill="none" xmlns="http://www.w3.org/2000/svg">
<path d="M500.4 723.684C626.36 723.684 728.47 621.574 728.47 495.614C728.47 369.654 626.36 267.544 500.4 267.544C374.441 267.544 272.33 369.654 272.33 495.614C272.33 621.574 374.441 723.684 500.4 723.684Z" fill="#3F3F3F"/>
<path opacity="0.2" d="M500.4 258.771C478.284 258.862 456.28 261.94 434.988 267.92C465.379 290.551 497.371 317.863 526.545 347.587C568.584 390.42 604.859 437.852 621.151 483.998C626.702 467.357 631.59 449.984 635.748 432.291C645.225 391.967 651.161 350.164 653.909 312.705C610.353 277.808 556.211 258.786 500.4 258.771ZM413.709 275.253C376.807 289.242 343.82 311.918 317.54 341.359C291.26 370.8 272.462 406.14 262.736 444.387C294.767 429.786 330.444 416.052 366.902 405.324C415.8 390.936 465.711 381.757 509.275 383.806C519.222 384.274 528.823 385.383 538.024 387.095C530.165 378.086 521.919 369.198 513.387 360.505C481.664 328.184 446.265 298.636 413.709 275.253ZM671.11 327.885C667.941 362.594 662.259 399.954 653.669 436.506C639.183 498.146 616.952 557.107 583.871 595.566C596.29 593.047 608.831 590.085 621.323 586.725C664.372 575.146 706.829 559.152 742.828 542.557C744.882 529.936 745.947 517.173 746.014 504.386C746.002 471.446 739.365 438.846 726.497 408.524C713.628 378.202 694.793 350.779 671.11 327.885ZM420.905 410.807C404.79 414.103 388.399 418.212 372.111 423.005C331.816 434.862 292.051 450.631 257.801 467.002C255.845 479.368 254.837 491.866 254.786 504.386C254.894 537.253 261.597 569.764 274.499 599.994C287.4 630.223 306.238 657.556 329.896 680.372C333.603 644.234 340.144 604.99 349.872 566.714C365.218 506.336 388.013 448.705 420.905 410.807ZM380.232 528.543C375.602 542.397 371.418 556.707 367.725 571.237C357.045 613.258 350.265 656.867 346.994 695.586C390.458 730.633 444.567 749.825 500.4 750C523.51 749.973 546.5 746.686 568.691 740.234C537.986 718.011 505.626 691.103 476.038 661.766C433.994 620.081 397.456 573.865 380.232 528.543ZM737.928 565.001C703.886 579.948 665.343 593.984 626.085 604.543C568.622 620 509.994 628.312 462.023 620.202C470.601 629.876 479.647 639.414 489.024 648.711C521.165 680.579 556.907 709.598 589.764 732.524C625.957 718.321 658.261 695.728 684.019 666.604C709.777 637.481 728.253 602.658 737.928 565.001Z" fill="black"/>
<path d="M737.931 556.226C703.89 571.173 665.343 585.195 626.086 595.754C568.622 611.211 509.994 619.526 462.023 611.417C470.602 621.09 479.63 630.638 489.007 639.936C521.149 671.803 556.914 700.84 589.772 723.766C625.966 709.561 658.27 686.965 684.028 657.838C709.785 628.711 728.26 593.886 737.931 556.226Z" fill="#E5289A"/>
<path d="M380.231 519.768C375.601 533.622 371.403 547.932 367.71 562.462C357.03 604.483 350.257 648.085 346.986 686.804C390.451 721.856 444.562 741.052 500.399 741.228C523.508 741.202 546.497 737.916 568.687 731.466C537.981 709.243 505.618 682.345 476.03 653.008C433.986 611.323 397.455 565.09 380.231 519.768Z" fill="#19A2FF"/>
<path d="M420.911 402.021C404.797 405.317 388.413 409.437 372.124 414.23C331.829 426.087 292.058 441.849 257.808 458.22C255.849 470.589 254.839 483.09 254.786 495.614C254.896 528.482 261.602 560.993 274.506 591.222C287.41 621.451 306.25 648.783 329.909 671.597C333.616 635.459 340.137 596.205 349.866 557.929C365.211 497.551 388.019 439.919 420.911 402.021Z" fill="#00E2D3"/>
<path d="M671.106 319.104C667.937 353.813 662.258 391.184 653.669 427.735C639.183 489.375 616.951 548.326 583.87 586.784C596.29 584.266 608.82 581.318 621.312 577.958C664.361 566.378 706.825 550.394 742.824 533.8C744.88 521.174 745.946 508.407 746.014 495.615C746.003 462.673 739.365 430.071 726.496 399.747C713.628 369.424 694.791 341.998 671.106 319.104Z" fill="#ED4648"/>
<path d="M413.716 266.479C376.81 280.467 343.818 303.143 317.535 332.587C291.252 362.031 272.451 397.375 262.726 435.626C294.757 421.025 330.462 407.281 366.92 396.553C415.817 382.165 465.711 372.989 509.275 375.038C519.222 375.506 528.81 376.612 538.01 378.324C530.151 369.314 521.909 360.417 513.377 351.724C481.654 319.403 446.272 289.862 413.716 266.479Z" fill="#7ADD21"/>
<path d="M500.4 250C478.285 250.088 456.283 253.162 434.991 259.139C465.383 281.769 497.371 309.095 526.545 338.819C568.584 381.652 604.852 429.08 621.145 475.226C626.696 458.586 631.594 441.206 635.752 423.513C645.228 383.189 651.162 341.403 653.909 303.944C610.355 269.044 556.213 250.018 500.4 250Z" fill="#FF8D23"/>
<path opacity="0.2" d="M500.4 250C478.284 250.091 456.28 253.168 434.988 259.149C437.933 261.342 440.943 263.775 443.914 266.053C462.396 261.444 481.353 259 500.4 258.772C555.889 258.807 609.731 277.63 653.155 312.174C653.384 309.454 653.713 306.612 653.909 303.934C610.353 269.037 556.211 250.015 500.4 250ZM413.709 266.482C376.807 280.471 343.82 303.146 317.54 332.587C291.26 362.028 272.462 397.369 262.736 435.615C263.827 435.118 264.994 434.638 266.094 434.142C276.895 398.126 295.821 365.07 321.414 337.522C347.007 309.975 378.583 288.672 413.709 275.254C446.265 298.637 481.664 328.185 513.387 360.506C518.697 365.916 523.845 371.427 528.909 376.97C531.964 377.396 535.05 377.771 538.024 378.324C530.165 369.314 521.919 360.427 513.387 351.734C481.664 319.413 446.265 289.865 413.709 266.482ZM671.11 319.113C667.941 353.823 662.259 391.183 653.669 427.734C639.183 489.374 616.952 548.336 583.871 586.794C586.671 586.226 589.489 585.556 592.3 584.944C620.77 546.702 640.453 492.745 653.669 436.506C662.259 399.955 667.941 362.595 671.11 327.885C694.331 350.388 712.88 377.254 725.693 406.943C738.506 436.632 745.33 468.558 745.774 500.891C745.873 499.133 745.953 497.374 746.014 495.614C746.002 462.675 739.365 430.074 726.497 399.753C713.628 369.431 694.793 342.007 671.11 319.113ZM420.905 402.035C404.79 405.331 388.399 409.441 372.111 414.234C331.816 426.091 292.051 441.859 257.801 458.231C255.845 470.597 254.837 483.094 254.786 495.614C254.853 496.711 254.927 497.808 255.009 498.904C255.245 488.22 256.178 477.564 257.801 467.002C292.051 450.631 331.816 434.862 372.111 423.006C385.526 419.058 398.979 415.708 412.321 412.76C415.112 409.054 417.953 405.436 420.905 402.035ZM380.232 519.771C375.602 533.625 371.418 547.936 367.725 562.466C357.045 604.487 350.265 648.095 346.994 686.815C347.279 687.015 347.565 687.215 347.851 687.414C351.347 650.749 357.775 610.384 367.725 571.238C371.418 556.708 375.602 542.397 380.232 528.543C397.456 573.866 433.994 620.082 476.038 661.767C502.745 688.246 531.66 712.552 559.628 733.416C562.661 732.822 565.683 732.17 568.691 731.462C537.986 709.239 505.626 682.331 476.038 652.995C433.994 611.31 397.456 565.094 380.232 519.771ZM737.928 556.229C703.886 571.177 665.343 585.212 626.085 595.772C568.622 611.228 509.994 619.541 462.023 611.431C465.042 614.835 468.197 618.19 471.326 621.556C517.465 627.224 572.285 619.015 626.085 604.544C664.09 594.321 701.34 580.818 734.57 566.406C735.763 563.039 736.882 559.646 737.928 556.229Z" fill="white"/>
</svg>
