<svg width="1000" height="1000" viewBox="0 0 1000 1000" fill="none" xmlns="http://www.w3.org/2000/svg">
<g clip-path="url(#clip0_56_208)">
<path d="M343.807 266.454L499.442 250L655.078 266.454L775.57 428.204L499.442 749.751L223.315 428.204L343.807 266.454Z" fill="#FDB300"/>
<path d="M335.16 428.204L499.442 749.751L223.315 428.204H335.16Z" fill="#EA6C00"/>
<path d="M663.724 428.204L499.442 749.751L775.569 428.204H663.724Z" fill="#EA6C00"/>
<path d="M335.16 428.204H663.725L499.442 749.751L335.16 428.204Z" fill="#FDAD00"/>
<path d="M499.442 250L343.806 266.454L335.16 428.204L499.442 250Z" fill="#FDD231"/>
<path d="M499.442 250L655.078 266.454L663.724 428.204L499.442 250Z" fill="#FDD231"/>
<path d="M775.57 428.204L655.077 266.454L663.725 428.204H775.57Z" fill="#FDAD00"/>
<path d="M223.315 428.204L343.806 266.454L335.16 428.204H223.315Z" fill="#FDAD00"/>
<path d="M499.442 250L335.16 428.204H663.725L499.442 250Z" fill="#FEEEB7"/>
</g>
<defs>
<clipPath id="clip0_56_208">
<rect width="553.371" height="500" fill="white" transform="translate(223.315 250)"/>
</clipPath>
</defs>
</svg>
