<svg width="1001" height="1000" viewBox="0 0 1001 1000" fill="none" xmlns="http://www.w3.org/2000/svg">
<g clip-path="url(#clip0_61_665)">
<path d="M722.178 431.646C684.637 394.125 623.72 394.125 585.428 431.646L432.283 584.771C422.908 594.146 422.908 609.771 432.283 619.146C441.658 628.5 457.283 628.5 466.658 619.146L619.803 466C638.533 447.271 669.012 447.271 687.803 466C706.553 484.75 706.553 515.25 687.803 534L536.991 684.813C555.741 703.542 586.199 703.542 604.97 684.813L721.408 568.375C759.658 530.083 759.658 469.146 722.178 431.646ZM670.616 482.417C661.22 473.042 645.595 473.042 636.241 482.417L483.033 636.354C464.283 655.083 433.845 655.083 415.074 636.354C405.699 626.979 390.074 626.979 380.699 636.354C371.324 645.729 371.324 661.354 380.699 670.708C418.22 708.229 479.158 708.229 517.449 670.708L670.595 517.583C679.949 507.438 679.949 491.771 670.616 482.417ZM619.803 329.292C582.283 291.771 521.345 291.771 483.053 329.292L329.908 482.438C320.533 491.792 320.533 507.417 329.908 516.792C339.283 526.167 354.908 526.167 364.283 516.792L518.345 363.646C537.095 344.917 567.741 344.917 586.47 363.646C595.866 373.021 611.491 373.021 620.845 363.646C629.616 353.5 629.616 338.667 620.241 329.292H619.803ZM568.241 380.063C558.866 370.688 543.241 370.688 533.866 380.063L380.72 534C361.991 552.75 331.491 552.75 312.699 534C293.949 515.271 293.949 484.771 312.699 466L463.512 315.187C444.762 296.437 414.303 296.437 395.533 315.187L278.324 431.646C240.824 469.146 240.824 530.083 278.324 568.375C315.845 605.896 376.762 605.896 415.074 568.375L568.199 415.229C577.595 405.063 577.595 389.438 568.199 380.063H568.241Z" fill="black"/>
</g>
<defs>
<clipPath id="clip0_61_665">
<rect width="500" height="500" fill="white" transform="translate(250.199 250)"/>
</clipPath>
</defs>
</svg>
