<svg width="1001" height="1000" viewBox="0 0 1001 1000" fill="none" xmlns="http://www.w3.org/2000/svg">
<path d="M500.8 745.773C636.537 745.773 746.573 635.737 746.573 500C746.573 364.264 636.537 254.228 500.8 254.228C365.064 254.228 255.027 364.264 255.027 500C255.027 635.737 365.064 745.773 500.8 745.773Z" fill="#40403F" stroke="#4A494A" stroke-width="70"/>
<path d="M335.22 397.343L327.974 387.923L342.225 379.106C338.725 384.671 336.345 390.866 335.22 397.343ZM398.143 507.609L394.761 507.85C392.466 508.092 388.602 507.126 385.945 507.971L387.635 516.546L399.23 513.043C398.984 511.21 398.621 509.395 398.143 507.609ZM393.916 586.232L391.742 588.889L391.259 595.411L393.433 594.807C396.754 593.735 400.143 592.888 403.577 592.27L404.302 578.744C400.416 580.592 396.897 583.129 393.916 586.232ZM631.718 348.188C595.345 334.285 556.767 327.044 517.829 326.812C468.795 326.812 421.814 338.889 376.766 360.507C383.291 361.247 389.7 362.789 395.848 365.097C405.268 360.99 414.568 357.488 423.988 354.348C454.241 344.212 485.923 338.992 517.829 338.889C550.892 339.067 583.713 344.53 615.051 355.072C593.407 399.231 578.623 446.432 571.21 495.048C567.848 519.221 567.361 543.708 569.761 567.995C572.036 588.74 576.655 609.16 583.529 628.865C542.466 652.778 502.974 664.372 463.119 664.372C440.314 664.285 417.676 660.492 396.09 653.14C391.441 655.005 386.485 655.988 381.476 656.039L380.389 660.266C406.695 670.841 434.767 676.332 463.119 676.449C510.099 676.449 555.148 660.87 598.384 634.058C563.481 545.894 581.476 451.087 631.718 348.188ZM369.036 441.304C366.742 436.594 364.326 432.005 361.79 427.415C360.945 428.865 359.978 432.246 358.288 433.575L362.756 442.15C364.831 441.741 366.928 441.459 369.036 441.304Z" fill="#E17926"/>
<path d="M577.128 495.773C583.167 451.45 598.263 404.107 623.384 351.57C589.511 339.404 553.82 333.074 517.829 332.851C474.471 332.851 430.631 342.754 387.152 362.44C400.651 365.795 412.999 372.72 422.901 382.488L424.592 384.3C426.34 385.86 427.704 387.803 428.577 389.976C429.145 392.668 428.978 395.463 428.094 398.068C425.302 407.32 418.963 415.091 410.462 419.686C400.558 425 389.326 423.913 378.577 421.619C375.558 421.015 372.297 420.411 369.157 421.136C366.017 421.86 363.602 424.276 361.79 427.295C364.326 431.884 366.742 436.474 369.036 441.184C373.775 440.778 378.532 440.616 383.288 440.701C395.486 440.58 407.684 439.735 419.761 441.667C425.343 442.363 430.819 443.742 436.065 445.773C438.143 446.499 440.068 447.605 441.742 449.034H441.863C443.741 451.005 445.181 453.351 446.09 455.918C453.94 477.416 437.877 496.377 418.553 503.261C410.878 505.884 402.865 507.389 394.761 507.73C393.874 507.805 392.981 507.764 392.104 507.609L393.433 514.614C397.901 513.285 402.37 511.957 406.959 510.87C413.432 509.193 420.008 507.942 426.645 507.126C431.718 506.643 439.689 504.831 443.795 508.696C445.969 510.628 447.177 513.527 448.384 516.305C450.526 521.116 452.42 526.034 454.061 531.039C455.437 535.032 455.931 539.276 455.51 543.479C454.423 550.483 449.109 556.281 443.07 560.145C431.838 567.392 418.795 571.377 406.959 577.174C403.859 578.689 400.873 580.424 398.022 582.367L397.418 593.479C411.742 589.803 426.68 589.186 441.259 591.667C443.98 592.056 446.603 592.958 448.988 594.324C453.336 596.981 455.51 602.174 455.51 607.247C455.51 612.319 453.457 617.15 450.92 621.498C443.592 633.049 432.566 641.777 419.64 646.256C413.481 648.43 407.08 649.276 401.041 651.329C396.695 652.951 392.26 654.322 387.756 655.435C387.719 655.766 387.638 656.091 387.515 656.401C411.707 665.426 437.298 670.127 463.119 670.29C505.51 670.29 547.297 657.609 590.896 631.401C574.981 588.068 570.246 541.421 577.128 495.773Z" fill="#F78F20"/>
<path d="M500.558 453.261C509.495 451.812 518.433 439.855 521.09 425.604C523.747 411.353 514.93 399.517 501.283 400.725C487.635 401.932 479.544 415.7 481.597 430.072C483.65 444.444 491.621 454.589 500.558 453.261Z" fill="#FDCDA0"/>
<path d="M547.902 531.642C522.66 515.459 511.187 487.923 491.501 460.266C472.781 494.082 465.293 528.985 441.742 555.797C480.752 557.729 515.414 546.498 547.902 531.642Z" fill="#E17827"/>
<path d="M517.225 579.348C484.978 549.759 472.659 504.952 424.833 478.744C432.08 519.928 433.167 555.918 406.959 586.111C447.78 595.894 483.891 590.821 517.225 579.348Z" fill="#C86228"/>
<path d="M556.717 544.686C507.925 566.184 456.717 579.71 400.196 570.29C409.374 516.787 401.524 465.459 365.051 418.72C427.249 389.855 497.418 372.101 579.06 385.749C553.336 442.391 541.862 495.169 556.717 544.686Z" stroke="#E17827" stroke-width="40" stroke-miterlimit="10"/>
<path opacity="0.5" d="M433.167 390.942C433.155 390.139 432.948 389.352 432.563 388.647L432.08 388.043C430.873 387.077 429.061 386.956 427.612 386.473L425.559 385.628L424.834 384.903C412.529 372.274 396.31 364.186 378.819 361.956C374.687 361.289 370.466 361.412 366.38 362.318C348.385 366.908 334.013 390.7 336.428 408.574C337.998 420.048 346.332 426.932 355.027 433.574C355.723 434.165 356.552 434.58 357.443 434.782C360.22 435.145 361.549 429.951 362.757 428.26C363.964 426.57 366.38 422.946 370.124 422.222C373.32 421.801 376.569 422.048 379.665 422.946C390.293 425.483 401.525 426.69 411.549 421.618C414.566 420.165 417.336 418.25 419.761 415.942C420.392 415.696 420.967 415.326 421.452 414.855C423.252 413.537 424.947 412.083 426.525 410.507L429.061 407.971C431.137 405.272 432.432 402.055 432.805 398.671C433.226 396.118 433.348 393.523 433.167 390.942ZM501.042 486.473C501.371 485.517 501.775 484.588 502.249 483.695C509.133 467.512 520.969 454.227 532.926 441.545C544.882 428.864 556.476 418.478 572.539 414.492C583.606 412.356 594.993 412.521 605.993 414.975C612.636 416.183 620.124 416.666 626.283 419.806C632.443 422.946 637.032 429.468 640.776 435.145C651.874 452.312 661.917 470.138 670.848 488.526C676.525 499.758 683.047 511.111 683.047 523.913C682.78 531.955 681.398 539.922 678.94 547.584C672.781 568.236 663.844 588.405 654.906 607.85C645.969 627.294 635.22 644.686 617.708 656.159C592.104 673.067 559.617 669.927 530.873 665.821C526.042 665.096 485.22 661.111 484.858 657.246C484.617 655.314 497.781 650.966 499.592 650.12C516.924 642.724 532.062 630.996 543.554 616.062C547.65 610.376 550.452 603.864 551.766 596.98C553.578 586.835 556.718 576.932 562.394 568.357C568.071 559.782 575.8 553.744 575.8 542.753C575.8 538.888 574.955 535.145 575.317 531.28C575.679 527.415 577.491 523.43 581.114 522.101C584.737 520.773 585.945 521.497 587.153 519.565C587.647 518.768 587.899 517.845 587.877 516.908C589.442 506.989 593.107 497.519 598.626 489.13C588.672 504.38 573.864 515.827 556.597 521.618C545.969 525.845 534.254 528.623 523.022 526.449C511.79 524.275 501.042 516.183 498.747 504.951C497.7 498.7 498.497 492.278 501.042 486.473ZM450.317 468.357C450.418 467.475 450.458 466.587 450.438 465.7C450.588 462.051 450.055 458.405 448.868 454.951C448.631 454.064 448.207 453.239 447.624 452.53C447.04 451.822 446.311 451.247 445.486 450.845C445 450.599 444.461 450.475 443.916 450.483C442.272 449.075 440.391 447.97 438.361 447.222C433.079 445.303 427.616 443.927 422.056 443.116C409.979 441.183 397.781 442.149 385.583 442.149C373.385 442.149 362.274 442.149 352.129 448.188C341.984 454.227 336.549 465.821 334.496 476.449C332.443 487.077 334.254 497.222 340.172 505.434C344.916 511.487 351.484 515.849 358.903 517.872C366.322 519.896 374.196 519.473 381.356 516.666C382.342 516.336 383.248 515.801 384.013 515.096C384.979 514.009 385.22 512.439 385.945 511.111C387.757 507.608 393.795 509.42 396.935 509.299C405.027 508.851 413.025 507.349 420.728 504.831C431.476 500.966 441.259 493.357 446.452 483.695C447.276 483.377 447.96 482.778 448.385 482.004C448.698 481.348 448.941 480.659 449.109 479.951C449.609 477.441 449.932 474.898 450.076 472.343C450.276 471.024 450.357 469.69 450.317 468.357ZM465.534 533.333C465.3 528.386 463.848 523.574 461.307 519.323C459.496 516.545 458.53 513.526 455.148 513.043C453.107 513.067 451.078 513.351 449.109 513.888C448.525 512.721 447.749 511.66 446.815 510.748C442.95 506.884 434.858 508.333 429.786 508.695C423.123 509.319 416.508 510.368 409.979 511.835C396.948 514.644 384.149 518.439 371.694 523.188C360.824 527.415 348.989 531.401 340.897 540.217C337.877 543.599 332.684 549.879 331.718 554.347C328.457 568.961 332.563 587.077 346.935 594.565C355.51 599.033 365.897 598.43 375.559 597.101C380.631 596.376 385.824 595.41 389.689 592.149C391.501 590.459 392.95 588.405 394.641 586.715C398.264 582.85 403.095 580.314 407.926 578.14C420.003 572.705 433.167 569.082 444.52 562.198C450.679 558.454 456.114 552.898 457.443 545.893C457.69 544.988 457.812 544.054 457.805 543.116L461.066 541.545C462.609 540.802 463.938 539.68 464.931 538.285C465.674 536.746 465.886 535.005 465.534 533.333ZM461.79 606.159C460.824 602.294 459.133 597.826 454.906 596.739C454.126 596.491 453.31 596.368 452.491 596.376L450.8 595.048C448.391 593.734 445.778 592.836 443.071 592.391C427.122 589.598 410.74 590.591 395.245 595.289C381.839 599.275 357.926 607.729 356.476 624.033C356.029 630.345 357.778 636.618 361.428 641.787C366.018 648.913 373.868 656.159 382.805 656.521C389.81 656.763 396.211 654.106 402.612 651.932C409.013 649.758 415.172 649.154 421.211 646.859C433.147 642.714 443.519 634.998 450.921 624.758L451.887 624.516C454.912 623.922 457.713 622.501 459.979 620.41C460.739 619.506 461.351 618.487 461.79 617.391C463.361 613.768 462.757 609.782 461.79 606.159Z" fill="#C96328"/>
<path d="M423.626 383.696C411.364 371.076 395.185 362.986 377.732 360.749C373.564 360.022 369.291 360.145 365.172 361.111C347.297 365.58 332.805 389.493 335.22 407.367C336.911 418.841 345.123 425.725 353.819 432.246C354.508 432.873 355.336 433.328 356.235 433.575C359.012 433.937 360.341 428.744 361.549 426.932C362.756 425.121 365.292 421.739 369.036 421.015C372.192 420.589 375.403 420.836 378.457 421.739C389.085 424.275 400.317 425.483 410.462 420.411C418.995 416.051 425.463 408.499 428.457 399.396C429.438 396.814 429.648 394.003 429.061 391.304C428.281 389.107 426.999 387.122 425.317 385.507L423.626 383.696Z" fill="#F7DDC4"/>
<path d="M410.461 420.411L413.843 418.478C403.457 416.908 399.109 418.358 396.935 417.633C394.761 416.908 385.582 417.391 382.442 416.546C379.302 415.701 375.075 415.942 372.418 415.338C368.536 414.395 364.573 413.829 360.582 413.647C354.423 413.044 349.23 410.628 345.727 413.285C342.225 415.942 340.896 416.425 338.964 417.633C342.587 423.43 348.143 427.899 353.819 432.246C354.508 432.873 355.336 433.328 356.234 433.575C359.012 433.937 360.341 428.744 361.548 426.932C362.756 425.121 365.292 421.739 369.036 421.015C372.192 420.589 375.403 420.836 378.457 421.739C389.085 424.275 400.317 425.483 410.461 420.411Z" fill="#EACEB1"/>
<path opacity="0.3" d="M429.061 391.304C428.281 389.107 426.999 387.122 425.317 385.507L423.626 383.696C411.364 371.076 395.185 362.986 377.732 360.749C373.564 360.022 369.291 360.145 365.172 361.111C365.172 361.111 349.23 369.324 350.437 387.56C352.007 410.507 356.597 410.387 369.036 421.015C372.192 420.589 375.403 420.836 378.457 421.739C389.085 424.275 400.317 425.483 410.462 420.411C418.995 416.051 425.462 408.499 428.457 399.396C429.438 396.814 429.648 394.003 429.061 391.304Z" fill="#F8E9DB"/>
<path d="M431.355 388.647L430.872 388.043C429.664 387.077 427.853 386.956 426.403 386.473L420.727 384.299L410.824 381.401C402.974 379.348 393.795 377.295 386.307 381.642C384.391 382.681 382.727 384.128 381.433 385.881C380.139 387.634 379.247 389.651 378.819 391.787C378.507 393.7 378.651 395.659 379.238 397.506C379.826 399.353 380.841 401.035 382.201 402.415C385.22 405.314 389.93 406.884 393.916 408.333C401.348 411.545 409.194 413.699 417.225 414.734C418.101 414.916 419.005 414.916 419.882 414.734C420.476 414.486 421.01 414.116 421.452 413.647C423.804 412.017 425.953 410.112 427.853 407.971C429.928 405.272 431.223 402.055 431.597 398.671C432.018 396.118 432.14 393.524 431.959 390.942C431.962 390.137 431.754 389.346 431.355 388.647Z" fill="#34B9EB"/>
<path d="M670.485 487.318C664.688 475.724 658.65 464.251 652.249 453.019L649.108 447.705L647.78 445.531L645.365 441.545C644.892 440.948 644.487 440.3 644.157 439.613L640.413 433.937C636.548 428.26 632.2 421.859 625.799 418.599C619.398 415.338 612.273 414.975 605.63 413.768C594.63 411.313 583.242 411.148 572.176 413.285C555.993 417.27 543.553 428.623 532.442 440.338C521.331 452.053 508.77 466.304 501.765 482.487L500.679 485.265C498.384 491.183 497.055 497.584 498.384 503.744C500.558 514.975 511.307 523.188 522.659 525.362L524.712 525.603H537.031C543.619 524.656 550.067 522.912 556.234 520.41C573.487 514.594 588.288 503.153 598.263 487.922C595.596 492.293 593.255 496.855 591.258 501.57C589.377 506.089 588.117 510.842 587.514 515.7C587.476 516.629 587.229 517.537 586.79 518.357C585.582 520.289 582.804 520.169 580.751 520.893C580.071 521.11 579.451 521.482 578.939 521.98C576.787 560.54 583.179 599.1 597.659 634.903C578.316 647.369 557.61 657.581 535.944 665.338C563.36 669.082 593.311 670.773 617.345 655.072C634.857 643.478 645.968 625.241 654.543 606.642C663.118 588.043 672.418 567.029 678.456 546.376C680.973 538.729 682.356 530.753 682.563 522.705C682.683 509.903 676.041 498.55 670.485 487.318Z" fill="#F7DDC4"/>
<path d="M579.06 533.212C578.96 533.973 578.919 534.74 578.939 535.507V537.439L579.06 542.512V544.444L579.302 549.638L579.423 551.449L579.785 556.884C579.765 557.37 579.806 557.857 579.906 558.333L580.51 564.976V565.217C580.993 569.807 581.596 574.517 582.442 579.106C582.464 579.637 582.545 580.163 582.683 580.676L583.529 585.749C583.736 586.503 583.897 587.269 584.012 588.043L584.978 592.512L585.461 595.048L586.427 599.154L587.152 601.811L588.239 605.918L588.964 608.575L590.171 612.56C590.398 613.462 590.681 614.35 591.017 615.217L592.345 619.324C592.572 620.186 592.855 621.033 593.191 621.86C593.661 623.328 594.184 624.778 594.761 626.208L595.485 628.382L598.022 634.903L590.896 639.372L590.292 639.734L583.408 643.72L582.563 644.203L575.799 647.826L574.833 648.43L568.07 651.811L566.983 652.415L560.22 655.676L559.254 656.039L552.369 659.179L551.403 659.541L544.398 662.319L543.795 662.56L536.307 665.338C563.722 669.082 593.674 670.773 617.708 654.952C625.053 650.097 631.542 644.056 636.911 637.077C630.921 596.565 610.351 559.632 579.06 533.212ZM636.186 453.744C643.191 441.304 641.862 443.357 637.756 430.072C634.495 425.483 630.751 421.135 625.799 418.599C620.848 416.063 612.273 414.976 605.63 413.768C601.524 413.043 597.539 412.439 593.432 412.077C608.529 425.362 612.514 438.526 612.635 449.758C612.756 460.99 603.094 478.985 598.263 487.923C593.432 496.86 574.109 536.111 602.007 500.483C610.703 489.493 620.968 482.971 627.249 472.101C633.529 461.232 628.336 467.874 636.186 453.744Z" fill="#EACEB1"/>
<path opacity="0.3" d="M605.389 421.498C602.49 418.599 597.539 412.923 593.312 411.957C586.761 411.37 580.158 411.819 573.746 413.285C557.684 417.271 545.123 428.623 534.133 440.338C523.143 452.053 510.341 466.304 503.457 482.488C502.982 483.381 502.578 484.31 502.249 485.266C499.954 491.184 498.626 497.585 499.954 503.744C502.128 514.493 511.911 522.343 522.539 524.879C539.326 525 564.93 516.063 584.133 496.377C611.428 468.478 620.123 435.87 605.389 421.498Z" fill="#F8E9DB"/>
<path d="M531.596 465.821C529.428 466.676 527.426 467.902 525.679 469.445C520.727 473.068 516.379 477.416 511.91 481.401C507.442 485.387 500.558 489.251 498.867 495.773C498.082 499.191 498.335 502.765 499.592 506.039C501.403 511.836 504.664 517.391 509.737 520.773C519.036 526.932 529.181 521.618 536.91 515.459C544.64 509.3 552.732 504.831 556.717 496.498C560.703 488.164 555.147 480.556 550.679 474.879C546.21 469.203 539.93 463.768 532.683 465.459L531.596 465.821Z" fill="#9F87BF"/>
<path opacity="0.1" d="M551.887 476.449L504.182 515.338C505.723 517.442 507.6 519.278 509.737 520.773C519.037 526.932 529.182 521.618 536.911 515.459C544.641 509.299 552.732 504.831 556.718 496.498C559.858 489.976 555.993 482.126 551.887 476.449Z" fill="black"/>
<path d="M441.742 449.396H441.621C439.917 448.011 438 446.91 435.945 446.135C430.664 444.216 425.201 442.841 419.641 442.029C407.563 440.097 395.365 441.063 383.167 441.063C370.969 441.063 359.858 441.063 349.713 447.101C339.568 453.14 334.133 464.614 332.08 475.242C330.027 485.87 331.839 496.015 337.757 504.227C342.512 510.264 349.081 514.614 356.496 516.636C363.91 518.658 371.778 518.246 378.94 515.459C379.927 515.129 380.832 514.594 381.597 513.889C382.563 512.802 382.805 511.232 383.529 509.903C385.341 506.401 391.38 508.213 394.52 508.092C402.611 507.644 410.61 506.142 418.312 503.623C437.757 496.618 453.819 477.657 445.969 456.28C445.089 453.7 443.645 451.349 441.742 449.396Z" fill="#F7DDC4"/>
<path d="M389.689 523.672C392.829 522.705 389.085 514.614 386.307 509.3C386.135 509.049 385.898 508.849 385.622 508.721C385.346 508.594 385.04 508.543 384.737 508.575C387.273 507.005 391.984 508.213 394.52 508.092C402.611 507.644 410.61 506.142 418.312 503.623C426.904 500.556 434.501 495.213 440.293 488.164C422.901 486.232 415.051 502.657 389.085 499.879C377.732 498.672 367.95 501.449 358.046 501.691C348.143 501.933 340.051 497.102 336.911 502.899L337.757 504.227C342.95 511.474 351.283 515.942 360.1 517.391H360.462C362.335 517.727 364.235 517.889 366.138 517.875C373.264 518.961 380.148 521.739 387.153 523.43C387.958 523.748 388.838 523.832 389.689 523.672Z" fill="#EACEB1"/>
<path opacity="0.3" d="M441.742 449.396H441.621C439.917 448.011 438 446.91 435.945 446.135C430.664 444.216 425.201 442.841 419.641 442.029C407.564 440.097 395.365 441.063 383.167 441.063C370.969 441.063 354.182 446.981 352.491 467.029C349.472 504.227 406.235 504.952 421.09 501.932C425.975 501.027 430.598 499.045 434.621 496.13C438.645 493.215 441.969 489.44 444.351 485.08C446.734 480.72 448.115 475.884 448.395 470.923C448.675 465.962 447.846 461.001 445.969 456.401C445.105 453.778 443.66 451.383 441.742 449.396Z" fill="#F8E9DB"/>
<path d="M394.519 468.358C394.494 464.634 395.825 461.028 398.263 458.213C401.887 454.106 406.476 453.261 411.669 452.416L419.519 451.329C426.645 450.483 433.891 449.517 441.259 449.276C442.278 449.218 443.301 449.341 444.278 449.638C445.103 450.04 445.832 450.615 446.415 451.323C446.999 452.032 447.423 452.857 447.66 453.744C448.847 457.198 449.38 460.843 449.23 464.493C449.267 469.276 448.822 474.05 447.901 478.744C447.733 479.452 447.49 480.14 447.176 480.797C445.848 483.092 442.587 483.333 440.292 483.696C430.877 484.863 421.367 485.065 411.911 484.3C409.147 484.21 406.415 483.68 403.819 482.73C400.986 481.571 398.576 479.573 396.913 477.003C395.251 474.434 394.415 471.416 394.519 468.358Z" fill="#5D509E"/>
<path d="M358.287 429.952C356.355 429.952 356.355 429.589 353.215 429.106C350.075 428.623 351.162 428.865 349.833 428.986H349.592L353.819 432.246L355.147 433.213L356.597 433.575C357.295 433.474 357.936 433.133 358.408 432.609L359.616 430.918L359.978 430.073L358.287 429.952ZM359.737 517.391H359.616C369.157 517.029 378.094 521.256 387.152 523.43C387.958 523.748 388.837 523.832 389.688 523.672C392.829 522.705 389.085 514.614 386.307 509.3C386.176 509.068 385.988 508.874 385.762 508.735C385.535 508.596 385.277 508.517 385.012 508.505C384.746 508.492 384.482 508.548 384.244 508.666C384.005 508.784 383.801 508.96 383.65 509.179C379.785 514.493 362.273 517.15 359.737 517.391ZM579.906 558.937L579.785 557.971C579.756 558.298 579.797 558.628 579.906 558.937ZM580.993 520.652C583.167 519.928 585.944 520.048 587.152 518.237C587.561 517.406 587.807 516.504 587.877 515.58C588.465 510.68 589.724 505.885 591.621 501.329C593.575 496.616 595.876 492.054 598.505 487.681C593.908 495.508 587.69 502.262 580.268 507.488L579.181 521.739L580.993 520.652Z" fill="#DDC1A8"/>
<path d="M330.51 553.019C331.597 548.551 336.669 542.271 339.689 539.01C347.78 530.193 359.616 526.208 370.607 521.981C383.021 517.232 395.779 513.437 408.771 510.628C415.288 509.102 421.908 508.053 428.578 507.488C433.65 507.126 441.742 505.556 445.727 509.541C447.684 511.797 449.163 514.427 450.075 517.271C452.112 522.151 453.846 527.153 455.268 532.246C456.53 536.265 456.901 540.51 456.355 544.686C455.027 551.691 449.471 557.246 443.433 560.87C431.959 567.754 418.795 571.377 406.718 576.932C401.887 579.106 397.177 581.643 393.553 585.387C391.742 587.198 390.413 589.251 388.481 590.821C384.387 593.789 379.521 595.509 374.471 595.773C364.809 597.222 354.423 597.826 345.727 593.237C331.476 585.749 327.249 567.754 330.51 553.019Z" fill="#F7DDC4"/>
<path d="M385.703 591.666C389.568 589.975 392.829 585.386 395.365 582.246C395.602 581.907 395.94 581.653 396.331 581.521C396.51 581.484 396.696 581.499 396.867 581.563C397.038 581.627 397.187 581.738 397.298 581.884C400.196 583.695 392.95 589.492 393.554 592.995C393.71 594.086 393.628 595.199 393.312 596.256C392.829 597.343 391.017 596.859 389.93 596.98C381.476 598.309 385.099 593.961 376.887 595.41C380.389 593.719 382.563 593.116 385.703 591.666ZM442.346 553.14C438.602 553.623 392.346 571.618 385.824 573.792C379.302 575.966 368.674 580.314 357.926 580.314C347.177 580.314 344.641 581.038 341.742 584.661L338.723 588.043C340.739 590.167 343.109 591.925 345.727 593.236C354.423 597.826 364.81 597.222 374.471 595.773C379.423 595.169 384.616 594.082 388.481 590.821C390.413 589.251 391.742 587.198 393.554 585.386C397.177 581.642 401.887 579.106 406.718 576.932C418.795 571.376 431.959 567.753 443.433 560.869C447.137 558.751 450.348 555.869 452.853 552.415L442.346 553.14Z" fill="#EACEB1"/>
<path opacity="0.3" d="M455.269 532.246C453.846 527.153 452.112 522.151 450.075 517.271C449.163 514.427 447.684 511.797 445.728 509.541C441.742 505.556 433.65 507.126 428.578 507.488C421.908 508.053 415.288 509.102 408.771 510.628C398.707 512.796 388.785 515.579 379.061 518.961C360.1 531.039 354.182 545.411 358.53 557.85C363.964 573.672 388.481 577.295 415.051 571.015C424.713 567.15 434.375 566.304 443.433 560.87C449.472 557.246 455.027 551.691 456.356 544.686C456.901 540.51 456.531 536.265 455.269 532.246Z" fill="#F8E9DB"/>
<path d="M411.307 525.12C414.81 520.652 421.694 518.357 426.887 516.908C432.08 515.459 439.206 514.492 445.365 513.164C447.539 512.681 451.766 511.473 454.061 511.835C456.356 512.198 458.288 515.338 460.22 518.116C462.153 520.893 463.964 527.294 464.447 532.125C464.682 533.811 464.431 535.529 463.723 537.077C462.73 538.473 461.401 539.594 459.858 540.338C456.709 541.992 453.439 543.405 450.075 544.565C444.81 546.325 439.447 547.776 434.013 548.913C427.732 550.362 420.124 552.415 414.568 547.946C412.024 545.757 410.281 542.782 409.616 539.492C408.65 535.386 408.409 529.71 410.703 525.966L411.307 525.12Z" fill="#41439A"/>
<g style="mix-blend-mode:overlay" opacity="0.4">
<path d="M463.36 525.483L409.857 540.58C410.632 543.462 412.276 546.035 414.568 547.947C420.123 552.416 427.732 550.363 434.012 548.913C439.446 547.777 444.809 546.325 450.075 544.566C453.438 543.406 456.708 541.993 459.857 540.338C461.4 539.595 462.73 538.473 463.722 537.078C464.43 535.53 464.682 533.812 464.447 532.126C464.202 529.894 463.84 527.677 463.36 525.483Z" fill="black"/>
</g>
<path d="M449.592 593.841C447.183 592.527 444.57 591.628 441.862 591.184C425.913 588.391 409.531 589.384 394.036 594.082C380.63 598.068 356.717 606.522 355.268 622.826C354.82 629.138 356.57 635.411 360.22 640.58C364.809 647.706 372.659 654.952 381.596 655.314C388.601 655.556 395.002 652.899 401.403 650.725C407.804 648.551 413.964 647.947 420.002 645.652C432.95 641.219 444.017 632.536 451.403 621.015C454.214 616.777 455.802 611.846 455.993 606.764C456.113 601.812 453.819 596.498 449.592 593.841Z" fill="#F7DDC4"/>
<path d="M425.196 636.352C414.326 639.975 405.026 641.062 395.244 643.84C385.461 646.618 375.316 636.111 369.398 650.604C372.9 653.361 377.15 655.002 381.597 655.314C388.601 655.555 395.002 652.898 401.403 650.724C407.804 648.55 413.964 647.946 420.002 645.652C430.872 641.666 440.896 635.145 447.901 625.966C439.084 630.193 430.63 634.541 425.196 636.352Z" fill="#EACEB1"/>
<path opacity="0.3" d="M449.592 593.841C447.184 592.527 444.57 591.629 441.863 591.184C426.213 588.455 410.147 589.322 394.882 593.72C384.496 602.899 379.303 613.527 382.08 622.947C386.187 636.957 401.404 650.725 431.839 639.976C439.809 635.346 446.526 628.836 451.404 621.015C454.215 616.777 455.803 611.846 455.993 606.764C456.114 601.812 453.819 596.498 449.592 593.841Z" fill="#F8E9DB"/>
<path d="M410.944 617.028C413.118 622.705 419.278 625.966 424.954 626.811C428.854 627.294 432.806 627.172 436.669 626.449C441.379 625.603 446.089 624.516 450.679 623.309C453.712 622.74 456.52 621.315 458.771 619.202C459.531 618.299 460.143 617.279 460.582 616.183C462.152 612.56 461.548 608.574 460.582 604.951C459.616 601.328 457.925 596.618 453.698 595.531C451.51 595.05 449.244 595.05 447.056 595.531C440.655 596.497 434.495 598.792 428.094 600C424.229 600.845 420.244 601.57 416.862 603.623C413.481 605.676 410.461 609.057 410.22 612.922C410.214 614.323 410.459 615.714 410.944 617.028Z" fill="#005C9F"/>
<g style="mix-blend-mode:overlay" opacity="0.3">
<path d="M379.181 390.338L378.819 391.787C378.507 393.7 378.651 395.659 379.238 397.506C379.826 399.352 380.841 401.035 382.201 402.415C385.22 405.314 389.93 406.884 393.916 408.333C401.348 411.544 409.194 413.699 417.225 414.734C418.101 414.916 419.005 414.916 419.882 414.734C420.476 414.486 421.01 414.115 421.452 413.647C423.804 412.017 425.953 410.111 427.853 407.971C428.773 406.825 429.544 405.567 430.147 404.227L379.181 390.338ZM394.64 470.29C394.894 473.002 395.883 475.593 397.5 477.785C399.118 479.977 401.302 481.687 403.819 482.729C406.415 483.68 409.147 484.21 411.911 484.299C421.367 485.064 430.877 484.862 440.292 483.695C442.587 483.333 445.848 483.092 447.176 480.797C447.49 480.14 447.733 479.452 447.901 478.744C448.767 474.246 449.212 469.677 449.23 465.096L394.64 470.29ZM411.307 617.995C413.843 623.067 419.519 626.087 424.954 626.811C428.855 627.294 432.806 627.172 436.669 626.449C441.379 625.604 446.089 624.517 450.679 623.309C453.712 622.74 456.52 621.315 458.771 619.203C459.531 618.299 460.143 617.28 460.582 616.183C461.733 613.084 461.86 609.698 460.945 606.521L411.307 617.995Z" fill="black"/>
</g>
</svg>
