<svg width="1001" height="1000" viewBox="0 0 1001 1000" fill="none" xmlns="http://www.w3.org/2000/svg">
<path fill-rule="evenodd" clip-rule="evenodd" d="M500.6 750C638.671 750 750.6 638.072 750.6 500C750.6 361.929 638.671 250 500.6 250C362.528 250 250.6 361.929 250.6 500C250.6 638.072 362.528 750 500.6 750ZM491.576 604.881V650.109C534.531 652.739 576.546 636.798 606.943 606.337C665.673 547.608 665.673 452.392 606.943 393.668C601.606 388.328 595.876 383.393 589.803 378.906L557.375 411.331L411.92 556.769C385.271 515.116 391.194 460.533 426.159 425.566C448.107 403.573 478.667 392.426 509.623 395.119V349.89C466.668 347.261 424.653 363.204 394.256 393.665C335.526 452.394 335.526 547.609 394.256 606.334C399.594 611.675 405.323 616.609 411.396 621.095L443.823 588.672L589.278 443.231C615.928 484.883 610.004 539.467 575.039 574.434C553.09 596.427 522.531 607.573 491.576 604.881Z" fill="black"/>
</svg>
