<svg width="1001" height="1000" viewBox="0 0 1001 1000" fill="none" xmlns="http://www.w3.org/2000/svg">
<rect x="250.8" y="250" width="500" height="500" rx="250" fill="black"/>
<path d="M580.173 454.222H552.334C548.932 422.672 527.898 409.062 497.585 409.062C472.839 409.062 448.094 418.032 448.094 446.799C448.094 474.019 483.356 478.04 518.928 486.082C554.19 494.125 589.452 506.497 589.452 549.802C589.452 596.818 543.364 615.687 503.152 615.687C453.661 615.687 411.903 591.56 411.903 537.739H439.742C439.742 574.857 470.674 590.941 504.08 590.941C530.682 590.941 560.067 582.59 560.067 550.73C560.067 520.417 524.805 515.158 489.542 507.425C454.28 499.692 418.708 489.485 418.708 448.964C418.708 404.113 458.61 384.316 498.822 384.316C543.982 384.316 578.317 405.659 580.173 454.222Z" fill="white"/>
</svg>
