<svg width="1000" height="1000" viewBox="0 0 1000 1000" fill="none" xmlns="http://www.w3.org/2000/svg">
<g clip-path="url(#clip0_119_292)">
<path d="M542.19 748.202C529.07 764.724 502.469 755.671 502.152 734.575L497.53 426.012H705.007C742.587 426.012 763.546 469.417 740.178 498.848L542.19 748.202Z" fill="url(#paint0_linear_119_292)"/>
<path d="M542.19 748.202C529.07 764.724 502.469 755.671 502.152 734.575L497.53 426.012H705.007C742.587 426.012 763.546 469.417 740.178 498.848L542.19 748.202Z" fill="url(#paint1_linear_119_292)" fill-opacity="0.2"/>
<path d="M457.811 251.697C470.931 235.173 497.533 244.227 497.849 265.324L499.875 573.887H294.994C257.413 573.887 236.454 530.482 259.823 501.05L457.811 251.697Z" fill="#3ECF8E"/>
</g>
<defs>
<linearGradient id="paint0_linear_119_292" x1="5764.5" y1="7267.62" x2="17661.5" y2="12257.2" gradientUnits="userSpaceOnUse">
<stop stop-color="#249361"/>
<stop offset="1" stop-color="#3ECF8E"/>
</linearGradient>
<linearGradient id="paint1_linear_119_292" x1="1000.24" y1="-3925.76" x2="8637.54" y2="10451" gradientUnits="userSpaceOnUse">
<stop/>
<stop offset="1" stop-opacity="0"/>
</linearGradient>
<clipPath id="clip0_119_292">
<rect width="500" height="513.672" fill="white" transform="translate(250 243.164)"/>
</clipPath>
</defs>
</svg>
