<svg width="1001" height="1000" viewBox="0 0 1001 1000" fill="none" xmlns="http://www.w3.org/2000/svg">
<path d="M668.476 495.039L449.726 729.414C447.407 731.888 444.348 733.541 441.008 734.123C437.668 734.705 434.229 734.185 431.211 732.642C428.192 731.099 425.757 728.615 424.274 725.567C422.791 722.518 422.339 719.07 422.987 715.742L451.62 572.519L339.062 530.254C336.644 529.35 334.488 527.861 332.787 525.92C331.086 523.979 329.891 521.647 329.311 519.133C328.731 516.618 328.782 513.998 329.461 511.508C330.14 509.018 331.426 506.735 333.202 504.863L551.952 270.488C554.27 268.014 557.33 266.361 560.67 265.779C564.01 265.197 567.449 265.717 570.467 267.26C573.486 268.804 575.921 271.287 577.404 274.335C578.887 277.384 579.339 280.832 578.69 284.16L549.98 427.539L662.538 469.746C664.938 470.656 667.076 472.144 668.764 474.077C670.453 476.009 671.639 478.329 672.218 480.829C672.797 483.329 672.751 485.933 672.085 488.412C671.419 490.89 670.152 493.166 668.397 495.039H668.476Z" fill="black"/>
</svg>
