<svg width="1000" height="1000" viewBox="0 0 1000 1000" fill="none" xmlns="http://www.w3.org/2000/svg">
<path fill-rule="evenodd" clip-rule="evenodd" d="M432.661 251.1L706.4 335.328C716.842 338.541 723.967 348.188 723.967 359.113V630.549C723.967 644.293 712.825 655.434 699.081 655.434C696.601 655.434 694.134 655.064 691.763 654.334L418.024 570.107C407.582 566.894 400.457 557.246 400.457 546.322V274.885C400.457 261.142 411.599 250 425.342 250C427.823 250 430.29 250.371 432.661 251.1Z" fill="#A9E0C2"/>
<path fill-rule="evenodd" clip-rule="evenodd" d="M370.449 298.381L644.188 382.608C654.63 385.821 661.755 395.468 661.755 406.393V677.829C661.755 691.573 650.613 702.715 636.87 702.715C634.389 702.715 631.922 702.344 629.551 701.614L355.812 617.387C345.37 614.174 338.245 604.527 338.245 593.602V322.166C338.245 308.422 349.387 297.28 363.13 297.28C365.611 297.28 368.078 297.651 370.449 298.381Z" fill="#61CB90"/>
<path fill-rule="evenodd" clip-rule="evenodd" d="M308.236 345.666L581.975 429.893C592.417 433.106 599.542 442.753 599.542 453.678V725.115C599.542 738.858 588.4 750 574.657 750C572.176 750 569.709 749.629 567.338 748.899L293.599 664.672C283.157 661.459 276.032 651.812 276.032 640.887V369.451C276.032 355.707 287.174 344.565 300.918 344.565C303.398 344.565 305.865 344.936 308.236 345.666Z" fill="#3CB572"/>
<path fill-rule="evenodd" clip-rule="evenodd" d="M473.116 462.673C475.449 464.669 477.366 467.19 478.639 469.937L527.67 645.741C531.336 653.65 528.863 661.42 522.148 663.096C520.112 663.604 517.83 663.502 515.511 662.799L471.001 649.312L473.116 587.681L432.858 638.558L350.203 612.713C342.552 610.394 336.35 602.237 336.35 594.492C336.35 592.335 336.841 590.357 337.785 588.71L365.663 519.551C369.055 513.636 377.364 513.309 384.222 518.82C386.946 521.009 389.151 523.91 390.498 527.076L405.698 552.949L454.32 462.569C457.985 456.881 466.401 456.928 473.116 462.673Z" fill="white"/>
</svg>
