<svg width="1001" height="1000" viewBox="0 0 1001 1000" fill="none" xmlns="http://www.w3.org/2000/svg">
<g clip-path="url(#clip0_119_332)">
<path d="M739.662 360.937C727.162 311.719 688.881 273.437 639.662 260.937C547.475 246.094 453.725 246.094 361.537 260.937C312.318 273.437 274.037 311.719 261.537 360.937C246.693 453.125 246.693 546.875 261.537 639.063C274.037 688.281 312.318 726.562 361.537 739.062C453.725 753.906 547.475 753.906 639.662 739.062C688.881 726.562 727.162 688.281 739.662 639.063C754.506 546.875 754.506 453.125 739.662 360.937Z" fill="#2D89EF"/>
<path d="M495.131 517.969C473.256 552.344 443.568 582.032 408.412 603.907C396.693 610.938 382.631 610.938 370.912 604.688C359.193 598.438 352.162 586.719 351.381 573.438C351.381 560.157 358.412 547.657 370.131 541.407C388.1 530.469 404.506 516.407 417.787 500C403.725 483.594 388.1 470.313 370.131 458.594C352.162 448.438 346.693 425.782 356.85 408.594C367.006 391.407 390.443 385.938 407.631 396.094C442.787 417.969 471.693 446.875 494.35 481.25C502.162 492.188 502.162 507.032 495.131 517.969ZM619.35 593.75H530.287C513.881 593.75 500.6 585.938 500.6 570.313C500.6 554.688 513.881 546.875 530.287 546.875H619.35C635.756 546.875 649.037 554.688 649.037 570.313C649.037 585.938 635.756 593.75 619.35 593.75Z" fill="white"/>
</g>
<defs>
<clipPath id="clip0_119_332">
<rect width="500" height="500" fill="white" transform="translate(250.6 250)"/>
</clipPath>
</defs>
</svg>
