<svg width="1000" height="1000" viewBox="0 0 1000 1000" fill="none" xmlns="http://www.w3.org/2000/svg">
<rect x="250" y="251.184" width="500" height="497.635" rx="248.817" fill="white"/>
<path d="M619.374 530.61C632.071 538.319 638.42 548.068 638.42 559.859C638.42 568.474 635.019 576.41 628.217 583.665C621.868 590.921 613.933 594.548 604.41 594.548C594.887 594.548 586.271 591.601 578.562 585.706C571.307 579.357 562.011 569.381 550.674 555.777C541.152 544.894 533.216 536.505 526.868 530.61C520.973 524.262 514.171 518.593 506.462 513.605C506.915 522.675 508.049 531.063 509.863 538.772C512.13 546.481 515.531 556.231 520.066 568.021C524.147 578.904 527.094 588.2 528.908 595.909C531.176 603.164 532.309 610.873 532.309 619.035C532.309 628.558 529.362 636.721 523.467 643.522C517.572 650.324 509.409 653.725 498.98 653.725C489.004 653.725 480.841 650.324 474.493 643.522C468.598 636.721 465.65 628.558 465.65 619.035C465.65 610.873 466.557 603.164 468.371 595.909C470.638 588.2 473.812 578.904 477.894 568.021C486.51 546.708 491.044 528.796 491.498 514.285C484.242 519.274 477.667 524.715 471.772 530.61C465.877 536.505 458.395 544.667 449.325 555.097C437.536 568.701 427.786 578.677 420.077 585.026C412.368 590.921 403.752 593.868 394.23 593.868C385.161 593.868 377.452 590.24 371.103 582.985C364.755 575.73 361.58 567.794 361.58 559.178C361.58 546.935 367.929 537.185 380.626 529.93C387.428 525.849 394.456 522.901 401.712 521.087C409.421 519.274 418.943 517.46 430.28 515.646C442.07 513.832 451.82 512.018 459.528 510.204C467.237 507.937 475.173 504.763 483.335 500.682C475.627 496.6 467.691 493.653 459.528 491.839C451.82 489.572 442.07 487.531 430.28 485.717C417.13 482.997 407.153 480.956 400.351 479.596C394.003 477.782 387.428 474.834 380.626 470.753C368.382 463.498 362.261 453.975 362.261 442.185C362.261 433.115 365.435 425.18 371.783 418.378C378.132 411.123 385.841 407.495 394.91 407.495C404.433 407.495 413.049 410.669 420.757 417.018C428.92 423.366 438.442 433.115 449.325 446.266C458.395 456.696 465.877 465.085 471.772 471.433C478.12 477.328 484.922 482.77 492.178 487.758C491.724 478.235 490.364 469.619 488.097 461.91C485.829 453.748 482.655 443.999 478.574 432.662C474.493 421.779 471.319 412.71 469.051 405.454C467.237 397.745 466.33 389.81 466.33 381.647C466.33 372.125 469.278 363.962 475.173 357.16C481.521 349.905 489.684 346.277 499.66 346.277C510.09 346.277 518.252 349.905 524.147 357.16C530.042 363.962 532.989 372.125 532.989 381.647C532.989 389.356 531.856 397.065 529.588 404.774C527.775 412.029 524.827 421.099 520.746 431.982C512.13 453.295 507.596 471.887 507.142 487.758C514.851 482.77 521.653 477.328 527.548 471.433C533.896 465.085 541.832 456.469 551.355 445.586C562.691 431.982 571.987 422.232 579.243 416.337C586.952 409.989 595.567 406.815 605.09 406.815C614.613 406.815 622.549 410.443 628.897 417.698C635.245 424.5 638.42 432.435 638.42 441.505C638.42 452.841 632.298 462.364 620.054 470.073C612.799 474.154 604.637 477.328 595.567 479.596C586.952 481.863 578.336 483.677 569.72 485.037C557.476 486.851 547.273 488.891 539.111 491.159C531.402 492.973 523.467 496.147 515.304 500.682C523.467 505.216 531.402 508.617 539.111 510.885C547.273 512.698 557.25 514.512 569.04 516.326C580.377 518.14 589.672 519.954 596.928 521.768C604.637 523.581 612.119 526.529 619.374 530.61Z" fill="black"/>
</svg>
