<svg width="1000" height="1000" viewBox="0 0 1000 1000" fill="none" xmlns="http://www.w3.org/2000/svg">
<path fill-rule="evenodd" clip-rule="evenodd" d="M912.389 505.82C912.389 582.409 849.916 644.493 772.861 644.493H223.528C146.471 644.493 84 582.409 84 505.82V493.665C84 417.085 146.471 355 223.528 355H772.861C849.916 355 912.389 417.085 912.389 493.665V505.82Z" fill="#3F444F"/>
<path fill-rule="evenodd" clip-rule="evenodd" d="M578.093 370.627H557.332H243.978H223.217C154.839 370.627 99.9902 426.402 99.9902 494.356V505.131C99.9902 573.095 154.839 628.464 223.217 628.464H578.093C646.47 628.464 701.618 573.095 701.618 505.131V494.356C701.618 426.402 646.47 370.627 578.093 370.627Z" fill="white"/>
<path fill-rule="evenodd" clip-rule="evenodd" d="M218.856 527.983V516.706C218.972 511.891 221.1 509.482 225.238 509.482C229.373 509.482 231.444 512.185 231.444 517.587C231.444 530.39 229.798 539.319 226.513 544.367C222.054 551.181 214.715 554.587 204.505 554.587C195.114 554.587 188.421 551.593 184.433 545.602C181.496 541.257 180.03 533.857 180.03 523.402V481.114C180.03 478.649 178.881 477.415 176.585 477.415H170.785C168.851 477.415 167.247 476.799 165.978 475.565C164.71 474.331 164.076 472.834 164.076 471.071C164.076 469.427 164.695 467.961 165.937 466.667C167.178 465.376 168.566 464.729 170.104 464.729H177.018C179.026 464.729 180.03 463.614 180.03 461.382V443.234C180.03 438.77 182.335 436.538 186.946 436.538C191.2 436.538 193.327 438.77 193.327 443.234V462.086C193.327 463.847 194.391 464.729 196.518 464.729H215.842C220.333 464.729 222.579 466.786 222.579 470.895C222.579 475.242 220.155 477.415 215.31 477.415H195.81C194.153 477.415 193.327 478.649 193.327 481.114V524.457C193.327 536.792 197.46 542.959 205.732 542.959C214.119 542.959 218.496 537.967 218.856 527.983Z" fill="#5C6C7D"/>
<path fill-rule="evenodd" clip-rule="evenodd" d="M259.985 455.037C257.265 455.037 254.934 454.067 252.982 452.13C251.033 450.192 250.057 447.873 250.057 445.17C250.057 442.47 251.033 440.177 252.982 438.298C254.934 436.419 257.265 435.479 259.985 435.479C262.704 435.479 265.037 436.419 266.989 438.298C268.938 440.177 269.914 442.47 269.914 445.17C269.914 447.873 268.938 450.192 266.989 452.13C265.037 454.067 262.704 455.037 259.985 455.037ZM269.204 501.202V524.105C269.204 529.981 269.263 533.444 269.381 534.501C269.971 539.787 271.568 542.43 274.168 542.43C274.759 542.43 276.234 542.138 278.601 541.548C279.19 541.315 280.078 541.196 281.26 541.196C285.749 541.196 287.996 543.134 287.996 547.011C287.996 548.658 287.254 550.066 285.773 551.239C284.291 552.413 282.424 553.001 280.169 553.001C278.271 553.001 275.395 552.737 271.542 552.209C267.686 551.681 264.811 551.416 262.914 551.416C259.828 551.416 256.39 551.652 252.594 552.12C247.969 552.707 244.886 553.001 243.345 553.001C238.6 553.001 236.229 551.005 236.229 547.011C236.229 543.134 238.256 541.196 242.312 541.196C243.266 541.196 244.665 541.372 246.514 541.725C248.362 542.076 249.764 542.255 250.719 542.255C253.581 542.255 255.309 538.496 255.908 530.978V485.87C255.309 478.47 253.522 474.77 250.542 474.77C249.586 474.77 248.244 474.976 246.514 475.387C244.786 475.8 243.504 476.004 242.67 476.004C238.376 476.004 236.229 474.126 236.229 470.365C236.229 466.372 238.828 464.375 244.03 464.375C246.274 464.375 247.869 464.435 248.816 464.552C252.597 465.022 255.021 465.256 256.084 465.256C257.03 465.256 258.478 465.109 260.428 464.816C262.379 464.523 263.824 464.375 264.771 464.375C268.198 464.375 269.914 466.667 269.914 471.246C269.914 471.717 269.866 472.421 269.772 473.361C269.678 474.304 269.631 475.008 269.631 475.474C269.533 476.417 269.44 480.055 269.346 486.399C269.252 491.217 269.204 496.151 269.204 501.202Z" fill="#5C6C7D"/>
<path fill-rule="evenodd" clip-rule="evenodd" d="M322.566 469.578V474.595C329.658 465.669 339.112 461.205 350.932 461.205C357.314 461.205 363.341 462.822 369.016 466.05C374.688 469.282 378.527 473.303 380.539 478.119C382.192 482.115 383.02 487.341 383.02 493.8V527.277C383.02 532.33 383.079 535.324 383.198 536.262C383.787 540.258 385.384 542.254 387.984 542.254C389.049 542.254 390.435 542.109 392.151 541.813C393.862 541.52 395.076 541.373 395.785 541.373C397.319 541.373 398.65 541.901 399.773 542.96C400.895 544.016 401.457 545.31 401.457 546.835C401.457 548.597 400.749 550.067 399.331 551.24C397.913 552.413 396.197 553.001 394.188 553.001C392.533 553.001 389.815 552.765 386.035 552.297C382.251 551.829 378.704 551.593 375.396 551.593C372.323 551.593 369.783 551.71 367.774 551.944C361.863 552.65 358.732 553.001 358.377 553.001C353.649 553.001 351.287 550.948 351.287 546.835C351.287 543.195 353.333 541.373 357.433 541.373C358.398 541.373 359.48 541.492 360.685 541.724C362.974 542.196 364.419 542.431 365.024 542.431C367.916 542.431 369.48 539.201 369.724 532.739V499.615C369.724 493.392 369.428 489.103 368.84 486.751C367.779 482.291 365.482 478.825 361.954 476.357C358.067 473.656 353.652 472.306 348.71 472.306C339.289 472.306 332.518 475.652 328.401 482.348C325.574 486.928 324.161 494.741 324.161 505.782V529.215C324.161 534.386 324.517 537.909 325.226 539.788C325.936 541.667 327.234 542.607 329.127 542.607C330.071 542.607 331.369 542.403 333.026 541.988C334.68 541.58 336.039 541.373 337.104 541.373C340.766 541.373 342.6 543.342 342.6 547.275C342.6 551.093 340.235 553.001 335.507 553.001C334.56 553.001 331.489 552.65 326.289 551.944C323.688 551.593 320.793 551.416 317.602 551.416C315.121 551.416 311.81 551.653 307.675 552.122C302.472 552.708 299.52 553.001 298.81 553.001C293.847 553.001 291.364 551.006 291.364 547.011C291.364 543.252 293.289 541.373 297.142 541.373C297.743 541.373 298.858 541.549 300.483 541.901C302.108 542.254 303.702 542.431 305.267 542.431C308.88 542.431 310.744 539.024 310.865 532.211V485.166C310.624 481.176 310.112 478.444 309.332 476.974C308.547 475.506 307.193 474.771 305.267 474.771C304.425 474.771 303.19 474.919 301.566 475.214C299.94 475.506 298.708 475.652 297.866 475.652C293.53 475.652 291.364 473.774 291.364 470.014C291.364 466.139 294.024 464.201 299.341 464.201C300.051 464.201 300.642 464.261 301.114 464.377L307.675 465.081C309.564 465.081 311.22 464.933 312.638 464.641C315.709 464.348 317.306 464.201 317.425 464.201C320.852 464.201 322.566 465.992 322.566 469.578Z" fill="#5C6C7D"/>
<path fill-rule="evenodd" clip-rule="evenodd" d="M427.872 455.037C425.151 455.037 422.82 454.067 420.868 452.13C418.919 450.192 417.943 447.873 417.943 445.17C417.943 442.47 418.919 440.177 420.868 438.298C422.82 436.419 425.151 435.479 427.872 435.479C430.59 435.479 432.923 436.419 434.875 438.298C436.824 440.177 437.8 442.47 437.8 445.17C437.8 447.873 436.824 450.192 434.875 452.13C432.923 454.067 430.59 455.037 427.872 455.037ZM437.09 501.202V524.105C437.09 529.981 437.149 533.444 437.267 534.501C437.857 539.787 439.454 542.43 442.054 542.43C442.645 542.43 444.12 542.138 446.487 541.548C447.076 541.315 447.964 541.196 449.147 541.196C453.635 541.196 455.882 543.134 455.882 547.011C455.882 548.658 455.141 550.066 453.659 551.239C452.177 552.413 450.31 553.001 448.055 553.001C446.157 553.001 443.281 552.737 439.428 552.209C435.572 551.681 432.697 551.416 430.8 551.416C427.714 551.416 424.276 551.652 420.48 552.12C415.855 552.707 412.772 553.001 411.231 553.001C406.487 553.001 404.115 551.005 404.115 547.011C404.115 543.134 406.143 541.196 410.198 541.196C411.152 541.196 412.551 541.372 414.4 541.725C416.248 542.076 417.65 542.255 418.605 542.255C421.467 542.255 423.195 538.496 423.794 530.978V485.87C423.195 478.47 421.408 474.77 418.429 474.77C417.472 474.77 416.13 474.976 414.4 475.387C412.672 475.8 411.39 476.004 410.556 476.004C406.262 476.004 404.115 474.126 404.115 470.365C404.115 466.372 406.714 464.375 411.916 464.375C414.16 464.375 415.755 464.435 416.702 464.552C420.483 465.022 422.907 465.256 423.971 465.256C424.916 465.256 426.364 465.109 428.314 464.816C430.265 464.523 431.71 464.375 432.657 464.375C436.084 464.375 437.8 466.667 437.8 471.246C437.8 471.717 437.752 472.421 437.658 473.361C437.564 474.304 437.517 475.008 437.517 475.474C437.42 476.417 437.326 480.055 437.232 486.399C437.138 491.217 437.09 496.151 437.09 501.202Z" fill="#5C6C7D"/>
<path fill-rule="evenodd" clip-rule="evenodd" d="M515.804 448.167C515.804 446.524 516.394 445.056 517.575 443.762C515.565 441.883 512.611 440.943 508.713 440.943C503.631 440.943 499.64 442.558 496.746 445.788C493.848 449.02 492.403 453.512 492.403 459.267V462.437C492.403 463.967 493.17 464.729 494.707 464.729H508.537C512.435 464.729 514.386 466.844 514.386 471.07C514.386 475.299 512.435 477.415 508.537 477.415H495.416C493.405 477.415 492.403 478.472 492.403 480.585V529.92C492.403 534.267 492.46 536.791 492.579 537.497C493.17 540.668 494.647 542.253 497.012 542.253C497.601 542.253 499.078 541.962 501.443 541.372C503.097 541.138 504.281 541.02 504.989 541.02C509.006 541.02 511.016 542.959 511.016 546.834C511.016 550.949 508.592 553 503.749 553C501.737 553 498.696 552.765 494.618 552.296C490.54 551.828 487.496 551.592 485.489 551.592C481.943 551.592 478.751 551.768 475.915 552.121C471.306 552.708 468.35 553 467.05 553C461.968 553 459.428 550.949 459.428 546.834C459.428 545.309 460.047 543.959 461.288 542.782C462.53 541.61 463.977 541.02 465.632 541.02C466.813 541.02 468.142 541.227 469.62 541.637C471.097 542.051 472.428 542.253 473.611 542.253C475.853 542.253 477.273 540.844 477.865 538.025C478.455 535.205 478.809 528.395 478.928 517.587V480.585C478.928 478.472 477.873 477.415 475.767 477.415H466.989C462.893 477.415 460.846 475.242 460.846 470.895C460.846 466.785 462.972 464.729 467.227 464.729H477.333C478.868 464.729 479.638 463.967 479.638 462.437V459.267C479.638 449.988 482.119 442.881 487.083 437.947C492.048 433.014 499.078 430.546 508.182 430.546C515.627 430.546 521.593 432.044 526.087 435.04C530.576 438.036 532.823 442.06 532.823 447.109C532.823 449.694 531.994 451.779 530.34 453.364C528.683 454.949 526.619 455.743 524.134 455.743C521.769 455.743 519.793 455.01 518.198 453.539C516.603 452.073 515.804 450.281 515.804 448.167Z" fill="#5C6C7D"/>
<path fill-rule="evenodd" clip-rule="evenodd" d="M552.678 481.114L573.067 540.668L594.693 481.997C595.285 480.353 595.581 479.061 595.581 478.12C595.581 476.125 594.221 475.124 591.504 475.124C590.086 475.124 588.96 475.242 588.134 475.476C586.244 475.714 585.002 475.829 584.412 475.829C580.511 475.829 578.562 473.953 578.562 470.192C578.562 466.197 581.101 464.201 586.185 464.201C586.895 464.201 588.074 464.32 589.731 464.552L596.113 465.433C597.767 465.669 599.538 465.788 601.432 465.788C603.441 465.788 606.395 465.522 610.296 464.994C614.195 464.465 617.149 464.201 619.161 464.201C624.24 464.201 626.783 466.169 626.783 470.103C626.783 473.921 624.834 475.829 620.933 475.829C619.75 475.829 618.864 475.714 618.273 475.476C616.736 475.124 615.672 474.948 615.082 474.948C612.836 474.948 610.531 477.944 608.168 483.934L584.058 543.839C578.739 557.112 573.714 566.746 568.987 572.736C560.95 582.956 550.905 588.064 538.85 588.064C531.639 588.064 525.581 586.241 520.679 582.602C515.775 578.96 513.319 574.555 513.319 569.389C513.319 565.746 514.384 562.782 516.512 560.491C518.638 558.199 521.414 557.055 524.844 557.055C527.563 557.055 529.808 557.848 531.581 559.433C533.353 561.019 534.241 562.984 534.241 565.335C534.241 569.093 532.525 571.504 529.1 572.56C530.872 575.142 534.241 576.436 539.204 576.436C545.468 576.436 551.11 574.115 556.135 569.476C561.157 564.835 563.67 559.637 563.67 553.884C563.67 550.948 562.073 545.486 558.882 537.498L539.382 488.515L537.256 482.876C535.244 477.591 532.939 474.948 530.34 474.948C529.632 474.948 528.36 475.095 526.528 475.389C524.695 475.682 523.483 475.829 522.894 475.829C518.756 475.829 516.69 473.953 516.69 470.192C516.69 466.197 519.407 464.201 524.844 464.201C526.617 464.201 527.975 464.271 528.922 464.405L536.012 465.433H537.432C538.257 465.552 538.967 465.609 539.559 465.609C543.815 465.609 548.362 465.342 553.21 464.802C556.872 464.402 559.296 464.201 560.479 464.201C565.443 464.201 567.924 466.139 567.924 470.014C567.924 473.891 565.678 475.829 561.188 475.829C560.479 475.829 559.353 475.714 557.819 475.476C556.283 475.242 555.161 475.124 554.451 475.124C552.794 475.124 551.97 475.948 551.97 477.591C551.97 478.532 552.204 479.705 552.678 481.114Z" fill="#5C6C7D"/>
</svg>
