<svg width="1001" height="1000" viewBox="0 0 1001 1000" fill="none" xmlns="http://www.w3.org/2000/svg">
<g clip-path="url(#clip0_61_726)">
<path d="M698.175 250H303.425C274.362 250 250.8 274.583 250.8 304.938V695.063C250.8 725.396 274.362 750 303.425 750H698.175C727.237 750 750.8 725.417 750.8 695.063V304.938C750.8 274.604 727.237 250 698.175 250ZM468.8 362.25C477.071 353.813 487.3 349.604 499.508 349.604C511.383 349.604 521.425 353.813 529.675 362.25C537.946 370.667 542.071 380.917 542.071 393C542.071 405.083 537.946 415.333 529.675 423.75C521.425 432.188 511.362 436.396 499.508 436.396C487.3 436.396 477.071 432.188 468.8 423.75C460.55 415.333 456.425 405.083 456.425 393C456.425 380.917 460.55 370.667 468.8 362.25ZM534.008 601.625C524.891 620.42 510.214 635.956 491.966 646.125C481.904 651.979 473.654 651.813 467.175 645.583C461.091 639.729 462.883 632.771 472.591 624.708C477.966 620.688 482.446 615.542 486.05 609.333C489.633 603.104 491.966 596.688 493.05 590.104C493.404 587.188 492.154 585.729 489.279 585.729C482.091 585.354 474.737 581.313 467.196 573.625C459.654 565.917 455.883 556.417 455.883 545.083C455.883 533 460.008 522.729 468.258 514.313C472.27 510.071 477.119 506.708 482.499 504.438C487.878 502.168 493.67 501.04 499.508 501.125C511.008 501.125 521.05 505.5 529.675 514.313C538.3 522.729 543.321 532.229 544.758 542.854C547.633 562.646 544.05 582.229 533.987 601.646L534.008 601.625Z" fill="black"/>
</g>
<defs>
<clipPath id="clip0_61_726">
<rect width="500" height="500" fill="white" transform="translate(250.8 250)"/>
</clipPath>
</defs>
</svg>
