<svg width="1001" height="1000" viewBox="0 0 1001 1000" fill="none" xmlns="http://www.w3.org/2000/svg">
<path fill-rule="evenodd" clip-rule="evenodd" d="M255.738 484.523C238.372 505.193 229.69 530.691 229.69 561.018C229.561 585.341 235.511 609.312 246.999 630.752C258.516 652.371 274.741 671.127 294.477 685.635C313.787 700.156 335.188 711.663 357.95 719.763C380.15 727.561 409.165 731.462 444.994 731.467C489.186 731.467 526.606 724.872 557.255 711.684C588.056 698.387 614.994 677.518 635.564 651.016C657.104 623.762 667.874 595.516 667.874 566.278C667.874 527.372 650.293 495.499 615.129 470.659C651.832 469.341 680.353 464.835 700.69 457.142C721.125 449.369 738.717 435.574 751.137 417.583C764.222 399.574 771.215 377.857 771.095 355.596C771.561 332.87 763.234 310.841 747.851 294.105C740.595 285.866 731.628 279.311 721.576 274.897C711.524 270.484 700.629 268.318 689.653 268.552C667.011 268.552 648.382 274.492 633.768 286.372C619.154 298.251 611.84 311.657 611.825 326.59C611.666 335.587 614.704 344.349 620.4 351.316C626.102 358.356 634.455 361.873 645.458 361.869C649.755 361.978 654.03 361.216 658.025 359.629C662.021 358.042 665.653 355.663 668.705 352.635C671.666 349.908 674.031 346.599 675.65 342.914C677.269 339.228 678.108 335.248 678.113 331.223C677.825 323.575 675.175 316.203 670.529 310.121C667.385 306.35 665.333 301.79 664.596 296.935C664.488 294.753 665.005 292.587 666.086 290.688C667.167 288.79 668.766 287.24 670.697 286.218C676.415 283.566 682.702 282.377 688.994 282.758C696.621 282.54 704.209 283.941 711.256 286.868C718.303 289.795 724.65 294.182 729.878 299.74C735.291 305.549 739.504 312.368 742.276 319.807C745.049 327.247 746.327 335.16 746.037 343.094C746.037 372.769 733.947 394.865 709.768 409.382C685.583 424.113 646.787 431.478 593.379 431.478C533.805 431.478 492.702 442.578 470.069 464.779C447.436 486.979 436.116 511.599 436.109 538.637C436.071 547.233 437.731 555.751 440.994 563.704C444.257 571.657 449.058 578.887 455.122 584.98C461.185 591.073 468.393 595.909 476.33 599.21C484.267 602.511 492.778 604.212 501.374 604.215C508.115 604.466 514.838 603.37 521.151 600.992C527.463 598.614 533.239 595.002 538.139 590.366C542.818 585.92 546.513 580.541 548.983 574.578C551.454 568.615 552.647 562.199 552.483 555.747C552.726 551.59 552.088 547.429 550.61 543.536C549.133 539.644 546.849 536.107 543.909 533.159C538.534 527.919 531.303 525.021 523.798 525.097C519.95 525.019 516.135 525.826 512.648 527.454C509.16 529.083 506.093 531.491 503.683 534.492C498.242 541.241 495.431 549.735 495.772 558.398C495.772 559.498 495.881 561.476 496.099 564.332L496.431 568.288C496.431 577.523 492.145 582.139 483.572 582.137C476.095 582.137 468.841 578.18 461.808 570.266C454.59 561.849 450.822 551.013 451.259 539.934C451.259 519.501 460.986 502.466 480.44 488.828C499.886 475.199 523.133 468.047 546.877 468.386C577.648 468.386 602.046 477.123 620.072 494.598C628.641 502.447 635.473 512.003 640.13 522.649C644.786 533.296 647.164 544.8 647.111 556.42C647.111 592.028 628.817 622.636 592.228 648.243C555.639 673.851 511.621 686.656 460.176 686.658C405.881 686.658 360.491 670.337 324.004 637.694C287.517 605.052 269.268 570.37 269.256 533.651C268.948 515.546 275.612 498.015 287.87 484.687C300.286 470.952 313.42 464.083 327.272 464.08C338.039 464.08 349.029 468.917 360.241 478.589C370.795 487.601 379.478 492.107 386.289 492.107C388.926 492.279 391.567 491.832 394 490.802C396.433 489.772 398.592 488.186 400.303 486.173C403.314 482.684 405.007 478.25 405.085 473.642C405.085 456.06 389.917 447.27 359.582 447.27C355.672 447.52 351.822 446.216 348.869 443.642C345.085 439.009 342.23 433.691 340.458 427.978C337.135 418.505 335.565 408.506 335.825 398.47C335.825 372.536 346.431 349.511 367.643 329.395C388.855 309.278 411.664 299.222 436.07 299.227C450.061 298.849 463.77 303.205 474.976 311.59C480.074 315.237 484.208 320.07 487.022 325.671C489.836 331.271 491.247 337.472 491.131 343.739C491.1 352.683 489.308 361.533 485.857 369.784C484.272 373.015 483.162 376.457 482.56 380.005C482.42 380.83 482.473 381.677 482.717 382.478C482.96 383.279 483.386 384.012 483.962 384.62C484.538 385.228 485.247 385.693 486.033 385.98C486.82 386.266 487.662 386.366 488.494 386.27C496.624 386.27 504.374 380.666 511.741 369.456C518.988 358.629 522.835 345.884 522.789 332.855C522.789 315.273 515.151 300.161 499.874 287.519C484.596 274.877 465.529 268.557 442.67 268.559C421.823 268.67 401.387 274.363 383.485 285.046C364.756 295.774 348.694 310.596 336.499 328.404C324.471 345.424 318.02 365.757 318.034 386.598C318.58 407.333 323.645 427.699 332.874 446.275C298.811 451.115 273.099 463.864 255.738 484.523Z" fill="black"/>
</svg>
