<svg width="1001" height="1000" viewBox="0 0 1001 1000" fill="none" xmlns="http://www.w3.org/2000/svg">
<path d="M721.244 599.535V366.856L519.592 250.517V339.969L598.702 385.471C601.804 387.022 601.804 391.675 598.702 393.227L504.597 447.518C502.009 449.07 498.392 449.07 495.807 447.518L401.7 392.71C398.598 391.158 398.598 386.505 401.7 384.954L480.812 339.452V250L279.156 366.339V599.535L356.716 555.068V463.548C356.716 460.445 360.335 457.86 363.438 459.928L457.542 514.22C460.129 515.77 462.197 518.873 462.197 521.975V630.558C462.197 633.66 458.577 636.245 455.474 634.178L376.364 588.678L298.805 633.143L500.459 749.483L702.114 633.143L624.554 588.678L545.444 634.178C542.859 635.73 538.722 633.66 538.722 630.558V521.975C538.722 518.873 540.274 515.77 543.374 514.22L637.482 459.928C640.067 458.378 644.202 460.445 644.202 463.548V555.068L721.244 599.535Z" fill="#4C4C4C"/>
<path d="M499.943 750L701.598 633.663L624.038 589.195L544.928 634.695C542.343 636.248 538.206 634.178 538.206 631.075V522.493C538.206 519.39 539.758 516.288 542.861 514.738L636.966 460.445C639.551 458.895 643.688 460.963 643.688 464.065V555.585L721.246 600.053V366.857L499.943 494.573V750Z" fill="black"/>
<path d="M519.074 250V339.452L598.184 384.954C601.287 386.505 601.287 391.158 598.184 392.71L504.079 447C501.494 448.553 497.874 448.553 495.289 447L401.7 392.71C398.598 391.158 398.598 386.505 401.7 384.954L480.812 339.452V250L279.156 366.339L500.459 494.055L721.762 366.339L519.074 250Z" fill="#808080"/>
<path d="M454.441 634.178L375.329 588.678L297.77 633.145L499.424 749.483V494.055L278.639 366.857V600.053L356.198 555.585V464.065C356.198 460.963 359.818 458.378 362.92 460.445L457.026 514.738C459.611 516.288 461.679 519.39 461.679 522.493V631.075C461.161 633.66 457.544 635.73 454.441 634.178Z" fill="#4C4C4C"/>
</svg>
