<svg width="1001" height="1000" viewBox="0 0 1001 1000" fill="none" xmlns="http://www.w3.org/2000/svg">
<g clip-path="url(#clip0_61_723)">
<path d="M500.4 250C362.338 250 250.4 361.938 250.4 500C250.4 638.063 362.338 750 500.4 750C638.463 750 750.4 638.063 750.4 500C750.4 361.938 638.463 250 500.4 250ZM500.4 288.458C616.963 288.604 711.4 383.146 711.4 499.729C711.4 616.417 616.817 711 500.13 711C383.442 711 288.859 616.417 288.859 499.729C288.859 441.396 312.505 388.583 350.734 350.354C389.005 312.125 441.859 288.479 500.234 288.479H500.38L500.4 288.458ZM500.4 346.167C408.9 362.292 327.317 446.667 327.317 538.458C372.088 459.417 401.984 453.729 410.255 453.729C418.525 453.729 422.88 458.021 422.88 467.542V585.333C422.88 599.979 394.421 597.583 385.005 596.146C419.796 647.917 500.4 653.854 500.4 653.854L538.859 615.396L577.317 634.625C638.025 606.833 673.463 547.333 673.463 538.479C658.859 556.563 639.171 570.042 616.567 576.729L615.755 576.938C610.65 576.938 596.525 574.313 596.525 567.313V427.875C596.525 415.771 624.484 378.833 634.984 365.375C565.567 383.563 545.442 415.25 545.442 415.25C545.442 415.25 540.171 403.833 519.609 403.833C530.046 413.688 537.067 427.042 538.817 442L538.838 442.292V560.083C527.9 567.854 515.005 573.688 501.067 576.771L500.359 576.896C487.025 576.896 480.525 571.479 480.525 561.271C480.525 551.063 481.13 423.063 481.13 423.063C481.13 423.063 461.9 430.125 461.9 390.604C461.9 370.833 500.359 346.125 500.359 346.125L500.4 346.167Z" fill="black"/>
</g>
<defs>
<clipPath id="clip0_61_723">
<rect width="500" height="500" fill="white" transform="translate(250.4 250)"/>
</clipPath>
</defs>
</svg>
