<svg width="1000" height="1000" viewBox="0 0 1000 1000" fill="none" xmlns="http://www.w3.org/2000/svg">
<path d="M188.24 272.388C188.24 282.681 201.879 293.489 216.547 298.636C250.515 310.473 264.411 317.679 266.469 334.663C267.499 345.214 270.587 443.515 271.616 509.135C273.932 634.714 298.121 669.712 344.699 707.797C376.351 733.016 444.03 750 491.379 750C554.941 750 612.069 733.016 643.721 707.797C704.967 660.19 714.488 592.512 721.951 504.761C727.097 441.457 730.443 384.328 731.472 354.735C732.501 317.679 743.052 314.591 780.108 300.695C798.122 294.519 811.76 282.681 811.76 270.329C811.76 257.463 795.806 250 774.704 250C752.573 250 731.472 255.404 689.269 255.404C664.822 255.404 642.692 252.316 619.532 252.316C601.518 252.316 579.13 259.521 579.13 272.388C579.13 288.085 597.144 295.548 613.098 301.981C646.809 314.591 656.33 325.142 658.646 365.286C661.181 429.476 659.72 493.762 654.272 557.771C645.78 646.552 605.636 667.653 542.331 667.653C514.699 667.623 487.745 659.087 465.131 643.206C446.089 627.509 431.421 585.049 429.105 539.758C426.016 468.991 426.016 407.488 427.046 349.331C427.046 315.878 437.597 315.878 463.073 304.04C484.174 294.519 501.158 289.115 501.158 274.447C501.158 261.58 489.321 252.316 465.131 252.316C438.626 252.316 410.062 255.404 375.064 255.404C333.119 255.404 256.691 250.257 225.296 250.257C206.253 250 188.24 259.264 188.24 272.131V272.388Z" fill="#041E31"/>
</svg>
