<svg width="1000" height="1000" viewBox="0 0 1000 1000" fill="none" xmlns="http://www.w3.org/2000/svg">
<path d="M159.954 344.33V557.546C159.954 598.133 173.077 625.242 202.507 626.079C242.476 624.328 247.112 596.305 247.34 559.83V344.33H280.774V557.546C279.862 612.753 263.905 653.873 201.747 655.777C137.865 657.148 125.129 609.403 125 558.307V345.092H159.954V344.33ZM311.929 344.33H349.163L390.196 453.984L432.749 344.33H466.943L406.913 484.443L474.542 648.924H435.028L386.396 522.518L337.765 649.685H303.57L370.439 490.535L311.929 344.33ZM539.131 495.866H568.006C605.924 496.627 618.006 468.681 618.158 436.47C618.158 398.533 600.909 375.368 564.967 374.79H538.371V495.866H539.131ZM504.177 344.33H563.447C604.252 342.51 631.456 358.951 647.033 392.304C649.313 397.634 650.832 403.726 651.592 410.579C653.112 417.433 653.112 425.809 653.112 434.947C653.112 447.131 651.592 458.553 648.553 469.214C645.513 479.874 640.954 489.774 634.115 498.15C616.714 518.253 591.714 524.65 568.766 524.802H539.131V648.924H504.177V344.33ZM681.227 423.525H712.382V648.924H681.227V423.525ZM713.902 344.33V383.166H679.708V344.33H713.902ZM748.096 423.525H776.971V457.791C777.731 455.507 779.251 451.7 781.531 447.131C783.81 442.562 786.85 437.993 790.649 434.185C794.448 429.616 799.768 425.809 805.087 422.763C811.166 419.717 818.005 418.194 826.363 418.194C876.515 420.479 874.995 469.366 874.995 505.765V648.924H844.6V506.526C844.6 481.93 843.384 450.633 816.485 447.131C808.126 447.131 802.047 449.415 796.728 454.745C792.169 460.076 788.369 466.168 786.09 473.021C783.81 480.636 782.29 488.251 781.531 496.627C780.771 505.003 780.771 512.618 780.771 518.71V648.924H749.616V423.525H748.096Z" fill="black"/>
</svg>
