<svg width="1001" height="1000" viewBox="0 0 1001 1000" fill="none" xmlns="http://www.w3.org/2000/svg">
<g clip-path="url(#clip0_61_752)">
<path d="M786.918 365.834C784.364 421.816 745.337 498.473 669.858 595.767C591.817 697.397 525.79 748.208 471.779 748.208C438.331 748.208 410.006 717.269 386.884 655.37C371.432 598.63 355.999 541.894 340.553 485.157C323.371 423.291 304.952 392.318 285.259 392.318C280.965 392.318 265.938 401.372 240.212 419.406L213.205 384.547C241.319 359.814 269.242 334.866 296.972 309.704C334.752 276.991 363.115 259.789 382.017 258.049C426.692 253.751 454.185 284.345 464.506 349.838C475.658 420.498 483.373 464.448 487.712 481.65C500.586 540.271 514.752 569.545 530.234 569.545C542.248 569.545 560.295 550.536 584.355 512.513C608.396 474.48 621.27 445.545 623.01 425.668C626.429 392.847 613.548 376.397 584.355 376.397C570.615 376.397 556.447 379.565 541.875 385.827C570.082 293.249 623.979 248.287 703.535 250.852C762.512 252.585 790.315 290.912 786.918 365.834Z" fill="#32B8E8"/>
</g>
<defs>
<clipPath id="clip0_61_752">
<rect width="573.991" height="500" fill="white" transform="translate(213.205 250)"/>
</clipPath>
</defs>
</svg>
