<svg width="1001" height="1000" viewBox="0 0 1001 1000" fill="none" xmlns="http://www.w3.org/2000/svg">
<g clip-path="url(#clip0_61_732)">
<path d="M539.245 497.729C539.245 427.271 589.245 385.229 654.037 385.229C711.954 385.229 750.6 414.792 750.6 455.687C750.6 494.333 717.641 519.333 681.266 519.333C660.808 519.333 646.058 515.916 635.808 507.958C632.412 504.542 630.141 505.687 630.141 509.104C630.141 523.875 635.808 535.229 644.912 545.458C652.87 553.417 667.62 559.104 681.266 559.104C696.058 559.104 708.558 555.687 719.912 550C731.266 544.333 740.37 546.604 746.037 555.687C752.87 565.896 743.766 579.541 735.829 588.646C721.037 604.541 692.641 615.916 656.266 615.916C582.412 613.625 539.245 563.625 539.245 497.729ZM388.12 544.333C394.933 544.333 399.475 547.729 404.016 555.687L424.475 588.646C432.433 601.146 439.245 610.229 454.016 610.229C468.808 610.229 476.745 604.541 483.558 587.521C495.244 561.571 504.385 534.549 510.85 506.833C521.058 468.187 525.62 445.458 525.62 426.146C525.62 406.833 519.933 395.458 498.329 392.042C469.933 386.375 430.162 384.104 388.12 384.104C346.058 384.104 306.287 386.375 277.891 390.917C256.287 395.458 250.6 406.833 250.6 426.125C250.6 445.458 255.162 468.187 264.245 506.833C271.415 534.336 280.535 561.293 291.537 587.5C299.475 604.542 306.287 610.229 321.058 610.229C335.85 610.229 342.662 601.146 350.62 588.646L371.058 555.687C376.745 548.875 381.287 544.333 388.12 544.333Z" fill="black"/>
</g>
<defs>
<clipPath id="clip0_61_732">
<rect width="500" height="500" fill="white" transform="translate(250.6 250)"/>
</clipPath>
</defs>
</svg>
