<svg width="1001" height="1000" viewBox="0 0 1001 1000" fill="none" xmlns="http://www.w3.org/2000/svg">
<path d="M392.32 257.774C402.691 249.132 416.518 249.132 426.889 259.502C451.087 283.7 477.013 309.626 501.211 333.824L464.914 371.849L418.247 325.182C413.061 319.997 406.148 319.997 399.234 323.454C399.234 323.454 399.234 323.454 397.506 325.182C342.196 378.763 288.616 434.072 233.306 489.381C228.121 494.567 226.393 503.209 231.578 508.394L233.306 510.122C285.159 561.975 337.011 613.827 388.864 665.68C392.32 670.865 397.506 674.322 402.691 677.779C407.876 679.507 414.79 677.779 418.247 674.322L463.186 629.383L499.482 667.408L430.346 736.545C425.16 741.73 419.975 745.187 414.79 748.644C404.419 752.101 394.049 748.644 387.135 741.73C314.542 669.137 240.22 594.815 167.627 522.221C157.256 511.851 157.256 494.567 167.627 484.196C243.677 406.418 317.999 332.096 392.32 257.774Z" fill="#9187F6"/>
<path d="M575.546 257.778C585.917 247.407 603.201 247.407 613.571 257.778L833.08 477.287C839.994 484.2 843.451 494.571 839.994 504.941C836.537 511.855 831.352 517.04 826.167 522.225L620.485 729.635C615.3 734.82 610.115 740.006 603.201 743.463C592.83 746.919 582.46 743.462 575.546 736.549L501.224 663.955L464.928 627.659L354.309 517.04C343.939 506.67 343.939 489.385 354.309 480.743L463.199 371.853L501.224 333.828C525.422 307.902 551.348 283.704 575.546 257.778Z" fill="#8313DD"/>
</svg>
