<svg width="1001" height="1000" viewBox="0 0 1001 1000" fill="none" xmlns="http://www.w3.org/2000/svg">
<g clip-path="url(#clip0_64_1372)">
<path d="M683.051 265.166L765.674 341.837C765.864 342.01 766.037 342.148 766.227 342.339C766.4 342.512 766.59 342.65 766.763 342.84C766.85 342.909 766.937 342.961 767.023 343.083C767.11 343.152 767.196 343.273 767.283 343.342C772.301 348.03 775.916 351.629 778.528 354.864C786.243 366.298 769.999 363.998 756.349 364.326H335.368C334.78 364.326 334.175 364.343 333.604 364.361C324.66 364.326 319.851 363.426 313.052 355.763V355.746C313.052 355.729 313.035 355.729 313.035 355.729C309.678 351.335 305.06 346.474 298.676 340.056L298.642 340.021C298.531 339.93 298.432 339.825 298.348 339.71C298.245 339.589 298.14 339.52 298.036 339.398L298.002 339.381C297.898 339.26 297.794 339.191 297.708 339.069C297.604 338.949 297.483 338.879 297.379 338.758L223.805 265.183H683.051V265.166Z" fill="url(#paint0_linear_64_1372)"/>
<path d="M321.943 399.254V466.757C322.099 470.857 323.674 474.558 326.113 477.206H326.147C328.569 479.852 331.838 481.496 335.368 481.513H771.763C775.292 481.513 778.562 479.869 780.984 477.24H781.019C783.596 474.42 785.205 470.493 785.205 466.134V395.362C785.188 391.055 783.596 387.128 781.002 384.325C778.579 381.661 775.292 380.018 771.746 380.018H335.368C331.838 380.018 328.551 381.661 326.13 384.291C323.552 387.094 321.943 391.037 321.943 395.397V399.254Z" fill="url(#paint1_linear_64_1372)"/>
<path d="M204.203 510.853V402.35L273.712 471.841C280.804 478.933 288.537 486.148 295.06 493.776C302.187 502.149 305.197 509.76 305.889 520.658C306.096 523.911 306.184 527.596 306.219 531.833C306.287 540.397 306.115 548.978 306.115 557.541C306.115 568.405 306.166 579.286 306.236 590.151C306.254 596.742 304.731 605.253 294.628 595.86L294.437 595.669C294.385 595.617 294.334 595.548 294.264 595.478L293.952 595.167L212.818 514.032C210.449 511.663 207.265 510.089 204.203 510.832V510.853Z" fill="url(#paint2_linear_64_1372)"/>
<path d="M321.944 657.603V716.887C321.944 721.905 323.64 726.419 326.338 729.62C328.742 732.475 331.977 734.257 335.402 734.257H771.78C775.188 734.239 778.388 732.475 780.793 729.637C783.509 726.419 785.205 721.904 785.205 716.854V639.974C785.188 634.957 783.509 630.442 780.81 627.242C778.441 624.44 775.274 622.658 771.902 622.605H335.385C331.96 622.623 328.76 624.388 326.355 627.225C323.639 630.442 321.943 634.957 321.943 640.009V640.044L321.944 657.603Z" fill="url(#paint3_linear_64_1372)"/>
<path d="M321.943 538.532V590.483C322.047 595.205 323.708 599.427 326.303 602.455C328.708 605.257 331.925 606.987 335.385 607.005H771.78C775.205 607.005 778.44 605.257 780.827 602.472C783.509 599.34 785.205 594.911 785.205 589.999V514.296C785.188 509.4 783.509 504.988 780.845 501.875C778.44 499.072 775.223 497.325 771.78 497.308H335.385C331.942 497.325 328.724 499.072 326.32 501.857C323.64 504.988 321.943 509.4 321.943 514.313V538.601V538.532Z" fill="url(#paint4_linear_64_1372)"/>
<path d="M415.723 340.817H349.864L288.469 279.438H354.327L415.723 340.817Z" fill="#B5BF2C"/>
<path d="M203.252 266.879C193.339 255.513 200 250.116 211.954 250.116H673.364C686.598 250.116 688.016 248.456 697.963 257.693L776.347 330.42C800.013 352.356 801.95 359.293 801.95 398.545V459.889C801.95 475.908 802.78 488.485 787.47 488.485C801.067 488.485 801.95 501.113 801.95 514.624V588.475C801.95 601.449 799.043 614.77 785.949 614.77C799.459 614.77 801.95 627.571 801.95 644.04V711.007C801.95 715.245 801.362 720.003 800.116 724.396C798.906 730.278 796.311 735.589 792.747 739.811C787.453 746.073 780.032 749.983 771.762 750H335.385C318.951 749.447 309.194 748.651 295.856 738.167C292.76 736.161 290.995 734.224 288.02 730.953C286.393 729.19 284.318 726.905 280.962 723.549L201.073 643.678C198.028 640.616 198.028 635.634 201.09 632.572C204.152 629.511 209.117 629.511 212.179 632.572L292.068 712.461C305.509 725.902 306.08 717.789 306.184 709.554C306.322 697.514 306.322 685.093 306.218 672.585C306.132 661.255 306.357 650.131 305.44 640.045C304.35 628.213 299.558 623.022 288.244 611.639C288.205 611.603 288.171 611.563 288.141 611.519C288.123 611.501 288.106 611.467 288.071 611.449C288.02 611.397 287.968 611.327 287.899 611.327C287.835 611.265 287.772 611.202 287.708 611.138C283.747 607.245 279.837 603.267 275.911 599.34L201.056 524.52C201.021 524.45 200.969 524.382 200.935 524.382C197.994 521.441 197.752 516.217 200.364 513.31C204.291 508.917 209.429 510.663 212.802 514.071L293.937 595.205L294.248 595.517C294.317 595.586 294.369 595.637 294.421 595.707L294.611 595.898C304.731 605.274 306.254 596.763 306.219 590.188C306.167 579.324 306.116 568.444 306.116 557.579C306.116 548.999 306.289 540.418 306.219 531.855C306.185 527.634 306.098 523.948 305.891 520.679C305.199 509.781 302.188 502.187 295.061 493.814C288.54 486.185 280.789 478.953 273.714 471.878L201.073 399.237C198.028 396.176 198.028 391.211 201.09 388.149C204.152 385.087 209.117 385.087 212.179 388.149L287.397 463.367C305.042 480.995 306.236 468.228 306.236 460.927C306.201 447.936 306.201 434.891 306.218 421.866C306.236 409.998 306.53 398.113 306.115 386.315C305.544 370.572 302.465 366.109 286.289 349.935L203.269 266.914L203.252 266.879ZM223.976 265.391L297.378 338.793C304.419 345.85 309.142 351.352 313.034 355.763C321.701 365.572 327.168 364.361 342.115 364.361H756.348C769.997 364.049 786.242 366.333 778.51 354.898C775.949 351.092 771.555 347.338 765.674 341.889L683.242 265.391H223.976ZM780.273 477.983C780.516 477.724 780.757 477.551 780.983 477.274H781.018C783.578 474.471 785.204 470.527 785.204 466.185V395.413C785.187 391.106 783.578 387.179 781.001 384.359C778.578 381.711 775.291 380.068 771.745 380.068H335.367C331.821 380.068 328.551 381.711 326.13 384.341C323.552 387.144 321.943 391.088 321.943 395.447V466.773C322.099 470.873 323.674 474.574 326.112 477.239H326.147C328.569 479.869 331.838 481.512 335.368 481.529H771.763C774.963 481.529 777.938 480.163 780.274 477.949L780.273 477.983ZM321.943 538.548V590.516C322.047 595.222 323.708 599.46 326.303 602.488C328.708 605.29 331.925 607.02 335.367 607.038H771.762C775.205 607.02 778.44 605.29 780.826 602.488C783.508 599.356 785.187 594.945 785.204 590.032V514.312C785.187 509.435 783.508 505.023 780.826 501.891C778.44 499.106 775.222 497.359 771.762 497.342H335.367C331.925 497.359 328.707 499.106 326.32 501.891C323.621 505.023 321.942 509.435 321.942 514.347V538.636V538.548H321.943ZM321.943 657.655V716.94C321.943 721.957 323.639 726.472 326.337 729.673C328.741 732.526 331.977 734.309 335.385 734.309H771.762C775.188 734.291 778.388 732.511 780.793 729.673C783.509 726.472 785.188 721.939 785.205 716.905V640.027C785.188 634.993 783.509 630.495 780.793 627.295C778.441 624.492 775.274 622.711 771.902 622.658H335.367C331.959 622.676 328.741 624.441 326.354 627.278C323.639 630.494 321.943 635.01 321.943 640.062V640.097L321.943 657.655Z" fill="#0D0D0D"/>
<path d="M780.482 360.019C783.889 368.945 784.996 375.536 785.17 394.876C785.048 390.76 783.474 387.04 781.001 384.342C778.579 381.695 775.273 380.035 771.728 380.035H335.351C331.822 380.052 328.534 381.678 326.113 384.325C324.141 386.47 322.739 389.308 322.203 392.473C321.943 381.592 322.169 365.001 318.795 360.988C323.086 363.877 327.324 364.344 333.586 364.379C334.157 364.343 334.763 364.343 335.351 364.343H756.331C767.386 364.084 780.136 365.537 780.482 360.019ZM785.188 396.642C785.188 396.953 785.205 397.299 785.205 397.628H785.188V396.642Z" fill="#F2A7D7"/>
<path d="M360.66 400.586V469.784H376.714V400.586H360.66ZM391.107 400.586V469.784H407.161V400.586H391.107Z" fill="url(#paint5_linear_64_1372)"/>
<path d="M360.66 655.787V724.984H376.714V655.786L360.66 655.787ZM391.107 655.787V724.984H407.161V655.786L391.107 655.787Z" fill="url(#paint6_linear_64_1372)"/>
<path d="M360.66 526.803V596.554H376.714V526.803H360.66ZM391.107 526.803V596.554H407.161V526.803H391.107Z" fill="url(#paint7_linear_64_1372)"/>
<path d="M476.513 250.808L570.242 344.519L570.224 344.536C593.301 367.613 593.318 367.648 593.318 450.252V749.203H533.065V448.263C533.065 380.104 533.065 380.104 521.284 368.323L403.752 250.808H476.531H476.513Z" fill="#0D0D0D"/>
<path d="M479.834 265.166C509.4 294.731 538.515 323.863 564.687 350.037C585.482 370.814 585.482 370.814 585.482 450.218V733.772H540.918V448.228C540.918 376.834 540.918 376.834 526.837 362.735L429.268 265.166H479.834Z" fill="url(#paint8_linear_64_1372)"/>
<path d="M585.448 477.084V554.273C585.448 563.425 579.394 570.933 571.973 570.933H554.431C547.01 570.933 540.955 563.443 540.955 554.273V477.084H585.448Z" fill="#191919"/>
<path d="M543.739 482.983V515.973H582.645V482.983H543.739ZM531.957 521.855V477.101C531.957 474.16 534.898 471.219 537.839 471.219H588.527C591.468 471.219 594.409 474.16 594.409 477.101V521.855C594.409 524.795 591.468 527.753 588.527 527.753H537.839C534.898 527.753 531.957 524.795 531.957 521.855ZM531.213 458.574H531.179C529.648 458.572 528.132 458.874 526.719 459.462C525.305 460.05 524.022 460.912 522.944 461.999C520.834 464.109 519.501 467.015 519.501 470.215V524.658C519.501 527.875 520.834 530.799 522.944 532.91C525.119 535.088 528.066 536.319 531.144 536.334H597.574C600.791 536.334 603.715 535.019 605.826 532.91C607.92 530.8 609.251 527.876 609.251 524.692V470.268C609.252 468.735 608.951 467.216 608.363 465.8C607.775 464.384 606.913 463.098 605.826 462.016C603.715 459.906 600.809 458.591 597.609 458.574H584.876C582.644 458.574 579.703 456.273 579.167 454.11L579.149 454.041V454.006C578.907 453.124 578.631 452.328 578.301 451.636C577.941 450.867 577.513 450.131 577.022 449.439C574.514 445.962 570.413 443.661 565.812 443.661H560.483H560.501M531.196 446.81H537.389C540.002 441.153 544.62 436.586 550.312 434.061C551.725 433.439 553.189 432.941 554.688 432.573C556.577 432.131 558.509 431.899 560.449 431.881H565.811C574.34 431.881 581.934 436.154 586.57 442.641C587.479 443.908 588.267 445.257 588.924 446.672C588.941 446.706 588.975 446.793 588.993 446.793H597.608C604.026 446.81 609.856 449.456 614.095 453.678C618.367 457.933 621.014 463.798 621.014 470.25V524.674C620.996 531.092 618.367 536.94 614.147 541.161C609.89 545.434 604.009 548.08 597.574 548.098H531.144C524.726 548.08 518.879 545.434 514.657 541.214C510.401 536.957 507.738 531.075 507.721 524.641V470.199C507.738 463.781 510.384 457.95 514.605 453.712C518.861 449.439 524.743 446.793 531.178 446.775L531.196 446.81ZM560.467 443.661C559.429 443.679 558.39 443.782 557.405 444.042C556.575 444.232 555.779 444.474 555.052 444.821C551.195 446.533 548.236 449.958 547.198 454.11C546.663 456.272 543.721 458.574 541.489 458.574H531.231" fill="#0D0D0D"/>
<path d="M537.858 477.084V521.855H588.545V477.084H537.858ZM531.214 452.675C521.545 452.675 513.621 460.581 513.621 470.268V524.606C513.621 534.276 521.545 542.198 531.214 542.198H597.541C607.228 542.198 615.134 534.276 615.134 524.606V470.268C615.134 460.58 607.228 452.675 597.541 452.675H584.877C582.733 444.129 574.981 437.745 565.813 437.745H560.571C551.402 437.745 543.635 444.129 541.489 452.675H531.214Z" fill="url(#paint9_linear_64_1372)"/>
<path d="M556.609 496.563V451.567C556.609 446.221 558.408 441.845 560.605 441.845H565.795C567.991 441.845 569.791 446.221 569.791 451.567V496.563H556.609Z" fill="#191919"/>
</g>
<defs>
<linearGradient id="paint0_linear_64_1372" x1="502.162" y1="-6406.14" x2="502.162" y2="-6377.61" gradientUnits="userSpaceOnUse">
<stop stop-color="#613050"/>
<stop offset="0.502" stop-color="#673455"/>
<stop offset="1" stop-color="#C979AC"/>
</linearGradient>
<linearGradient id="paint1_linear_64_1372" x1="553.574" y1="-6345.08" x2="553.574" y2="-6373.73" gradientUnits="userSpaceOnUse">
<stop stop-color="#613050"/>
<stop offset="0.251" stop-color="#663354"/>
<stop offset="1" stop-color="#C979AC"/>
</linearGradient>
<linearGradient id="paint2_linear_64_1372" x1="278.544" y1="468.261" x2="-361.15" y2="1320.56" gradientUnits="userSpaceOnUse">
<stop stop-color="#CBC9DD"/>
<stop offset="0.659" stop-color="#F9F9FB"/>
<stop offset="1" stop-color="white"/>
</linearGradient>
<linearGradient id="paint3_linear_64_1372" x1="553.574" y1="-6274.34" x2="553.574" y2="-6305.86" gradientUnits="userSpaceOnUse">
<stop stop-color="#1E3918"/>
<stop offset="0.251" stop-color="#1E3918"/>
<stop offset="1" stop-color="#3BBB4E"/>
</linearGradient>
<linearGradient id="paint4_linear_64_1372" x1="553.574" y1="-6309.69" x2="553.574" y2="-6340.65" gradientUnits="userSpaceOnUse">
<stop stop-color="#1E2576"/>
<stop offset="0.251" stop-color="#202A7C"/>
<stop offset="1" stop-color="#3C5EB5"/>
</linearGradient>
<linearGradient id="paint5_linear_64_1372" x1="383.217" y1="397.2" x2="387.217" y2="616.317" gradientUnits="userSpaceOnUse">
<stop stop-color="#F1F060"/>
<stop offset="1"/>
</linearGradient>
<linearGradient id="paint6_linear_64_1372" x1="383.149" y1="648.662" x2="387.151" y2="867.891" gradientUnits="userSpaceOnUse">
<stop stop-color="#F1F060"/>
<stop offset="1"/>
</linearGradient>
<linearGradient id="paint7_linear_64_1372" x1="383.073" y1="515.804" x2="387.075" y2="735.03" gradientUnits="userSpaceOnUse">
<stop stop-color="#F1F060"/>
<stop offset="1"/>
</linearGradient>
<linearGradient id="paint8_linear_64_1372" x1="2095.45" y1="-5058.58" x2="2057.19" y2="-4924.67" gradientUnits="userSpaceOnUse">
<stop stop-color="#974810"/>
<stop offset="0.318" stop-color="#974810"/>
<stop offset="1" stop-color="#663333"/>
</linearGradient>
<linearGradient id="paint9_linear_64_1372" x1="564.378" y1="-6354.17" x2="564.378" y2="-6331.18" gradientUnits="userSpaceOnUse">
<stop stop-color="#666666"/>
<stop offset="0.122" stop-color="#B5B1B4"/>
<stop offset="0.188" stop-color="#E5E5E5"/>
<stop offset="0.302" stop-color="white"/>
<stop offset="0.4" stop-color="#C8CECB"/>
<stop offset="0.62" stop-color="#9F9A9E"/>
<stop offset="0.89" stop-color="#666467"/>
<stop offset="1" stop-color="#666666"/>
</linearGradient>
<clipPath id="clip0_64_1372">
<rect width="603.573" height="500" fill="white" transform="translate(198.414 250)"/>
</clipPath>
</defs>
</svg>
