<svg width="1001" height="1000" viewBox="0 0 1001 1000" fill="none" xmlns="http://www.w3.org/2000/svg">
<path d="M208.567 387.024L259.954 613H279.434C288.007 613 296.321 610.059 302.986 604.668C309.652 599.277 314.267 591.762 316.059 583.379L348.915 429.194C349.105 428.256 349.613 427.413 350.353 426.806C351.092 426.199 352.019 425.866 352.976 425.862C354.921 425.862 356.624 427.273 357.037 429.194L389.917 583.379C391.71 591.762 396.324 599.277 402.99 604.668C409.655 610.059 417.969 613 426.542 613H446.119L497.506 387.024H483.765C468.687 387.024 455.579 397.482 452.248 412.195L421.605 547.046L394.708 421.169C393.476 415.474 391.094 410.09 387.708 405.348C384.323 400.606 380.004 396.605 375.018 393.59C370.032 390.576 364.482 388.611 358.71 387.817C352.938 387.022 347.064 387.415 341.448 388.97C325.908 393.25 314.381 406.383 311.025 422.166L284.42 546.851L253.777 412.195C252.152 405.049 248.148 398.668 242.422 394.095C236.696 389.522 229.587 387.029 222.259 387.024H208.567ZM548.844 387.024C542.714 387.024 536.836 389.458 532.499 393.79C528.162 398.122 525.723 403.998 525.716 410.128V613H541.159C547.287 612.994 553.162 610.558 557.497 606.228C561.833 601.897 564.274 596.024 564.287 589.897V387L548.844 387.024ZM592.084 387.024L668.885 500.353L592.522 613H624.745C633.694 613 642.06 608.598 647.07 601.181L689.775 538.194C690.044 537.807 690.402 537.492 690.819 537.274C691.236 537.056 691.7 536.942 692.17 536.942C692.641 536.942 693.105 537.056 693.522 537.274C693.939 537.492 694.297 537.807 694.566 538.194L737.222 601.181C742.232 608.598 750.598 613 759.547 613H791.795L715.432 500.353L792.232 387.024H759.985C751.035 387.024 742.67 391.426 737.66 398.844L694.566 462.487C694.297 462.874 693.939 463.189 693.522 463.407C693.105 463.625 692.641 463.739 692.17 463.739C691.7 463.739 691.236 463.625 690.819 463.407C690.402 463.189 690.044 462.874 689.775 462.487L646.657 398.844C644.185 395.199 640.857 392.216 636.965 390.156C633.073 388.095 628.735 387.02 624.332 387.024H592.084Z" fill="black"/>
</svg>
