<svg width="1000" height="1000" viewBox="0 0 1000 1000" fill="none" xmlns="http://www.w3.org/2000/svg">
<g clip-path="url(#clip0_57_293)">
<path d="M304.083 412.702L406.401 692.994C334.879 658.266 285.534 584.879 285.534 500C285.506 469.92 291.826 440.172 304.083 412.702ZM644.758 489.163C644.758 462.651 635.232 444.304 627.067 430.04C616.23 412.349 606.048 397.379 606.048 379.738C606.048 360.03 620.968 341.683 642.036 341.683C642.994 341.683 643.901 341.784 644.808 341.835C605.322 305.548 553.627 285.449 500 285.534C425.05 285.534 359.173 323.992 320.817 382.208C325.857 382.359 330.595 382.46 334.627 382.46C357.056 382.46 391.784 379.738 391.784 379.738C403.327 379.032 404.687 396.018 393.145 397.429C393.145 397.429 381.502 398.79 368.599 399.446L446.673 631.754L493.599 490.978L460.232 399.446C448.639 398.74 437.702 397.379 437.702 397.379C426.159 396.724 427.52 379.032 439.063 379.738C439.063 379.738 474.496 382.46 495.565 382.46C517.994 382.46 552.722 379.738 552.722 379.738C564.315 379.032 565.625 396.018 554.083 397.379C554.083 397.379 542.44 398.74 529.536 399.446L607.056 629.99L628.427 558.518C637.702 528.831 644.758 507.51 644.758 489.163ZM503.78 518.75L439.415 705.746C482.624 718.445 528.73 717.246 571.22 702.319C570.606 701.387 570.099 700.389 569.708 699.345L503.78 518.75ZM688.155 397.077C689.154 404.393 689.643 411.769 689.617 419.153C689.617 440.927 685.534 465.373 673.286 495.968L607.813 685.383C671.573 648.185 714.466 579.133 714.466 500C714.52 464.022 705.469 428.615 688.155 397.077ZM750 500C750 637.853 637.853 750 500 750C362.147 750 250 637.853 250 500C250 362.147 362.147 250 500 250C637.853 250 750 362.147 750 500ZM738.508 500C738.508 368.448 631.502 261.442 500 261.442C368.498 261.442 261.442 368.448 261.442 500C261.442 631.552 368.448 738.558 500 738.558C631.552 738.558 738.508 631.552 738.508 500Z" fill="#21759B"/>
</g>
<defs>
<clipPath id="clip0_57_293">
<rect width="500" height="500" fill="white" transform="translate(250 250)"/>
</clipPath>
</defs>
</svg>
