<svg width="1000" height="1000" viewBox="0 0 1000 1000" fill="none" xmlns="http://www.w3.org/2000/svg">
<g clip-path="url(#clip0_119_279)">
<path d="M327.067 575.367L300.91 584.923L299.505 662.737L390.051 629.659C358.995 619.227 336.316 600.873 327.067 575.367Z" fill="#FDBD39"/>
<path d="M340.755 493.066L250 526.221L300.91 584.924L327.067 575.368C317.844 549.937 323.532 521.189 340.755 493.066Z" fill="#F69833"/>
<path d="M493.48 380.783C377.912 423.002 303.406 510.12 327.067 575.367L745.577 422.48C721.916 357.232 609.049 338.564 493.48 380.783Z" fill="#FECF33"/>
<path d="M579.163 617.064C694.732 574.846 769.378 488.114 745.577 422.48L327.067 575.368C350.867 641.001 463.595 659.283 579.163 617.064Z" fill="#EE6723"/>
<path d="M745.577 422.48L327.067 575.368C335.262 597.966 366.513 609.1 410.361 609.1C453.11 609.1 507.832 598.526 564.883 577.684C680.452 535.466 761.762 467.111 745.577 422.48Z" fill="#F69833"/>
<path d="M662.283 388.75C619.534 388.75 564.812 399.324 507.761 420.166C392.193 462.385 310.882 530.739 327.067 575.37L745.577 422.483C737.382 399.884 706.131 388.75 662.283 388.75Z" fill="#FDBD39"/>
<path d="M639.17 666.859H639.167C626.854 666.859 608.688 655.736 585.173 633.801C557.355 607.849 525.488 569.839 495.443 526.772C465.399 483.706 440.711 440.651 425.928 405.536C409.821 367.27 407.525 343.741 419.102 335.603C421.64 333.821 424.7 332.918 428.196 332.918C437.614 332.918 455.963 339.929 489.894 373.333L490.636 374.063L490.536 375.102C490.304 377.501 490.09 379.923 489.9 382.299L489.521 387.018L486.193 383.664C449.633 346.832 433.539 342.855 428.316 342.855C426.827 342.855 425.641 343.158 424.79 343.756C419.769 347.285 419.445 364.567 435.061 401.662C449.58 436.151 473.909 478.555 503.565 521.063C533.223 563.574 564.601 601.023 591.923 626.511C621.385 653.994 634.661 656.962 639.002 656.962C640.501 656.962 641.719 656.64 642.622 656.005C647.92 652.282 647.926 633.768 630.512 593.842L629.713 592.009L631.463 591.051C633.213 590.093 634.905 589.149 636.493 588.247L638.589 587.056L639.556 589.27C651.903 617.561 663.445 653.518 648.311 664.157C645.759 665.95 642.684 666.859 639.17 666.859ZM639.167 662.495H639.17L639.168 664.676L639.167 662.495Z" fill="#EE6723"/>
<path d="M581.969 615.873L581.793 618.047C578.871 654.2 571.178 697.664 551.12 699.423C550.717 699.459 550.298 699.477 549.88 699.477C536.253 699.477 523.362 679.954 511.564 641.449C500.401 605.021 491.739 556.111 487.173 503.728C482.607 451.356 482.676 401.68 487.366 363.85C492.478 322.627 502.211 301.099 516.293 299.863C516.709 299.824 517.14 299.805 517.567 299.805C527.452 299.805 542.349 310.998 557.6 363.132L547.642 365.054C542.55 347.632 537.001 333.463 531.492 323.726C526.395 314.72 521.44 309.76 517.538 309.76C517.41 309.76 517.281 309.765 517.154 309.776C511.05 310.312 502.161 325.118 497.206 365.079C492.599 402.23 492.543 451.162 497.049 502.862C501.558 554.569 510.078 602.748 521.041 638.524C525.95 654.547 531.335 667.752 536.613 676.712C541.481 684.975 546.191 689.526 549.877 689.526C550.003 689.526 550.13 689.52 550.255 689.509C556.095 688.998 567.101 673.591 571.733 619.385L581.969 615.873Z" fill="#EE6723"/>
</g>
<defs>
<clipPath id="clip0_119_279">
<rect width="500" height="400.391" fill="white" transform="translate(250 299.805)"/>
</clipPath>
</defs>
</svg>
