<svg width="18" height="23" viewBox="0 0 18 23" fill="none" xmlns="http://www.w3.org/2000/svg">
<path d="M8.7627 0.401062C11.44 0.401062 13.5702 1.14119 15.1523 2.62177C16.7345 4.08221 17.5254 6.18226 17.5254 8.92059V14.0319C17.5254 16.7701 16.7344 18.8793 15.1523 20.36C13.5702 21.8205 11.4402 22.5515 8.7627 22.5515C6.08538 22.5514 3.95611 21.8204 2.37402 20.36C0.791889 18.8793 1.17547e-05 16.7702 0 14.0319V8.92059C0 6.18226 0.791877 4.08221 2.37402 2.62177C3.95607 1.14137 6.0856 0.401115 8.7627 0.401062ZM8.7627 3.29852C6.0095 3.29853 3.77734 5.53067 3.77734 8.28387C3.77737 10.0457 4.69257 11.5926 6.07227 12.4792V19.654H11.4531V12.4792C12.8328 11.5926 13.748 10.0457 13.748 8.28387C13.748 5.53067 11.5159 3.29852 8.7627 3.29852Z" fill="#CC0A82"/>
</svg>
