<svg width="256" height="23" viewBox="0 0 256 23" fill="none" xmlns="http://www.w3.org/2000/svg">
<path d="M238.676 21.7241V0.425964H242.692V8.88436H243.24L250.146 0.425964H255.288L246.404 10.9229L255.593 21.7241H250.298L243.24 13.0831H242.692V21.7241H238.676Z" fill="white"/>
<path d="M219.452 21.7241V0.425964H228.701C230.04 0.425964 231.206 0.65923 232.2 1.12576C233.194 1.59229 233.965 2.25152 234.512 3.10344C235.06 3.95537 235.334 4.95942 235.334 6.11561V6.48072C235.334 7.7586 235.03 8.79308 234.421 9.58416C233.813 10.3752 233.062 10.9533 232.17 11.3184V11.8661C232.981 11.9067 233.61 12.1906 234.056 12.718C234.502 13.2251 234.725 13.9046 234.725 14.7566V21.7241H230.709V15.3347C230.709 14.8478 230.577 14.4523 230.314 14.148C230.07 13.8438 229.654 13.6917 229.066 13.6917H223.468V21.7241H219.452ZM223.468 10.0405H228.275C229.229 10.0405 229.969 9.787 230.496 9.2799C231.044 8.75252 231.318 8.06286 231.318 7.21094V6.90668C231.318 6.05475 231.054 5.37524 230.527 4.86814C229.999 4.34076 229.249 4.07707 228.275 4.07707H223.468V10.0405Z" fill="white"/>
<path d="M173.437 21.7241L170.638 0.425964H174.623L176.692 18.9249H177.24L179.918 0.425964H186.855L189.532 18.9249H190.08L192.149 0.425964H196.135L193.335 21.7241H186.398L183.66 2.79918H183.112L180.374 21.7241H173.437Z" fill="white"/>
<path d="M158.775 21.7241V4.07707H152.568V0.425964H168.998V4.07707H162.791V21.7241H158.775Z" fill="white"/>
<path d="M136.999 21.7241V0.425964H150.69V4.07707H141.015V9.15819H149.838V12.8093H141.015V18.073H150.873V21.7241H136.999Z" fill="white"/>
<path d="M116.616 21.7241V0.425964H124.253L128.482 18.9858H129.03V0.425964H132.985V21.7241H125.348L121.119 3.1643H120.571V21.7241H116.616Z" fill="white"/>
<path d="M96.8534 21.7241V4.07707H90.6465V0.425964H107.077V4.07707H100.87V21.7241H96.8534Z" fill="white"/>
<path d="M75.0773 21.7241V0.425964H88.7689V4.07707H79.0935V9.15819H87.917V12.8093H79.0935V18.073H88.9515V21.7241H75.0773Z" fill="white"/>
<path d="M55.8531 21.7241V0.425964H65.1026C66.4413 0.425964 67.6076 0.65923 68.6015 1.12576C69.5954 1.59229 70.3662 2.25152 70.9139 3.10344C71.4616 3.95537 71.7354 4.95942 71.7354 6.11561V6.48072C71.7354 7.7586 71.4311 8.79308 70.8226 9.58416C70.2141 10.3752 69.4636 10.9533 68.5711 11.3184V11.8661C69.3825 11.9067 70.0113 12.1906 70.4575 12.718C70.9038 13.2251 71.1269 13.9046 71.1269 14.7566V21.7241H67.1107V15.3347C67.1107 14.8478 66.9788 14.4523 66.7151 14.148C66.4717 13.8438 66.0559 13.6917 65.4677 13.6917H59.8693V21.7241H55.8531ZM59.8693 10.0405H64.6766C65.6299 10.0405 66.3703 9.787 66.8977 9.2799C67.4454 8.75252 67.7192 8.06286 67.7192 7.21094V6.90668C67.7192 6.05475 67.4555 5.37524 66.9281 4.86814C66.4007 4.34076 65.6502 4.07707 64.6766 4.07707H59.8693V10.0405Z" fill="white"/>
<path d="M44.3657 22.15C41.7288 22.15 39.6395 21.4198 38.0979 19.9594C36.5564 18.4787 35.7856 16.3691 35.7856 13.6308V8.51925C35.7856 5.78092 36.5564 3.68153 38.0979 2.22109C39.6395 0.740364 41.7288 0 44.3657 0C46.9823 0 49.0005 0.72008 50.4204 2.16024C51.8606 3.58011 52.5807 5.53751 52.5807 8.03243V8.21499H48.6253V7.91073C48.6253 6.65313 48.2703 5.61865 47.5604 4.80729C46.8707 3.99593 45.8058 3.59026 44.3657 3.59026C42.9458 3.59026 41.8302 4.02636 41.0188 4.89857C40.2075 5.77078 39.8018 6.95739 39.8018 8.4584V13.6917C39.8018 15.1724 40.2075 16.359 41.0188 17.2515C41.8302 18.1237 42.9458 18.5598 44.3657 18.5598C45.8058 18.5598 46.8707 18.1541 47.5604 17.3428C48.2703 16.5111 48.6253 15.4766 48.6253 14.2393V13.6917H52.5807V14.1176C52.5807 16.6125 51.8606 18.5801 50.4204 20.0202C49.0005 21.4401 46.9823 22.15 44.3657 22.15Z" fill="white"/>
<path d="M19.4253 21.7241V0.425964H33.1169V4.07707H23.4415V9.15819H32.265V12.8093H23.4415V18.073H33.2995V21.7241H19.4253Z" fill="white"/>
<path d="M8.36712 22.15C6.72412 22.15 5.27382 21.8559 4.01622 21.2677C2.75861 20.6795 1.77484 19.8377 1.06491 18.7423C0.354969 17.647 0 16.3286 0 14.787V13.9351H3.95536V14.787C3.95536 16.0649 4.3509 17.0284 5.14197 17.6774C5.93305 18.3062 7.0081 18.6206 8.36712 18.6206C9.74642 18.6206 10.7708 18.3468 11.4401 17.7991C12.1298 17.2515 12.4746 16.5517 12.4746 15.6998C12.4746 15.1115 12.3022 14.6349 11.9574 14.2697C11.6328 13.9046 11.146 13.6105 10.4969 13.3874C9.86813 13.144 9.09734 12.9209 8.18456 12.718L7.48477 12.5659C6.02433 12.2413 4.76672 11.8357 3.71196 11.3489C2.67748 10.8418 1.87626 10.1825 1.30831 9.37117C0.760647 8.55982 0.486814 7.50505 0.486814 6.20688C0.486814 4.90871 0.791073 3.80324 1.39959 2.89046C2.02839 1.9574 2.9006 1.24746 4.01622 0.760649C5.15212 0.25355 6.48071 0 8.00201 0C9.5233 0 10.8722 0.263692 12.0486 0.791074C13.2454 1.29817 14.1785 2.06896 14.8478 3.10344C15.5375 4.11764 15.8823 5.39552 15.8823 6.9371V7.84988H11.9269V6.9371C11.9269 6.12575 11.7647 5.47666 11.4401 4.98985C11.1359 4.48275 10.6896 4.11764 10.1014 3.89451C9.51316 3.65111 8.81336 3.5294 8.00201 3.5294C6.78497 3.5294 5.88234 3.76267 5.2941 4.2292C4.72615 4.67544 4.44218 5.29411 4.44218 6.08518C4.44218 6.61256 4.57402 7.05881 4.83772 7.42392C5.12169 7.78903 5.53751 8.09329 6.08518 8.33669C6.63284 8.5801 7.33264 8.79308 8.18456 8.97564L8.88436 9.12777C10.4057 9.45231 11.7241 9.86813 12.8397 10.3752C13.9756 10.8823 14.858 11.5517 15.4868 12.3833C16.1156 13.215 16.43 14.2799 16.43 15.5781C16.43 16.8762 16.0953 18.0223 15.4259 19.0162C14.7768 19.9898 13.8438 20.7606 12.6267 21.3285C11.43 21.8762 10.0101 22.15 8.36712 22.15Z" fill="white"/>
<path d="M207.166 0C209.843 0 211.974 0.740125 213.556 2.2207C215.138 3.68115 215.929 5.7812 215.929 8.51953V13.6309C215.929 16.3691 215.138 18.4783 213.556 19.959C211.974 21.4194 209.843 22.1504 207.166 22.1504C204.489 22.1503 202.359 21.4193 200.777 19.959C199.195 18.4783 198.403 16.3692 198.403 13.6309V8.51953C198.403 5.7812 199.195 3.68115 200.777 2.2207C202.359 0.740307 204.489 5.29106e-05 207.166 0ZM207.166 2.89746C204.413 2.89747 202.181 5.12961 202.181 7.88281C202.181 9.64465 203.096 11.1915 204.476 12.0781V19.2529H209.856V12.0781C211.236 11.1915 212.151 9.64466 212.151 7.88281C212.151 5.12961 209.919 2.89746 207.166 2.89746Z" fill="#CC0A82"/>
</svg>
